<svg width="102" height="36" viewBox="0 0 102 36" fill="none" xmlns="http://www.w3.org/2000/svg">
    <g clip-path="url(#a)" fill="#fff">
        <path fill-rule="evenodd" clip-rule="evenodd" d="M98.581 9.427a6.057 6.057 0 0 0-.75-7.636 6.028 6.028 0 0 0-9.844 1.962 6.058 6.058 0 0 0 1.308 6.59 6.033 6.033 0 0 0 6.578 1.312 6.04 6.04 0 0 0 2.708-2.228zm-12.183-1.24a4.845 4.845 0 0 1-2.983 4.471 4.82 4.82 0 0 1-5.263-1.053 4.843 4.843 0 0 1 .74-7.446 4.823 4.823 0 0 1 2.686-.811 4.823 4.823 0 0 1 4.461 2.987c.243.587.368 1.216.368 1.852h-.009zm-11.341 3.655a3.877 3.877 0 0 0 .652-2.152h.008a3.87 3.87 0 0 0-2.384-3.577 3.854 3.854 0 0 0-1.479-.294 3.859 3.859 0 0 0-3.575 2.384 3.877 3.877 0 0 0 .832 4.221 3.858 3.858 0 0 0 5.946-.582zm1.954 3.866a6.644 6.644 0 0 0-1.941 4.698v2.827a1.928 1.928 0 0 1 .556-.724l.011-.01c.133-.104.28-.192.436-.259l.032-.013.041-.017.027-.01c.203-.073.416-.112.632-.115h.048a1.923 1.923 0 0 1 1.368.596l1.57 1.572 5.136-5.14c.243-.244.546-.416.874-.502l.037-.098a8.334 8.334 0 0 1 1.172-2.085 6.624 6.624 0 0 0-9.998-.72zm-2.474 2.914c.074-.074.155-.14.242-.197.14-.493.333-.97.574-1.422a4.732 4.732 0 0 0-6.84-.149 4.755 4.755 0 0 0-1.387 3.358v.929a1.547 1.547 0 0 1 2.047.337l1.256 1.256 4.108-4.112zm26.535 1.019a7.75 7.75 0 0 0-4.484-5.265 7.71 7.71 0 0 0-9.242 2.549 7.716 7.716 0 0 0-.906 1.611l-.007.018a7.755 7.755 0 0 0-.579 3.203v2.945l1.028-1.028a2.405 2.405 0 0 1 2.495.51l1.96 1.965 6.422-6.422c.574-.575 1.141-.575 1.709-.575.53 0 1.155.107 1.604.489zm-26.57 3.766v.465l-2.98 2.979-.01.01a1.545 1.545 0 0 1-2.177 0l-2.34-2.344a1.55 1.55 0 0 1-.108-2.291 1.543 1.543 0 0 1 2.286.11l1.256 1.257 4.108-4.112.028-.027a7.18 7.18 0 0 0-.063.952v3.001zm26.663-2.34a2.411 2.411 0 0 0-3.406 0l-6.421 6.422-1.96-1.963a2.403 2.403 0 0 0-4.109 1.7 2.415 2.415 0 0 0 .703 1.704l3.668 3.667a2.407 2.407 0 0 0 2.621.523c.292-.121.557-.299.78-.523l.018-.02 8.106-8.107a2.414 2.414 0 0 0 0-3.406v.002zm-15.878.708v3.495l-4.12 4.123c-.013.005-.013.016-.013.016a1.926 1.926 0 0 1-2.723 0l-2.935-2.93a1.928 1.928 0 0 1-.026-2.757 1.929 1.929 0 0 1 1.383-.563 1.92 1.92 0 0 1 1.368.596l1.57 1.57 5.136-5.14c.155-.155.335-.281.53-.374a8.342 8.342 0 0 0-.17 1.964zM1.89 3.375c-.966 0-1.463.624-1.463 1.824v9.594h1.617V5.168l2.513 8.384c.303 1.044.663 1.371 1.547 1.371.752 0 1.12-.358 1.415-1.37l2.503-8.385v9.625h1.61V5.199c0-1.246-.513-1.824-1.618-1.824-.922 0-1.245.265-1.585 1.373l-2.43 8.242-2.383-8.242c-.312-1.123-.639-1.373-1.726-1.373zm12.24 10.61c.56.586 1.199.808 2.255.808h4.34v-1.646h-4.789a1.288 1.288 0 0 1-.576-.296.987.987 0 0 1-.325-.703V9.953h5.721V8.315h-5.721V6.397c0-.7.435-1.213.994-1.213h4.725V3.547H16.68c-1.213 0-1.68.093-2.223.468-.716.498-1.043 1.246-1.043 2.338v5.417c0 1.076.157 1.628.716 2.214zm8.405-8.786c0-1.2.498-1.824 1.461-1.824 1.09 0 1.417.25 1.726 1.373l2.376 8.242 2.43-8.242c.341-1.108.664-1.373 1.588-1.373 1.104 0 1.615.578 1.615 1.824v9.594h-1.615V5.168l-2.491 8.384c-.294 1.013-.663 1.371-1.415 1.371-.883 0-1.244-.327-1.546-1.37L24.15 5.168v9.625h-1.616V5.199zm18.261 7.948H37.14V10.02h3.686c.312.01.61.132.84.344a.74.74 0 0 1 .296.538v1.06a1.215 1.215 0 0 1-1.167 1.185zm.047-4.77H37.14V5.184h3.686c.639 0 1.136.436 1.136 1.043v1.076c0 .653-.435 1.074-1.12 1.074zm.358-4.83h-5.675v11.228H41c1.46 0 2.581-1.25 2.581-2.899v-1.06a2.04 2.04 0 0 0-.608-1.449 1.827 1.827 0 0 0-.373-.25 1.748 1.748 0 0 0 .84-1.138c.081-.23.124-.472.126-.716V5.915a2.722 2.722 0 0 0-.663-1.635 2.046 2.046 0 0 0-1.704-.733zm7.008 11.246c-1.057 0-1.695-.222-2.255-.809-.559-.586-.716-1.138-.716-2.214V6.353c0-1.092.328-1.84 1.044-2.338.543-.375 1.01-.468 2.223-.468h4.075v1.637h-4.72c-.562 0-.997.514-.997 1.213v1.918h5.724v1.637h-5.724v2.197a.983.983 0 0 0 .327.702c.163.146.36.248.574.296h4.792v1.646h-4.347zM60.305 3.55h-5.662v11.246h1.618v-9.6h3.779c.623 0 1.01.405 1.01 1.043v1.246c0 .499-.464.904-1.04.904H57.55c-.73 0-1.213.452-1.213 1.154a.718.718 0 0 0 .204.56l4.044 4.693h2.161l-4.122-4.784 1.897.016c1.136 0 2.13-1.043 2.13-2.182V5.898c0-.716-.108-1.043-.528-1.51a2.302 2.302 0 0 0-1.82-.838zM19.94 29.08c-1.368 0-2.458-1.215-2.458-2.694v-5.758c0-1.652 1.044-2.775 2.566-2.775h4.734v1.637h-4.508c-.763 0-1.167.405-1.167 1.169v5.594a1.169 1.169 0 0 0 .712 1.11c.144.06.299.09.455.09h4.477v1.637l-4.811-.01zm8.106-11.236h-1.615v11.237h1.615v-4.768h4.869v4.768h1.633V17.844h-1.633v4.832h-4.869v-4.832zm11.231 11.237c-1.059 0-1.695-.235-2.254-.81-.56-.576-.716-1.139-.716-2.215V20.65c0-1.092.327-1.838 1.043-2.338.544-.373 1.01-.468 2.223-.468h4.075v1.637h-4.722c-.56 0-.995.513-.995 1.216v1.917h5.724v1.637h-5.724v2.197a.978.978 0 0 0 .327.7c.162.147.36.25.575.296h4.789v1.637h-4.345zm6.148-2.695c0 1.479 1.088 2.695 2.458 2.695l4.804.009v-1.637h-4.48a1.158 1.158 0 0 1-1.086-.743 1.167 1.167 0 0 1-.078-.457v-5.594c0-.764.404-1.17 1.165-1.17h4.51v-1.636h-4.727c-1.525 0-2.566 1.123-2.566 2.775v5.758zm11.342-1.85c-.442-.544-.685-.98-.685-1.262.025-.283.14-.55.327-.764.03-.044.172-.221.442-.529l3.36-4.146h2.099l-4.45 5.47 4.682 5.782-2.1-.015-3.675-4.535zm-2.396-6.7h1.618v11.236H54.37V17.836zM14.006 32.828h1.01v.812h-1.01a.423.423 0 0 1-.298-.118.4.4 0 0 1 0-.572.406.406 0 0 1 .298-.123zm-.343 1.192c.108.046.225.07.343.07h1.242c.06-.001.118-.025.161-.066a.221.221 0 0 0 .067-.163v-1.695a.8.8 0 0 0-.07-.327.785.785 0 0 0-.191-.27.862.862 0 0 0-.277-.183.854.854 0 0 0-.34-.07h-1.08a.225.225 0 0 0-.166.066.205.205 0 0 0 0 .31.223.223 0 0 0 .166.066h1.08a.394.394 0 0 1 .294.122.388.388 0 0 1 .124.286v.216h-1.01a.888.888 0 0 0-.343.066.89.89 0 0 0-.464.457.803.803 0 0 0-.07.33.807.807 0 0 0 .26.6.89.89 0 0 0 .274.185z"/>
        <path d="M19.23 31.885a.385.385 0 0 1 .12.282v1.695a.218.218 0 0 0 .066.163.238.238 0 0 0 .327 0 .22.22 0 0 0 .067-.163v-1.695a.799.799 0 0 0-.07-.327.763.763 0 0 0-.183-.27.876.876 0 0 0-.281-.183.834.834 0 0 0-.335-.07h-.609a.907.907 0 0 0-.617.253.83.83 0 0 0-.252.597v1.695c0 .06.024.119.066.163a.237.237 0 0 0 .327 0 .221.221 0 0 0 .066-.163v-1.695a.379.379 0 0 1 .12-.282.402.402 0 0 1 .29-.127h.608a.407.407 0 0 1 .29.127z"/>
        <path fill-rule="evenodd" clip-rule="evenodd" d="M22.092 31.88a.39.39 0 0 1 .124.287v.33H20.74v-.33a.374.374 0 0 1 .12-.286.392.392 0 0 1 .298-.122h.641a.393.393 0 0 1 .294.122zm-1.283 2.14a.91.91 0 0 0 .348.07h1.245c.062 0 .121-.024.166-.065a.221.221 0 0 0 .066-.163.231.231 0 0 0-.066-.156.246.246 0 0 0-.166-.065h-1.245a.412.412 0 0 1-.389-.249.378.378 0 0 1-.03-.155v-.298h1.71a.233.233 0 0 0 .157-.058h.005a.208.208 0 0 0 .066-.159v-.555a.8.8 0 0 0-.07-.327.785.785 0 0 0-.191-.27.862.862 0 0 0-.277-.183.855.855 0 0 0-.34-.07h-.641a.91.91 0 0 0-.348.07.908.908 0 0 0-.463.453.795.795 0 0 0-.067.327v1.07a.835.835 0 0 0 .067.335h.004a.891.891 0 0 0 .46.45z"/>
        <path d="M23.618 34.026a.8.8 0 0 0 .34.07h.608a.77.77 0 0 0 .335-.07.801.801 0 0 0 .464-.45.83.83 0 0 0 .07-.33v-1.703a.202.202 0 0 0-.07-.155.22.22 0 0 0-.158-.066.242.242 0 0 0-.166.066.2.2 0 0 0-.066.155v1.699a.392.392 0 0 1-.12.286.394.394 0 0 1-.29.118h-.608a.397.397 0 0 1-.29-.118.402.402 0 0 1-.12-.286v-1.7a.197.197 0 0 0-.066-.154.237.237 0 0 0-.377.07.198.198 0 0 0-.016.085v1.699a.83.83 0 0 0 .252.6c.08.077.175.14.278.184zM26.476 31.885a.414.414 0 0 1 .29-.127h.612a.217.217 0 0 0 .157-.065.203.203 0 0 0 .07-.155.202.202 0 0 0-.07-.155.216.216 0 0 0-.157-.066h-.612a.886.886 0 0 0-.803.523.868.868 0 0 0-.067.327v1.695a.233.233 0 0 0 .463 0v-1.695a.38.38 0 0 1 .117-.282z"/>
        <path fill-rule="evenodd" clip-rule="evenodd" d="M29.76 31.88a.39.39 0 0 1 .123.287v1.07a.383.383 0 0 1-.124.286.404.404 0 0 1-.294.118h-.69a.428.428 0 0 1-.303-.118.397.397 0 0 1-.116-.286v-1.07a.385.385 0 0 1 .116-.286.41.41 0 0 1 .302-.122h.691a.393.393 0 0 1 .294.122zm.33 1.957a.842.842 0 0 0 .182-.27.768.768 0 0 0 .07-.33v-1.07a.74.74 0 0 0-.07-.327.878.878 0 0 0-.468-.453.854.854 0 0 0-.339-.07h-.703a.883.883 0 0 0-.803.523.867.867 0 0 0-.066.327v1.07c0 .115.024.229.07.335a.947.947 0 0 0 .19.265c.079.078.172.14.274.184.11.046.228.07.347.07h.7c.115 0 .23-.024.335-.07a.878.878 0 0 0 .281-.184z"/>
        <path d="M31.345 34.021c.11.046.228.07.347.07h1.188c.06-.001.118-.025.161-.066a.223.223 0 0 0-.002-.32.23.23 0 0 0-.16-.064h-1.187a.427.427 0 0 1-.302-.118.395.395 0 0 1-.116-.286v-1.07a.386.386 0 0 1 .116-.286.411.411 0 0 1 .302-.122h1.188a.224.224 0 0 0 .228-.221.2.2 0 0 0-.07-.155.203.203 0 0 0-.158-.066h-1.2a.886.886 0 0 0-.803.523.868.868 0 0 0-.066.327v1.07c0 .115.024.229.07.335a.947.947 0 0 0 .19.265.89.89 0 0 0 .273.184z"/>
        <path fill-rule="evenodd" clip-rule="evenodd" d="M35.363 31.88a.39.39 0 0 1 .124.287v1.07a.383.383 0 0 1-.124.286.402.402 0 0 1-.294.118h-.691a.428.428 0 0 1-.302-.118.395.395 0 0 1-.116-.286v-1.07a.385.385 0 0 1 .116-.286.409.409 0 0 1 .302-.122h.69a.392.392 0 0 1 .295.122zm.33 1.957a.838.838 0 0 0 .183-.27.766.766 0 0 0 .07-.33v-1.07a.74.74 0 0 0-.07-.327.878.878 0 0 0-.468-.453.855.855 0 0 0-.34-.07h-.703a.87.87 0 0 0-.612.254.785.785 0 0 0-.19.27.87.87 0 0 0-.067.326v1.07c0 .115.024.229.07.335a.949.949 0 0 0 .19.265c.08.078.172.14.274.184.11.046.228.07.348.07h.7c.115 0 .229-.024.334-.07a.877.877 0 0 0 .282-.184z"/>
        <path d="M39.446 31.885a.384.384 0 0 1 .12.282v1.695a.218.218 0 0 0 .066.163.237.237 0 0 0 .327 0 .235.235 0 0 0 .066-.163v-1.695a.8.8 0 0 0-.07-.327.765.765 0 0 0-.182-.27.878.878 0 0 0-.282-.183.834.834 0 0 0-.335-.07h-.294a.837.837 0 0 0-.377.086h-.004a.998.998 0 0 0-.26.192.915.915 0 0 0-.642-.278h-.294a.884.884 0 0 0-.803.523.87.87 0 0 0-.066.327v1.695a.22.22 0 0 0 .07.163.218.218 0 0 0 .158.065.236.236 0 0 0 .218-.14.218.218 0 0 0 .018-.088v-1.695a.379.379 0 0 1 .115-.282.416.416 0 0 1 .29-.127h.294a.405.405 0 0 1 .29.127.376.376 0 0 1 .124.282v1.695a.214.214 0 0 0 .062.159.246.246 0 0 0 .254.05.206.206 0 0 0 .073-.05.22.22 0 0 0 .066-.163v-1.691a.38.38 0 0 1 .12-.282.418.418 0 0 1 .294-.127h.294a.405.405 0 0 1 .29.127zM42.544 34.02c.108.046.225.07.343.07h1.188c.06 0 .118-.024.161-.065a.22.22 0 0 0 .067-.163.21.21 0 0 0-.066-.156.238.238 0 0 0-.162-.065h-1.188a.422.422 0 0 1-.298-.118.4.4 0 0 1-.12-.286v-1.07a.393.393 0 0 1 .12-.286.406.406 0 0 1 .298-.122h1.188a.223.223 0 0 0 .161-.066.202.202 0 0 0 .067-.155.197.197 0 0 0-.066-.155.22.22 0 0 0-.162-.066H42.88a.87.87 0 0 0-.34.07h-.004a.888.888 0 0 0-.459.453.794.794 0 0 0-.066.327v1.07a.84.84 0 0 0 .256.6c.081.077.175.139.278.184z"/>
        <path fill-rule="evenodd" clip-rule="evenodd" d="M46.564 31.88a.385.385 0 0 1 .12.287v1.07a.378.378 0 0 1-.12.286h-.004a.398.398 0 0 1-.294.118h-.691a.424.424 0 0 1-.298-.118.4.4 0 0 1-.12-.286v-1.07a.39.39 0 0 1 .12-.286.407.407 0 0 1 .298-.123h.691a.39.39 0 0 1 .294.123h.004zm.331 1.957a.914.914 0 0 0 .182-.27.833.833 0 0 0 .07-.33v-1.07a.8.8 0 0 0-.07-.327.9.9 0 0 0-.811-.523h-.7a.87.87 0 0 0-.339.07h-.004a.89.89 0 0 0-.46.453.795.795 0 0 0-.066.327v1.07a.771.771 0 0 0 .07.335.907.907 0 0 0 .807.519h.704a.925.925 0 0 0 .617-.253z"/>
        <path d="M50.64 31.885a.372.372 0 0 1 .12.282v1.695c0 .06.025.119.067.163a.237.237 0 0 0 .327 0 .218.218 0 0 0 .066-.163v-1.695a.835.835 0 0 0-.252-.596.906.906 0 0 0-.613-.254h-.298c-.13 0-.26.03-.376.086a.936.936 0 0 0-.261.192.971.971 0 0 0-.27-.192.809.809 0 0 0-.372-.086h-.294a.873.873 0 0 0-.339.07h-.004a.891.891 0 0 0-.46.453.796.796 0 0 0-.066.327v1.695a.218.218 0 0 0 .067.163.237.237 0 0 0 .326 0 .22.22 0 0 0 .067-.163v-1.695a.38.38 0 0 1 .12-.282.399.399 0 0 1 .29-.127h.293a.418.418 0 0 1 .29.127.375.375 0 0 1 .124.282v1.695a.21.21 0 0 0 .058.159h.004a.242.242 0 0 0 .253.049.22.22 0 0 0 .074-.05.235.235 0 0 0 .066-.163v-1.69a.379.379 0 0 1 .116-.282.429.429 0 0 1 .298-.127h.29a.405.405 0 0 1 .29.127z"/>
        <path fill-rule="evenodd" clip-rule="evenodd" d="M53.5 31.885a.376.376 0 0 1 .124.286v1.066a.387.387 0 0 1-.124.29.395.395 0 0 1-.294.114h-.641a.42.42 0 0 1-.298-.114.405.405 0 0 1-.12-.29V32.17a.384.384 0 0 1 .12-.286.402.402 0 0 1 .298-.118h.641a.386.386 0 0 1 .294.118zm-1.279-.498a.891.891 0 0 0-.273.184.784.784 0 0 0-.19.27.805.805 0 0 0-.07.33v2.858a.223.223 0 0 0 .068.157.23.23 0 0 0 .16.064c.06 0 .12-.023.165-.065a.211.211 0 0 0 .066-.156v-1.045a.83.83 0 0 0 .41.106h.65a.837.837 0 0 0 .339-.07.876.876 0 0 0 .281-.183.945.945 0 0 0 .19-.265.839.839 0 0 0 .071-.335V32.17a.8.8 0 0 0-.07-.327.879.879 0 0 0-.187-.27.861.861 0 0 0-.613-.257h-.653a.888.888 0 0 0-.344.07zM55.378 32.828h1.005v.813h-1.005a.428.428 0 0 1-.303-.118.397.397 0 0 1-.115-.286.374.374 0 0 1 .115-.286.41.41 0 0 1 .303-.123zm-.348 1.193c.11.046.228.07.348.07h1.237c.06-.001.118-.025.162-.066a.22.22 0 0 0 .066-.163v-1.695a.74.74 0 0 0-.07-.327.878.878 0 0 0-.468-.453.855.855 0 0 0-.34-.07h-1.08a.225.225 0 0 0-.165.066.201.201 0 0 0-.067.155.197.197 0 0 0 .067.155.225.225 0 0 0 .165.066h1.08a.394.394 0 0 1 .294.122.39.39 0 0 1 .124.286v.216h-1.005a.892.892 0 0 0-.348.066.89.89 0 0 0-.464.457.803.803 0 0 0-.07.33c0 .116.024.23.07.336.095.2.26.359.464.449z"/>
        <path d="M59.078 31.885a.384.384 0 0 1 .12.282v1.695a.218.218 0 0 0 .066.163.237.237 0 0 0 .327 0 .235.235 0 0 0 .066-.163v-1.695a.801.801 0 0 0-.07-.327.76.76 0 0 0-.182-.27.878.878 0 0 0-.282-.183.832.832 0 0 0-.335-.07h-.608a.87.87 0 0 0-.34.07.863.863 0 0 0-.463.453.797.797 0 0 0-.066.327v1.695a.218.218 0 0 0 .066.163.237.237 0 0 0 .327 0 .217.217 0 0 0 .066-.163v-1.695a.38.38 0 0 1 .12-.282.402.402 0 0 1 .29-.127h.608a.407.407 0 0 1 .29.127zM61.99 34.683a.406.406 0 0 1-.294.118h-1.254a.237.237 0 0 0-.162.065.216.216 0 0 0-.066.164.207.207 0 0 0 .066.155.237.237 0 0 0 .162.065h1.254a.851.851 0 0 0 .339-.07.873.873 0 0 0 .467-.453.74.74 0 0 0 .071-.33v-2.859a.216.216 0 0 0-.066-.155.217.217 0 0 0-.161-.065.232.232 0 0 0-.166.065.23.23 0 0 0-.066.155v1.699a.393.393 0 0 1-.124.29.393.393 0 0 1-.294.114h-.691a.424.424 0 0 1-.303-.114.392.392 0 0 1-.115-.29v-1.699a.22.22 0 0 0-.07-.155.215.215 0 0 0-.166-.065.204.204 0 0 0-.158.065.21.21 0 0 0-.07.155v1.699c0 .115.024.23.07.335a.94.94 0 0 0 .464.45c.11.045.228.069.348.068h.7a.778.778 0 0 0 .243-.036c.057-.02.112-.042.166-.07v.413a.37.37 0 0 1-.124.286z"/>
    </g>
    <defs>
        <clipPath id="a">
            <path fill="#fff" d="M0 0h102v35.308H0z"/>
        </clipPath>
    </defs>
</svg>
