<?xml version="1.0" encoding="UTF-8"?>
<svg xmlns="http://www.w3.org/2000/svg" xmlns:xlink="http://www.w3.org/1999/xlink" width="200pt" height="55pt" viewBox="0 0 200 55" version="1.1">
<g id="surface1">
<path style=" stroke:none;fill-rule:nonzero;fill:rgb(5.490196%,11.764706%,22.745098%);fill-opacity:1;" d="M 36.359375 34.867188 C 35.824219 35.507812 34.875 35.59375 34.238281 35.054688 C 33.605469 34.519531 33.519531 33.566406 34.054688 32.925781 L 42.464844 22.851562 C 44.367188 20.566406 44.074219 17.167969 41.804688 15.253906 C 40.792969 14.40625 39.570312 13.992188 38.355469 13.992188 L 34.191406 13.992188 C 33.839844 13.992188 33.496094 13.867188 33.226562 13.640625 C 32.148438 12.734375 32.785156 10.96875 34.191406 10.96875 L 38.355469 10.96875 C 40.253906 10.96875 42.167969 11.609375 43.738281 12.941406 C 47.28125 15.925781 47.742188 21.230469 44.765625 24.796875 Z M 36.359375 34.867188 "/>
<path style=" stroke:none;fill-rule:nonzero;fill:rgb(60.392157%,10.588235%,10.588235%);fill-opacity:1;" d="M 37.777344 21.386719 C 38.414062 21.925781 38.5 22.878906 37.960938 23.519531 C 37.425781 24.160156 36.480469 24.242188 35.84375 23.707031 L 25.820312 15.253906 C 23.550781 13.339844 20.167969 13.636719 18.265625 15.917969 C 17.421875 16.929688 17.007812 18.160156 17.007812 19.386719 L 17.007812 23.570312 C 17.007812 23.925781 16.886719 24.265625 16.660156 24.539062 C 15.757812 25.621094 14 24.980469 14 23.570312 L 14 19.386719 C 14 17.476562 14.640625 15.550781 15.964844 13.972656 C 18.929688 10.414062 24.210938 9.945312 27.757812 12.9375 Z M 37.777344 21.386719 "/>
<path style=" stroke:none;fill-rule:nonzero;fill:rgb(5.490196%,11.764706%,22.745098%);fill-opacity:1;" d="M 24.40625 19.964844 C 24.941406 19.324219 25.890625 19.242188 26.527344 19.777344 C 27.164062 20.316406 27.246094 21.265625 26.710938 21.90625 L 18.304688 31.984375 C 16.398438 34.265625 16.695312 37.667969 18.96875 39.578125 C 19.972656 40.425781 21.195312 40.84375 22.410156 40.84375 L 26.578125 40.84375 C 26.929688 40.84375 27.269531 40.964844 27.542969 41.195312 C 28.621094 42.101562 27.980469 43.867188 26.578125 43.867188 L 22.410156 43.867188 C 20.515625 43.867188 18.597656 43.222656 17.027344 41.890625 C 13.492188 38.90625 13.027344 33.601562 16 30.035156 Z M 24.40625 19.964844 "/>
<path style=" stroke:none;fill-rule:nonzero;fill:rgb(60.392157%,10.588235%,10.588235%);fill-opacity:1;" d="M 22.949219 33.40625 C 22.3125 32.867188 22.230469 31.914062 22.765625 31.273438 C 23.300781 30.636719 24.25 30.550781 24.882812 31.085938 L 34.90625 39.539062 C 37.175781 41.453125 40.558594 41.160156 42.460938 38.875 C 43.304688 37.863281 43.71875 36.632812 43.71875 35.410156 L 43.71875 31.226562 C 43.71875 30.871094 43.839844 30.527344 44.066406 30.253906 C 44.972656 29.167969 46.726562 29.8125 46.726562 31.226562 L 46.726562 35.410156 C 46.726562 37.316406 46.085938 39.246094 44.765625 40.824219 C 41.792969 44.378906 36.515625 44.847656 32.972656 41.851562 Z M 22.949219 33.40625 "/>
<path style=" stroke:none;fill-rule:nonzero;fill:rgb(5.490196%,11.764706%,22.745098%);fill-opacity:1;" d="M 66.09375 19.191406 C 66.78125 19.191406 67.429688 19.328125 68.035156 19.601562 C 68.65625 19.871094 69.195312 20.238281 69.652344 20.695312 C 70.109375 21.160156 70.46875 21.703125 70.71875 22.328125 C 70.988281 22.9375 71.125 23.585938 71.125 24.273438 L 71.125 34.152344 C 71.125 34.550781 70.980469 34.90625 70.699219 35.1875 C 70.425781 35.464844 70.085938 35.613281 69.695312 35.613281 C 69.300781 35.613281 68.949219 35.472656 68.667969 35.1875 C 68.390625 34.90625 68.246094 34.550781 68.246094 34.152344 L 68.246094 24.273438 C 68.246094 23.667969 68.039062 23.160156 67.621094 22.742188 L 67.621094 22.738281 L 67.617188 22.734375 C 67.195312 22.296875 66.691406 22.074219 66.089844 22.054688 L 62.667969 22.054688 C 62.066406 22.074219 61.5625 22.296875 61.144531 22.734375 L 61.140625 22.742188 C 60.71875 23.160156 60.511719 23.667969 60.511719 24.273438 L 60.511719 34.152344 C 60.511719 34.550781 60.375 34.90625 60.089844 35.1875 C 59.808594 35.472656 59.457031 35.613281 59.058594 35.613281 C 58.671875 35.613281 58.332031 35.464844 58.058594 35.1875 C 57.777344 34.90625 57.636719 34.550781 57.636719 34.152344 L 57.636719 24.273438 C 57.636719 23.589844 57.761719 22.941406 58.011719 22.332031 L 58.015625 22.328125 L 58.015625 22.324219 C 58.28125 21.703125 58.644531 21.160156 59.105469 20.695312 C 59.5625 20.238281 60.089844 19.875 60.691406 19.601562 L 60.695312 19.601562 C 61.320312 19.328125 61.976562 19.191406 62.664062 19.191406 Z M 66.09375 19.191406 "/>
<path style=" stroke:none;fill-rule:evenodd;fill:rgb(5.490196%,11.764706%,22.745098%);fill-opacity:1;" d="M 76.699219 35.199219 L 76.703125 35.203125 L 76.707031 35.203125 C 77.328125 35.476562 78 35.613281 78.703125 35.613281 L 85.707031 35.613281 C 86.109375 35.613281 86.457031 35.472656 86.742188 35.1875 C 87.019531 34.90625 87.160156 34.550781 87.160156 34.152344 C 87.160156 33.765625 87.015625 33.421875 86.742188 33.144531 C 86.457031 32.863281 86.109375 32.722656 85.707031 32.722656 L 78.703125 32.722656 C 78.082031 32.722656 77.558594 32.503906 77.117188 32.066406 C 76.699219 31.625 76.496094 31.109375 76.496094 30.5 L 76.496094 28.921875 L 85.972656 28.921875 C 86.347656 28.921875 86.683594 28.789062 86.960938 28.539062 L 86.972656 28.527344 C 87.253906 28.246094 87.394531 27.890625 87.394531 27.488281 L 87.394531 24.273438 C 87.394531 23.585938 87.257812 22.933594 86.988281 22.324219 C 86.71875 21.703125 86.355469 21.160156 85.894531 20.695312 C 85.4375 20.238281 84.898438 19.871094 84.277344 19.601562 C 83.667969 19.328125 83.015625 19.191406 82.308594 19.191406 L 78.703125 19.191406 C 78 19.191406 77.328125 19.328125 76.707031 19.601562 L 76.699219 19.601562 C 76.101562 19.875 75.570312 20.238281 75.113281 20.695312 C 74.65625 21.160156 74.292969 21.703125 74.027344 22.324219 C 73.753906 22.933594 73.617188 23.585938 73.617188 24.273438 L 73.617188 30.5 C 73.617188 31.207031 73.753906 31.878906 74.023438 32.507812 L 74.027344 32.511719 C 74.292969 33.117188 74.660156 33.648438 75.113281 34.105469 C 75.570312 34.566406 76.101562 34.933594 76.699219 35.199219 Z M 83.859375 22.707031 L 83.863281 22.710938 C 84.304688 23.152344 84.519531 23.667969 84.519531 24.273438 L 84.519531 26.058594 L 76.496094 26.058594 L 76.496094 24.273438 C 76.496094 23.667969 76.699219 23.148438 77.117188 22.710938 C 77.5625 22.269531 78.082031 22.054688 78.703125 22.054688 L 82.308594 22.054688 C 82.933594 22.054688 83.441406 22.269531 83.859375 22.707031 Z M 83.859375 22.707031 "/>
<path style=" stroke:none;fill-rule:nonzero;fill:rgb(5.490196%,11.764706%,22.745098%);fill-opacity:1;" d="M 92.652344 35.230469 L 92.65625 35.230469 C 93.285156 35.507812 93.9375 35.644531 94.628906 35.644531 L 98.058594 35.644531 C 98.742188 35.644531 99.390625 35.507812 100 35.230469 C 100.617188 34.964844 101.15625 34.597656 101.617188 34.136719 L 101.621094 34.136719 L 101.621094 34.128906 C 102.078125 33.652344 102.429688 33.109375 102.679688 32.503906 C 102.953125 31.878906 103.085938 31.21875 103.085938 30.527344 L 103.085938 20.652344 C 103.085938 20.253906 102.945312 19.90625 102.65625 19.636719 C 102.382812 19.367188 102.042969 19.21875 101.660156 19.21875 C 101.265625 19.21875 100.917969 19.363281 100.636719 19.636719 C 100.347656 19.90625 100.210938 20.253906 100.210938 20.652344 L 100.210938 30.527344 C 100.210938 31.136719 100.003906 31.652344 99.578125 32.09375 C 99.160156 32.515625 98.660156 32.730469 98.054688 32.75 L 94.632812 32.75 C 94.023438 32.730469 93.519531 32.515625 93.101562 32.09375 C 92.683594 31.652344 92.476562 31.136719 92.476562 30.527344 L 92.476562 20.652344 C 92.476562 20.253906 92.335938 19.90625 92.046875 19.636719 C 91.765625 19.363281 91.421875 19.21875 91.023438 19.21875 C 90.640625 19.21875 90.300781 19.367188 90.023438 19.636719 C 89.738281 19.90625 89.597656 20.253906 89.597656 20.652344 L 89.597656 30.527344 C 89.597656 31.214844 89.722656 31.875 89.972656 32.5 L 89.976562 32.503906 L 89.980469 32.511719 C 90.25 33.113281 90.605469 33.652344 91.0625 34.128906 L 91.066406 34.136719 C 91.523438 34.59375 92.054688 34.960938 92.652344 35.230469 Z M 92.652344 35.230469 "/>
<path style=" stroke:none;fill-rule:nonzero;fill:rgb(5.490196%,11.764706%,22.745098%);fill-opacity:1;" d="M 109.082031 22.742188 L 109.085938 22.734375 C 109.503906 22.296875 110.011719 22.074219 110.613281 22.054688 L 114.039062 22.054688 C 114.421875 22.054688 114.765625 21.90625 115.039062 21.628906 C 115.316406 21.355469 115.460938 21.011719 115.460938 20.625 C 115.460938 20.222656 115.324219 19.875 115.03125 19.609375 C 114.761719 19.339844 114.421875 19.191406 114.039062 19.191406 L 110.609375 19.191406 C 109.921875 19.191406 109.261719 19.328125 108.636719 19.601562 C 108.035156 19.875 107.503906 20.238281 107.050781 20.695312 C 106.589844 21.160156 106.226562 21.703125 105.957031 22.324219 L 105.957031 22.332031 C 105.707031 22.941406 105.582031 23.589844 105.582031 24.273438 L 105.582031 34.152344 C 105.582031 34.550781 105.722656 34.90625 106.003906 35.1875 C 106.28125 35.464844 106.617188 35.613281 107.003906 35.613281 C 107.402344 35.613281 107.753906 35.472656 108.035156 35.1875 C 108.316406 34.90625 108.457031 34.550781 108.457031 34.152344 L 108.457031 24.273438 C 108.457031 23.667969 108.664062 23.160156 109.082031 22.742188 Z M 109.082031 22.742188 "/>
<path style=" stroke:none;fill-rule:evenodd;fill:rgb(5.490196%,11.764706%,22.745098%);fill-opacity:1;" d="M 129.5625 34.105469 L 129.566406 34.101562 C 130.023438 33.621094 130.375 33.082031 130.625 32.476562 C 130.894531 31.847656 131.03125 31.1875 131.03125 30.5 L 131.03125 24.273438 C 131.03125 23.585938 130.894531 22.933594 130.621094 22.324219 C 130.355469 21.703125 129.992188 21.160156 129.535156 20.695312 C 129.074219 20.238281 128.535156 19.871094 127.914062 19.601562 C 127.308594 19.328125 126.648438 19.191406 125.945312 19.191406 L 121.992188 19.191406 C 121.304688 19.191406 120.644531 19.328125 120.019531 19.601562 C 119.417969 19.875 118.886719 20.238281 118.433594 20.695312 C 117.972656 21.160156 117.609375 21.703125 117.339844 22.324219 L 117.339844 22.332031 C 117.089844 22.941406 116.960938 23.589844 116.960938 24.273438 L 116.960938 30.5 C 116.960938 31.207031 117.097656 31.878906 117.367188 32.507812 L 117.367188 32.511719 L 117.371094 32.511719 C 117.640625 33.117188 118.003906 33.648438 118.460938 34.105469 C 118.914062 34.566406 119.449219 34.933594 120.046875 35.199219 L 120.050781 35.203125 C 120.675781 35.476562 121.34375 35.613281 122.046875 35.613281 L 126.003906 35.613281 C 126.6875 35.613281 127.335938 35.476562 127.945312 35.203125 C 128.5625 34.933594 129.105469 34.570312 129.5625 34.105469 Z M 127.496094 22.707031 L 127.5 22.710938 C 127.941406 23.152344 128.15625 23.667969 128.15625 24.273438 L 128.15625 30.5 C 128.15625 31.105469 127.941406 31.621094 127.5 32.066406 L 127.496094 32.070312 C 127.078125 32.503906 126.570312 32.722656 125.945312 32.722656 L 122.046875 32.722656 C 121.425781 32.722656 120.90625 32.503906 120.464844 32.066406 C 120.046875 31.625 119.839844 31.109375 119.839844 30.5 L 119.839844 24.273438 C 119.839844 23.667969 120.046875 23.148438 120.464844 22.710938 C 120.90625 22.269531 121.425781 22.054688 122.046875 22.054688 L 125.945312 22.054688 C 126.570312 22.054688 127.078125 22.269531 127.496094 22.707031 Z M 127.496094 22.707031 "/>
<path style=" stroke:none;fill-rule:nonzero;fill:rgb(5.490196%,11.764706%,22.745098%);fill-opacity:1;" d="M 136.625 35.199219 L 136.625 35.203125 L 136.628906 35.203125 C 137.253906 35.476562 137.921875 35.613281 138.628906 35.613281 L 145.3125 35.613281 C 145.695312 35.613281 146.039062 35.464844 146.316406 35.1875 C 146.59375 34.90625 146.738281 34.550781 146.738281 34.152344 C 146.738281 33.765625 146.589844 33.421875 146.316406 33.144531 C 146.039062 32.867188 145.695312 32.722656 145.3125 32.722656 L 138.628906 32.722656 C 138.003906 32.722656 137.480469 32.503906 137.042969 32.066406 C 136.621094 31.625 136.417969 31.109375 136.417969 30.5 L 136.417969 24.273438 C 136.417969 23.667969 136.621094 23.148438 137.042969 22.710938 C 137.480469 22.269531 138.003906 22.054688 138.628906 22.054688 L 145.3125 22.054688 C 145.695312 22.054688 146.039062 21.90625 146.316406 21.628906 C 146.589844 21.355469 146.738281 21.011719 146.738281 20.625 C 146.738281 20.222656 146.597656 19.875 146.308594 19.609375 C 146.035156 19.339844 145.695312 19.191406 145.3125 19.191406 L 138.566406 19.191406 C 137.882812 19.191406 137.222656 19.328125 136.597656 19.601562 L 136.59375 19.601562 C 135.996094 19.875 135.464844 20.238281 135.007812 20.695312 C 134.546875 21.160156 134.1875 21.703125 133.917969 22.324219 L 133.917969 22.332031 C 133.664062 22.941406 133.542969 23.589844 133.542969 24.273438 L 133.542969 30.5 C 133.542969 31.207031 133.675781 31.878906 133.949219 32.507812 L 133.949219 32.511719 C 134.21875 33.117188 134.582031 33.648438 135.039062 34.105469 C 135.496094 34.566406 136.023438 34.933594 136.625 35.199219 Z M 136.625 35.199219 "/>
<path style=" stroke:none;fill-rule:evenodd;fill:rgb(5.490196%,11.764706%,22.745098%);fill-opacity:1;" d="M 161.410156 34.105469 L 161.417969 34.101562 C 161.871094 33.621094 162.222656 33.082031 162.472656 32.476562 C 162.746094 31.847656 162.878906 31.1875 162.878906 30.5 L 162.878906 24.273438 C 162.878906 23.585938 162.746094 22.933594 162.46875 22.324219 C 162.203125 21.703125 161.839844 21.160156 161.382812 20.695312 C 160.921875 20.238281 160.382812 19.871094 159.765625 19.601562 C 159.15625 19.328125 158.496094 19.191406 157.792969 19.191406 L 153.839844 19.191406 C 153.15625 19.191406 152.496094 19.328125 151.871094 19.601562 L 151.867188 19.601562 C 151.265625 19.875 150.738281 20.238281 150.28125 20.695312 C 149.824219 21.160156 149.457031 21.703125 149.1875 22.324219 L 149.1875 22.332031 C 148.9375 22.941406 148.8125 23.589844 148.8125 24.273438 L 148.8125 30.5 C 148.8125 31.207031 148.949219 31.878906 149.21875 32.507812 L 149.21875 32.511719 L 149.222656 32.511719 C 149.488281 33.117188 149.851562 33.648438 150.308594 34.105469 C 150.765625 34.566406 151.296875 34.933594 151.894531 35.199219 L 151.898438 35.203125 L 151.902344 35.203125 C 152.523438 35.476562 153.191406 35.613281 153.898438 35.613281 L 157.851562 35.613281 C 158.535156 35.613281 159.1875 35.476562 159.796875 35.203125 C 160.414062 34.933594 160.953125 34.570312 161.410156 34.105469 Z M 159.34375 22.707031 L 159.347656 22.710938 C 159.789062 23.152344 160.003906 23.667969 160.003906 24.273438 L 160.003906 30.5 C 160.003906 31.105469 159.789062 31.621094 159.347656 32.066406 L 159.34375 32.070312 C 158.925781 32.503906 158.421875 32.722656 157.792969 32.722656 L 153.898438 32.722656 C 153.273438 32.722656 152.753906 32.503906 152.3125 32.066406 C 151.894531 31.625 151.6875 31.109375 151.6875 30.5 L 151.6875 24.273438 C 151.6875 23.667969 151.894531 23.152344 152.3125 22.710938 C 152.753906 22.269531 153.273438 22.054688 153.898438 22.054688 L 157.792969 22.054688 C 158.421875 22.054688 158.925781 22.269531 159.34375 22.707031 Z M 159.34375 22.707031 "/>
<path style=" stroke:none;fill-rule:evenodd;fill:rgb(5.490196%,11.764706%,22.745098%);fill-opacity:1;" d="M 180.933594 22.054688 C 181.539062 22.074219 182.042969 22.296875 182.460938 22.734375 L 182.464844 22.738281 L 182.464844 22.742188 C 182.886719 23.160156 183.09375 23.667969 183.09375 24.273438 L 183.09375 34.152344 C 183.09375 34.550781 183.234375 34.90625 183.511719 35.1875 C 183.796875 35.472656 184.144531 35.613281 184.542969 35.613281 C 184.929688 35.613281 185.269531 35.464844 185.546875 35.1875 C 185.828125 34.90625 185.96875 34.550781 185.96875 34.152344 L 185.96875 24.273438 C 185.96875 23.585938 185.832031 22.9375 185.5625 22.328125 C 185.3125 21.703125 184.960938 21.160156 184.5 20.695312 C 184.042969 20.238281 183.503906 19.871094 182.882812 19.601562 C 182.273438 19.328125 181.625 19.191406 180.941406 19.191406 L 179.28125 19.191406 C 178.496094 19.191406 177.765625 19.359375 177.09375 19.695312 L 177.089844 19.699219 C 176.5625 19.972656 176.09375 20.324219 175.679688 20.746094 C 175.261719 20.320312 174.78125 19.96875 174.238281 19.699219 C 173.582031 19.359375 172.863281 19.191406 172.078125 19.191406 L 170.417969 19.191406 C 169.734375 19.191406 169.074219 19.328125 168.449219 19.601562 L 168.445312 19.601562 C 167.84375 19.875 167.316406 20.238281 166.855469 20.695312 C 166.398438 21.160156 166.039062 21.703125 165.769531 22.324219 L 165.765625 22.328125 L 165.765625 22.332031 C 165.511719 22.941406 165.390625 23.589844 165.390625 24.273438 L 165.390625 34.152344 C 165.390625 34.550781 165.53125 34.90625 165.8125 35.1875 C 166.089844 35.464844 166.429688 35.613281 166.8125 35.613281 C 167.214844 35.613281 167.5625 35.472656 167.84375 35.1875 C 168.125 34.90625 168.265625 34.550781 168.265625 34.152344 L 168.265625 24.273438 C 168.265625 23.667969 168.472656 23.160156 168.890625 22.742188 L 168.894531 22.734375 C 169.3125 22.296875 169.816406 22.074219 170.421875 22.054688 L 172.070312 22.054688 C 172.675781 22.074219 173.175781 22.296875 173.597656 22.734375 L 173.605469 22.746094 C 174.042969 23.167969 174.253906 23.667969 174.253906 24.273438 L 174.253906 34.152344 C 174.253906 34.542969 174.378906 34.890625 174.636719 35.175781 L 174.648438 35.1875 C 174.929688 35.472656 175.277344 35.613281 175.679688 35.613281 C 176.074219 35.613281 176.421875 35.472656 176.6875 35.183594 C 176.964844 34.898438 177.101562 34.550781 177.101562 34.152344 L 177.101562 24.273438 C 177.101562 23.667969 177.308594 23.160156 177.726562 22.742188 C 178.167969 22.296875 178.683594 22.074219 179.289062 22.054688 Z M 180.933594 22.054688 "/>
<path style=" stroke:none;fill-rule:nonzero;fill:rgb(60.392157%,10.588235%,10.588235%);fill-opacity:1;" d="M 66.09375 19.191406 C 66.78125 19.191406 67.429688 19.328125 68.035156 19.601562 C 68.65625 19.871094 69.195312 20.238281 69.652344 20.695312 C 70.109375 21.160156 70.46875 21.703125 70.71875 22.328125 C 70.988281 22.9375 71.125 23.585938 71.125 24.273438 L 71.125 34.152344 C 71.125 34.550781 70.980469 34.90625 70.699219 35.1875 C 70.425781 35.464844 70.085938 35.613281 69.695312 35.613281 C 69.300781 35.613281 68.949219 35.472656 68.667969 35.1875 C 68.390625 34.90625 68.246094 34.550781 68.246094 34.152344 L 68.246094 24.273438 C 68.246094 23.667969 68.039062 23.160156 67.621094 22.742188 L 67.621094 22.738281 L 67.617188 22.734375 C 67.195312 22.296875 66.691406 22.074219 66.089844 22.054688 L 62.667969 22.054688 C 62.066406 22.074219 61.5625 22.296875 61.144531 22.734375 L 61.140625 22.742188 C 60.71875 23.160156 60.511719 23.667969 60.511719 24.273438 L 60.511719 34.152344 C 60.511719 34.550781 60.375 34.90625 60.089844 35.1875 C 59.808594 35.472656 59.457031 35.613281 59.058594 35.613281 C 58.671875 35.613281 58.332031 35.464844 58.058594 35.1875 C 57.777344 34.90625 57.636719 34.550781 57.636719 34.152344 L 57.636719 24.273438 C 57.636719 23.589844 57.761719 22.941406 58.011719 22.332031 L 58.015625 22.328125 L 58.015625 22.324219 C 58.28125 21.703125 58.644531 21.160156 59.105469 20.695312 C 59.5625 20.238281 60.089844 19.875 60.691406 19.601562 L 60.695312 19.601562 C 61.320312 19.328125 61.976562 19.191406 62.664062 19.191406 Z M 66.09375 19.191406 "/>
<path style=" stroke:none;fill-rule:evenodd;fill:rgb(60.392157%,10.588235%,10.588235%);fill-opacity:1;" d="M 76.699219 35.199219 L 76.703125 35.203125 L 76.707031 35.203125 C 77.328125 35.476562 78 35.613281 78.703125 35.613281 L 85.707031 35.613281 C 86.109375 35.613281 86.457031 35.472656 86.742188 35.1875 C 87.019531 34.90625 87.160156 34.550781 87.160156 34.152344 C 87.160156 33.765625 87.015625 33.421875 86.742188 33.144531 C 86.457031 32.863281 86.109375 32.722656 85.707031 32.722656 L 78.703125 32.722656 C 78.082031 32.722656 77.558594 32.503906 77.117188 32.066406 C 76.699219 31.625 76.496094 31.109375 76.496094 30.5 L 76.496094 28.921875 L 85.972656 28.921875 C 86.347656 28.921875 86.683594 28.789062 86.960938 28.539062 L 86.972656 28.527344 C 87.253906 28.246094 87.394531 27.890625 87.394531 27.488281 L 87.394531 24.273438 C 87.394531 23.585938 87.257812 22.933594 86.988281 22.324219 C 86.71875 21.703125 86.355469 21.160156 85.894531 20.695312 C 85.4375 20.238281 84.898438 19.871094 84.277344 19.601562 C 83.667969 19.328125 83.015625 19.191406 82.308594 19.191406 L 78.703125 19.191406 C 78 19.191406 77.328125 19.328125 76.707031 19.601562 L 76.699219 19.601562 C 76.101562 19.875 75.570312 20.238281 75.113281 20.695312 C 74.65625 21.160156 74.292969 21.703125 74.027344 22.324219 C 73.753906 22.933594 73.617188 23.585938 73.617188 24.273438 L 73.617188 30.5 C 73.617188 31.207031 73.753906 31.878906 74.023438 32.507812 L 74.027344 32.511719 C 74.292969 33.117188 74.660156 33.648438 75.113281 34.105469 C 75.570312 34.566406 76.101562 34.933594 76.699219 35.199219 Z M 83.859375 22.707031 L 83.863281 22.710938 C 84.304688 23.152344 84.519531 23.667969 84.519531 24.273438 L 84.519531 26.058594 L 76.496094 26.058594 L 76.496094 24.273438 C 76.496094 23.667969 76.699219 23.148438 77.117188 22.710938 C 77.5625 22.269531 78.082031 22.054688 78.703125 22.054688 L 82.308594 22.054688 C 82.933594 22.054688 83.441406 22.269531 83.859375 22.707031 Z M 83.859375 22.707031 "/>
<path style=" stroke:none;fill-rule:nonzero;fill:rgb(60.392157%,10.588235%,10.588235%);fill-opacity:1;" d="M 92.652344 35.230469 L 92.65625 35.230469 C 93.285156 35.507812 93.9375 35.644531 94.628906 35.644531 L 98.058594 35.644531 C 98.742188 35.644531 99.390625 35.507812 100 35.230469 C 100.617188 34.964844 101.15625 34.597656 101.617188 34.136719 L 101.621094 34.136719 L 101.621094 34.128906 C 102.078125 33.652344 102.429688 33.109375 102.679688 32.503906 C 102.953125 31.878906 103.085938 31.21875 103.085938 30.527344 L 103.085938 20.652344 C 103.085938 20.253906 102.945312 19.90625 102.65625 19.636719 C 102.382812 19.367188 102.042969 19.21875 101.660156 19.21875 C 101.265625 19.21875 100.917969 19.363281 100.636719 19.636719 C 100.347656 19.90625 100.210938 20.253906 100.210938 20.652344 L 100.210938 30.527344 C 100.210938 31.136719 100.003906 31.652344 99.578125 32.09375 C 99.160156 32.515625 98.660156 32.730469 98.054688 32.75 L 94.632812 32.75 C 94.023438 32.730469 93.519531 32.515625 93.101562 32.09375 C 92.683594 31.652344 92.476562 31.136719 92.476562 30.527344 L 92.476562 20.652344 C 92.476562 20.253906 92.335938 19.90625 92.046875 19.636719 C 91.765625 19.363281 91.421875 19.21875 91.023438 19.21875 C 90.640625 19.21875 90.300781 19.367188 90.023438 19.636719 C 89.738281 19.90625 89.597656 20.253906 89.597656 20.652344 L 89.597656 30.527344 C 89.597656 31.214844 89.722656 31.875 89.972656 32.5 L 89.976562 32.503906 L 89.980469 32.511719 C 90.25 33.113281 90.605469 33.652344 91.0625 34.128906 L 91.066406 34.136719 C 91.523438 34.59375 92.054688 34.960938 92.652344 35.230469 Z M 92.652344 35.230469 "/>
<path style=" stroke:none;fill-rule:nonzero;fill:rgb(60.392157%,10.588235%,10.588235%);fill-opacity:1;" d="M 109.082031 22.742188 L 109.085938 22.734375 C 109.503906 22.296875 110.011719 22.074219 110.613281 22.054688 L 114.039062 22.054688 C 114.421875 22.054688 114.765625 21.90625 115.039062 21.628906 C 115.316406 21.355469 115.460938 21.011719 115.460938 20.625 C 115.460938 20.222656 115.324219 19.875 115.03125 19.609375 C 114.761719 19.339844 114.421875 19.191406 114.039062 19.191406 L 110.609375 19.191406 C 109.921875 19.191406 109.261719 19.328125 108.636719 19.601562 C 108.035156 19.875 107.503906 20.238281 107.050781 20.695312 C 106.589844 21.160156 106.226562 21.703125 105.957031 22.324219 L 105.957031 22.332031 C 105.707031 22.941406 105.582031 23.589844 105.582031 24.273438 L 105.582031 34.152344 C 105.582031 34.550781 105.722656 34.90625 106.003906 35.1875 C 106.28125 35.464844 106.617188 35.613281 107.003906 35.613281 C 107.402344 35.613281 107.753906 35.472656 108.035156 35.1875 C 108.316406 34.90625 108.457031 34.550781 108.457031 34.152344 L 108.457031 24.273438 C 108.457031 23.667969 108.664062 23.160156 109.082031 22.742188 Z M 109.082031 22.742188 "/>
<path style=" stroke:none;fill-rule:evenodd;fill:rgb(60.392157%,10.588235%,10.588235%);fill-opacity:1;" d="M 129.5625 34.105469 L 129.566406 34.101562 C 130.023438 33.621094 130.375 33.082031 130.625 32.476562 C 130.894531 31.847656 131.03125 31.1875 131.03125 30.5 L 131.03125 24.273438 C 131.03125 23.585938 130.894531 22.933594 130.621094 22.324219 C 130.355469 21.703125 129.992188 21.160156 129.535156 20.695312 C 129.074219 20.238281 128.535156 19.871094 127.914062 19.601562 C 127.308594 19.328125 126.648438 19.191406 125.945312 19.191406 L 121.992188 19.191406 C 121.304688 19.191406 120.644531 19.328125 120.019531 19.601562 C 119.417969 19.875 118.886719 20.238281 118.433594 20.695312 C 117.972656 21.160156 117.609375 21.703125 117.339844 22.324219 L 117.339844 22.332031 C 117.089844 22.941406 116.960938 23.589844 116.960938 24.273438 L 116.960938 30.5 C 116.960938 31.207031 117.097656 31.878906 117.367188 32.507812 L 117.367188 32.511719 L 117.371094 32.511719 C 117.640625 33.117188 118.003906 33.648438 118.460938 34.105469 C 118.914062 34.566406 119.449219 34.933594 120.046875 35.199219 L 120.050781 35.203125 C 120.675781 35.476562 121.34375 35.613281 122.046875 35.613281 L 126.003906 35.613281 C 126.6875 35.613281 127.335938 35.476562 127.945312 35.203125 C 128.5625 34.933594 129.105469 34.570312 129.5625 34.105469 Z M 127.496094 22.707031 L 127.5 22.710938 C 127.941406 23.152344 128.15625 23.667969 128.15625 24.273438 L 128.15625 30.5 C 128.15625 31.105469 127.941406 31.621094 127.5 32.066406 L 127.496094 32.070312 C 127.078125 32.503906 126.570312 32.722656 125.945312 32.722656 L 122.046875 32.722656 C 121.425781 32.722656 120.90625 32.503906 120.464844 32.066406 C 120.046875 31.625 119.839844 31.109375 119.839844 30.5 L 119.839844 24.273438 C 119.839844 23.667969 120.046875 23.148438 120.464844 22.710938 C 120.90625 22.269531 121.425781 22.054688 122.046875 22.054688 L 125.945312 22.054688 C 126.570312 22.054688 127.078125 22.269531 127.496094 22.707031 Z M 127.496094 22.707031 "/>
</g>
</svg>
