<svg width="181" height="69" viewBox="0 0 181 69" fill="none" xmlns="http://www.w3.org/2000/svg">
<path fill-rule="evenodd" clip-rule="evenodd" d="M131.978 23.9509C132.726 22.8286 133.126 21.5088 133.126 20.1587H133.142C133.142 19.2626 132.966 18.3752 132.624 17.5471C132.282 16.7191 131.781 15.9668 131.149 15.3331C130.516 14.6995 129.766 14.1969 128.939 13.8542C128.113 13.5115 127.228 13.3354 126.333 13.3359C124.986 13.3328 123.668 13.7303 122.547 14.4782C121.425 15.226 120.55 16.2905 120.032 17.5369C119.514 18.7833 119.377 20.1557 119.638 21.4802C119.899 22.8047 120.546 24.0219 121.498 24.9777C122.45 25.9334 123.663 26.5848 124.984 26.8493C126.305 27.1138 127.675 26.9796 128.92 26.4637C130.165 25.9478 131.229 25.0733 131.978 23.9509ZM116.986 42.4267L123.996 49.8702L135.681 38.2893V37.8638C135.681 35.3794 134.696 32.9966 132.943 31.2398C131.19 29.4831 128.813 28.4961 126.333 28.4961C123.854 28.4961 121.477 29.4831 119.724 31.2398C117.97 32.9966 116.986 35.3794 116.986 37.8638V42.4267Z" fill="black"/>
<path d="M134.902 35.5648C134.392 35.0571 133.701 34.7722 132.982 34.7722C132.263 34.7722 131.572 35.0571 131.062 35.5648L123.821 42.8131L121.609 40.6C121.37 40.2996 121.071 40.0531 120.73 39.8764C120.39 39.6998 120.017 39.597 119.634 39.5748C119.251 39.5526 118.869 39.6114 118.51 39.7475C118.152 39.8836 117.826 40.0939 117.554 40.3646C117.283 40.6353 117.071 40.9604 116.933 41.3187C116.795 41.6769 116.734 42.0603 116.754 42.4438C116.773 42.8274 116.874 43.2024 117.048 43.5444C117.222 43.8865 117.466 44.1879 117.765 44.429L121.901 48.5704C122.411 49.0769 123.101 49.361 123.819 49.361C124.538 49.361 125.227 49.0769 125.737 48.5704L125.761 48.543L134.902 39.4095C135.408 38.8979 135.691 38.2071 135.691 37.4872C135.691 36.7672 135.408 36.0764 134.902 35.5648" fill="#EFF8FF"/>
<path d="M134.902 36.322C134.391 35.8143 133.701 35.5295 132.982 35.5295C132.263 35.5295 131.572 35.8143 131.062 36.322L123.809 43.5703L121.597 41.3533C121.354 41.0627 121.053 40.826 120.713 40.6584C120.374 40.4908 120.003 40.3959 119.625 40.3797C119.246 40.3635 118.869 40.4265 118.516 40.5645C118.164 40.7025 117.844 40.9126 117.577 41.1814C117.31 41.4502 117.101 41.7718 116.965 42.1257C116.829 42.4796 116.767 42.8581 116.785 43.237C116.803 43.616 116.899 43.9871 117.067 44.3267C117.236 44.6663 117.473 44.967 117.764 45.2097L121.901 49.3471C122.411 49.8536 123.101 50.1378 123.819 50.1378C124.538 50.1378 125.227 49.8536 125.737 49.3471C125.737 49.3471 125.737 49.3471 125.757 49.3276L134.902 40.1628C135.155 39.9114 135.356 39.6122 135.493 39.2826C135.63 38.953 135.7 38.5995 135.7 38.2424C135.7 37.8854 135.63 37.5319 135.493 37.2023C135.356 36.8727 135.155 36.5735 134.902 36.322" fill="#6DC0E7"/>
<path d="M134.902 37.0793C134.392 36.5716 133.701 36.2867 132.982 36.2867C132.263 36.2867 131.572 36.5716 131.062 37.0793L123.821 44.3276L121.609 42.1105C121.367 41.817 121.067 41.5773 120.727 41.4068C120.388 41.2364 120.016 41.1389 119.637 41.1207C119.257 41.1024 118.878 41.1638 118.524 41.3009C118.17 41.438 117.848 41.6478 117.579 41.9168C117.31 42.1858 117.101 42.5081 116.964 42.8631C116.827 43.218 116.765 43.5977 116.783 43.9779C116.8 44.3581 116.897 44.7304 117.067 45.0709C117.237 45.4114 117.476 45.7126 117.768 45.9552L121.893 50.0887C122.404 50.5952 123.093 50.8794 123.811 50.8794C124.53 50.8794 125.219 50.5952 125.73 50.0887C125.73 50.0887 125.73 50.0887 125.749 50.0692L134.902 40.9161C135.155 40.6647 135.356 40.3655 135.493 40.0359C135.63 39.7063 135.701 39.3528 135.701 38.9957C135.701 38.6387 135.63 38.2852 135.493 37.9556C135.356 37.626 135.155 37.3268 134.902 37.0754" fill="#005CA3"/>
<path fill-rule="evenodd" clip-rule="evenodd" d="M150.531 21.9126C151.466 20.5098 151.966 18.8602 151.966 17.1728H151.981C151.981 16.0528 151.761 14.9438 151.334 13.9091C150.906 12.8743 150.279 11.9341 149.489 11.1422C148.699 10.3502 147.76 9.72204 146.728 9.29344C145.695 8.86484 144.589 8.64424 143.471 8.64424C141.787 8.64115 140.14 9.13871 138.739 10.074C137.337 11.0092 136.244 12.3401 135.597 13.8982C134.951 15.4563 134.78 17.1716 135.107 18.827C135.433 20.4824 136.243 22.0035 137.432 23.1978C138.622 24.3921 140.138 25.206 141.789 25.5363C143.441 25.8666 145.153 25.6987 146.709 25.0536C148.265 24.4086 149.595 23.3155 150.531 21.9126ZM131.786 45.0575L140.534 54.3081L155.156 39.8349V39.3041C155.156 36.1985 153.925 33.2201 151.733 31.0241C149.542 28.8281 146.57 27.5944 143.471 27.5944C140.372 27.5944 137.4 28.8281 135.209 31.0241C133.017 33.2201 131.786 36.1985 131.786 39.3041V45.0575Z" fill="black"/>
<path d="M154.174 36.4313C153.537 35.7942 152.673 35.4364 151.773 35.4364C150.873 35.4364 150.009 35.7942 149.372 36.4313L140.32 45.4907L137.555 42.7194C137.243 42.3923 136.868 42.1309 136.454 41.9506C136.04 41.7702 135.594 41.6746 135.143 41.6692C134.691 41.6638 134.243 41.7489 133.825 41.9193C133.406 42.0898 133.026 42.3422 132.706 42.6618C132.387 42.9814 132.134 43.3618 131.963 43.7806C131.792 44.1994 131.706 44.6482 131.71 45.1007C131.714 45.5533 131.809 46.0004 131.988 46.4159C132.167 46.8314 132.427 47.2069 132.752 47.5204L137.925 52.6922C138.561 53.3291 139.424 53.6868 140.324 53.6868C141.224 53.6868 142.086 53.3291 142.723 52.6922L142.747 52.661L154.174 41.2323C154.489 40.9173 154.739 40.5431 154.909 40.1312C155.08 39.7193 155.168 39.2777 155.168 38.8318C155.168 38.3859 155.08 37.9444 154.909 37.5325C154.739 37.1206 154.489 36.7464 154.174 36.4313" fill="#EFF8FF"/>
<path d="M154.174 37.3759C153.537 36.7388 152.673 36.381 151.773 36.381C150.873 36.381 150.009 36.7388 149.372 37.3759L140.32 46.4353L137.555 43.664C137.243 43.3369 136.868 43.0755 136.454 42.8951C136.04 42.7148 135.594 42.6191 135.143 42.6138C134.691 42.6084 134.243 42.6934 133.825 42.8639C133.406 43.0343 133.026 43.2868 132.706 43.6064C132.387 43.926 132.134 44.3063 131.963 44.7251C131.792 45.1439 131.706 45.5928 131.71 46.0453C131.714 46.4978 131.809 46.9449 131.988 47.3604C132.167 47.7759 132.427 48.1515 132.752 48.465L137.925 53.6367C138.239 53.953 138.613 54.204 139.025 54.3752C139.437 54.5464 139.878 54.6345 140.324 54.6345C140.77 54.6345 141.211 54.5464 141.623 54.3752C142.034 54.204 142.408 53.953 142.723 53.6367C142.723 53.6367 142.723 53.6172 142.747 53.6094L154.174 42.1769C154.489 41.8618 154.739 41.4877 154.909 41.0757C155.08 40.6638 155.168 40.2223 155.168 39.7764C155.168 39.3305 155.08 38.8889 154.909 38.477C154.739 38.0651 154.489 37.6909 154.174 37.3759Z" fill="#6DC0E7"/>
<path d="M154.174 38.3205C153.536 37.6853 152.673 37.3288 151.773 37.3288C150.873 37.3288 150.01 37.6853 149.372 38.3205L140.32 47.3799L137.555 44.6125C137.243 44.2854 136.868 44.024 136.454 43.8436C136.04 43.6633 135.594 43.5676 135.143 43.5623C134.691 43.5569 134.243 43.6419 133.825 43.8124C133.406 43.9828 133.026 44.2352 132.706 44.5549C132.387 44.8745 132.134 45.2548 131.963 45.6736C131.792 46.0924 131.706 46.5413 131.71 46.9938C131.714 47.4463 131.809 47.8934 131.988 48.3089C132.167 48.7244 132.427 49.0999 132.752 49.4135L137.925 54.5774C138.561 55.2143 139.424 55.572 140.324 55.572C141.224 55.572 142.086 55.2143 142.723 54.5774C142.723 54.5774 142.723 54.5579 142.747 54.5501L154.174 43.1137C154.489 42.7986 154.739 42.4244 154.909 42.0125C155.08 41.6006 155.168 41.1591 155.168 40.7132C155.168 40.2672 155.08 39.8257 154.909 39.4138C154.739 39.0019 154.489 38.6277 154.174 38.3127" fill="#005CA3"/>
<path fill-rule="evenodd" clip-rule="evenodd" d="M173.438 19.3596C174.606 17.6067 175.23 15.5457 175.23 13.4374C175.23 10.6103 174.11 7.89895 172.115 5.89987C170.12 3.90078 167.414 2.77771 164.593 2.77771C162.489 2.77771 160.433 3.40289 158.684 4.57419C156.934 5.7455 155.571 7.41032 154.766 9.35813C153.961 11.3059 153.75 13.4492 154.161 15.517C154.571 17.5848 155.584 19.4842 157.072 20.975C158.559 22.4658 160.455 23.481 162.518 23.8923C164.581 24.3036 166.72 24.0925 168.664 23.2857C170.608 22.4789 172.269 21.1126 173.438 19.3596ZM149.983 48.1488L160.944 59.8585L179.195 41.2635V41.1035C179.259 39.1411 178.929 37.1858 178.224 35.354C177.518 33.5222 176.453 31.8511 175.09 30.4403C173.728 29.0295 172.096 27.9076 170.292 27.1414C168.488 26.3753 166.549 25.9805 164.589 25.9805C162.63 25.9805 160.691 26.3753 158.887 27.1414C157.083 27.9076 155.451 29.0295 154.089 30.4403C152.726 31.8511 151.66 33.5222 150.955 35.354C150.25 37.1858 149.919 39.1411 149.983 41.1035V48.1488Z" fill="black"/>
<path d="M177.992 37.5125C177.195 36.7162 176.116 36.269 174.991 36.269C173.866 36.269 172.786 36.7162 171.99 37.5125L160.671 48.8319L157.216 45.3697C156.415 44.6078 155.348 44.1894 154.243 44.2034C153.139 44.2175 152.083 44.663 151.301 45.4451C150.519 46.2273 150.072 47.2843 150.056 48.3913C150.04 49.4984 150.455 50.5681 151.214 51.3729L157.68 57.8405C158.475 58.6354 159.553 59.0818 160.677 59.0818C161.8 59.0818 162.878 58.6354 163.674 57.8405C163.688 57.828 163.7 57.8136 163.709 57.7976L177.992 43.5118C178.385 43.1181 178.697 42.6505 178.91 42.1358C179.123 41.6211 179.233 41.0694 179.233 40.5122C179.233 39.955 179.123 39.4032 178.91 38.8885C178.697 38.3738 178.385 37.9062 177.992 37.5125" fill="#EFF8FF"/>
<path d="M177.992 38.6913C177.195 37.8959 176.116 37.4493 174.991 37.4493C173.866 37.4493 172.787 37.8959 171.99 38.6913L160.671 50.0106L157.216 46.5524C156.823 46.1574 156.356 45.844 155.842 45.6298C155.328 45.4157 154.777 45.3051 154.221 45.3044C153.664 45.3037 153.113 45.4128 152.598 45.6256C152.084 45.8384 151.616 46.1507 151.222 46.5446C150.828 46.9385 150.515 47.4063 150.301 47.9214C150.088 48.4365 149.977 48.9887 149.977 49.5465C149.976 50.1043 150.085 50.6568 150.297 51.1724C150.509 51.688 150.821 52.1567 151.214 52.5516L157.68 59.0154C158.073 59.4099 158.54 59.7229 159.055 59.9364C159.569 60.15 160.12 60.2599 160.677 60.2599C161.234 60.2599 161.785 60.15 162.299 59.9364C162.813 59.7229 163.28 59.4099 163.674 59.0154C163.685 59.0046 163.696 58.9928 163.705 58.9803L177.992 44.6905C178.385 44.2965 178.698 43.8286 178.911 43.3136C179.124 42.7985 179.233 42.2465 179.233 41.689C179.233 41.1314 179.124 40.5794 178.911 40.0643C178.698 39.5493 178.385 39.0814 177.992 38.6874" fill="#6DC0E7"/>
<path d="M177.992 39.874C177.195 39.0786 176.116 38.632 174.991 38.632C173.866 38.632 172.787 39.0786 171.99 39.874L160.671 51.1933L157.216 47.7351C156.823 47.3401 156.356 47.0266 155.842 46.8125C155.328 46.5984 154.777 46.4878 154.221 46.487C153.664 46.4863 153.113 46.5955 152.598 46.8083C152.084 47.0211 151.616 47.3333 151.222 47.7272C150.828 48.1212 150.515 48.589 150.301 49.1041C150.088 49.6192 149.977 50.1714 149.977 50.7292C149.976 51.287 150.085 51.8395 150.297 52.3551C150.509 52.8707 150.821 53.3394 151.214 53.7343L157.68 60.1981C158.073 60.5926 158.54 60.9056 159.055 61.1191C159.569 61.3326 160.12 61.4426 160.677 61.4426C161.234 61.4426 161.785 61.3326 162.299 61.1191C162.813 60.9056 163.28 60.5926 163.674 60.1981L163.705 60.1629L177.992 45.8732C178.385 45.4792 178.698 45.0113 178.911 44.4962C179.124 43.9812 179.233 43.4292 179.233 42.8716C179.233 42.3141 179.124 41.7621 178.911 41.247C178.698 40.732 178.385 40.2641 177.992 39.8701" fill="#005CA3"/>
<path fill-rule="evenodd" clip-rule="evenodd" d="M3.02388 8.6911C1.32179 8.6911 0.445435 9.79181 0.445435 11.9074V28.8161H3.29652V11.8527L7.72505 26.6303C8.25866 28.4687 8.89353 29.0464 10.4515 29.0464C11.7758 29.0464 12.4262 28.4141 12.9443 26.6303L17.3572 11.8527V28.8161H20.1927V11.9074C20.1927 9.70984 19.2891 8.6911 17.3416 8.6911C15.7174 8.6911 15.1488 9.15949 14.549 11.1111L10.2645 25.6389L6.06581 11.1111C5.51663 9.13216 4.94018 8.6911 3.02388 8.6911ZM24.5978 27.3914C25.5832 28.4258 26.7088 28.8161 28.5706 28.8161H36.2202V25.916H27.7799C27.4021 25.8314 27.0522 25.6513 26.7634 25.393C26.5897 25.236 26.4495 25.0455 26.3511 24.8329C26.2527 24.6202 26.1982 24.3899 26.1908 24.1557V20.2837H36.2748V17.3992H26.1908V14.019C26.1908 12.7856 26.9581 11.88 27.9435 11.88H36.2709V8.99554H29.0925C26.9542 8.99554 26.1324 9.15948 25.1742 9.81913C23.9123 10.6974 23.3358 12.0166 23.3358 13.9409V23.4882C23.3358 25.3852 23.6124 26.3571 24.5978 27.3914ZM39.4103 11.9074C39.4103 9.79181 40.2866 8.6911 41.9848 8.6911C43.905 8.6911 44.4815 9.13216 45.0268 11.1111L49.2138 25.6389L53.4982 11.1111C54.0981 9.15949 54.6667 8.6911 56.2948 8.6911C58.2423 8.6911 59.142 9.70984 59.142 11.9074V28.8161H56.2948V11.8527L51.9052 26.6303C51.3872 28.4141 50.7367 29.0464 49.4125 29.0464C47.8545 29.0464 47.2196 28.4687 46.686 26.6303L42.2575 11.8527V28.8161H39.4103V11.9074ZM71.594 25.916H65.1518V20.4047H71.6485C72.1984 20.4213 72.7239 20.6361 73.1286 21.0097C73.2781 21.1212 73.4021 21.2636 73.4921 21.4272C73.5822 21.5908 73.6362 21.7719 73.6505 21.9581V23.8278C73.6379 24.373 73.4181 24.8928 73.0358 25.2809C72.6536 25.6691 72.1378 25.8963 71.594 25.916ZM71.6758 17.5085H65.1518V11.88H71.6485C72.7741 11.88 73.6505 12.649 73.6505 13.7184V15.6154C73.6505 16.7669 72.8832 17.5085 71.6758 17.5085ZM72.3067 8.99553H62.3046V28.7849H71.9562C74.5307 28.7849 76.5055 26.5835 76.5055 23.6756V21.8059C76.5046 21.3305 76.4095 20.86 76.2256 20.4218C76.0418 19.9836 75.7728 19.5864 75.4344 19.2532C75.2339 19.0797 75.0128 18.9315 74.7761 18.8121C75.1487 18.5995 75.4728 18.3112 75.7277 17.9657C75.9826 17.6202 76.1626 17.2252 76.2562 16.8059C76.4 16.401 76.475 15.9749 76.4782 15.5451V13.1681C76.419 12.1044 76.0078 11.0909 75.3097 10.2875C74.946 9.85043 74.4845 9.50561 73.9626 9.28111C73.4408 9.0566 72.8734 8.95876 72.3067 8.99553ZM84.6576 28.8161C82.7959 28.8161 81.6702 28.4258 80.6848 27.3914C79.6994 26.3571 79.4229 25.3852 79.4229 23.4882V13.9409C79.4229 12.0166 79.9993 10.6974 81.2613 9.81913C82.2194 9.15948 83.0412 8.99554 85.1796 8.99554H92.3618V11.88H84.0422C83.0529 11.88 82.2856 12.7856 82.2856 14.019V17.3992H92.3735V20.2837H82.2856V24.1557C82.2929 24.3903 82.3477 24.621 82.4468 24.8338C82.5459 25.0465 82.6872 25.2368 82.8621 25.393C83.1495 25.6512 83.4981 25.8312 83.8748 25.916H92.319V28.8161H84.6576ZM105.484 8.99555H95.505V28.8161H98.3561V11.8956H105.016C106.115 11.8956 106.796 12.6099 106.796 13.7341V15.9316C106.796 16.8098 105.978 17.5241 104.962 17.5241H100.631C99.3415 17.5241 98.4924 18.3203 98.4924 19.5577C98.478 19.7384 98.5026 19.9201 98.5644 20.0905C98.6262 20.2609 98.7239 20.4159 98.8507 20.5452L105.978 28.8161H109.788L102.524 20.3852L105.866 20.4125C107.868 20.4125 109.62 18.5741 109.62 16.5678V13.133C109.62 11.8722 109.429 11.2945 108.689 10.471C108.3 9.99917 107.81 9.62147 107.255 9.36601C106.7 9.11054 106.094 8.98391 105.484 8.99555Z" fill="black"/>
<path fill-rule="evenodd" clip-rule="evenodd" d="M98.5352 43.7655C98.5352 44.2612 98.9636 45.0302 99.7426 45.9904L106.22 53.9842L109.92 54.0115L101.671 43.8202L109.511 34.1792H105.811L99.8906 41.486C99.4154 42.0286 99.1661 42.3408 99.1116 42.4189C98.7821 42.7953 98.5802 43.2668 98.5352 43.7655ZM98.3716 34.1792H95.5205V53.9842H98.3716V34.1792ZM46.277 34.1948H49.1242V42.7116H57.7047V34.1948H60.583V53.9997H57.7047V45.5961H49.1242V53.9997H46.277V34.1948ZM34.8376 53.9997C32.4267 53.9997 30.5065 51.8569 30.5065 49.2495V39.1011C30.5065 36.1893 32.3449 34.2104 35.0285 34.2104H43.3714V37.0949H35.4258C34.082 37.0949 33.3692 37.8092 33.3692 39.1558V49.0153C33.3609 49.2908 33.4079 49.5652 33.5076 49.822C33.6073 50.0789 33.7576 50.313 33.9495 50.5104C34.1414 50.7079 34.371 50.8645 34.6247 50.9711C34.8783 51.0777 35.1507 51.132 35.4258 51.1309H43.3169V54.0154L34.8376 53.9997ZM64.9454 52.5711C65.9308 53.586 67.0526 53.9997 68.9183 53.9997H76.5757V51.1152H68.1354C67.7579 51.033 67.4086 50.8526 67.1227 50.5922C66.9479 50.4367 66.8067 50.2472 66.7076 50.0351C66.6084 49.823 66.5536 49.5929 66.5462 49.3588V45.4868H76.6341V42.6023H66.5462V39.2221C66.5462 37.9848 67.3135 37.0792 68.299 37.0792H76.6224V34.1948H69.4402C67.3019 34.1948 66.48 34.3626 65.5219 35.0183C64.2599 35.9005 63.6835 37.2159 63.6835 39.1401V48.6679C63.6835 50.5649 63.96 51.5563 64.9454 52.5711ZM84.0851 53.9997C81.6702 53.9997 79.7539 51.8569 79.7539 49.2495V39.1011C79.7539 36.1893 81.5884 34.2104 84.2759 34.2104H92.6072V37.0949H84.6576C83.3178 37.0949 82.605 37.8092 82.605 39.1558V49.0153C82.5966 49.2905 82.6436 49.5645 82.743 49.8211C82.8425 50.0777 82.9924 50.3117 83.1839 50.509C83.3754 50.7064 83.6046 50.8632 83.8577 50.97C84.1109 51.0768 84.3829 51.1315 84.6576 51.1309H92.5526V54.0154L84.0851 53.9997Z" fill="#005CA3"/>
<g clip-path="url(#clip0)">
<path fill-rule="evenodd" clip-rule="evenodd" d="M23.5616 62.6873H25.3591V64.1338H23.5616C23.4635 64.1349 23.3661 64.1169 23.2751 64.0807C23.1841 64.0445 23.1012 63.9909 23.0313 63.923C22.9632 63.8564 22.9093 63.7772 22.8726 63.6898C22.8359 63.6024 22.8172 63.5087 22.8176 63.4142C22.815 63.3193 22.8327 63.225 22.8695 63.1373C22.9063 63.0497 22.9614 62.9706 23.0313 62.9054C23.0998 62.8351 23.1823 62.7795 23.2735 62.742C23.3647 62.7045 23.4628 62.6859 23.5616 62.6873V62.6873ZM22.9502 64.8098C23.1435 64.8912 23.3515 64.9332 23.5616 64.9334H25.7716C25.8789 64.9323 25.9817 64.8907 26.0589 64.8171C26.0977 64.7792 26.1282 64.7338 26.1485 64.6838C26.1687 64.6338 26.1784 64.5802 26.1767 64.5263V61.5097C26.1765 61.3094 26.1338 61.1113 26.0515 60.9282C25.9742 60.7465 25.8587 60.583 25.7127 60.4485C25.5714 60.3087 25.4037 60.1975 25.2191 60.1214C25.0286 60.0394 24.8229 59.9973 24.615 59.9978H22.6924C22.6378 59.9962 22.5835 60.0057 22.5328 60.0257C22.4821 60.0457 22.4361 60.0758 22.3977 60.1141C22.358 60.1485 22.3262 60.1911 22.3046 60.2387C22.283 60.2864 22.272 60.3381 22.2725 60.3903C22.272 60.4425 22.283 60.4942 22.3046 60.5419C22.3262 60.5895 22.358 60.6321 22.3977 60.6665C22.4361 60.7048 22.4821 60.7349 22.5328 60.7549C22.5835 60.7749 22.6378 60.7844 22.6924 60.7828H24.615C24.7129 60.7806 24.8101 60.7989 24.9003 60.8365C24.9904 60.8741 25.0715 60.9301 25.1381 61.0009V61.0009C25.2085 61.0661 25.2645 61.1449 25.3025 61.2325C25.3405 61.3201 25.3598 61.4145 25.3591 61.5097V61.895H23.5616C23.352 61.8929 23.144 61.9324 22.9502 62.0113V62.0113C22.7689 62.0894 22.604 62.2003 22.464 62.3384C22.3178 62.4756 22.2024 62.6415 22.1252 62.8254C22.0421 63.0108 21.9994 63.2114 21.9999 63.4142C22.0003 63.6192 22.0429 63.822 22.1252 64.0102V64.0102C22.2045 64.1888 22.3198 64.3495 22.464 64.4827C22.604 64.6208 22.7689 64.7317 22.9502 64.8098V64.8098Z" fill="black"/>
<path d="M32.8582 61.0104C32.9267 61.0751 32.981 61.153 33.0178 61.2393C33.0545 61.3256 33.0729 61.4184 33.0718 61.5119V64.5286C33.0702 64.5824 33.0798 64.636 33.1001 64.686C33.1204 64.7361 33.1509 64.7814 33.1897 64.8193C33.2691 64.894 33.3746 64.9356 33.4843 64.9356C33.5917 64.9345 33.6945 64.8929 33.7716 64.8193C33.8105 64.7814 33.841 64.7361 33.8612 64.686C33.8815 64.636 33.8911 64.5824 33.8895 64.5286V61.5119C33.8892 61.3116 33.8466 61.1136 33.7643 60.9304C33.6922 60.7495 33.5817 60.5859 33.4401 60.4507C33.2962 60.3107 33.1261 60.1996 32.9392 60.1236C32.7513 60.0416 32.548 59.9995 32.3425 60H31.2597C31.0519 60.0004 30.8464 60.0424 30.6556 60.1236V60.1236C30.472 60.2015 30.3046 60.3124 30.1621 60.4507C30.0206 60.5875 29.9079 60.7505 29.8306 60.9304V60.9304C29.7506 61.114 29.7104 61.3121 29.7127 61.5119V64.5286C29.7127 64.6368 29.7549 64.7409 29.8306 64.8193C29.9078 64.8929 30.0106 64.9345 30.1179 64.9356C30.2276 64.9356 30.3331 64.894 30.4125 64.8193C30.4513 64.7814 30.4818 64.7361 30.5021 64.686C30.5224 64.636 30.532 64.5824 30.5304 64.5286V61.5119C30.5293 61.4184 30.5477 61.3256 30.5844 61.2393C30.6212 61.153 30.6755 61.0751 30.744 61.0104V61.0104C30.81 60.9403 30.8897 60.8841 30.9784 60.8454C31.067 60.8067 31.1627 60.7861 31.2597 60.7851H32.3425C32.4395 60.7861 32.5352 60.8067 32.6239 60.8454C32.7125 60.8841 32.7922 60.9403 32.8582 61.0104V61.0104Z" fill="black"/>
<path fill-rule="evenodd" clip-rule="evenodd" d="M37.9484 61.0031C38.0188 61.0683 38.0748 61.1472 38.1129 61.2347C38.1509 61.3223 38.1702 61.4167 38.1694 61.5119V62.1007H35.5396V61.5119C35.537 61.4171 35.5547 61.3228 35.5915 61.2351C35.6283 61.1474 35.6834 61.0684 35.7532 61.0031C35.8209 60.9318 35.9033 60.8755 35.9947 60.8379C36.0861 60.8003 36.1846 60.7823 36.2836 60.7851H37.4254C37.5233 60.7829 37.6205 60.8012 37.7106 60.8388C37.8008 60.8763 37.8818 60.9324 37.9484 61.0031V61.0031ZM35.6648 64.812C35.8607 64.8934 36.0711 64.9354 36.2836 64.9356H38.5009C38.6105 64.9349 38.7157 64.8933 38.7956 64.8193C38.8344 64.7814 38.8649 64.7361 38.8852 64.686C38.9054 64.636 38.9151 64.5824 38.9134 64.5286C38.9105 64.4252 38.8684 64.3267 38.7956 64.2523C38.7157 64.1783 38.6105 64.1368 38.5009 64.136H36.2836C36.1853 64.1384 36.0876 64.1209 35.9964 64.0847C35.9052 64.0484 35.8224 63.9942 35.7532 63.9252C35.6838 63.8597 35.6289 63.7806 35.5921 63.693C35.5554 63.6054 35.5375 63.5112 35.5396 63.4164V62.8858H38.582C38.6849 62.8875 38.7847 62.8512 38.8619 62.784H38.8692C38.9082 62.7478 38.9389 62.7037 38.9592 62.6548C38.9796 62.606 38.9891 62.5533 38.9871 62.5005V61.5119C38.9868 61.3116 38.9442 61.1136 38.8619 60.9304C38.7845 60.7487 38.669 60.5852 38.523 60.4507C38.3817 60.3109 38.214 60.1998 38.0295 60.1236C37.8389 60.0416 37.6333 59.9995 37.4254 60H36.2836C36.0711 60.0002 35.8607 60.0422 35.6648 60.1236V60.1236C35.4835 60.2017 35.3186 60.3126 35.1786 60.4507C35.0371 60.589 34.9223 60.7516 34.8398 60.9304C34.7598 61.114 34.7196 61.3121 34.7219 61.5119V63.4164C34.7197 63.6209 34.7598 63.8237 34.8398 64.0125H34.8471C34.9263 64.1892 35.0388 64.3496 35.1786 64.4849C35.3186 64.623 35.4835 64.7339 35.6648 64.812Z" fill="black"/>
<path d="M40.6667 64.8193C40.8563 64.9041 41.0626 64.9463 41.2707 64.9429H42.3536C42.5594 64.947 42.7635 64.9047 42.9503 64.8193C43.1352 64.7431 43.3049 64.6348 43.4512 64.4995C43.5912 64.3631 43.7015 64.1998 43.7753 64.0198C43.857 63.8339 43.8996 63.6336 43.9005 63.431V60.3998C43.901 60.3476 43.8901 60.2959 43.8684 60.2482C43.8468 60.2006 43.8151 60.1581 43.7753 60.1236C43.7389 60.0867 43.6954 60.0575 43.6473 60.0375C43.5992 60.0175 43.5476 60.0072 43.4954 60.0073C43.3857 60.0073 43.2802 60.0489 43.2007 60.1236C43.1619 60.1584 43.1313 60.2012 43.1109 60.2489C43.0906 60.2966 43.081 60.3481 43.0829 60.3998V63.4237C43.0833 63.5183 43.0646 63.6119 43.0279 63.6993C42.9912 63.7867 42.9373 63.8659 42.8692 63.9325C42.8025 64.0007 42.7223 64.0546 42.6336 64.0908C42.5449 64.1271 42.4496 64.145 42.3536 64.1433H41.2707C41.1747 64.145 41.0794 64.1271 40.9907 64.0908C40.902 64.0546 40.8218 64.0007 40.7551 63.9325C40.687 63.8659 40.6331 63.7867 40.5964 63.6993C40.5597 63.6119 40.541 63.5183 40.5414 63.4237V60.3998C40.5433 60.3481 40.5337 60.2966 40.5134 60.2489C40.493 60.2012 40.4624 60.1584 40.4236 60.1236C40.3441 60.0489 40.2386 60.0073 40.1289 60.0073C40.0216 60.0084 39.9188 60.05 39.8416 60.1236C39.8028 60.1584 39.7722 60.2012 39.7518 60.2489C39.7315 60.2966 39.7219 60.3481 39.7238 60.3998V63.4237C39.7222 63.6258 39.7623 63.8261 39.8416 64.0125V64.0125C39.9208 64.1914 40.0332 64.3542 40.1731 64.4922V64.4922C40.3161 64.63 40.4834 64.7408 40.6667 64.8193V64.8193Z" fill="black"/>
<path d="M45.7569 61.0104C45.8236 60.9413 45.9035 60.8858 45.992 60.8471C46.0805 60.8084 46.1758 60.7874 46.2725 60.7851H47.3628C47.415 60.7855 47.4668 60.7755 47.5149 60.7555C47.5631 60.7355 47.6066 60.706 47.6427 60.6688C47.6825 60.6343 47.7142 60.5918 47.7358 60.5441C47.7575 60.4965 47.7684 60.4448 47.7679 60.3925C47.7684 60.3403 47.7575 60.2886 47.7358 60.241C47.7142 60.1933 47.6825 60.1508 47.6427 60.1163C47.6066 60.0791 47.5631 60.0496 47.5149 60.0296C47.4668 60.0096 47.415 59.9995 47.3628 60H46.2725C46.0649 60.001 45.8595 60.043 45.6685 60.1236V60.1236C45.4871 60.2017 45.3222 60.3126 45.1823 60.4507C45.0385 60.5871 44.9234 60.7501 44.8435 60.9304V60.9304C44.7669 61.1151 44.7269 61.3125 44.7256 61.512V64.5286C44.7256 64.6353 44.768 64.7377 44.8438 64.8139C44.9196 64.89 45.0226 64.9337 45.1307 64.9356C45.1852 64.9364 45.2393 64.9265 45.2899 64.9066C45.3404 64.8866 45.3865 64.857 45.4254 64.8193C45.4656 64.7821 45.4974 64.737 45.519 64.6869C45.5405 64.6369 45.5513 64.583 45.5506 64.5286V61.512C45.5486 61.4189 45.5658 61.3264 45.6013 61.2402C45.6368 61.1539 45.6897 61.0757 45.7569 61.0104V61.0104Z" fill="black"/>
<path fill-rule="evenodd" clip-rule="evenodd" d="M51.5985 61.0031C51.6689 61.0683 51.7249 61.1472 51.7629 61.2347C51.801 61.3223 51.8202 61.4167 51.8195 61.5119V63.4164C51.8202 63.5117 51.801 63.6061 51.7629 63.6936C51.7249 63.7812 51.6689 63.8601 51.5985 63.9252V63.9252C51.5304 63.9936 51.4489 64.0476 51.359 64.0838C51.2691 64.1201 51.1726 64.1378 51.0755 64.136H49.8453C49.746 64.1377 49.6473 64.1199 49.555 64.0838C49.4627 64.0476 49.3786 63.9937 49.3075 63.9252C49.2405 63.8583 49.1877 63.7788 49.1523 63.6914C49.1168 63.604 49.0995 63.5105 49.1013 63.4164V61.5119C49.0991 61.4178 49.1162 61.3242 49.1517 61.2367C49.1871 61.1493 49.2401 61.0698 49.3075 61.0031C49.3772 60.9323 49.4609 60.8764 49.5534 60.8389C49.646 60.8014 49.7453 60.7831 49.8453 60.7851H51.0755C51.1733 60.7829 51.2705 60.8012 51.3607 60.8388C51.4508 60.8763 51.5319 60.9324 51.5985 61.0031V61.0031ZM52.1878 64.4849C52.3263 64.3473 52.4364 64.1843 52.512 64.0052C52.597 63.8204 52.6398 63.6194 52.6372 63.4164V61.5119C52.6404 61.3113 52.5976 61.1125 52.512 60.9304C52.4346 60.7505 52.3219 60.5875 52.1805 60.4507C52.0365 60.3107 51.8664 60.1996 51.6795 60.1236C51.489 60.0416 51.2833 59.9995 51.0755 60H49.8232C49.6155 60.001 49.4101 60.043 49.2191 60.1236V60.1236C49.0378 60.2017 48.8729 60.3126 48.733 60.4507C48.5869 60.5852 48.4715 60.7487 48.3941 60.9304V60.9304C48.3176 61.1151 48.2776 61.3125 48.2762 61.5119V63.4164C48.2766 63.6214 48.3192 63.8242 48.4015 64.0125V64.0125C48.486 64.1881 48.6006 64.3479 48.7403 64.4849C48.8803 64.623 49.0452 64.7339 49.2265 64.812C49.4222 64.894 49.6327 64.936 49.8453 64.9356H51.0902C51.2957 64.9362 51.499 64.894 51.6869 64.812C51.8738 64.736 52.0439 64.6249 52.1878 64.4849V64.4849Z" fill="black"/>
<path d="M54.4199 64.8121C54.6156 64.894 54.8261 64.936 55.0387 64.9356H57.1528C57.2602 64.9345 57.363 64.8929 57.4401 64.8193C57.5158 64.7409 57.558 64.6368 57.558 64.5286C57.5561 64.4238 57.5125 64.324 57.4368 64.2506C57.361 64.1772 57.259 64.136 57.1528 64.136H55.0387C54.9394 64.1377 54.8407 64.12 54.7484 64.0838C54.6561 64.0476 54.572 63.9937 54.5009 63.9252C54.4339 63.8583 54.3811 63.7788 54.3456 63.6914C54.3102 63.604 54.2929 63.5105 54.2946 63.4164V61.512C54.2925 61.4178 54.3096 61.3242 54.345 61.2367C54.3805 61.1493 54.4335 61.0698 54.5009 61.0031C54.5706 60.9323 54.6543 60.8764 54.7468 60.8389C54.8393 60.8014 54.9387 60.7831 55.0387 60.7851H57.1528C57.2063 60.7861 57.2593 60.7763 57.3087 60.7563C57.3581 60.7363 57.4029 60.7065 57.4401 60.6688C57.4775 60.6328 57.5072 60.5899 57.5274 60.5424C57.5477 60.495 57.5581 60.444 57.558 60.3925C57.5585 60.3403 57.5475 60.2886 57.5259 60.241C57.5043 60.1933 57.4725 60.1508 57.4328 60.1163C57.3975 60.078 57.3542 60.0478 57.3058 60.0277C57.2575 60.0076 57.2053 59.9982 57.1528 60H55.0166C54.8089 60.001 54.6035 60.043 54.4125 60.1236V60.1236C54.2312 60.2017 54.0663 60.3126 53.9263 60.4507C53.7803 60.5852 53.6648 60.7487 53.5875 60.9304V60.9304C53.5109 61.1151 53.4709 61.3125 53.4696 61.512V63.4164C53.47 63.6214 53.5126 63.8242 53.5948 64.0125V64.0125C53.6793 64.1881 53.794 64.3479 53.9337 64.485C54.0736 64.623 54.2385 64.734 54.4199 64.8121V64.8121Z" fill="black"/>
<path fill-rule="evenodd" clip-rule="evenodd" d="M61.5727 61.0031C61.6432 61.0683 61.6991 61.1472 61.7372 61.2347C61.7752 61.3223 61.7945 61.4167 61.7937 61.5119V63.4164C61.7945 63.5117 61.7752 63.6061 61.7372 63.6936C61.6991 63.7812 61.6432 63.8601 61.5727 63.9252V63.9252C61.5047 63.9936 61.4232 64.0476 61.3332 64.0838C61.2433 64.1201 61.1468 64.1378 61.0497 64.136H59.8195C59.7202 64.1377 59.6216 64.1199 59.5293 64.0838C59.437 64.0476 59.3528 63.9937 59.2818 63.9252C59.2147 63.8583 59.1619 63.7788 59.1265 63.6914C59.0911 63.604 59.0737 63.5105 59.0755 63.4164V61.5119C59.0733 61.4178 59.0904 61.3242 59.1259 61.2367C59.1613 61.1493 59.2144 61.0698 59.2818 61.0031C59.3515 60.9323 59.4352 60.8764 59.5277 60.8389C59.6202 60.8014 59.7195 60.7831 59.8195 60.7851H61.0497C61.1476 60.7829 61.2448 60.8012 61.3349 60.8388C61.4251 60.8763 61.5061 60.9324 61.5727 61.0031V61.0031ZM62.1621 64.4849C62.3006 64.3473 62.4107 64.1843 62.4862 64.0052C62.5713 63.8204 62.614 63.6194 62.6114 63.4164V61.5119C62.6147 61.3113 62.5719 61.1125 62.4862 60.9304C62.4088 60.7505 62.2962 60.5875 62.1547 60.4507C62.0107 60.3107 61.8406 60.1996 61.6538 60.1236C61.4632 60.0416 61.2576 59.9995 61.0497 60H59.7974C59.5897 60.0004 59.3841 60.0424 59.1934 60.1236V60.1236C59.012 60.2017 58.8471 60.3126 58.7072 60.4507C58.5612 60.5852 58.4457 60.7487 58.3683 60.9304V60.9304C58.2918 61.1151 58.2518 61.3125 58.2505 61.5119V63.4164C58.2508 63.6214 58.2934 63.8242 58.3757 64.0125V64.0125C58.4602 64.1881 58.5748 64.3479 58.7145 64.4849C58.8545 64.623 59.0194 64.7339 59.2007 64.812V64.812C59.3964 64.894 59.6069 64.936 59.8195 64.9356H61.0645C61.2699 64.9362 61.4732 64.894 61.6611 64.812C61.848 64.736 62.0181 64.6249 62.1621 64.4849V64.4849Z" fill="black"/>
<path d="M68.8361 61.0104C68.9046 61.0751 68.9589 61.153 68.9957 61.2393C69.0324 61.3256 69.0508 61.4184 69.0497 61.512V64.5286C69.0481 64.5824 69.0577 64.636 69.078 64.6861C69.0983 64.7361 69.1288 64.7814 69.1676 64.8193C69.247 64.894 69.3525 64.9356 69.4623 64.9356C69.5696 64.9345 69.6724 64.8929 69.7495 64.8193C69.8252 64.7409 69.8674 64.6368 69.8674 64.5286V61.512C69.8671 61.3116 69.8245 61.1136 69.7422 60.9304C69.6701 60.7495 69.5596 60.5859 69.4181 60.4507C69.2741 60.3107 69.104 60.1996 68.9171 60.1236C68.7292 60.0416 68.5259 59.9995 68.3205 60H67.7974C67.5649 59.998 67.3352 60.0503 67.1271 60.1527H67.1197C66.9471 60.2407 66.7903 60.3561 66.6556 60.4943C66.5185 60.3526 66.3562 60.2368 66.1768 60.1527C65.9716 60.0496 65.7441 59.9972 65.5138 60H64.9908C64.7831 60.001 64.5777 60.043 64.3868 60.1236V60.1236C64.2054 60.2017 64.0405 60.3126 63.9006 60.4507C63.7546 60.5852 63.6391 60.7487 63.5617 60.9304V60.9304C63.4852 61.1151 63.4452 61.3125 63.4438 61.512V64.5286C63.4432 64.583 63.454 64.6369 63.4755 64.6869C63.4971 64.737 63.5289 64.7821 63.5691 64.8193C63.6055 64.8562 63.649 64.8855 63.6971 64.9054C63.7452 64.9254 63.7968 64.9357 63.849 64.9356C63.9035 64.9364 63.9575 64.9265 64.0081 64.9066C64.0587 64.8866 64.1048 64.857 64.1437 64.8193C64.1838 64.7821 64.2157 64.737 64.2372 64.6869C64.2588 64.6369 64.2696 64.583 64.2689 64.5286V61.512C64.2668 61.4189 64.2841 61.3264 64.3195 61.2402C64.355 61.1539 64.408 61.0757 64.4752 61.0104V61.0104C64.5419 60.9413 64.6218 60.8858 64.7103 60.8471C64.7987 60.8084 64.8941 60.7874 64.9908 60.7851H65.5138C65.6108 60.7861 65.7065 60.8067 65.7951 60.8454C65.8838 60.8842 65.9635 60.9403 66.0295 61.0104V61.0104C66.1001 61.0739 66.1562 61.1514 66.1943 61.2379C66.2324 61.3243 66.2515 61.4177 66.2505 61.512V64.5286C66.2485 64.5808 66.2572 64.6328 66.2762 64.6815C66.2952 64.7303 66.324 64.7747 66.361 64.8121V64.8121C66.4408 64.8861 66.5461 64.9276 66.6556 64.9284C66.7092 64.9308 66.7627 64.9216 66.8123 64.9016C66.8619 64.8815 66.9065 64.8509 66.9429 64.8121C66.9817 64.7742 67.0122 64.7288 67.0325 64.6788C67.0528 64.6288 67.0624 64.5752 67.0608 64.5213V61.512C67.0597 61.4184 67.0781 61.3256 67.1148 61.2393C67.1516 61.153 67.2059 61.0751 67.2744 61.0104C67.3423 60.9407 67.4234 60.885 67.5132 60.8463C67.6029 60.8076 67.6995 60.7868 67.7974 60.7851H68.3205C68.4174 60.7861 68.5131 60.8067 68.6018 60.8454C68.6904 60.8842 68.7701 60.9403 68.8361 61.0104V61.0104Z" fill="black"/>
<path d="M74.3536 64.8121C74.5469 64.8934 74.7548 64.9355 74.965 64.9356H77.0792C77.1865 64.9345 77.2893 64.8929 77.3665 64.8193C77.4053 64.7814 77.4358 64.7361 77.4561 64.6861C77.4763 64.636 77.486 64.5824 77.4843 64.5286C77.4848 64.477 77.4746 64.4259 77.4543 64.3784C77.4341 64.3309 77.4042 64.288 77.3665 64.2524C77.2893 64.1788 77.1865 64.1372 77.0792 64.136H74.965C74.8669 64.1372 74.7695 64.1191 74.6785 64.0829C74.5874 64.0468 74.5045 63.9932 74.4346 63.9252C74.3665 63.8587 74.3126 63.7794 74.2759 63.692C74.2393 63.6047 74.2206 63.511 74.221 63.4164V61.512C74.2202 61.4173 74.2387 61.3235 74.2754 61.2361C74.3121 61.1487 74.3662 61.0695 74.4346 61.0031C74.5032 60.9329 74.5856 60.8773 74.6769 60.8398C74.7681 60.8023 74.8662 60.7836 74.965 60.7851H77.0792C77.1326 60.7861 77.1856 60.7763 77.235 60.7563C77.2845 60.7363 77.3292 60.7065 77.3665 60.6688C77.4053 60.6339 77.4359 60.5912 77.4563 60.5435C77.4766 60.4958 77.4862 60.4443 77.4843 60.3925C77.4862 60.3408 77.4766 60.2893 77.4563 60.2416C77.4359 60.1939 77.4053 60.1511 77.3665 60.1163C77.3292 60.0786 77.2845 60.0488 77.235 60.0288C77.1856 60.0088 77.1326 59.999 77.0792 60H74.9503C74.7425 60.0004 74.537 60.0424 74.3462 60.1236H74.3388C74.1575 60.2017 73.9926 60.3126 73.8526 60.4507C73.7112 60.5875 73.5985 60.7505 73.5212 60.9304V60.9304C73.4412 61.114 73.401 61.3121 73.4033 61.512V63.4164C73.4036 63.6214 73.4463 63.8242 73.5285 64.0125V64.0125C73.6077 64.1893 73.7202 64.3496 73.86 64.485C74.0039 64.6216 74.1709 64.7323 74.3536 64.8121Z" fill="black"/>
<path fill-rule="evenodd" clip-rule="evenodd" d="M81.5065 61.0031C81.5759 61.0687 81.6308 61.1478 81.6675 61.2354C81.7043 61.323 81.7222 61.4171 81.7201 61.5119V63.4164C81.7222 63.5112 81.7043 63.6054 81.6675 63.693C81.6308 63.7806 81.5759 63.8597 81.5065 63.9252H81.4991C81.4313 63.994 81.3498 64.0481 81.2598 64.0844C81.1698 64.1207 81.0732 64.1383 80.9761 64.136H79.7459C79.6477 64.1372 79.5504 64.1191 79.4593 64.0829C79.3683 64.0467 79.2854 63.9932 79.2155 63.9252C79.1474 63.8587 79.0935 63.7794 79.0568 63.692C79.0201 63.6047 79.0014 63.511 79.0018 63.4164V61.5119C79.001 61.4173 79.0195 61.3235 79.0562 61.2361C79.0929 61.1487 79.1471 61.0694 79.2155 61.0031C79.284 60.9329 79.3665 60.8773 79.4577 60.8398C79.549 60.8023 79.647 60.7836 79.7459 60.7851H80.9761C81.074 60.7824 81.1713 60.8005 81.2616 60.8381C81.3518 60.8757 81.4328 60.932 81.4991 61.0031H81.5065ZM82.0958 64.4849C82.2319 64.3453 82.3417 64.1829 82.4199 64.0052C82.5016 63.8193 82.5442 63.619 82.5451 63.4164V61.5119C82.5449 61.3116 82.5022 61.1136 82.4199 60.9304C82.2542 60.5684 81.9573 60.2806 81.5875 60.1236C81.3944 60.0416 81.1863 59.9996 80.9761 60H79.7311C79.5234 60.0004 79.3178 60.0424 79.1271 60.1236H79.1197C78.9384 60.2017 78.7734 60.3126 78.6335 60.4507C78.4921 60.5875 78.3794 60.7505 78.302 60.9304V60.9304C78.222 61.114 78.1819 61.3121 78.1842 61.5119V63.4164C78.1807 63.6218 78.2235 63.8254 78.3094 64.0125V64.0125C78.3886 64.1892 78.5011 64.3496 78.6409 64.4849C78.7834 64.6232 78.9508 64.7341 79.1344 64.812V64.812C79.3277 64.8934 79.5357 64.9354 79.7459 64.9356H80.9982C81.2036 64.9362 81.4069 64.894 81.5949 64.812C81.7807 64.7342 81.9505 64.6233 82.0958 64.4849V64.4849Z" fill="black"/>
<path d="M88.7624 61.0104C88.8321 61.0743 88.8871 61.152 88.9239 61.2385C88.9608 61.325 88.9785 61.4182 88.9761 61.512V64.5286C88.9761 64.6368 89.0183 64.7409 89.0939 64.8193C89.1738 64.8934 89.279 64.9349 89.3886 64.9356C89.4959 64.9345 89.5987 64.8929 89.6759 64.8193C89.7147 64.7814 89.7452 64.7361 89.7655 64.6861C89.7858 64.636 89.7954 64.5824 89.7938 64.5286V61.512C89.796 61.3121 89.7559 61.114 89.6759 60.9304C89.5985 60.7505 89.4859 60.5875 89.3444 60.4507C89.2018 60.3124 89.0345 60.2015 88.8508 60.1236C88.6625 60.043 88.4595 60.001 88.2542 60H87.7238C87.4913 59.9988 87.2618 60.0511 87.0534 60.1527V60.1527C86.8797 60.2389 86.7226 60.3546 86.5893 60.4943C86.4508 60.3542 86.2888 60.2386 86.1105 60.1527C85.9053 60.0496 85.6778 59.9972 85.4475 60H84.9245C84.7168 60.0004 84.5112 60.0424 84.3205 60.1236H84.3131C84.1318 60.2017 83.9668 60.3126 83.8269 60.4507C83.6855 60.5875 83.5728 60.7505 83.4954 60.9304V60.9304C83.4154 61.114 83.3753 61.3121 83.3776 61.512V64.5286C83.3759 64.5824 83.3856 64.636 83.4058 64.6861C83.4261 64.7361 83.4566 64.7814 83.4954 64.8193C83.5726 64.8929 83.6754 64.9345 83.7827 64.9356C83.8924 64.9356 83.9979 64.894 84.0774 64.8193C84.1162 64.7814 84.1467 64.7361 84.167 64.6861C84.1872 64.636 84.1969 64.5824 84.1952 64.5286V61.512C84.1941 61.4184 84.2125 61.3256 84.2493 61.2393C84.286 61.153 84.3403 61.0751 84.4089 61.0104V61.0104C84.4748 60.9403 84.5546 60.8842 84.6432 60.8454C84.7319 60.8067 84.8276 60.7861 84.9245 60.7851H85.4475C85.5443 60.7874 85.6396 60.8084 85.7281 60.8471C85.8166 60.8858 85.8964 60.9413 85.9632 61.0104V61.0104C86.0338 61.0739 86.0899 61.1514 86.128 61.2379C86.1661 61.3243 86.1852 61.4177 86.1842 61.512V64.5286C86.1808 64.5803 86.1882 64.6321 86.2059 64.6809C86.2236 64.7297 86.2514 64.7743 86.2873 64.8121H86.2947C86.3741 64.8867 86.4796 64.9284 86.5893 64.9284C86.6427 64.9294 86.6958 64.9196 86.7452 64.8996C86.7946 64.8796 86.8394 64.8498 86.8766 64.8121C86.9523 64.7337 86.9945 64.6296 86.9945 64.5213V61.512C86.9924 61.4189 87.0097 61.3264 87.0451 61.2402C87.0806 61.1539 87.1336 61.0757 87.2008 61.0104C87.3405 60.8692 87.5312 60.7883 87.7311 60.7851H88.2468C88.3437 60.7861 88.4395 60.8067 88.5281 60.8454C88.6168 60.8842 88.6965 60.9403 88.7624 61.0104V61.0104Z" fill="black"/>
<path fill-rule="evenodd" clip-rule="evenodd" d="M93.8527 61.0104C93.9242 61.0747 93.9809 61.1534 94.0191 61.2412C94.0572 61.3289 94.0758 61.4237 94.0737 61.5192V63.4164C94.075 63.5128 94.056 63.6085 94.018 63.6973C93.98 63.7861 93.9237 63.8662 93.8527 63.9325C93.7845 64.0003 93.7028 64.0533 93.6128 64.0884C93.5228 64.1234 93.4264 64.1396 93.3297 64.136H92.1879C92.0902 64.1385 91.993 64.1218 91.9019 64.0868C91.8109 64.0519 91.7278 63.9994 91.6575 63.9325C91.5889 63.8648 91.5346 63.7843 91.498 63.6957C91.4613 63.6071 91.4429 63.5121 91.4438 63.4164V61.5192C91.4422 61.4245 91.4603 61.3304 91.497 61.2429C91.5338 61.1553 91.5884 61.0762 91.6575 61.0104C91.7264 60.9411 91.8091 60.8866 91.9004 60.8504C91.9916 60.8141 92.0895 60.7968 92.1879 60.7996H93.3297C93.4271 60.7955 93.5242 60.8123 93.6145 60.8486C93.7048 60.885 93.786 60.9402 93.8527 61.0104V61.0104ZM91.5764 60.1236C91.3951 60.2017 91.2302 60.3126 91.0903 60.4507C90.9442 60.5852 90.8287 60.7487 90.7514 60.9304C90.6683 61.1159 90.6256 61.3165 90.6262 61.5192V66.6075C90.6281 66.7122 90.6716 66.8121 90.7474 66.8855C90.8232 66.9589 90.9251 67 91.0313 67C91.141 67 91.2465 66.9584 91.326 66.8837C91.3637 66.848 91.3936 66.8051 91.4138 66.7576C91.4341 66.7101 91.4443 66.659 91.4438 66.6075V64.7466C91.5362 64.7952 91.6322 64.8365 91.7311 64.8702V64.8702C91.8742 64.9143 92.0233 64.9363 92.1731 64.9356H93.3297C93.5376 64.937 93.7435 64.8948 93.9337 64.812C94.1206 64.736 94.2907 64.6249 94.4346 64.4849C94.5744 64.3479 94.689 64.188 94.7735 64.0125V64.0125C94.8558 63.8242 94.8984 63.6214 94.8987 63.4164V61.5192C94.8985 61.3189 94.8558 61.1208 94.7735 60.9377C94.6944 60.7587 94.5819 60.596 94.442 60.4579C94.303 60.3137 94.1348 60.1998 93.9485 60.1236C93.7601 60.043 93.5571 60.0009 93.3518 60H92.1879C91.9777 60.0002 91.7697 60.0422 91.5764 60.1236V60.1236Z" fill="black"/>
<path fill-rule="evenodd" clip-rule="evenodd" d="M97.1971 62.6895H98.9871V64.1361H97.1971C97.0978 64.1377 96.9991 64.12 96.9068 64.0838C96.8145 64.0476 96.7304 63.9937 96.6593 63.9253C96.5923 63.8583 96.5395 63.7788 96.5041 63.6914C96.4686 63.604 96.4513 63.5105 96.4531 63.4164C96.4495 63.3221 96.4661 63.2281 96.5016 63.1405C96.5371 63.0528 96.5909 62.9735 96.6593 62.9076C96.729 62.8368 96.8127 62.7809 96.9052 62.7434C96.9977 62.7059 97.0971 62.6876 97.1971 62.6895ZM96.5783 64.8121C96.774 64.894 96.9845 64.936 97.1971 64.9356H99.3997C99.507 64.9345 99.6098 64.8929 99.6869 64.8193C99.7258 64.7814 99.7563 64.7361 99.7765 64.6861C99.7968 64.636 99.8064 64.5824 99.8048 64.5286V61.512C99.8081 61.3113 99.7652 61.1125 99.6796 60.9304C99.6022 60.7505 99.4895 60.5875 99.3481 60.4507C99.2041 60.3107 99.034 60.1996 98.8472 60.1236C98.6566 60.0416 98.451 59.9995 98.2431 60H96.3205C96.2659 59.9984 96.2116 60.0079 96.1609 60.0279C96.1102 60.0479 96.0642 60.078 96.0258 60.1163C95.987 60.1512 95.9564 60.1939 95.936 60.2416C95.9157 60.2893 95.9061 60.3408 95.908 60.3925C95.9061 60.4443 95.9157 60.4958 95.936 60.5435C95.9564 60.5912 95.987 60.6339 96.0258 60.6688C96.0642 60.7071 96.1102 60.7372 96.1609 60.7572C96.2116 60.7772 96.2659 60.7867 96.3205 60.7851H98.2431C98.341 60.7829 98.4382 60.8012 98.5283 60.8388C98.6185 60.8764 98.6995 60.9324 98.7661 61.0031V61.0031C98.8366 61.0683 98.8925 61.1472 98.9306 61.2347C98.9686 61.3223 98.9879 61.4167 98.9871 61.512V61.8972H97.1971C96.985 61.8943 96.7745 61.9339 96.5783 62.0135V62.0135C96.397 62.0916 96.232 62.2026 96.0921 62.3406C95.9481 62.4796 95.833 62.6451 95.7533 62.8276C95.6702 63.0131 95.6275 63.2137 95.628 63.4164C95.6284 63.6214 95.671 63.8242 95.7533 64.0125V64.0125C95.9221 64.3681 96.2149 64.6519 96.5783 64.8121V64.8121Z" fill="black"/>
<path d="M103.783 61.0104C103.851 61.0751 103.906 61.153 103.942 61.2393C103.979 61.3256 103.997 61.4184 103.996 61.5119V64.5286C103.995 64.5824 104.004 64.636 104.025 64.686C104.045 64.7361 104.075 64.7814 104.114 64.8193C104.194 64.894 104.299 64.9356 104.409 64.9356C104.516 64.9345 104.619 64.8929 104.696 64.8193C104.772 64.7409 104.814 64.6368 104.814 64.5286V61.5119C104.814 61.3116 104.771 61.1136 104.689 60.9304C104.617 60.7495 104.506 60.5859 104.365 60.4507C104.221 60.3107 104.051 60.1996 103.864 60.1236C103.676 60.0416 103.473 59.9995 103.267 60H102.184C101.976 60.0004 101.771 60.0424 101.58 60.1236V60.1236C101.396 60.1998 101.228 60.3109 101.087 60.4507C100.945 60.5875 100.832 60.7505 100.755 60.9304V60.9304C100.675 61.114 100.635 61.3121 100.637 61.5119V64.5286C100.636 64.5824 100.645 64.636 100.665 64.686C100.686 64.7361 100.716 64.7814 100.755 64.8193C100.832 64.8929 100.935 64.9345 101.042 64.9356C101.152 64.9356 101.258 64.894 101.337 64.8193C101.376 64.7814 101.406 64.7361 101.427 64.686C101.447 64.636 101.457 64.5824 101.455 64.5286V61.5119C101.454 61.4184 101.472 61.3256 101.509 61.2393C101.546 61.153 101.6 61.0751 101.669 61.0104V61.0104C101.734 60.9403 101.814 60.8841 101.903 60.8454C101.992 60.8067 102.087 60.7861 102.184 60.7851H103.267C103.364 60.7861 103.46 60.8067 103.548 60.8454C103.637 60.8841 103.717 60.9403 103.783 61.0104V61.0104Z" fill="black"/>
<path d="M108.961 65.9896C108.893 66.058 108.812 66.112 108.722 66.1482C108.632 66.1844 108.535 66.2022 108.438 66.2004H106.206C106.099 66.2015 105.996 66.2432 105.919 66.3167C105.88 66.3546 105.85 66.4 105.829 66.45C105.809 66.5 105.799 66.5536 105.801 66.6075C105.801 66.659 105.811 66.7101 105.831 66.7576C105.851 66.8051 105.881 66.848 105.919 66.8837C105.996 66.9573 106.099 66.9989 106.206 67H108.438C108.646 67.0005 108.852 66.9584 109.042 66.8764C109.229 66.8004 109.399 66.6893 109.543 66.5493C109.683 66.4113 109.796 66.2485 109.875 66.0696C109.961 65.8853 110.004 65.6839 110 65.4808V60.3925C110 60.341 109.99 60.2899 109.97 60.2424C109.95 60.1949 109.92 60.152 109.882 60.1163C109.845 60.0786 109.8 60.0488 109.751 60.0288C109.701 60.0088 109.648 59.999 109.595 60C109.54 59.9988 109.486 60.0085 109.435 60.0285C109.385 60.0485 109.339 60.0784 109.3 60.1163C109.227 60.1907 109.185 60.2892 109.182 60.3925V63.4164C109.184 63.5128 109.165 63.6085 109.127 63.6973C109.089 63.7861 109.032 63.8662 108.961 63.9325C108.893 64.0003 108.811 64.0534 108.721 64.0884C108.631 64.1234 108.535 64.1396 108.438 64.136H107.208C107.109 64.1391 107.011 64.1227 106.918 64.0877C106.826 64.0528 106.742 64 106.67 63.9325C106.603 63.8645 106.55 63.7837 106.514 63.6951C106.479 63.6064 106.462 63.5117 106.464 63.4164V60.3925C106.463 60.3405 106.452 60.2893 106.43 60.2418C106.409 60.1943 106.378 60.1516 106.339 60.1163C106.301 60.0773 106.255 60.0467 106.204 60.0266C106.153 60.0066 106.099 59.9975 106.044 60C105.992 59.9982 105.94 60.0076 105.891 60.0277C105.843 60.0478 105.8 60.078 105.764 60.1163C105.726 60.1516 105.695 60.1943 105.673 60.2418C105.651 60.2893 105.64 60.3405 105.639 60.3925V63.4164C105.639 63.6214 105.682 63.8242 105.764 64.0125V64.0125C105.849 64.1881 105.963 64.3479 106.103 64.485C106.243 64.623 106.408 64.734 106.589 64.8121V64.8121C106.785 64.894 106.995 64.936 107.208 64.9356H108.453C108.601 64.9369 108.747 64.9148 108.888 64.8702C108.989 64.8365 109.087 64.7952 109.182 64.7466V65.4808C109.184 65.5763 109.166 65.6711 109.128 65.7588C109.09 65.8466 109.033 65.9253 108.961 65.9896V65.9896Z" fill="black"/>
</g>
<defs>
<clipPath id="clip0">
<rect width="88" height="7" fill="white" transform="translate(22 60)"/>
</clipPath>
</defs>
</svg>
