<svg width="119" height="54" viewBox="0 0 119 54" fill="none" xmlns="http://www.w3.org/2000/svg">
<path fill-rule="evenodd" clip-rule="evenodd" d="M35.4192 40.6475C35.295 40.4942 35.5328 43.1104 38.182 43.0998C38.0852 41.6117 35.9305 40.6262 35.4192 40.6475ZM52.1881 48.0255C52.026 47.0397 51.1421 45.7753 49.0633 45.7263C49.0799 46.7396 50.0334 47.9274 52.1881 48.0255ZM48.488 47.1485C48.4396 46.2224 47.7388 44.8154 45.7945 44.5386C45.6767 45.4263 46.3774 46.7993 48.488 47.1485ZM45.1812 46.1949C45.1496 44.89 44.2069 43.7894 42.9339 43.5744C42.7676 44.4344 43.359 45.7159 45.1812 46.1949ZM42.4751 45.1051C42.5151 43.879 41.6797 42.7997 40.4929 42.5443C40.2677 43.351 40.8106 44.5601 42.4751 45.1051ZM39.9401 43.9494C40.0748 42.8872 39.4266 41.8824 38.4104 41.5801C38.1515 42.2506 38.4629 43.3725 39.9401 43.9494ZM52.1184 48.4026C50.0014 47.6833 48.6549 48.4408 48.2298 49.2032C49.9363 50.0801 51.521 49.4648 52.1184 48.4026ZM44.5503 48.1728C46.543 49.169 47.9549 48.1728 48.4179 47.3872C46.4189 46.74 45.0237 47.3787 44.5503 48.1728ZM45.0885 46.5101C43.2515 45.7203 42.0015 46.244 41.5492 46.8698C43.0684 47.83 44.4572 47.4211 45.0885 46.5101ZM42.2925 45.3351C40.6007 44.622 39.3466 45.069 38.8879 45.6629C40.3272 46.5762 41.6844 46.1951 42.2925 45.3351ZM36.7809 44.0152C37.8962 45.0391 39.1293 44.888 39.7605 44.2324C38.3444 43.334 37.2607 43.5746 36.7809 44.0152ZM70.2026 45.7268C68.1238 45.7758 67.2398 47.0403 67.0777 48.026C69.2325 47.928 70.1859 46.7401 70.2026 45.7268ZM83.8742 40.6475C83.3355 40.6475 81.2185 41.6117 81.1112 43.0998C83.7332 43.1104 83.9712 40.4942 83.8742 40.6475ZM73.4981 44.5602C71.5265 44.8391 70.8046 46.244 70.8046 47.1701C72.8898 46.7996 73.5906 45.4267 73.4981 44.5602ZM76.3324 43.5743C75.0592 43.7894 74.1165 44.8899 74.0851 46.1948C75.9074 45.7159 76.4984 44.4343 76.3324 43.5743ZM78.7729 42.5167C77.5756 42.7742 76.7362 43.8684 76.7906 45.1052C78.4551 44.5602 79.0256 43.3511 78.7729 42.5167ZM80.856 41.5797C79.8394 41.882 79.1915 42.8868 79.3261 43.949C80.8031 43.3721 81.1146 42.2503 80.856 41.5797ZM67.175 48.4026C67.7725 49.4925 69.3298 50.0801 71.0638 49.2032C70.6113 48.4408 69.2646 47.6833 67.175 48.4026ZM70.8425 47.389C71.3053 48.196 72.7171 49.1705 74.7103 48.1747C74.2431 47.3783 72.8479 46.7397 70.8425 47.389ZM74.1774 46.5098C74.8086 47.4209 76.1974 47.8124 77.7165 46.8696C77.264 46.2437 76.0143 45.72 74.1774 46.5098ZM76.9734 45.3351C77.5772 46.1845 78.9386 46.5783 80.3779 45.6629C79.9195 45.0669 78.6629 44.6199 76.9734 45.3351ZM79.5056 44.232C80.1369 44.8855 81.37 45.0389 82.4851 44.0149C82.0056 43.5743 80.9175 43.3337 79.5056 44.232ZM64.4085 48.576C66.3641 48.174 66.9827 46.8645 66.9764 46.108C65.0699 46.2655 64.1547 47.4768 63.9549 48.6028V48.6048C62.499 48.5984 61.0489 48.7965 59.6454 49.1924C58.2438 48.7965 56.7918 48.5984 55.3359 48.6048C55.1361 47.4768 54.2209 46.2676 52.3144 46.1101C52.3144 46.8643 52.9264 48.1751 54.8804 48.5776C52.8883 48.4287 51.7809 49.6441 51.5588 50.2248C53.3854 50.802 54.7909 50.0782 55.2919 48.905L55.2938 48.9031C56.5205 48.9308 57.737 49.1136 58.9196 49.448C56.8824 50.2486 56.3227 51.334 56.3227 51.334L56.6782 51.7532C57.4231 50.7698 58.4525 50.046 59.6243 49.6818C60.8114 50.0356 61.8569 50.7594 62.6145 51.7492L62.9701 51.3296C62.9701 51.3296 62.4314 50.2397 60.3736 49.4436C61.5538 49.1072 62.7722 48.9244 63.9989 48.8986C64.4789 50.0697 65.9054 50.7955 67.732 50.2184C67.4992 49.6418 66.4013 48.4298 64.4085 48.576Z" fill="#F2F4F6"/>
<path d="M32.836 3.168H33.5575L36.3835 9.832H35.7221L34.8603 7.79734H31.4932L30.6414 9.832H30L32.836 3.168ZM34.6398 7.27467L33.1667 3.79333L31.7136 7.27467H34.6398ZM37.5597 8.08667C37.6666 8.58445 37.897 8.94533 38.2511 9.16933C38.6052 9.38711 39.133 9.496 39.8345 9.496C40.1952 9.496 40.4925 9.45867 40.7264 9.384C40.9669 9.30933 41.1573 9.20978 41.2976 9.08533C41.4379 8.96089 41.5381 8.81467 41.5982 8.64667C41.6583 8.47867 41.6884 8.30134 41.6884 8.11467C41.6884 7.95911 41.6683 7.81289 41.6283 7.676C41.5949 7.53289 41.5247 7.40534 41.4178 7.29334C41.3176 7.17511 41.1706 7.07245 40.9769 6.98534C40.7831 6.89823 40.5293 6.82978 40.2153 6.78L39.3234 6.64C38.976 6.584 38.6653 6.51245 38.3914 6.42534C38.1242 6.33823 37.897 6.22623 37.71 6.08934C37.5229 5.94623 37.3793 5.76889 37.2791 5.55734C37.1855 5.34578 37.1388 5.08756 37.1388 4.78266C37.1388 4.47778 37.2056 4.21333 37.3392 3.98933C37.4795 3.76533 37.6632 3.58178 37.8904 3.43867C38.1242 3.28933 38.3948 3.18044 38.7021 3.112C39.0161 3.03733 39.3468 3 39.6942 3C40.1418 3 40.5159 3.04667 40.8165 3.14C41.1172 3.22711 41.3644 3.34533 41.5581 3.49467C41.7519 3.644 41.9022 3.81511 42.0091 4.008C42.116 4.19467 42.1995 4.38444 42.2596 4.57733L41.6984 4.72666C41.6316 4.53378 41.5514 4.36266 41.4579 4.21333C41.3711 4.05778 41.2508 3.92711 41.0971 3.82133C40.9502 3.71555 40.7631 3.63467 40.536 3.57867C40.3088 3.52267 40.0316 3.49467 39.7042 3.49467C39.3367 3.49467 39.0294 3.52889 38.7822 3.59733C38.5351 3.65955 38.3346 3.74978 38.181 3.868C38.0273 3.98 37.9171 4.11689 37.8503 4.27867C37.7835 4.43422 37.7501 4.60222 37.7501 4.78266C37.7501 4.96933 37.7734 5.13112 37.8202 5.26801C37.867 5.40489 37.9471 5.52312 38.0607 5.62267C38.1743 5.72223 38.3246 5.80623 38.5117 5.87467C38.7054 5.94312 38.9459 6.00223 39.2332 6.052L40.2453 6.22C40.6061 6.28223 40.9168 6.36312 41.1773 6.46267C41.4445 6.56223 41.665 6.68978 41.8387 6.84534C42.0124 6.99467 42.1393 7.17511 42.2195 7.38667C42.3064 7.59822 42.3498 7.84711 42.3498 8.13334C42.3498 8.38845 42.2963 8.63111 42.1894 8.86133C42.0826 9.08533 41.9222 9.28133 41.7084 9.44933C41.5013 9.61733 41.2408 9.75111 40.9268 9.85067C40.6128 9.95022 40.2453 10 39.8244 10C39.437 10 39.0762 9.96578 38.7422 9.89733C38.4148 9.82889 38.1242 9.72 37.8703 9.57067C37.6231 9.41511 37.4194 9.216 37.259 8.97333C37.0987 8.73067 36.9985 8.43511 36.9584 8.08667H37.5597ZM46.421 8.08667C46.5279 8.58445 46.7584 8.94533 47.1124 9.16933C47.4665 9.38711 47.9943 9.496 48.6956 9.496C49.0564 9.496 49.3537 9.45867 49.5875 9.384C49.828 9.30933 50.0184 9.20978 50.1587 9.08533C50.299 8.96089 50.3992 8.81467 50.4594 8.64667C50.5195 8.47867 50.5496 8.30134 50.5496 8.11467C50.5496 7.95911 50.5295 7.81289 50.4894 7.676C50.456 7.53289 50.3859 7.40534 50.279 7.29334C50.1788 7.17511 50.0318 7.07245 49.8381 6.98534C49.6443 6.89823 49.3904 6.82978 49.0764 6.78L48.1847 6.64C47.8373 6.584 47.5266 6.51245 47.2527 6.42534C46.9855 6.33823 46.7584 6.22623 46.5713 6.08934C46.3842 5.94623 46.2406 5.76889 46.1404 5.55734C46.0468 5.34578 46.0001 5.08756 46.0001 4.78266C46.0001 4.47778 46.0669 4.21333 46.2005 3.98933C46.3408 3.76533 46.5245 3.58178 46.7517 3.43867C46.9855 3.28933 47.2561 3.18044 47.5634 3.112C47.8774 3.03733 48.2081 3 48.5555 3C49.003 3 49.3771 3.04667 49.6777 3.14C49.9784 3.22711 50.2255 3.34533 50.4193 3.49467C50.613 3.644 50.7633 3.81511 50.8702 4.008C50.9771 4.19467 51.0606 4.38444 51.1208 4.57733L50.5596 4.72666C50.4928 4.53378 50.4126 4.36266 50.3191 4.21333C50.2322 4.05778 50.112 3.92711 49.9583 3.82133C49.8113 3.71555 49.6243 3.63467 49.3971 3.57867C49.17 3.52267 48.8927 3.49467 48.5655 3.49467C48.1981 3.49467 47.8907 3.52889 47.6436 3.59733C47.3964 3.65955 47.1959 3.74978 47.0423 3.868C46.8886 3.98 46.7784 4.11689 46.7116 4.27867C46.6448 4.43422 46.6114 4.60222 46.6114 4.78266C46.6114 4.96933 46.6348 5.13112 46.6815 5.26801C46.7283 5.40489 46.8085 5.52312 46.922 5.62267C47.0356 5.72223 47.1859 5.80623 47.373 5.87467C47.5667 5.94312 47.8072 6.00223 48.0945 6.052L49.1065 6.22C49.4673 6.28223 49.7779 6.36312 50.0385 6.46267C50.3057 6.56223 50.5262 6.68978 50.6999 6.84534C50.8736 6.99467 51.0005 7.17511 51.0807 7.38667C51.1675 7.59822 51.211 7.84711 51.211 8.13334C51.211 8.38845 51.1575 8.63111 51.0506 8.86133C50.9437 9.08533 50.7834 9.28133 50.5696 9.44933C50.3625 9.61733 50.1019 9.75111 49.788 9.85067C49.474 9.95022 49.1065 10 48.6856 10C48.2983 10 47.9375 9.96578 47.6035 9.89733C47.2761 9.82889 46.9855 9.72 46.7316 9.57067C46.4844 9.41511 46.2807 9.216 46.1203 8.97333C45.96 8.73067 45.8598 8.43511 45.8197 8.08667H46.421ZM52.7203 3.168H57.2199V3.68133H53.3316V6.12667H57.0194V6.65867H53.3316V9.30933H57.3902L57.2499 9.832H52.7203V3.168ZM58.7121 3.168H63.2116V3.68133H59.3234V6.12667H63.0112V6.65867H59.3234V9.30933H63.3819L63.2416 9.832H58.7121V3.168ZM64.7033 3.168H65.3747L69.3832 8.936V3.168H69.9745V9.832H69.3131L65.2946 4.04533V9.832H64.7033V3.168ZM77.0303 10C76.5694 10 76.1385 9.92844 75.7376 9.78533C75.3434 9.636 75.0027 9.41511 74.7154 9.12267C74.4282 8.83022 74.201 8.46622 74.034 8.03067C73.8737 7.59511 73.7935 7.09111 73.7935 6.51867C73.7935 5.94623 73.8737 5.44223 74.034 5.00666C74.201 4.56489 74.4282 4.19778 74.7154 3.90533C75.0094 3.60667 75.3535 3.38267 75.7476 3.23333C76.1418 3.07778 76.5694 3 77.0303 3C77.4913 3 77.9189 3.07467 78.313 3.224C78.7072 3.36711 79.0446 3.58489 79.3252 3.87733C79.6125 4.16978 79.8363 4.53378 79.9966 4.96933C80.1636 5.39867 80.2471 5.89956 80.2471 6.472C80.2471 7.05067 80.167 7.56089 80.0066 8.00267C79.8463 8.43822 79.6225 8.80533 79.3352 9.104C79.0546 9.39644 78.7172 9.62045 78.3231 9.776C77.9289 9.92533 77.498 10 77.0303 10ZM77.0303 9.496C77.4512 9.496 77.822 9.42444 78.1427 9.28133C78.4634 9.132 78.7306 8.92667 78.9444 8.66533C79.1648 8.39778 79.3285 8.08045 79.4354 7.71334C79.549 7.34623 79.6058 6.94178 79.6058 6.5C79.6058 6.05823 79.549 5.65378 79.4354 5.28667C79.3219 4.91955 79.1548 4.60533 78.9344 4.344C78.7206 4.07644 78.4533 3.87111 78.1327 3.728C77.812 3.57867 77.4446 3.504 77.0303 3.504C76.5961 3.504 76.2153 3.57867 75.8879 3.728C75.5672 3.87111 75.3 4.07644 75.0862 4.344C74.8724 4.60533 74.7088 4.91955 74.5952 5.28667C74.4883 5.65378 74.4348 6.05823 74.4348 6.5C74.4348 6.94178 74.4883 7.34623 74.5952 7.71334C74.7021 8.08045 74.8624 8.39778 75.0762 8.66533C75.2967 8.92667 75.5672 9.132 75.8879 9.28133C76.2153 9.42444 76.5961 9.496 77.0303 9.496ZM81.7288 3.168H82.4003L86.4087 8.936V3.168H87V9.832H86.3386L82.3201 4.04533V9.832H81.7288V3.168Z" fill="white"/>
<path d="M0 19.5538H1.66351V31.7838H0V32.1998H5.18544V31.7838H3.79112V25.4245H4.94079C5.52789 25.4245 5.65022 26.5251 5.62568 27.1367H6.06592V23.1251H5.62568C5.65022 23.7855 5.50336 25.0575 4.94079 25.0575H3.81565V19.5047C4.52474 19.5293 5.65022 19.578 6.16372 20.1409C6.82442 20.8258 6.79988 21.8044 6.87315 22.7091H7.19106V19.1623H0V19.5538V19.5538ZM10.9335 19.5538H12.0831V19.1378H7.53351V19.5538H8.8055V31.7838H7.33792V32.1998H12.1809V31.7838H10.958L10.9335 19.5535V19.5538ZM20.9377 19.5538V19.1378H18.2472V19.5538H19.3478V28.5552L15.7764 19.1623H12.646V19.578H13.7712V31.8087H12.6218V32.2002H15.5321V31.7838H14.3583V21.6821L18.223 32.2489H19.8862V19.6029H20.938V19.5538H20.9377ZM25.6584 19.1623H23.6282L21.4509 31.8087H20.3257V32.2002H23.2854V31.7838H22.038L22.7229 27.699H25.0709L25.9027 31.7838H24.7285V32.1998H28.814V31.7838H28.2269L25.6584 19.1623ZM22.7965 27.2345L23.726 21.4374L24.9493 27.2345H22.7965ZM37.399 19.5538V19.1378H34.7818V19.5538H35.7604V28.2619L32.2623 19.1378H29.1806V19.5538H30.2812V31.7838H29.1319V32.1998H31.9447V31.7838H30.8193V21.4371L34.9286 32.2489H36.323V19.6029H37.4236V19.5538H37.399V19.5538ZM42.3398 31.7596C41.8996 31.98 41.0924 31.9065 40.7744 31.564C40.1141 30.7813 39.6738 29.4361 39.576 28.3842C39.3559 25.938 39.3314 24.7638 39.6493 22.8314C39.7962 21.7063 40.1141 20.6057 40.8722 19.8227C41.3615 19.3824 42.1933 19.4802 42.7068 19.7494C43.7341 20.4343 43.6851 21.6818 43.7587 22.8069H44.1744V19.1868H43.8319C43.8319 19.3824 43.8319 19.5538 43.6851 19.6761C43.3184 19.7736 43.147 19.3334 42.8537 19.2601C42.0952 18.8199 41.0191 18.9912 40.2851 19.3824C38.5974 20.3852 37.4968 22.2201 37.35 24.1276C37.0811 27.0877 37.4968 30.1942 39.9672 31.931C40.7499 32.298 41.875 32.7382 42.6581 32.1266C43.0002 32.0291 43.1961 31.5395 43.5386 31.4907C43.7832 31.6376 43.7587 31.931 43.7832 32.1998H44.1257V28.9713H43.6609C43.5873 29.9496 43.7341 30.8304 42.3398 31.7599V31.7596ZM49.5067 19.5538V19.1378H45.0061V19.5538H46.1067V31.7838H44.9571V32.1998H49.4576V31.7838H48.4061V19.5538H49.5067V19.5538ZM55.0346 19.1623H53.0777L50.9252 31.8087H49.8979V32.2002H52.6129V31.7838H51.4636L52.1239 27.7967H54.6431L55.4258 31.7838H54.2028V32.1998H58.4832V31.7838H57.7251L55.0346 19.1623ZM53.4447 27.2832H52.1972L53.2 21.0701L54.5453 27.2832H53.4447ZM65.601 28.9222H65.1853C65.1853 29.4848 65.1853 30.0964 65.063 30.6345C64.8674 31.1238 64.4759 31.6863 63.9133 31.7841H62.2502V19.5538H63.62V19.1378H58.9726V19.5538H60.1222V31.7838H58.9238V32.1998H65.601C65.601 31.148 65.5523 29.9983 65.601 28.9219V28.9222ZM77.1461 26.8675C76.6572 25.938 75.654 25.4977 74.6757 25.4C75.7763 25.2776 76.926 24.8374 77.464 23.6877C77.831 22.8072 77.9043 21.3884 77.3417 20.5321C76.7792 19.6761 75.9477 19.1868 74.9691 19.1623H69.8327V19.578H71.0802V31.8087H69.7595V32.2002H74.4065V31.7838H73.2572V25.5465H73.5261C74.0641 25.5707 74.7981 25.7908 75.0182 26.2068C75.654 27.2096 76.1678 30.8055 76.2902 31.4904C76.3147 31.7593 76.2902 32.0284 76.4367 32.2486H79.2253V31.8329C79.2253 31.8329 78.7606 31.8574 78.6137 31.7351C78.0511 30.0716 77.9043 28.4329 77.1461 26.8672V26.8675ZM73.2327 25.1308V19.5538C73.5997 19.5538 74.4556 19.5538 74.7003 19.7003C75.6053 20.6299 75.5317 22.2934 75.483 23.5651C75.3852 24.128 75.2138 24.7883 74.6512 25.033C74.3333 25.1798 73.2327 25.1308 73.2327 25.1308ZM85.5114 30.7081C85.0466 31.7599 83.408 31.8332 82.6495 31.8332V25.5468C82.6495 25.5468 83.7504 25.5468 84.0438 25.6933C84.484 26.0116 84.6064 26.6229 84.6796 27.259H84.9979V23.2962H84.6554C84.6309 23.8833 84.5576 24.6169 84.0193 24.9839C83.7014 25.2044 82.6495 25.1062 82.6495 25.1062V19.6025C83.0901 19.6025 83.9951 19.5293 84.3863 19.7003C85.3645 20.1651 85.4136 21.3148 85.4869 22.3179H85.8293V19.1623H79.4942V19.578H80.4973V31.8577H79.5923V32.2734H86.123V28.8244H85.7806C85.6828 29.5093 85.6582 30.121 85.5114 30.7081V30.7081ZM91.9934 19.5538H93.094L91.1616 30.9769C91.1371 30.9769 89.2047 19.5538 89.2047 19.5538H90.3544V19.1378H86.2941V19.5538H86.9302L89.327 32.1998H91.4308L93.6811 19.5538H94.3169V19.1378H92.0666V19.5538H91.9934V19.5538ZM97.6923 19.5538H98.9156V19.1378H94.6106V19.5538H95.6622V31.7838H94.3905V32.1998H99.0134V31.7838H97.7168L97.6923 19.5535V19.5538ZM99.6737 19.5538H100.946V31.7838H99.7225V32.1998H106.155V28.7512H105.837C105.837 28.7512 105.74 30.121 105.569 30.7081C105.373 31.1483 104.884 31.5885 104.419 31.7109C104.003 31.7841 103.147 31.7841 103.147 31.7841V25.3754C103.147 25.3754 104.15 25.3509 104.419 25.4977C104.859 25.8402 104.884 26.5006 104.981 27.1854H105.299V23.3698H104.957C104.957 23.8346 104.761 24.4704 104.394 24.7638C104.052 25.1066 103.122 24.9597 103.122 24.9597V19.578C103.122 19.578 104.345 19.5538 104.737 19.6025C105.666 20.0673 105.74 21.1437 105.862 22.0733H106.18V19.1136H99.6492L99.6737 19.5538V19.5538ZM115.622 19.1623V19.578H116.844L115.377 29.2163L113.689 19.1623H112.466L110.999 29.4606L109.629 19.5293H110.999V19.1136H106.596V19.5293H107.525L109.458 32.2002H111.047L112.393 24.1767L113.86 32.2002H115.426L117.383 19.5538H118.63V19.1378H115.622V19.1623Z" fill="white"/>
</svg>
