<?xml version="1.0" encoding="UTF-8"?>
<svg width="264px" height="204px" viewBox="0 0 264 204" version="1.1" xmlns="http://www.w3.org/2000/svg" xmlns:xlink="http://www.w3.org/1999/xlink">
    <title>13EB007B-568B-476C-94F0-CECA485D9DBF</title>
    <defs>
        <linearGradient x1="54.6945921%" y1="36.5545669%" x2="45.2989236%" y2="63.4454331%" id="linearGradient-1">
            <stop stop-color="#C3E9FA" offset="0%"></stop>
            <stop stop-color="#BDE3FA" offset="12%"></stop>
            <stop stop-color="#ADD1F9" offset="29%"></stop>
            <stop stop-color="#92B4F8" offset="48%"></stop>
            <stop stop-color="#6C8DF7" offset="68%"></stop>
            <stop stop-color="#6282F7" offset="73%"></stop>
        </linearGradient>
    </defs>
    <g id="Website" stroke="none" stroke-width="1" fill="none" fill-rule="evenodd">
        <g id="Pricing-page-Sapphire-Option-1" transform="translate(-880.000000, -1855.000000)" fill-rule="nonzero">
            <g id="Asset-1" transform="translate(880.000000, 1855.000000)">
                <ellipse id="Oval" fill="#AACFEA" cx="240" cy="195.5" rx="7" ry="1.5"></ellipse>
                <path d="M238.303058,195.314946 C240.969057,196.228351 243.864351,196.228351 246.530351,195.314946 C247.354541,191.209964 248.177758,187.104982 249,183 L236,183 C236.769634,187.104982 237.53732,191.209964 238.303058,195.314946 Z" id="Path" fill="#9B9BF8"></path>
                <path d="M236,182.998723 C236,183.550447 238.922005,184 242.498539,184 C246.075073,184 249,183.550447 249,182.998723 C249,182.446999 246.077995,182 242.501461,182 C238.924927,182 236,182.449553 236,182.998723 Z" id="Path" fill="#4943F3"></path>
                <path d="M240.555241,182.828263 C239.00406,177.347455 236.079138,172.378467 232.071565,168.41582 C231.855175,168.200165 232.178278,167.853902 232.394668,168.06652 C236.455151,172.092878 239.41846,177.136499 240.990986,182.697655 C241.026184,182.823468 240.955182,182.954697 240.832399,182.990763 C240.709615,183.02683 240.581547,182.954076 240.546349,182.828263 L240.555241,182.828263 Z" id="Path" fill="#95DBBC"></path>
                <path d="M242.177316,182.827829 C241.257723,178.387887 244.111525,173.210915 246.217391,169.549443 C249.399181,164.023195 253.555738,158.863983 258.65641,155.045633 C258.9047,154.862116 259.140729,155.27947 258.89857,155.460028 C253.975685,159.145179 249.969328,164.117914 246.85191,169.410325 C245.460738,171.713919 244.314602,174.14757 243.431027,176.674069 C242.796508,178.562525 242.204904,180.702577 242.634047,182.70055 C242.695353,182.996546 242.238622,183.132705 242.177316,182.827829 L242.177316,182.827829 Z" id="Path" fill="#95DBBC"></path>
                <path d="M258.838001,169.474471 C252.236802,171.773202 246.478245,176.417877 243.433175,182.87734 C243.302368,183.154722 242.894737,182.91275 243.025544,182.635368 C246.125369,176.066723 252.002566,171.351227 258.713278,169.014135 C258.999228,168.913805 259.123951,169.377093 258.838001,169.474471 L258.838001,169.474471 Z" id="Path" fill="#95DBBC"></path>
                <path d="M241.715896,183.77316 C243.09783,168.529527 244.117969,151.141501 233.068435,139.418421 C232.857883,139.19763 233.181125,138.849809 233.391677,139.0706 C244.533142,150.890465 243.569347,168.390398 242.175552,183.77316 C242.148863,184.075613 241.689207,184.075613 241.715896,183.77316 L241.715896,183.77316 Z" id="Path" fill="#95DBBC"></path>
                <path d="M256.191927,169.975462 C255.905228,169.781151 255.953967,168.356205 256.243533,167.310165 C256.639179,165.869026 257.579554,164.764693 257.874855,165.043205 C258.170156,165.321717 257.874855,166.68837 257.685633,167.42999 C257.312924,168.819312 256.527366,170.202158 256.191927,169.975462 Z" id="Path" fill="#77C5BB"></path>
                <path d="M234.981756,142.711933 C234.81056,143.04373 233.413478,143.090182 232.364902,142.844652 C230.921963,142.512854 229.772503,141.53737 230.038469,141.185664 C230.304434,140.833959 231.649546,141.059581 232.392415,141.228798 C233.765041,141.547324 235.177409,142.32373 234.981756,142.711933 Z" id="Path" fill="#77C5BB"></path>
                <path d="M236.98176,145.713292 C236.810589,146.044255 235.413711,146.090589 234.362232,145.842367 C232.922562,145.511404 231.770215,144.541683 232.039198,144.187553 C232.308181,143.833423 233.650039,144.058478 234.389742,144.230578 C235.765223,144.551612 237.177384,145.326065 236.98176,145.713292 Z" id="Path" fill="#62A59F"></path>
                <path d="M238.99112,147.661319 C238.875095,147.8819 237.539327,148.039748 236.492131,147.991179 C235.058188,147.924398 233.814643,147.452879 234.022892,147.216108 C234.231141,146.979336 235.55501,146.985407 236.292807,147.013739 C237.658326,147.076473 239.127969,147.410382 238.99112,147.661319 Z" id="Path" fill="#62A59F"></path>
                <path d="M239.972398,151.839013 C239.760668,152.118038 238.319643,152.009219 237.267316,151.705081 C235.81997,151.286543 234.739201,150.371339 235.055216,150.103475 C235.37123,149.835611 236.723771,150.148119 237.469565,150.360178 C238.844227,150.750814 240.212569,151.532085 239.972398,151.839013 Z" id="Path" fill="#62A59F"></path>
                <path d="M240.975776,154.844444 C240.763767,155.114353 239.324011,155.009089 238.270299,154.712188 C236.821049,154.307325 235.738858,153.422022 236.055288,153.162909 C236.371718,152.903796 237.457073,152.984769 238.203848,153.1899 C239.577155,153.570472 241.219427,154.547544 240.975776,154.844444 Z" id="Path" fill="#62A59F"></path>
                <path d="M241.957204,157.933875 C241.703129,158.166642 240.464154,157.751838 239.619139,157.20573 C238.457244,156.456696 237.743549,155.268985 238.086122,155.060091 C238.428696,154.851197 239.293694,155.224222 239.893198,155.6062 C240.997998,156.316439 242.248392,157.671265 241.957204,157.933875 Z" id="Path" fill="#62A59F"></path>
                <path d="M241.957115,161.935001 C241.702967,162.164872 240.466498,161.752895 239.618388,161.203592 C238.45902,160.45427 237.745123,159.269088 238.084938,159.060114 C238.424753,158.85114 239.295707,159.224308 239.892525,159.606432 C241.000493,160.313959 242.248385,161.669305 241.957115,161.935001 Z" id="Path" fill="#62A59F"></path>
                <path d="M242.950429,165.93218 C242.699478,166.169065 241.48435,165.751865 240.639043,165.200311 C238.532379,163.786072 239.011166,163.114308 239.13334,163.036525 C239.43382,162.845603 240.559795,163.446655 241.147548,163.832035 C242.253711,164.546226 243.234399,165.66701 242.950429,165.93218 Z" id="Path" fill="#62A59F"></path>
                <path d="M242.948857,167.933636 C242.694672,168.166589 241.463879,167.753627 240.607676,167.203011 C239.453808,166.447678 238.744765,165.254677 239.085908,165.042901 C239.427052,164.831126 240.530751,165.452334 241.12608,165.837059 C242.243158,166.550037 243.239833,167.654799 242.948857,167.933636 Z" id="Path" fill="#62A59F"></path>
                <path d="M241.141489,169.804712 C242.244521,170.516847 243.237249,171.649141 242.949792,171.919752 C242.662336,172.190363 241.465714,171.734597 240.610028,171.179132 C239.453517,170.420709 238.744902,169.21364 239.085839,169 L241.141489,169.804712 Z" id="Path" fill="#62A59F"></path>
                <path d="M241.900153,173.986579 C241.598183,174.096183 240.578629,173.516085 239.951961,172.917274 C239.098003,172.115296 238.779799,171.083417 239.156449,171.005892 C239.5331,170.928368 240.377316,171.634109 240.818906,172.048464 C241.640394,172.82371 242.247581,173.858262 241.900153,173.986579 Z" id="Path" fill="#62A59F"></path>
                <path d="M255.342359,156.982987 C254.985053,156.821857 254.899035,155.438037 255.124006,154.389114 C255.428378,152.948424 256.394428,151.779444 256.778202,152.035356 C257.161976,152.291268 256.963472,153.615059 256.807978,154.370157 C256.510222,155.744499 255.749292,157.172551 255.342359,156.982987 Z" id="Path" fill="#77C5BB"></path>
                <path d="M234.607506,169.995469 C234.370695,169.921691 234.08126,168.872399 234.012848,168.036245 C233.928649,166.894047 234.275971,165.866615 234.539094,166.014172 C234.802217,166.161729 234.93641,167.21102 234.978509,167.798514 C235.06534,168.888794 234.878523,170.08291 234.607506,169.995469 Z" id="Path" fill="#77C5BB"></path>
                <path d="M238.231641,174.988563 C238.032821,174.870848 237.94534,173.78123 238.035472,172.933079 C238.157415,171.783094 238.645189,170.820246 238.854613,171.028511 C239.064038,171.236776 239.003066,172.290174 238.942094,172.881767 C238.828104,173.977422 238.459623,175.127406 238.231641,174.988563 Z" id="Path" fill="#599187"></path>
                <path d="M239.265905,177.994201 C239.057698,177.911917 238.946835,177.096791 239.025251,176.466804 C239.13341,175.605394 239.625535,174.880266 239.836445,175.016549 C240.047356,175.152832 240.012204,175.955101 239.960828,176.397377 C239.868893,177.217646 239.509263,178.079056 239.265905,177.994201 Z" id="Path" fill="#599187"></path>
                <path d="M241.266053,179.993202 C241.057731,179.910946 240.946806,179.096092 241.025265,178.466315 C241.133484,177.605192 241.625883,176.880306 241.836911,177.016544 C242.047939,177.152781 242.012767,177.954782 241.958658,178.396911 C241.872082,179.216906 241.506841,180.085741 241.266053,179.993202 Z" id="Path" fill="#599187"></path>
                <path d="M236.34195,171.990115 C236.119636,171.886116 235.96084,170.808571 236.008479,169.967912 C236.074644,168.812367 236.537798,167.844598 236.781285,168.020818 C237.024772,168.197039 237.014185,169.26014 236.985073,169.846579 C236.926848,170.944347 236.593377,172.120114 236.34195,171.990115 Z" id="Path" fill="#77C5BB"></path>
                <path d="M253.570699,159.99648 C253.331927,159.925723 253.048639,158.639796 253.006145,157.599979 C252.947464,156.172538 253.32181,154.855847 253.584863,155.012742 C253.847917,155.169638 253.959208,156.474023 253.989561,157.206202 C254.050265,158.572115 253.837799,160.082618 253.570699,159.99648 Z" id="Path" fill="#77C5BB"></path>
                <path d="M249.569912,163.996962 C249.333478,163.923167 249.050566,162.640975 249.006109,161.601692 C248.947506,160.174984 249.323374,158.855894 249.584057,159.012709 C249.84474,159.169524 249.959926,160.476315 249.988217,161.208117 C250.052883,162.564105 249.842719,164.076907 249.569912,163.996962 Z" id="Path" fill="#77C5BB"></path>
                <path d="M246.569924,166.996955 C246.331476,166.926191 246.050593,165.640142 246.006137,164.600226 C245.947535,163.172649 246.321373,161.855833 246.584069,162.012744 C246.846765,162.169654 246.959927,163.474163 246.988217,164.206412 C247.052881,165.566301 246.842724,167.076948 246.569924,166.996955 Z" id="Path" fill="#77C5BB"></path>
                <path d="M245.766255,169.99983 C245.548361,169.99983 245.189239,169.007131 245.062134,168.183641 C244.888626,167.055573 245.108537,165.927505 245.35266,166.00365 C245.596782,166.079795 245.810641,167.106336 245.903448,167.695752 C246.072921,168.764596 246.014413,170.016751 245.766255,169.99983 Z" id="Path" fill="#77C5BB"></path>
                <path d="M244.770652,171.99983 C244.553528,171.99983 244.190301,171.007197 244.062461,170.180943 C243.88795,169.05295 244.109133,167.924958 244.356695,168.003917 C244.604258,168.082877 244.817324,169.10653 244.908638,169.695906 C245.070974,170.764679 245.012127,172.01675 244.770652,171.99983 Z" id="Path" fill="#77C5BB"></path>
                <path d="M242.76688,174.99983 C242.549131,174.99983 242.190249,174.009951 242.063229,173.183641 C241.88782,172.055573 242.107585,170.927505 242.35356,171.00365 C242.599536,171.079795 242.811237,172.109157 242.901965,172.695752 C243.073342,173.764596 243.014872,175.016751 242.76688,174.99983 Z" id="Path" fill="#77C5BB"></path>
                <path d="M241.811866,178.998443 C241.482257,179.04277 240.727542,178.132586 240.357886,177.319921 C239.846529,176.202877 239.929702,174.985357 240.31476,175.000133 C240.699818,175.014909 241.2389,176.010792 241.5069,176.58409 C241.984373,177.656807 242.172281,178.957071 241.811866,178.998443 Z" id="Path" fill="#77C5BB"></path>
                <path d="M244.003277,175.848419 C243.93933,175.556807 244.822957,174.813195 245.63101,174.42535 C246.741356,173.894615 247.991223,173.891699 247.999943,174.24455 C248.008663,174.597402 247.020396,175.148549 246.453596,175.411001 C245.398477,175.935903 244.07885,176.180858 244.003277,175.848419 Z" id="Path" fill="#62A59F"></path>
                <path d="M246.000109,171.77418 C246.000109,171.566064 246.986976,171.195617 247.811173,171.066585 C248.941733,170.887605 250.072292,171.099884 249.996379,171.343379 C249.920466,171.586875 248.895643,171.803316 248.315451,171.896968 C247.239115,172.071785 245.986553,172.019756 246.000109,171.77418 Z" id="Path" fill="#62A59F"></path>
                <path d="M247.000109,168.77418 C247.000109,168.566064 247.987644,168.197698 248.812398,168.066585 C249.943722,167.887605 251.072333,168.099884 250.996369,168.343379 C250.920404,168.586875 249.894888,168.803316 249.314304,168.896968 C248.239953,169.071785 246.986544,169.019756 247.000109,168.77418 Z" id="Path" fill="#62A59F"></path>
                <path d="M249.000109,166.77418 C249.000109,166.566064 249.992711,166.197698 250.819426,166.066585 C251.953439,165.887605 253.084733,166.099884 252.994991,166.343379 C252.905249,166.586875 251.890892,166.803316 251.308928,166.896968 C250.242901,167.071785 248.986512,167.019756 249.000109,166.77418 Z" id="Path" fill="#62A59F"></path>
                <path d="M250.000724,163.699411 C250.030236,163.477591 251.02559,163.135988 251.849238,163.03395 C252.98142,162.900858 254.078724,163.184788 253.995554,163.439881 C253.912384,163.694974 252.868738,163.883521 252.289233,163.943413 C251.197295,164.078723 249.965847,163.961159 250.000724,163.699411 Z" id="Path" fill="#62A59F"></path>
                <path d="M252.000726,161.703271 C252.030326,161.48054 253.028652,161.135306 253.85476,161.035077 C254.993013,160.899211 256.090902,161.184307 255.99403,161.440448 C255.897157,161.696589 254.866541,161.885911 254.282614,161.946049 C253.20087,162.075233 251.965745,161.963867 252.000726,161.703271 Z" id="Path" fill="#62A59F"></path>
                <path d="M254.005258,159.398946 C254.085895,159.168316 255.144917,158.976894 255.980846,159.002263 C257.125881,159.036858 258.131146,159.491197 257.986001,159.73797 C257.840855,159.984743 256.776457,160.012419 256.187812,159.996275 C255.096535,159.966293 253.911183,159.659556 254.005258,159.398946 Z" id="Path" fill="#62A59F"></path>
                <path d="M251.568885,161.996961 C251.332206,161.923127 251.049001,160.640269 251.00652,159.600447 C250.945833,158.172998 251.322092,156.853223 251.583046,157.013196 C251.843999,157.173169 251.959305,158.474485 251.987625,159.206668 C252.054381,160.563359 251.841977,162.076947 251.568885,161.996961 Z" id="Path" fill="#77C5BB"></path>
                <path d="M259.02238,168.842405 C258.839288,168.469616 259.810857,167.398192 260.794238,166.790683 C262.146756,165.962263 263.865458,165.796579 263.992441,166.238403 C264.104659,166.644329 262.941139,167.536262 262.247161,167.967041 C260.971424,168.776131 259.237956,169.270422 259.02238,168.842405 Z" id="Path" fill="#77C5BB"></path>
                <path d="M258.022983,154.843888 C257.837071,154.470904 258.810897,153.396158 259.793576,152.791096 C261.148079,151.962243 262.865554,151.796473 262.992447,152.238528 C263.104584,152.644665 261.941895,153.537063 261.248413,153.968067 C259.967684,154.774817 258.235454,155.269365 258.022983,154.843888 Z" id="Path" fill="#62A59F"></path>
                <path d="M233.699042,139.993231 C233.208006,140.095409 232.080929,139.02254 231.527278,138.006436 C230.769302,136.627033 230.897828,135.034759 231.474549,135.0007 C231.99195,134.96664 232.861974,136.184262 233.257439,136.890993 C233.98905,138.210792 234.262581,139.874024 233.699042,139.993231 Z" id="Path" fill="#62A59F"></path>
                <path d="M257.01693,170.325749 C257.181217,169.974012 258.568528,169.90101 259.618138,170.136608 C261.060211,170.468435 262.222387,171.434053 261.963788,171.795746 C261.705188,172.157438 260.363513,171.961659 259.62118,171.795746 C258.249081,171.507055 256.828305,170.730579 257.01693,170.325749 Z" id="Path" fill="#77C5BB"></path>
                <path d="M235.379868,142.985232 C235.009318,142.831071 234.893521,141.4562 235.105264,140.405383 C235.393102,138.967589 236.369104,137.784633 236.759505,138.03318 C237.149906,138.281726 236.981173,139.606259 236.8356,140.358191 C236.567613,141.729915 235.806662,143.161417 235.379868,142.985232 Z" id="Path" fill="#8CD9CC"></path>
                <path d="M237.381288,144.983302 C237.010305,144.829276 236.894373,143.452466 237.103051,142.405714 C237.394537,140.966037 238.368367,139.787262 238.759224,140.032447 C239.150081,140.277632 238.981151,141.619864 238.835408,142.358563 C238.567108,143.729086 237.808581,145.171906 237.381288,144.983302 Z" id="Path" fill="#8CD9CC"></path>
                <path d="M239.200228,146.975466 C238.905054,146.781187 238.952393,145.356474 239.236429,144.310605 C239.629066,142.869702 240.567497,141.762312 240.868241,142.044016 C241.168984,142.325721 240.887733,143.69215 240.690022,144.43041 C240.322447,145.819505 239.537172,147.202125 239.200228,146.975466 Z" id="Path" fill="#8CD9CC"></path>
                <path d="M240.130825,150.973498 C239.882807,150.791944 240.009297,149.638545 240.32676,148.784175 C240.763272,147.628106 241.663579,146.784416 241.911597,147.048736 C242.159616,147.313057 241.829751,148.402379 241.609015,148.997768 C241.197304,150.100439 240.416047,151.184421 240.130825,150.973498 Z" id="Path" fill="#8CD9CC"></path>
                <path d="M241.130851,153.974063 C240.882784,153.792489 241.009298,152.638957 241.326824,151.784489 C241.763422,150.625617 242.663906,149.7845 242.911973,150.048851 C243.16004,150.313202 242.82763,151.402649 242.60685,151.998106 C242.19754,153.100904 241.416128,154.18234 241.130851,153.974063 Z" id="Path" fill="#8CD9CC"></path>
                <path d="M242.130828,157.974063 C241.882805,157.792489 242.009297,156.638957 242.326767,155.784489 C242.763287,154.625617 243.663612,153.7845 243.911635,154.048851 C244.159659,154.313202 243.829788,155.402649 243.606567,155.998106 C243.197328,157.100904 242.416055,158.18234 242.130828,157.974063 Z" id="Path" fill="#8CD9CC"></path>
                <path d="M243.053041,161.937507 C242.842268,161.653481 243.290494,160.39389 243.853444,159.551075 C244.616494,158.393362 245.779746,157.732693 245.966507,158.103162 C246.153268,158.47363 245.515614,159.588121 245.126084,160.187045 C244.397718,161.292275 243.29583,162.258579 243.053041,161.937507 Z" id="Path" fill="#8CD9CC"></path>
                <path d="M243.053232,165.936406 C242.842481,165.655326 243.287994,164.39201 243.853554,163.551858 C244.616528,162.39356 245.779662,161.732558 245.966404,162.103214 C246.153146,162.473869 245.518224,163.588923 245.126066,164.185061 C244.397773,165.293937 243.293329,166.26073 243.053232,165.936406 Z" id="Path" fill="#8CD9CC"></path>
                <path d="M256.006682,157.437956 C256.107535,157.203953 257.427522,156.987446 258.471646,157.000567 C259.901385,157.011502 261.170946,157.453264 260.981105,157.70695 C260.791264,157.960635 259.471277,158 258.735644,158 C257.371163,158 255.888031,157.70695 256.006682,157.437956 Z" id="Path" fill="#62A59F"></path>
                <path d="M253.011992,172.516926 C253.146865,172.107655 254.510579,171.893274 255.553596,172.053085 C256.989243,172.271363 258.200101,173.24582 257.972316,173.678479 C257.744531,174.111138 256.410788,174.01759 255.673483,173.908451 C254.300777,173.709662 252.853142,172.984666 253.011992,172.516926 Z" id="Path" fill="#77C5BB"></path>
                <path d="M250.008032,175.364689 C250.118561,175.138716 251.451411,174.966977 252.494936,175.005392 C253.928563,175.057366 255.180142,175.522869 254.978589,175.76466 C254.777036,176.006451 253.453938,176.015489 252.70299,175.990633 C251.350635,175.945438 249.877998,175.622297 250.008032,175.364689 Z" id="Path" fill="#77C5BB"></path>
                <path d="M247.003592,177.500574 C247.080863,177.265021 248.371924,177.016258 249.411856,177.000848 C250.834921,176.978834 252.14208,177.390502 251.987539,177.648071 C251.832998,177.905639 250.51618,177.984891 249.78533,177.998099 C248.423438,178.024517 246.916663,177.771351 247.003592,177.500574 Z" id="Path" fill="#77C5BB"></path>
                <path d="M246.008904,180.366956 C246.126259,180.140372 247.466068,179.966818 248.512488,180.005385 C249.946833,180.060826 251.185585,180.528457 250.976953,180.769504 C250.768321,181.010551 249.441552,181.010551 248.695041,180.993678 C247.338933,180.947879 245.871989,180.624876 246.008904,180.366956 Z" id="Path" fill="#77C5BB"></path>
                <path d="M244.001275,182.680061 C244.043403,182.449356 245.297524,182.122887 246.334523,182.027123 C247.757156,181.907417 249.118218,182.207769 248.991833,182.462415 C248.865449,182.717061 247.5692,182.884649 246.84006,182.949943 C245.488721,183.08053 243.949425,182.943413 244.001275,182.680061 Z" id="Path" fill="#77C5BB"></path>
                <path d="M243.468313,178.00387 C243.233068,178.076539 243.002178,179.11813 243,179.95248 C243,181.096347 243.422571,182.127172 243.677421,181.987217 C243.93227,181.847261 243.995438,180.794904 243.999795,180.208168 C244.008508,179.120822 243.73841,177.923126 243.468313,178.00387 Z" id="Path" fill="#77C5BB"></path>
                <path d="M253.362499,171.984601 C252.996849,171.826946 252.895279,170.449048 253.115346,169.399071 C253.413283,167.958112 254.38835,166.782011 254.770928,167.034258 C255.153506,167.286505 254.974067,168.626566 254.825098,169.36754 C254.547475,170.739132 253.782319,172.164326 253.362499,171.984601 Z" id="Path" fill="#77C5BB"></path>
                <path d="M236.98931,174.754932 C236.872448,174.956207 235.776864,175.054196 234.944221,174.969449 C233.793127,174.855569 232.831935,174.368272 233.024758,174.153756 C233.21758,173.939239 234.28687,173.994855 234.877025,174.05047 C235.966766,174.156404 237.123702,174.521877 236.98931,174.754932 Z" id="Path" fill="#77C5BB"></path>
                <path d="M234.985471,172.787307 C234.865849,173.08821 234.012887,173.05304 233.380968,172.787307 C232.515004,172.396524 231.851879,171.446921 232.028713,171.138202 C232.205546,170.829483 233.016899,171.106939 233.464184,171.302331 C234.28854,171.650128 235.120697,172.43951 234.985471,172.787307 Z" id="Path" fill="#77C5BB"></path>
                <path d="M233.984945,170.786794 C233.865343,171.088423 233.012531,171.053168 232.383323,170.786794 C231.514911,170.395068 230.851902,169.443174 231.028704,169.137628 C231.205507,168.832081 232.019318,169.102372 232.463924,169.302153 C233.290735,169.646871 234.122747,170.438158 233.984945,170.786794 Z" id="Path" fill="#77C5BB"></path>
                <path d="M232.912411,168.974297 C232.629292,169.124427 231.618664,168.592443 230.995085,168.014767 C230.134976,167.218422 229.780181,166.134871 230.13856,166.014114 C230.496939,165.893357 231.342713,166.575471 231.783518,166.993226 C232.607789,167.734088 233.238536,168.80132 232.912411,168.974297 Z" id="Path" fill="#77C5BB"></path>
                <path d="M237.981658,177.846859 C237.848685,178.113395 236.979044,178.010334 236.346094,177.704706 C235.479112,177.281803 234.840843,176.368473 235.034983,176.101937 C235.229123,175.835401 236.045575,176.15169 236.492364,176.364919 C237.319454,176.759392 238.133247,177.541231 237.981658,177.846859 Z" id="Path" fill="#77C5BB"></path>
                <path d="M239.972895,180.90678 C239.811592,181.123826 238.916082,180.937787 238.281994,180.596715 C237.414295,180.134717 236.824704,179.269634 237.047191,179.06189 C237.269678,178.854146 238.095661,179.216923 238.543416,179.449472 C239.377743,179.889765 240.156447,180.658728 239.972895,180.90678 Z" id="Path" fill="#77C5BB"></path>
                <path d="M249.278403,173.984193 C248.946194,173.812234 248.913339,172.417458 249.168884,171.366598 C249.533948,169.924055 250.479464,168.771295 250.822624,169.038786 C251.165785,169.306278 250.935794,170.653288 250.760564,171.395258 C250.424704,172.751822 249.66172,174.165705 249.278403,173.984193 Z" id="Path" fill="#77C5BB"></path>
                <path d="M247.238377,176.985765 C247.038953,176.834803 246.946537,175.46042 247.031657,174.409976 C247.153257,172.972693 247.639657,171.787012 247.85124,172.032325 C248.062824,172.277639 248.004456,173.604846 247.943656,174.353366 C247.822056,175.724603 247.454825,177.158742 247.238377,176.985765 Z" id="Path" fill="#77C5BB"></path>
                <path d="M245.542888,179.993395 C245.304131,179.894039 245.036722,178.574469 245.003296,177.528128 C244.96032,176.096783 245.347107,174.826891 245.607353,175.019393 C245.867599,175.211895 245.967877,176.52836 245.99414,177.264214 C246.039504,178.627252 245.815072,180.11138 245.542888,179.993395 Z" id="Path" fill="#77C5BB"></path>
                <path d="M247.989082,183.587605 C247.266992,187.282492 246.544901,190.974449 245.82281,194.663476 C245.706373,195.249346 244.899436,195.00914 245.010458,194.411552 C245.732549,190.720572 246.454639,187.028615 247.17673,183.335681 C247.293167,182.749811 248.102812,182.992947 247.989082,183.587605 Z" id="Path" fill="#D0D0F4"></path>
                <path d="M0,35.0013332 C0,49.4174944 11.5803505,61.7971386 28.1194203,67.1574889 C34.057829,69.0604114 40.2630701,70.0196981 46.5045025,70 C49.9904026,70.0037948 53.4701762,69.7103626 56.9052061,69.1226534 C77.5745409,65.5550325 93,51.6413113 93,35.0013332 C92.9909951,15.6707744 72.171578,0 46.5045025,0 C20.837427,0 0,15.6707744 0,35.0013332 Z" id="Path" fill="#CBE0F0" opacity="0.46"></path>
                <path d="M45.8684995,44 C45.935516,43.1503328 46.1913974,42.3394127 46.8371932,41.8661453 C47.482989,41.392878 48.189709,41.4537662 49,41.5893808 C48.4334055,41.4039485 47.6718539,41.1908398 46.7031601,40.8642577 C43.2822699,39.7046142 42.3166224,38.7802206 42.0576948,39.0459146 C41.6281797,39.4693644 43.666092,42.4196744 45.8684995,43.9861618 L45.8684995,44 Z" id="Path" fill="#D9A274"></path>
                <path d="M33.3816033,31.9275533 C34.4340683,34.8893931 37.2886592,35.3895217 37.5944033,38.8155528 C37.694358,39.899664 37.3004186,41.4180187 36.4802015,44.4128011 C36.6859907,44.7122793 38.1235756,46.739747 40.7312194,46.9823243 C42.8951758,47.150816 44.9774174,46.1051616 46.1640557,44.2540776 C46.1723178,44.1046222 46.1880171,43.9556899 46.2110932,43.807855 C46.265442,43.097123 46.5802797,42.4332306 47.0930471,41.9480952 C47.5810616,41.5408048 48.1425723,41.4988778 48.7628799,41.5887213 L49.1773983,41.660596 C50.3180587,41.8822099 51.6115911,42.3523908 52.97274,41.6785647 C53.6783032,41.3401543 54.657272,40.5764848 55.692098,36.9048816 C56.6063902,33.6555427 57.5059833,30.4930525 56.6651872,26.2224929 C55.9625639,22.6736757 55.2481812,19.0350151 51.8203202,17.1273388 C47.631039,14.7973981 42.4863078,16.7859336 42.2364208,16.8817666 C35.8892923,19.4482951 31.6735525,27.1418911 33.3816033,31.9275533 Z" id="Path" fill="#EDDAB9"></path>
                <path d="M37.0005586,43 C36.470102,42.9701482 36.0330782,42.4029633 35.119849,40.2715423 C34.1583966,38.0147436 33.6128702,36.1728854 32.7960877,34.4056567 C31.5905047,31.7816804 31.1836204,32.2055765 30.5687731,30.5249182 C29.36319,27.2412164 30.3728658,24.094833 30.8701688,22.5574635 C31.500086,20.581272 32.4464686,17.6169848 35.3037004,15.7363192 C37.253731,14.4526903 39.0922452,14.3302978 42.7059803,14.0884979 C44.6740946,13.960135 47.8508059,13.7899796 51.5941413,15.0318159 C53.4786134,15.6263799 55.2238323,16.5886067 56.7269111,17.8617698 C57.8752289,18.8528508 59.1712307,19.9693094 58.9813513,21.2827901 C58.8155837,22.4380561 57.5587634,23.3395815 56.4345572,23.6709369 C53.604451,24.5097735 51.9347185,21.6857899 49.9033111,22.3932784 C47.1093724,23.3694334 47.5494102,29.6353335 45.502933,29.8771334 C44.4872293,29.9965407 43.9507448,28.471112 42.7240641,28.68306 C41.6541091,28.8591858 40.6715589,30.2472961 40.8132149,31.4174881 C41.0061082,32.9697835 43.0284738,32.8772428 43.6885305,34.6086492 C44.4390059,36.5728999 41.1266665,42.5880447 41.9404351,40.6506606 C41.0868108,40.1332746 40.009662,40.144871 39.1675941,40.6805124 C38.6325408,41.061726 38.2733933,41.6388286 38.1699741,42.283556 L37.0005586,43 Z" id="Path" fill="#23357F"></path>
                <path d="M48.0342156,21.6349583 C50.3681754,20.2886501 53.0584649,23.3554045 55.4577518,23.2935392 C61.7410329,23.1285649 58.9527527,17.0127319 55.2469234,15.5692068 C49.0586636,13.1623496 39.1645745,12.4288032 34.6184009,18.2205795 C34.3214595,18.5799878 33.7988425,18.0997947 34.0809369,17.7403864 C36.8632783,14.2052229 40.4533004,13.6160289 44.8242785,13.1034302 C48.610282,12.6703727 55.1667492,13.5747854 58.1866437,16.2408879 C59.7158922,17.587196 60.660166,20.6068149 59.4456755,22.3832345 C58.5192181,23.7442725 56.7375694,24.0683292 55.2261375,23.988788 C53.1475473,23.8797871 50.1038975,21.2608201 48.3964842,22.2212062 C47.9956132,22.4539378 47.6006811,21.8588519 48.0045214,21.6320123 L48.0342156,21.6349583 Z" id="Path" fill="#23357F"></path>
                <path d="M44.8929103,42.2556393 C45.4532227,42.9641094 45.9266866,43.5483856 46.3469209,44 C46.4589834,43.2294329 46.7307349,42.5294305 47.2686348,42.091929 C47.8065346,41.6544275 48.3584423,41.6318468 49,41.7249923 C48.425172,41.5605321 47.8593972,41.3655 47.3050551,41.1407161 C46.8512021,40.9572478 46.4982053,40.7878923 46.2348584,40.6608758 C44.0692511,39.6080496 43.2371872,38.8374825 43.0382764,39.0294186 C42.7160967,39.3455487 44.5231041,41.7899119 44.8929103,42.2556393 Z" id="Path" fill="#E1AA5E"></path>
                <path d="M29,67.146936 C34.9500553,69.0569232 41.1674663,70.0197712 47.4211396,69.9996923 C50.9138764,70.0038089 54.4004747,69.7092873 57.8422415,69.1193962 C57.9234449,69.3432003 57.9625428,69.3879611 57.980588,69.3849771 C58.1820927,69.3402162 56.7775748,63.601879 55.4963657,57.057847 C55.2664911,55.7718693 54.8480124,54.5262335 54.2542546,53.3606032 C54.1159081,53.0950224 53.9264335,52.5638606 52.3204109,50.564544 C50.6241623,48.4548173 49.3429532,47.6670268 48.0406914,45.3484163 C47.7842344,44.8064196 47.3448414,44.3704567 46.7985803,44.1160017 C45.4512055,43.58484 44.6121038,45.0321065 42.4496876,45.3484163 C39.7669681,45.7423115 36.8616913,44.1160017 36.8616913,44.1160017 C35.0391263,48.4040883 33.5744577,51.9730178 32.5127985,54.5930178 C31.2376046,57.7292593 30.9669266,58.472289 30.6481281,59.5226762 C29.9213591,62.0231342 29.3706557,64.5706946 29,67.146936 L29,67.146936 Z" id="Path" fill="#F0CD89"></path>
                <ellipse id="Oval" fill="#AACFEA" cx="155.5" cy="199.5" rx="50.5" ry="4.5"></ellipse>
                <path d="M163.655568,51.0145234 C160.942872,50.6590676 157.826285,56.9387867 157.431437,57.7444865 C155.622972,61.3760599 155.580775,64.6551396 155.565704,66.9270945 C155.51145,74.296878 158.429106,75.2477223 157.431437,80.9972198 C156.954663,83.7428969 156.117809,86.4162706 154.941784,88.9505432 C153.99234,90.8522317 153.30211,91.6164617 153.073038,93.2337856 C152.684218,95.9974544 153.895889,99.5786715 155.565704,99.9637487 C158.808884,100.710206 165.696119,89.8065993 168.013967,78.5504991 C170.654325,65.7363176 167.579936,51.52401 163.655568,51.0145234 Z" id="Path" fill="#5435F1"></path>
                <path d="M154.471817,187.39839 C155.522928,187.871958 155.535114,188.42397 157.619056,190.399593 C158.709774,191.43389 158.755474,191.329298 158.877342,191.599494 C159.486682,192.976619 157.795764,194.897041 154.471817,198.801801 C152.948468,200.600199 150.696958,203 150.696958,203 L150.696958,203 C147.129274,202.799532 143.57073,202.381165 140,202.401502 L140,202.401502 C140,202.401502 140.408258,200.187643 140.929243,199.981364 L143.144193,199.109766 L146.922098,197.607712 L146.922098,197.607712 C148.092031,196.44558 150.684771,193.830785 150.696958,191.009712 C150.696958,190.649451 150.65735,190.393783 150.696958,189.809812 C150.773125,188.679639 150.797499,187.834189 151.324577,187.407106 C152.116719,186.759218 153.548667,186.982928 154.471817,187.39839 Z" id="Path" fill="#4B56FA"></path>
                <path d="M94.9983145,194.909402 C95.037847,196.325599 94.3688358,198.47144 94.3688358,198.47144 L93.739357,198.47144 C92.5746693,198.47144 74.6999052,198.979892 73.9731157,199 C73.8210677,199 72.9969674,197.276433 73,197.276433 L74.255925,195.498287 C75.5939475,193.682797 79.5502367,194.199867 83.6829016,193.12551 C88.6366258,191.832835 89.5854054,189.350899 91.8478798,190.158103 C93.6815788,190.81593 94.9435773,193.105402 94.9983145,194.909402 Z" id="Path" fill="#4B56FA"></path>
                <path d="M184.968818,199 L184.968818,199 C185.633043,198.84394 175.465292,152.95645 175.465292,152.95645 C175.389672,152.635176 175.188533,152.357205 174.906447,152.184136 C174.624361,152.011067 174.284623,151.957191 173.962521,152.034449 L173.962521,152.034449 C173.639824,152.109823 173.360519,152.310023 173.186271,152.590848 C173.012024,152.871673 172.957165,153.210026 173.033808,153.531203 C173.033808,153.531203 184.304593,199.155265 184.968818,199 Z" id="Path" fill="#1910B6"></path>
                <path d="M136.031182,199 L136.031182,199 C135.366957,198.84394 145.534708,152.95645 145.534708,152.95645 C145.610328,152.635176 145.811467,152.357205 146.093553,152.184136 C146.375639,152.011067 146.715377,151.957191 147.037479,152.034449 L147.037479,152.034449 C147.360176,152.109823 147.639481,152.310023 147.813729,152.590848 C147.987976,152.871673 148.042835,153.210026 147.966192,153.531203 C147.966192,153.531203 136.695407,199.155265 136.031182,199 Z" id="Path" fill="#1910B6"></path>
                <polygon id="Rectangle" fill="#000000" transform="translate(159.339327, 160.168822) rotate(-28.650000) translate(-159.339327, -160.168822) " points="142.258184 159.855891 176.420296 159.865472 176.420469 160.481754 142.258357 160.472173"></polygon>
                <polygon id="Rectangle" fill="#000000" transform="translate(162.096644, 159.256414) rotate(-60.610989) translate(-162.096644, -159.256414) " points="161.784059 142.051624 162.399421 142.051799 162.409228 176.461204 161.793867 176.461028"></polygon>
                <path d="M186.376601,96.7866803 C185.806969,95.216773 184.966484,93.7570964 183.892708,92.4728851 C182.975532,91.4317271 181.820792,90.1220755 180.786338,90.0087116 C177.433382,89.635804 171.816055,101.288421 169.614832,114.653429 C167.037717,130.255884 171.355963,134.691993 167.130939,138.683596 C162.478901,143.080922 155.703826,139.143018 136.698734,142.997391 C131.439256,144.062415 128.098329,144.766464 128.002101,146.076116 C127.80363,148.811766 141.702607,153.928058 155.330942,152.854085 C159.967943,152.490127 177.283026,151.311739 184.521199,139.301131 C187.080271,135.044017 184.340771,136.141857 187.627569,114.038878 C187.618548,114.029928 189.04393,104.456644 186.376601,96.7866803 Z" id="Path" fill="#93ADEB"></path>
                <path d="M156.843834,129.178146 C156.45941,129.238249 155.869364,128.931725 154.382328,129.800211 C145.272371,135.122316 139.482169,133.469488 132.225792,140.351262 C132.02613,140.540586 132.225792,140.351262 130.378172,142.211444 C126.000506,146.613976 124.584991,147.921213 122.63009,150.30429 C121.974483,151.094642 121.482778,151.725721 121.157954,152.143436 C111.818535,164.112914 91,190.62427 91,190.62427 C90.995588,191.78083 91.4368809,192.893897 92.2307864,193.728581 C93.7208022,195.231152 95.6965632,195 95.9230457,194.969705 C117.203452,172.064518 129.147419,160.834305 129.147419,160.834305 C132.425454,157.76305 134.049571,156.227423 135.301185,155.250752 C146.711726,146.361544 157.788504,141.012393 159.30534,140.354267 C167.384206,136.853277 170.927464,136.648928 170.998985,134.767709 C171.100306,132.002979 163.599566,128.120337 156.843834,129.178146 Z" id="Path" fill="#473EC0"></path>
                <path d="M173.906073,135.23063 C176.021082,136.236472 176.302683,140.274678 175.76045,143.197259 C175.400736,145.023511 174.545244,146.718119 173.28595,148.098887 C166.278862,156.026944 148.421122,152.154895 146.680584,151.775108 C145.197682,151.454662 138.636962,149.938481 138.636962,149.938481 C149.274915,174.660251 154.724206,187.323779 154.724206,187.323779 C154.661295,187.252569 154.577414,187.175425 154.499524,187.193227 C154.163999,187.270371 154.844037,189.006117 154.104084,189.77756 C153.448012,190.462957 152.132872,189.893276 151.012457,191 L151.012457,191 C141.923313,177.484918 135.045043,167.370118 130.59334,161.584298 C128.223988,158.498595 126.537691,154.953053 125.64434,151.178723 C125.084133,148.760547 124.529917,146.211819 125.64434,143.823314 C126.731802,141.491184 129.107442,139.966101 134.931204,138.310466 C145.506245,135.266235 155.044753,135.254366 160.916447,135.245465 C167.860625,135.245465 168.327964,136.010974 171.434569,135.245465 C172.08465,135.06744 173.004349,134.803369 173.906073,135.23063 Z" id="Path" fill="#6F73E0"></path>
                <path d="M186.430919,96 C187.369199,95.9459396 189.484812,107.219008 188.899134,120.900413 C188.301503,134.524549 187.93396,143.419421 181.494489,148.914289 C176.441522,153.224579 169.894477,153.435573 162.370306,153.893729 C150.417692,154.602064 140.655394,151.542662 145.089814,151.404009 C157.938874,151.00915 170.787935,149.155424 175.329928,146.424568 C191.997849,136.41746 184.655956,96.0966491 186.430919,96 Z" id="Path" fill="#C9D5F6"></path>
                <path d="M161.187093,88.0419123 C159.804962,87.3471184 157.844686,91.721299 149.371232,98.6480918 C145.266998,102.001227 139.434347,106.133741 139.434347,106.133741 C139.434347,106.133741 138.211809,105.529572 138.19073,105.511447 C131.147586,100.303514 123.092686,96.6301687 115.799615,91.7847367 C114.997341,89.595356 113.955104,87.5021644 112.692079,85.5436752 C111.921218,84.356484 111.523743,83.7311695 110.825149,83.048459 C107.850106,80.124283 102.869618,79.3298013 102.116824,80.5532427 C101.635036,81.3416827 102.71906,83.2720013 103.983754,84.2960671 C104.887107,85.0271111 105.709159,85.105653 106.470987,86.1689897 C106.985898,86.8879503 107.335195,87.8455575 107.0943,88.0419123 C106.639613,88.4044135 104.366174,85.8608637 103.983754,86.1689897 C103.498955,86.5616993 106.579389,91.0899428 106.470987,91.1594222 C106.362584,91.2289016 105.128002,89.3650415 105.22737,89.2895204 C105.326739,89.2139994 106.323439,90.8694213 108.440297,91.9357788 C108.888962,92.1623421 109.123834,92.201613 109.581533,92.4070303 C111.094339,93.1122977 112.543153,93.9481914 113.911606,94.9052674 C118.127255,97.7841307 124.092397,103.248836 129.458316,107.381349 C134.261144,111.07886 136.703209,112.930637 138.792966,112.997096 C141.789088,113.093763 145.185696,110.776776 151.852443,106.133741 C155.22195,103.789566 156.929288,102.587271 158.073535,101.143308 C162.066357,96.0924587 162.834207,88.8666024 161.187093,88.0419123 Z" id="Path" fill="#EDDAB9"></path>
                <path d="M171.100759,82.6279581 C173.733041,82.8923615 176.096353,86.3506378 176.096353,86.3506378 C175.969424,85.7196751 175.854582,84.9655245 176.032889,84.8994237 C176.468076,84.7371761 179.145691,88.4087779 179.840783,92.5551039 C180.686982,97.6058098 177.94288,99.4476198 176.718914,108.070776 C176.536776,109.656046 176.265365,111.229914 175.905959,112.784969 C175.386151,114.954278 174.857277,116.189162 174.539952,117.93783 C174.321453,119.187721 174.22028,120.455098 174.237738,121.723606 C174.14103,129.289149 176.20515,133.934236 174.237738,135.373432 C173.678767,135.738106 173.034212,135.9524 172.367035,135.995381 C171.490731,136.035023 170.621917,135.81882 169.867726,135.373432 C168.187417,134.472057 167.728052,134.931758 163.001428,133.513594 C157.658287,131.909146 154.983695,131.109927 154.264426,129.790915 C153.170412,127.786857 154.893031,126.371698 156.138152,120.476704 C157.277498,115.068453 157.909125,112.337286 156.760712,109.30566 C155.6123,106.274035 153.218766,104.10773 153.016283,99.3755098 C152.994572,98.9621603 152.994572,98.5479661 153.016283,98.1346166 C153.161345,95.3523717 154.778189,92.7263652 158.008855,87.5855218 L161.130724,82.6219489 L163.001428,82 L163.001428,82 C163.001428,82 164.186106,83.9950438 165.500736,84.4817865 C167.389573,85.1968775 168.58634,82.3725684 171.100759,82.6279581 Z" id="Path" fill="#F0CD89"></path>
                <path d="M159.05876,71.561972 C159.202383,73.6728486 159.278778,74.7192403 159.688255,75.2982236 C160.950299,77.1075464 163.254371,76.9115364 164.577531,77.6081257 C164.925603,77.7820232 165.205127,78.0652913 165.372039,78.4132743 C165.781516,79.2847648 165.295644,80.249737 164.696708,81.202647 C163.926646,82.4239399 162.973237,83.6301551 163.474388,84.6403603 C164.189445,86.0727409 167.547767,86.5220561 169.787667,85.2615612 C171.963395,84.055346 172.186468,81.718304 173.573801,77.1648416 C176.256791,68.3655017 177.867197,69.0892308 177.992485,65.3318705 C178.212502,58.8303705 173.567689,51.2824789 168.519511,51.0080649 C166.074872,50.8723657 163.969428,52.4886941 163.468277,52.8776985 C163.186094,53.1030066 162.922468,53.3500505 162.679881,53.6165053 C162.374301,53.9482145 161.20393,55.223787 160.314693,57.8593673 C160.055149,58.6436077 159.850941,59.4446407 159.703534,60.25672 C159.703534,60.25672 159.703534,60.2989375 159.703534,60.3502017 C159.099845,64.0557802 158.883784,67.8127857 159.05876,71.561972 L159.05876,71.561972 Z" id="Path" fill="#EDDAB9"></path>
                <path d="M162.76974,53.7693687 C162.76974,54.8701948 166.166402,59.0652349 168.294145,61.1449036 C171.450099,64.2272168 172.505055,64.2569688 173.203406,66.0599435 C173.776946,67.5475463 173.604587,68.9042402 171.360947,75.2830812 C169.384762,80.9002696 168.38924,83.711839 167.06683,86.3419209 C164.288283,91.8490266 162.576579,91.810349 161.542425,95.5650586 C160.609309,98.9448923 161.06398,101.786214 161.542425,104.788196 C162.689504,111.979269 165.616636,114.796788 163.997056,118.920423 C163.280874,120.744225 162.035729,121.895629 162.154597,121.993811 C162.347758,122.142571 166.017817,119.595795 167.06683,115.847036 C168.552684,110.491666 163.153091,108.01927 163.997056,101.714809 C164.469557,98.1862148 166.635932,95.4073727 168.906317,92.4916711 C171.55708,89.0939861 172.769537,89.0106804 174.430721,86.3448961 C176.629785,82.8044013 176.76054,79.2787825 176.885352,75.8989488 C177.060683,71.1653965 177.619364,63.2245724 172.876518,57.9525079 C167.527445,51.9931709 162.772712,52.588212 162.76974,53.7693687 Z" id="Path" fill="#5435F1"></path>
                <path d="M166.884978,96 L166.884978,96 L146.993981,116.240348 L146.993981,116.240348 C140.72481,117.362996 118.401989,114.401936 118.401989,114.401936 L118.401989,114.401936 C118.401989,114.401936 116.514918,112.619954 114.672991,111.948741 C113.092908,111.354746 111.768647,111.354746 110.320989,111.333957 C107.986906,111.350324 105.673715,111.769467 103.485998,112.572434 C102.002225,113.101089 101,113.359476 101,113.799032 C101,114.072269 101.367181,114.286107 101.619995,114.413816 C104.099974,115.646354 110.287883,115.640414 110.323999,115.640414 C112.791939,115.640414 113.429992,116.163128 118.404999,117.478825 C131.647605,120.98339 148.859984,123 148.862994,123 L148.862994,123 L150.105993,122.388186 C163.234232,115.646354 170,105.203938 170,105.186118 C169.747187,101.366736 166.884978,96 166.884978,96 Z" id="Path" fill="#EDDAB9"></path>
                <path d="M163.003134,52.7174506 C162.874814,51.1598711 166.709502,48.7296897 170.40095,49.0245279 C175.811293,49.4563616 179.114795,55.5913783 180.878453,58.8673581 C182.003494,60.9520725 184.328181,65.4044269 183.961125,71.1701513 C183.662706,75.6939816 182.066162,75.6701563 180.878453,80.9980907 C178.890981,89.932581 182.886816,92.2406577 180.26371,99.4627041 C178.959617,103.0365 177.515267,103.736369 176.56331,108.075553 C175.554652,112.676815 176.32159,115.800909 176.56331,116.685423 C177.321295,119.455115 178.568688,120.887612 178.41351,120.991848 C178.010643,121.256904 170.156246,115.014674 171.015694,108.689054 C171.463323,105.413075 174.035698,103.742325 176.56331,97.002741 C177.058686,95.689371 177.500346,94.3223939 177.181038,92.6963167 C176.834871,90.9451566 175.939613,90.6681874 175.330838,88.3928705 C174.80562,86.4302608 175.306964,86.0103398 174.716094,84.6999478 C173.865599,82.8028577 172.454075,82.7969014 171.633422,81.6264832 C169.592233,78.7168175 175.378585,74.4133713 175.330838,67.4772286 C175.330838,66.973919 175.202517,60.8865529 171.015694,57.0208967 C167.446598,53.7240698 163.140407,54.3375715 163.003134,52.7174506 Z" id="Path" fill="#5435F1"></path>
                <path d="M127.961438,52.0000204 L148.035577,52.0000204 C149.119333,52.0000204 149.998353,52.879533 150,53.9655217 L150,65.6626746 C149.998353,66.7486633 149.119333,67.6281565 148.035577,67.6281553 L146.880209,67.6281553 L146.880209,72.414714 C146.882718,72.572896 146.822607,72.7256356 146.713024,72.839521 C146.494853,73.053493 146.146022,73.053493 145.927852,72.839521 L140.706307,67.6221721 L127.961438,67.6221721 C126.878166,67.6221721 126,66.7421964 126,65.6566914 L126,53.9475721 C126.00237,53.4286728 126.210354,52.9319703 126.578196,52.5667362 C126.946038,52.2015021 127.443606,51.9976553 127.961438,52.0000204 Z M127.80918,66.6588771 L140.837666,66.6588771 C140.976357,66.6590512 141.110179,66.710136 141.213833,66.8024739 L141.213833,66.8024739 C141.222233,66.8078515 141.229364,66.8149974 141.234731,66.8234151 L145.68006,71.2988475 L145.68006,67.227281 C145.678384,67.2103702 145.678384,67.1933346 145.68006,67.1764238 C145.70638,66.8874766 145.948789,66.6666507 146.238338,66.6678519 L147.963926,66.6678519 C148.430541,66.6678519 148.808807,66.2888061 148.808807,65.8212293 L148.808807,54.0462949 C148.807162,53.5798869 148.429377,53.2026639 147.963926,53.2026639 L127.80918,53.2026639 C127.343729,53.2026639 126.965944,53.5798869 126.964299,54.0462949 L126.964299,65.8242209 L126.964299,65.8242209 C126.965944,66.290629 127.343729,66.6678548 127.80918,66.6678519 L127.80918,66.6588771 Z" id="Shape" fill="#6C8DF4"></path>
                <path d="M141.643778,56.0000551 L145.364248,56.0000551 C145.610859,56.0005436 145.834759,56.1130733 145.938336,56.2885857 C146.032555,56.4436885 146.018053,56.6259388 145.899977,56.7706529 C145.781901,56.9153671 145.576965,57.0020599 145.357904,56.9999628 L141.637435,56.9999628 C141.388939,57 141.163301,56.886245 141.060175,56.7089449 C140.967179,56.553666 140.982767,56.371768 141.101419,56.2276432 C141.220072,56.0835183 141.425045,55.9975061 141.643778,56.0000551 L141.643778,56.0000551 Z" id="Path" fill="#6C8DF4"></path>
                <path d="M135.554624,59.0000862 L144.413279,59.0000862 C144.646856,58.9963434 144.859236,59.1148122 144.948307,59.2985318 C145.027921,59.448714 145.014956,59.6226862 144.913684,59.7631134 C144.812411,59.9035406 144.635973,59.9922024 144.442516,59.999879 L135.586784,59.999879 C135.352968,60.0043307 135.140158,59.8856224 135.051756,59.7014334 C134.972293,59.5516407 134.984933,59.3781281 135.085529,59.2378272 C135.186125,59.0975263 135.361692,59.0085477 135.554624,59.0000862 L135.554624,59.0000862 Z" id="Path" fill="#6C8DF4"></path>
                <path d="M130.581364,56.0001554 L138.431538,56.0001554 C138.653318,55.9967886 138.855713,56.1105188 138.944862,56.288603 C139.029109,56.4436613 139.016143,56.6258592 138.910564,56.7705317 C138.804986,56.9152042 138.621741,57.0018722 138.425866,56.9997757 L130.575692,56.9997757 C130.350165,57.0057888 130.14331,56.8904624 130.05386,56.7088414 C129.970225,56.5527973 129.984737,56.3699053 130.09221,56.2255185 C130.199683,56.0811317 130.384781,55.9958531 130.581364,56.0001554 Z" id="Path" fill="#6C8DF4"></path>
                <path d="M130.538751,59.0000742 L132.469212,59.0000742 C132.676293,58.9967065 132.865275,59.1104672 132.948517,59.2885993 C133.02718,59.4436991 133.015073,59.625946 132.916491,59.7706573 C132.81791,59.9153687 132.646809,60.0020599 132.463915,59.9999628 L130.533455,59.9999628 C130.326602,60.0004436 130.13838,59.8877635 130.051502,59.7114377 C129.972618,59.5559351 129.984994,59.3731682 130.084217,59.2283058 C130.183441,59.0834433 130.355389,58.9971042 130.538751,59.0000742 Z" id="Path" fill="#6C8DF4"></path>
                <path d="M139.636929,63.0000373 L145.366218,63.0000373 C145.611257,62.9991049 145.834692,63.1109935 145.938832,63.2867829 C146.032293,63.4422665 146.017908,63.6249644 145.900782,63.7700338 C145.783656,63.9151033 145.580369,64.002009 145.363071,63.9999067 L139.630636,63.9999067 C139.385349,64.0037123 139.161025,63.890758 139.061168,63.7131611 C138.967707,63.5576775 138.982092,63.3749797 139.099218,63.2299102 C139.216344,63.0848408 139.419631,62.997935 139.636929,63.0000373 L139.636929,63.0000373 Z" id="Path" fill="#6C8DF4"></path>
                <path d="M130.611762,63 L137.386613,63 C137.624461,62.9995244 137.840885,63.1122081 137.940781,63.2885395 C138.031485,63.4440471 138.017255,63.6268199 137.903164,63.7716869 C137.789073,63.916554 137.59136,64.0028958 137.380523,63.9999258 L130.611762,63.9999258 C130.375717,63.9998885 130.160959,63.8884234 130.060639,63.7138789 C129.969253,63.5593528 129.981817,63.37726 130.093881,63.2321017 C130.205946,63.0869435 130.401685,62.9992202 130.611762,63 L130.611762,63 Z" id="Path" fill="#6C8DF4"></path>
                <path d="M96.0000019,10.3255127 L96.0000019,24.2579568 C96.0007904,24.8788694 95.7511282,25.4745765 95.3061006,25.9136284 C94.8610729,26.3526803 94.2572579,26.59899 93.6278942,26.5982065 L78.230144,26.5982065 L71.9204723,32.8054685 C71.7936142,32.9303201 71.6216539,33.0003013 71.4424668,33 C71.2665607,32.9984951 71.0978149,32.9310602 70.9704364,32.8113633 C70.836718,32.6761969 70.7644622,32.493195 70.7702717,32.3044074 L70.7702717,26.5982065 L69.3721058,26.5982065 C68.7427421,26.59899 68.1389271,26.3526803 67.6938994,25.9136284 C67.2488718,25.4745765 66.9992096,24.8788694 67.0000019,24.2579568 L67.0000019,10.3402498 C67.0000019,9.04776551 68.06203,8 69.3721058,8 L93.6368568,8 C94.9396528,8 95.9967022,9.04021453 96.0000019,10.3255127 Z M94.840833,24.4495389 L94.840833,24.4495389 L94.840833,10.4375145 C94.840833,9.88243 94.3847235,9.43244507 93.822084,9.43244507 L69.4677068,9.43244507 C68.9050673,9.43244507 68.4489578,9.88243 68.4489578,10.4375145 L68.4489578,24.4495389 C68.4489578,25.0046235 68.9050673,25.4546084 69.4677068,25.4546084 L71.5589806,25.4546084 C71.9023932,25.4538581 72.1916689,25.7075393 72.2311758,26.044092 C72.232817,26.0646921 72.232817,26.0853876 72.2311758,26.1059877 L72.2311758,30.939753 L77.608737,25.6344009 L77.6356248,25.613769 L77.6356248,25.613769 C77.7591563,25.501076 77.9214835,25.4389135 78.0897299,25.4398713 L93.8340341,25.4398713 C94.3855757,25.431998 94.8312136,24.9936487 94.840833,24.4495389 L94.840833,24.4495389 Z" id="Shape" fill="#6C8DF4"></path>
                <path d="M77.9309479,13.7113171 C77.8097618,13.889206 77.5379388,14.002752 77.239978,13.9999493 L72.7691822,13.9999493 C72.5072767,13.999103 72.2638409,13.9116569 72.1224051,13.7676165 C71.9809693,13.6235761 71.9607733,13.4425355 72.068747,13.2866154 C72.1915334,13.1099012 72.4627357,12.9974237 72.7597168,13.0000448 L77.2305127,13.0000448 C77.4922152,13.0001253 77.7359324,13.087073 77.8775467,13.2308784 C78.0191611,13.3746838 78.0392756,13.5556497 77.9309479,13.7113171 L77.9309479,13.7113171 Z" id="Path" fill="#6C8DF4"></path>
                <path d="M83.9404107,16.7010477 C83.8340589,16.8861531 83.5771152,17.0051661 83.2953588,16.9998275 L72.6636247,16.9998275 C72.4332556,16.9899885 72.2242072,16.9009303 72.1037699,16.7613198 C71.9833326,16.6217092 71.9667096,16.4491699 72.0592517,16.2992403 C72.1670781,16.1112224 72.4299821,15.9916039 72.7159262,16.0004604 L83.3476603,16.0004604 C83.5759339,16.0128154 83.7815915,16.1028911 83.8993789,16.2421071 C84.0171662,16.3813231 84.0324612,16.5523969 83.9404107,16.7010477 L83.9404107,16.7010477 Z" id="Path" fill="#6C8DF4"></path>
                <path d="M90.9371013,13.7113018 C90.8273244,13.8895594 90.5793501,14.0032804 90.3077376,13.9999278 L80.7006026,13.9999278 C80.4620484,13.9990816 80.2403171,13.9116373 80.1114916,13.7676 C79.982666,13.6235627 79.9642707,13.442526 80.0626175,13.2866092 C80.1744564,13.1098988 80.4214786,12.9974237 80.6919812,13.0000448 L90.30199,13.0000448 C90.5398489,13.0008237 90.7609398,13.088052 90.8892422,13.2317371 C91.0175446,13.3754221 91.0355627,13.5559704 90.9371013,13.7113018 L90.9371013,13.7113018 Z" id="Path" fill="#6C8DF4"></path>
                <path d="M90.9358734,16.7113076 C90.8239535,16.8895616 90.5711382,17.0032803 90.2942235,16.9999278 L87.7129743,16.9999278 C87.469662,16.9994669 87.2433876,16.9119625 87.1124138,16.7676801 C86.9814399,16.6233978 86.9637508,16.4421492 87.0654646,16.2866235 C87.1788839,16.1095483 87.4311142,15.9969031 87.7071145,16.0000649 L90.2883636,16.0000649 C90.530866,16.0008437 90.7562729,16.0880703 90.88708,16.2317524 C91.0178871,16.3754346 91.036257,16.5559793 90.9358734,16.7113076 Z" id="Path" fill="#6C8DF4"></path>
                <path d="M79.9347965,20.7113152 C79.8193157,20.8895242 79.5615642,21.0030256 79.279359,20.9999386 L72.7249841,20.9999386 C72.4775732,20.9994776 72.2474874,20.9119723 72.1143074,20.7676884 C71.9811273,20.6234045 71.9631402,20.4421539 72.0665673,20.2866266 C72.1818971,20.1095495 72.4383761,19.9969031 72.7190255,20.0000649 L79.2734005,20.0000649 C79.5205169,20.0001453 79.7506503,20.0870903 79.8843717,20.2308913 C80.0180931,20.3746923 80.0370865,20.5556527 79.9347965,20.7113152 Z" id="Path" fill="#6C8DF4"></path>
                <path d="M90.9379042,20.7113076 C90.8295288,20.8895616 90.5847199,21.0032803 90.3165748,20.9999278 L82.690395,20.9999278 C82.4547881,20.9994669 82.2356798,20.9119625 82.1088537,20.7676801 C81.9820277,20.6233978 81.9648988,20.4421492 82.0633914,20.2866235 C82.1732188,20.1095483 82.4174611,19.9969031 82.6847208,20.0000649 L90.3109006,20.0000649 C90.545723,20.0008437 90.7639915,20.0880703 90.8906561,20.2317524 C91.0173206,20.3754346 91.0351088,20.5559793 90.9379042,20.7113076 L90.9379042,20.7113076 Z" id="Path" fill="#6C8DF4"></path>
                <path d="M88.5873179,107.351441 C88.8491456,107.57407 89,107.900209 89,108.243637 C89,108.587065 88.8491456,108.913204 88.5873179,109.135834 C88.2150939,109.51353 87.8160698,109.873383 87.4646904,110.265949 C86.9866124,110.798771 86.2795554,111.067043 85.5678369,110.985655 C84.5136516,110.89999 83.4876438,110.602596 82.5513337,110.111302 C80.4538598,109.095092 78.5971981,107.644305 77.1049523,105.855524 C75.9699642,104.545513 75.0703231,103.049367 74.4457842,101.433203 C74.1201101,100.655558 73.9696525,99.8158986 74.005071,98.9737145 C74.0328675,98.4597021 74.2578907,97.9761473 74.6333851,97.6235237 C75.0562315,97.2220352 75.4522778,96.8056768 75.8661909,96.3982404 C76.0883961,96.1451344 76.4090798,96 76.7461284,96 C77.083177,96 77.4038607,96.1451344 77.6260659,96.3982404 C77.9625564,96.7253791 78.2901135,97.0614398 78.6206484,97.3915526 L79.585453,98.3580989 C79.8535259,98.5801461 80.0086451,98.909902 80.0086451,99.2577305 C80.0086451,99.6055589 79.8535259,99.9353148 79.585453,100.157362 C79.1804733,100.564798 78.7814492,100.972235 78.3705139,101.367775 C78.2709673,101.444722 78.2441839,101.583564 78.3079803,101.69194 C78.5885946,102.32956 78.9596619,102.923511 79.4097633,103.455515 C80.2742598,104.549921 81.3135581,105.494444 82.4858223,106.251065 C82.7419124,106.41166 83.0248026,106.527646 83.2898261,106.673371 C83.4012064,106.747989 83.5518476,106.720275 83.6292944,106.610917 C84.0342741,106.197533 84.4452094,105.790096 84.8561447,105.38266 C85.077297,105.127759 85.3983704,104.981315 85.7360822,104.981315 C86.073794,104.981315 86.3948674,105.127759 86.6160197,105.38266 C87.2711339,106.028016 87.9322037,106.694189 88.5873179,107.351441 Z" id="Path" fill="#8CD9CC"></path>
                <path d="M84.5059312,99.5787879 C83.8297003,98.8848598 82.9494031,98.4367047 82,98.3030303 L82.1779359,97 C84.631172,97.3521706 86.580468,99.2839723 87,101.778788 L85.7307236,102 C85.5779692,101.082705 85.1499614,100.236604 84.5059312,99.5787879 L84.5059312,99.5787879 Z" id="Path" fill="#8CD9CC"></path>
                <path d="M89.9942029,101.7829 L88.7507246,102 C88.1597985,98.4948201 85.4327178,95.7808721 82,95.2817844 L82.173913,94 C86.1531013,94.5752399 89.3154202,97.7201079 90,101.7829 L89.9942029,101.7829 Z" id="Path" fill="#8CD9CC"></path>
                <path d="M150.196796,38.1845876 C150.608362,37.8465557 150.971707,37.4284878 151.27237,36.9470221 C151.617617,36.299082 151.803518,35.6252243 152.25765,35.1133516 C152.391877,34.990087 152.570371,34.9654063 152.723809,35.0488952 C152.877247,35.1323841 152.981449,35.3108863 152.995945,35.5150745 C153.086241,36.9794191 151.649485,38.5863105 150.573911,38.9523966 C150.093222,39.1888948 149.774533,38.4826401 150.196796,38.1845876 Z" id="Path" fill="#5A3DEC"></path>
                <path d="M153.22454,31.1822507 C153.792473,30.9655103 154.254442,30.5627472 154.522379,30.0507431 C154.736141,29.5670236 154.562078,28.9927835 154.522379,28.5288654 C154.498436,28.3335711 154.606749,28.1447741 154.794877,28.0538783 C154.983006,27.9629826 155.212129,27.9887454 155.371319,28.1186939 C156.171398,28.6476737 156.1317,29.7028045 155.676692,30.4354557 C155.233676,31.2639759 154.388863,31.8456478 153.404711,31.9997649 C153.044369,32.0139087 152.80007,31.385922 153.22454,31.1822507 Z" id="Path" fill="#5A3DEC"></path>
                <path d="M154.521252,24.32002 C155.327563,23.3969958 154.521252,22.4559321 154.0518,21.5509474 C153.779446,21.0097606 154.653846,20.829365 154.983537,21.1811365 C156.112372,22.2304376 156.474316,23.7607936 155.166301,24.9002925 C154.974267,25.0429137 154.681747,25.0311678 154.506825,24.8738117 C154.331904,24.7164557 154.338303,24.4708138 154.521252,24.32002 L154.521252,24.32002 Z" id="Path" fill="#5A3DEC"></path>
                <path d="M151.367623,17.7012855 C151.214816,16.7467877 150.77873,15.847376 150.105578,15.0983629 C149.56374,14.4453543 148.702184,14.1264431 148.086306,13.540254 C147.983159,13.4305274 147.971293,13.2729433 148.057044,13.1516321 C148.142795,13.030321 148.306139,12.9736087 148.459872,13.0117726 C150.704629,13.236529 151.906095,15.9184202 151.97677,17.6071308 C152.02545,17.7153859 151.996135,17.8394846 151.902766,17.9204098 C151.809396,18.001335 151.670815,18.0227552 151.552927,17.9744837 C151.435039,17.9262122 151.361635,17.8179907 151.367623,17.7012855 L151.367623,17.7012855 Z" id="Path" fill="#5A3DEC"></path>
                <path d="M142.22693,7.86758587 C141.8419,7.62338207 141.97518,6.86400861 142.413522,7.02123572 C143.980297,7.50964331 145.185736,9.06853332 145.967643,10.5906255 C146.106846,10.8582461 145.760319,11.1626645 145.621116,10.8983892 C144.661504,9.46996422 143.444217,8.67379293 142.22693,7.86758587 Z" id="Path" fill="#5A3DEC"></path>
                <path d="M132.352,3.00540715 C133.907681,2.95014538 135.674813,3.31241699 136.883108,4.37160093 C137.21841,4.67861077 136.759258,5.20666769 136.423956,4.91500834 C135.230764,3.99397883 133.675084,4.0461705 132.336897,3.70538958 C132.14671,3.70115066 131.995914,3.54101793 132.000084,3.34772312 C132.004255,3.15442831 132.161813,3.00116823 132.352,3.00540715 L132.352,3.00540715 Z" id="Path" fill="#5A3DEC"></path>
                <path d="M122.151047,3.36583106 C122.788112,2.93166732 123.55259,2.74113503 124.380775,2.49125661 C125.111009,2.22912996 125.873789,2.06419837 126.648727,2.00087023 C126.829045,1.98793235 126.985918,2.12078317 126.999113,2.29760084 C127.012307,2.47441852 126.876825,2.62824578 126.696507,2.64118366 C125.266295,2.87856816 123.902976,4.01239146 122.323054,3.99989754 C122.174474,3.98606345 122.050378,3.88299786 122.01201,3.74156492 C121.973643,3.60013198 122.029114,3.45022743 122.151047,3.36583106 L122.151047,3.36583106 Z" id="Path" fill="#5A3DEC"></path>
                <path d="M113.167469,6.57134834 C113.808539,6.23684388 114.577823,6.09004696 115.215688,5.84939627 C115.988177,5.60874558 116.686944,5.31996475 117.520335,5.0239644 C117.904977,4.90123255 118.206279,5.28386715 117.821637,5.40419249 C116.626042,6.02025826 114.936822,7.05986925 113.40787,6.99730007 C113.013612,7.02858466 112.850139,6.73739732 113.167469,6.57134834 Z" id="Path" fill="#5A3DEC"></path>
                <path d="M74.0458232,38.4749615 L74.153073,38.3581086 L74.2066979,38.2983838 L74.3171021,38.1815309 L74.4779768,38.0049532 L74.7934175,37.6543945 L74.7934175,37.6543945 C74.9637126,37.4504536 75.1675353,37.2669351 75.3990634,37.109081 C75.5105598,36.9878966 75.7202827,36.9640634 75.8674927,37.055848 C76.0147028,37.1476326 76.0436544,37.3202782 75.9321581,37.4414626 C75.7409693,37.632048 75.5827952,37.8435302 75.4621516,38.0698715 L75.4621516,38.0698715 L75.1467109,38.4204302 L74.9858362,38.5970079 L74.8785864,38.7138608 L74.8785864,38.7138608 L74.7177117,38.8904385 C74.6501697,38.9552174 74.5535161,38.9945837 74.4499847,38.9994819 C74.3464532,39.00438 74.2449575,38.9743883 74.168845,38.9164058 C74.004654,38.812527 73.9530538,38.6273682 74.0458232,38.4749615 Z" id="Path" fill="#5A3DEC"></path>
                <path d="M74.0102302,51.3628358 C73.9152895,51.0129374 74.5086689,50.862981 74.6540468,51.154563 C74.8824979,51.7099572 75.0011737,52.2653515 75.2266579,52.792976 C75.4427803,53.3604699 75.69137,53.9166682 75.971349,54.4591588 C76.1167269,54.7368559 75.6746593,55.1895022 75.4135724,54.9145821 C74.3751585,54.0842677 74.3098868,52.5208328 74.0102302,51.3628358 Z" id="Path" fill="#5A3DEC"></path>
                <path d="M81.3302021,59.9295302 C81.0074681,59.458146 80.6017538,59.0274709 80.1258644,58.6510979 C79.7840929,58.3499795 80.1974737,57.7952878 80.6596789,58.0779164 C81.1973414,58.4080683 81.6789023,58.7944118 82.0918643,59.2269207 C82.4466557,59.6257705 82.9381556,60.1065033 83,60.5951602 C82.9739603,60.8592992 82.7591325,61.0785345 82.4401457,60.9728789 C81.8705266,60.80383 81.6882484,60.32838 81.3302021,59.9295302 Z" id="Path" fill="#5A3DEC"></path>
                <path d="M86.1303333,64.5841177 C85.7834872,64.3422554 86.2008305,63.8269837 86.5448567,64.0583302 C87.6248735,64.7287092 89.0827551,65.3912015 89.9287212,66.3481347 C90.1684116,66.6110285 89.7538882,67.1210423 89.4211415,66.9738218 C88.1944907,66.4848395 87.1144739,65.37017 86.1303333,64.5841177 Z" id="Path" fill="#5A3DEC"></path>
                <path d="M94.4719192,68.0070131 C95.0487973,68.1160292 95.6367311,68.1875273 96.2294144,68.2207404 C96.8143133,68.2656232 97.3740251,68.1523477 97.8749672,68.3682123 C98.1016505,68.5007232 97.9869096,68.7956669 97.793809,68.9046679 C97.2340972,69.0970225 96.4896804,68.9538251 95.952357,68.8619224 C95.3501633,68.7642936 94.7558747,68.6401241 94.1724734,68.4900369 C93.7974665,68.4195068 94.0969123,67.9364831 94.4719192,68.0070131 Z" id="Path" fill="#5A3DEC"></path>
                <path d="M101.307406,68.0873794 C101.842829,67.913355 102.434472,67.7885827 103.012729,67.5423217 C103.590985,67.2960608 104.206722,66.8560745 104.77427,67.0465163 C104.877217,67.1093071 104.953701,67.2225815 104.984815,67.3583347 C105.015929,67.4940879 104.998768,67.639649 104.937574,67.7590314 C104.584195,68.3270734 103.842634,68.4157274 103.304534,68.5963188 C102.672735,68.7933275 102.02755,68.8655641 101.430554,68.9903363 C100.943319,69.0954077 100.825526,68.3139395 101.307406,68.0873794 Z" id="Path" fill="#5A3DEC"></path>
                <path d="M108.013989,65.4918845 C108.424864,64.8172793 108.899829,64.1901643 109.431269,63.6205911 C109.945531,63.0296564 110.609785,62.2253286 111.448521,62.0086525 C111.898499,61.9265782 112.121958,62.4452876 111.932171,62.849093 C111.592391,63.4695745 110.830183,63.860248 110.352654,64.2574875 C109.71595,64.7466501 109.088428,65.3572827 108.516006,65.8989728 C108.206837,66.2010061 107.934401,65.7545221 108.013989,65.4918845 Z" id="Path" fill="#5A3DEC"></path>
                <path d="M113.15842,63.4602572 C113.676572,61.9888682 114.05547,60.4803205 114.291022,58.950903 C113.783413,59.1918608 113.212353,59.3897905 112.653984,59.6938564 C111.759323,60.1556923 110.940804,60.7724296 109.970003,61.0851011 C109.691196,61.242129 109.325939,61.1808045 109.128065,60.9437451 C108.930191,60.7066856 108.965125,60.3722716 109.208589,60.1729035 C109.770132,59.3811849 110.845628,58.9451659 111.689527,58.5435694 C112.752333,57.9985457 113.827829,57.5596582 114.957258,57.0605312 C115.203256,56.9585778 115.491289,56.9868994 115.707298,57.1342809 C115.923308,57.2816624 116.032452,57.5243316 115.991511,57.7661935 C115.398243,59.8085982 115.001674,61.982956 113.789758,63.79014 C113.608922,64.2548444 113.025172,63.8589851 113.15842,63.4602572 Z" id="Path" fill="#5A3DEC"></path>
                <path d="M106.07508,10.7742858 C107.07056,8.34164263 108.505484,6.10896389 110.30953,4.18566623 C110.761522,3.66752635 111.549534,4.33875301 111.162962,4.91577243 C109.861858,6.61872763 108.784699,8.47852736 107.957388,10.4504484 L110.580131,10.9862522 C111.332459,11.1717227 112.441624,11.2129384 112.863879,11.9106608 C112.977439,12.0417555 113.023465,12.2174325 112.988584,12.3866458 C112.953703,12.5558591 112.841826,12.6996324 112.685461,12.7761899 C111.921238,13.2590021 111.029149,12.8380134 110.27682,12.6525429 C109.087368,12.3139856 107.897915,12.0990753 106.708463,11.884165 C106.095895,11.9283247 105.866925,11.2777058 106.07508,10.7742858 Z" id="Path" fill="#5A3DEC"></path>
                <polygon id="Path" fill="url(#linearGradient-1)" points="81 117 50.9457917 117 35 94 65.0542083 94"></polygon>
                <path d="M73.9858257,43.5406795 C73.6915986,44.8549872 73.6018094,46.2294663 73.7214727,47.5873547 C73.7691429,48.1375484 73.097426,48.1375484 73.0519226,47.5873547 C72.9284919,46.1531908 73.0256308,44.7022426 73.337944,43.3151 C73.387009,43.0872023 73.5723023,42.9529524 73.7518083,43.0152444 C73.9313142,43.0775365 74.0370575,43.3127818 73.9879926,43.5406795 L73.9858257,43.5406795 Z" id="Path" fill="#5A3DEC"></path>
                <path d="M164.121252,80.9505608 C165.296465,81.2190178 166.919377,80.3183877 167.376405,80.0672505 C169.052171,79.1377541 170.280237,77.509692 169.944462,77.0853566 C169.633559,76.7100941 168.461455,77.6944366 166.092376,77.6828901 C165.032197,77.6828901 164.4477,77.4750523 164,77.509692 C164.354134,77.676156 164.638528,77.9473155 164.808347,78.2804235 C165.224957,79.114661 164.730622,80.0383841 164.121252,80.9505608 Z" id="Path" fill="#E1AA5E"></path>
                <path d="M83.11,96 L83.89,96 C84.5030361,96 85,96.4969639 85,97.11 L85,134.89 C85,135.503036 84.5030361,136 83.89,136 L83.11,136 C82.4969639,136 82,135.503036 82,134.89 L82,97.11 C82,96.4969639 82.4969639,96 83.11,96 Z" id="Rectangle" fill="#6282F7" transform="translate(83.500000, 116.000000) rotate(90.000000) translate(-83.500000, -116.000000) "></path>
                <rect id="Rectangle" fill="#5B5BEF" transform="translate(58.000000, 119.500000) rotate(180.000000) translate(-58.000000, -119.500000) " x="0" y="117" width="116" height="5" rx="2.5"></rect>
                <path d="M13.0998951,134.373944 L100.92838,134.373944 C107.250029,177.553383 110.596019,199.095282 110.96635,199 C111.336681,198.904002 108.65028,176.514295 102.907148,131.83052 L102.907148,126.546413 C102.907148,125.147679 102.006343,124 100.92838,124 L13.0998951,124 C12.0129238,124 11.1211269,125.147679 11.1211269,126.546413 C5.24587665,174.746948 2.55847515,198.898025 3.05892236,199 C3.55936956,199.10126 6.90636049,177.55936 13.0998951,134.373944 Z" id="Path" fill="#5B5BEF"></path>
            </g>
        </g>
    </g>
</svg>