<svg xmlns="http://www.w3.org/2000/svg" width="264" height="249" viewBox="0 0 264 249">
    <g fill="none" fill-rule="evenodd">
        <g fill-rule="nonzero">
            <g transform="translate(-1026 -461) translate(1026 461)">
                <g fill="#EBEBEB">
                    <path d="M237.269 213.105H258.045V214.105H237.269zM178.183 214.804H183.60899999999998V215.804H178.183zM224.632 207.354H236.674V208.354H224.632zM8.932 208.4H35.994V209.4H8.932zM41.552 208.4H45.522V209.4H41.552zM58.424 211.014H117.113V212.014H58.424zM124.59 175.529H3.572C1.588 175.529 0 173.96 0 172V3.986C0 2.026 1.588.457 3.573.457h121.016c1.985 0 3.573 1.569 3.573 3.53V172c0 1.96-1.588 3.529-3.573 3.529zM3.572.589C1.654.588.133 2.09.133 3.985V172c0 1.895 1.521 3.398 3.44 3.398h121.016c1.92 0 3.441-1.503 3.441-3.398V3.986c0-1.895-1.522-3.398-3.44-3.398H3.572zM260.162 175.529H139.146c-1.985 0-3.573-1.569-3.573-3.529V3.986c0-1.96 1.588-3.529 3.573-3.529h121.016c1.985 0 3.573 1.569 3.573 3.53V172c0 1.96-1.588 3.529-3.573 3.529zM139.146.589c-1.919 0-3.44 1.502-3.44 3.397V172c0 1.895 1.521 3.398 3.44 3.398h121.016c1.92 0 3.441-1.503 3.441-3.398V3.986c0-1.895-1.522-3.398-3.44-3.398H139.145z" transform="translate(0 28)"/>
                </g>
                <g>
                    <g transform="translate(5 48) translate(138.833 24.13)">
                        <path fill="#F0F0F0" d="M0.401 21.841H110.806V159.775H0.401z" transform="rotate(-180 55.604 90.808)"/>
                        <g>
                            <path fill="#E0E0E0" d="M0.335 0.17H102.939V29.648000000000003H0.335z" transform="translate(3.967 26.739) rotate(-180 51.637 14.91)"/>
                            <path fill="#EBEBEB" d="M97.169 4.944H102.987V29.660999999999998H97.169z" transform="translate(3.967 26.739) rotate(-180 100.078 17.303)"/>
                            <path fill="#EBEBEB" d="M68.97 4.944H74.788V29.660999999999998H68.97z" transform="translate(3.967 26.739) rotate(-180 71.879 17.303)"/>
                            <path fill="#EBEBEB" d="M34.847 4.598L40.663 4.585 40.606 29.312 34.791 29.325z" transform="translate(3.967 26.739) rotate(-170.224 37.727 16.955)"/>
                            <path fill="#EBEBEB" d="M89.932 8.201H95.75V29.657H89.932z" transform="translate(3.967 26.739) rotate(-180 92.84 18.93)"/>
                            <path fill="#EBEBEB" d="M76.561 8.201H82.379V29.657H76.561z" transform="translate(3.967 26.739) rotate(-180 79.47 18.93)"/>
                            <path fill="#EBEBEB" d="M42.718 8.201H48.536V29.657H42.718z" transform="translate(3.967 26.739) rotate(-180 45.627 18.93)"/>
                            <path fill="#EBEBEB" d="M58.887 7.787L64.701 7.771 64.639 29.241 58.825 29.258z" transform="translate(3.967 26.739) rotate(-167.473 61.763 18.514)"/>
                            <path fill="#EBEBEB" d="M84.872 3.652H87.781V29.608H84.872z" transform="translate(3.967 26.739) rotate(-180 86.326 16.63)"/>
                            <path fill="#EBEBEB" d="M50.249 3.652H53.158V29.608H50.249z" transform="translate(3.967 26.739) rotate(-180 51.704 16.63)"/>
                        </g>
                        <g>
                            <path fill="#E0E0E0" d="M0.397 0.391H103.001V29.869H0.397z" transform="translate(3.967 60.652)"/>
                            <path fill="#EBEBEB" d="M.397 5.152H6.215V29.869H.397zM28.56 5.152H34.378V29.869H28.56z" transform="translate(3.967 60.652)"/>
                            <path fill="#EBEBEB" d="M62.707 4.824L68.522 4.837 68.579 29.565 62.763 29.552z" transform="translate(3.967 60.652) rotate(-9.776 65.643 17.194)"/>
                            <path fill="#EBEBEB" d="M7.603 8.413H13.421V29.869H7.603zM20.957 8.413H26.775V29.869H20.957zM54.806 8.413H60.623999999999995V29.869H54.806z" transform="translate(3.967 60.652)"/>
                            <path fill="#EBEBEB" d="M38.574 8.016L44.388 8.032 44.45 29.503 38.636 29.486z" transform="translate(3.967 60.652) rotate(-12.527 41.512 18.759)"/>
                            <path fill="#EBEBEB" d="M15.536 3.913H18.445V29.869H15.536zM50.178 3.913H53.086999999999996V29.869H50.178z" transform="translate(3.967 60.652)"/>
                            <path fill="#EBEBEB" d="M97.169 5.177H102.987V29.894H97.169z" transform="translate(3.967 60.652) rotate(-180 100.078 17.535)"/>
                            <path fill="#EBEBEB" d="M89.932 8.434H95.75V29.89H89.932z" transform="translate(3.967 60.652) rotate(-180 92.84 19.162)"/>
                            <path fill="#EBEBEB" d="M76.561 8.434H82.379V29.89H76.561z" transform="translate(3.967 60.652) rotate(-180 79.47 19.162)"/>
                            <path fill="#EBEBEB" d="M84.872 3.95H87.781V29.906H84.872z" transform="translate(3.967 60.652) rotate(-180 86.326 16.928)"/>
                        </g>
                        <g>
                            <path fill="#E0E0E0" d="M0.335 0.635H102.939V30.113000000000003H0.335z" transform="translate(3.967 94.565) rotate(-180 51.637 15.374)"/>
                            <g fill="#EBEBEB">
                                <path d="M36.251 1.496H42.068999999999996V26.212999999999997H36.251z" transform="translate(3.967 94.565) translate(1.983 3.913) rotate(-180 39.16 13.855)"/>
                                <path d="M2.121 1.206L7.936 1.193 7.88 25.92 2.064 25.934z" transform="translate(3.967 94.565) translate(1.983 3.913) rotate(-170.224 5 13.563)"/>
                                <path d="M57.213 4.753H63.031V26.209H57.213z" transform="translate(3.967 94.565) translate(1.983 3.913) rotate(-180 60.122 15.481)"/>
                                <path d="M43.842 4.753H49.66V26.209H43.842z" transform="translate(3.967 94.565) translate(1.983 3.913) rotate(-180 46.75 15.481)"/>
                                <path d="M9.999 4.753H15.817V26.209H9.999z" transform="translate(3.967 94.565) translate(1.983 3.913) rotate(-180 12.908 15.481)"/>
                                <path d="M26.225 4.411L32.04 4.394 31.977 25.864 26.163 25.881z" transform="translate(3.967 94.565) translate(1.983 3.913) rotate(-167.473 29.101 15.138)"/>
                                <path d="M52.219 0.269H55.128V26.224999999999998H52.219z" transform="translate(3.967 94.565) translate(1.983 3.913) rotate(-180 53.674 13.247)"/>
                                <path d="M17.53 0.269H20.439V26.224999999999998H17.53z" transform="translate(3.967 94.565) translate(1.983 3.913) rotate(-180 18.985 13.247)"/>
                                <path d="M69.183 1.211L74.999 1.198 74.942 25.925 69.127 25.939z" transform="translate(3.967 94.565) translate(1.983 3.913) rotate(-170.224 72.063 13.568)"/>
                                <path d="M77.064 4.753H82.88199999999999V26.209H77.064z" transform="translate(3.967 94.565) translate(1.983 3.913) rotate(-180 79.973 15.481)"/>
                                <path d="M93.289 4.414L99.103 4.397 99.041 25.868 93.227 25.884z" transform="translate(3.967 94.565) translate(1.983 3.913) rotate(-167.473 96.165 15.141)"/>
                                <path d="M84.595 0.269H87.504V26.224999999999998H84.595z" transform="translate(3.967 94.565) translate(1.983 3.913) rotate(-180 86.05 13.247)"/>
                            </g>
                        </g>
                        <path fill="#E0E0E0" d="M93.877 21.848v-2.022h-3.371S93.877 11.152 91.762.39c0 0 .066 8.479-3.306 8.544C83.366 9 82.97.39 82.97.39s-1.256 12.392 3.306 19.435H82.77v2.022h11.106z"/>
                        <ellipse cx="87.399" cy="6.065" fill="#E0E0E0" rx="2.909" ry="2.87"/>
                        <path fill="#E0E0E0" d="M71.334 21.848v-1.174l-3.57-1.63 1.785-1.696-4.43-15.391v9.586s.595 0 .595 1.37-1.983 1.043-1.983-.065c0-1.109.661-1.305.661-1.305V1.5l-4.033 15.26 1.785 2.283-3.636 1.63v1.175h12.826zM49.583 21.848L49.583 20.935 46.344 20.152 46.344 6.065 43.501 2.152 41.121 5.217 41.121 11.674 39.865 9.978 38.146 9.326 36.89 12 39.534 20.152 36.89 20.935 36.89 21.848zM27.899 22.304L23.866 2.152 11.569 2.152 14.478 13.565 10.181 21.848z"/>
                    </g>
                    <g>
                        <path fill="#E0E0E0" d="M0.198 16.435H81.91099999999999V20.543999999999997H0.198z" transform="translate(5 48) translate(3.967)"/>
                        <path fill="#EBEBEB" d="M3.967 1.174H7.537V16.435H3.967zM21.354 1.174H24.924V16.435H21.354z" transform="translate(5 48) translate(3.967)"/>
                        <path fill="#EBEBEB" d="M42.424 0.979L45.992 0.987 46.027 16.255 42.459 16.246z" transform="translate(5 48) translate(3.967) rotate(-9.776 44.225 8.617)"/>
                        <path fill="#EBEBEB" d="M8.396 3.196H11.966000000000001V16.435000000000002H8.396zM16.66 3.196H20.23V16.435000000000002H16.66zM37.551 3.196H41.121V16.435000000000002H37.551z" transform="translate(5 48) translate(3.967)"/>
                        <path fill="#EBEBEB" d="M27.543 2.933L31.111 2.944 31.149 16.191 27.582 16.181z" transform="translate(5 48) translate(3.967) rotate(-12.527 29.346 9.562)"/>
                        <path fill="#EBEBEB" d="M13.354.457H15.139V16.5H13.354zM34.708.457H36.492999999999995V16.5H34.708zM56.525 4.37H74.044V16.305H56.525z" transform="translate(5 48) translate(3.967)"/>
                    </g>
                    <g>
                        <path fill="#E0E0E0" d="M0.174 16.085H81.887V20.194000000000003H0.174z" transform="translate(5 48) translate(3.967 31.304) rotate(-180 41.03 18.14)"/>
                        <path fill="#EBEBEB" d="M74.577 0.792H78.14699999999999V16.053H74.577z" transform="translate(5 48) translate(3.967 31.304) rotate(-180 76.362 8.423)"/>
                        <path fill="#EBEBEB" d="M57.161 0.792H60.731V16.053H57.161z" transform="translate(5 48) translate(3.967 31.304) rotate(-180 58.946 8.423)"/>
                        <path fill="#EBEBEB" d="M36.072 0.609L39.641 0.601 39.606 15.869 36.037 15.877z" transform="translate(5 48) translate(3.967 31.304) rotate(-170.224 37.84 8.239)"/>
                        <path fill="#EBEBEB" d="M70.088 2.803H73.65799999999999V16.042H70.088z" transform="translate(5 48) translate(3.967 31.304) rotate(-180 71.873 9.423)"/>
                        <path fill="#EBEBEB" d="M61.808 2.803H65.378V16.042H61.808z" transform="translate(5 48) translate(3.967 31.304) rotate(-180 63.593 9.423)"/>
                        <path fill="#EBEBEB" d="M40.942 2.803H44.512V16.042H40.942z" transform="translate(5 48) translate(3.967 31.304) rotate(-180 42.727 9.423)"/>
                        <path fill="#EBEBEB" d="M50.936 2.611L54.504 2.601 54.465 15.848 50.898 15.858z" transform="translate(5 48) translate(3.967 31.304) rotate(-167.473 52.7 9.23)"/>
                        <path fill="#EBEBEB" d="M66.957 0.035H68.74199999999999V16.078H66.957z" transform="translate(5 48) translate(3.967 31.304) rotate(-180 67.85 8.056)"/>
                        <path fill="#EBEBEB" d="M45.566 0.035H47.351V16.078H45.566z" transform="translate(5 48) translate(3.967 31.304) rotate(-180 46.459 8.056)"/>
                        <path fill="#EBEBEB" d="M8.025 3.968H25.543999999999997V15.903H8.025z" transform="translate(5 48) translate(3.967 31.304) rotate(-180 16.785 9.936)"/>
                    </g>
                    <g>
                        <path fill="#E0E0E0" d="M0.198 0.261H68.689V76.304H0.198z" transform="translate(5 48) translate(0 107.608)"/>
                        <path fill="#EBEBEB" d="M3.636 3.261H65.317V15.521999999999998H3.636zM3.636 18.717H65.317V30.977999999999998H3.636zM3.636 34.108H65.317V70.62899999999999H3.636z" transform="translate(5 48) translate(0 107.608)"/>
                        <path fill="#E0E0E0" d="M37.353 5.348H31.6c-1.52 0-2.975-.783-3.702-2.087h13.156c-.793 1.304-2.182 2.087-3.702 2.087zM37.353 20.804H31.6c-1.52 0-2.975-.782-3.702-2.087h13.156c-.793 1.24-2.182 2.087-3.702 2.087zM37.353 36.26H31.6c-1.52 0-2.975-.782-3.702-2.086h13.156c-.793 1.304-2.182 2.087-3.702 2.087z" transform="translate(5 48) translate(0 107.608)"/>
                    </g>
                </g>
                <ellipse cx="132" cy="243" fill="#F5F5F5" rx="104" ry="6"/>
                <g>
                    <path fill="#263238" d="M127.822 239.032H7.31c-3.754 0-6.849-3.065-6.849-6.783V6.783C.461 3.065 3.556 0 7.31 0h120.512c3.754 0 6.849 3.065 6.849 6.783v225.466c0 3.783-3.03 6.783-6.849 6.783z" transform="translate(65)"/>
                    <path fill="#407BFF" d="M130.193 8.022V230.62c0 1.826-1.515 3.261-3.359 3.261H8.034c-1.712 0-2.963-1.304-2.963-3V7.76c0-1.435 1.053-2.739 2.568-2.739H127.361c1.515 0 2.832 1.37 2.832 3z" transform="translate(65)"/>
                    <path fill="#FFF" d="M5.071 18.914H130.193V219.075H5.071z" opacity=".3" transform="translate(65)"/>
                    <g>
                        <g transform="translate(65) translate(7.61 31.958) translate(4)">
                            <ellipse cx="29.088" cy="28.306" fill="#FFF" opacity=".3" rx="28.317" ry="28.045"/>
                            <path fill="#000" d="M42.398 38.415c-.922-3.522-2.832-7.24-6.85-8.805-.79-.326-2.107-.717-3.094-.848-1.976-.196-4.347-1.174-6.19-2.283v-4.37-.325c.921-1.044 1.777-2.544 2.37-4.762v-.847s1.646 1.304 1.712-1.435c.066-2.413.395-3.718-.79-3.066 0-.065.593-6.522-2.502-8.609C23.959.978 24.222 1.24 23.959.978c-.198-.26-2.635-.717-3.227-.521-.593.195-2.964.065-4.544.847-.988.457-2.634 3.848-2.7 4.24-.066.326-.659 2.804-.132 6.26-1.449-.977-1.12.392-1.054 2.936.066 2.739 1.713 1.435 1.713 1.435v.847c.592 2.218 1.448 3.718 2.37 4.762v4.695c-1.91 1.11-4.214 2.087-6.19 2.283-.988.13-2.239.522-3.095.848-4.017 1.63-5.927 5.283-6.849 8.805-.988 3.717 43.069 3.717 42.147 0zm-25.815-11.87v.13c-.066-.065-.066-.13 0-.13z" opacity=".2" transform="translate(7.83 7.826)"/>
                            <path fill="#2669FF" d="M24.149 34.371c.066 0 .131.065.197.065v.066l.158.06c1.892.706 5.497 1.523 9.786-.126 1.844 1.044 4.083 1.957 5.993 2.153.988.13 2.305.521 3.095.847 4.017 1.566 5.927 5.283 6.849 8.805.047.191.092.382.134.574-5.19 5.846-12.796 9.535-21.273 9.535-8.373 0-15.897-3.599-21.081-9.32l.083-.368.122-.486c.922-3.522 2.832-7.174 6.849-8.805.856-.326 2.107-.717 3.095-.848 1.91-.195 4.149-1.108 5.993-2.152z"/>
                        </g>
                        <g>
                            <path fill="#407BFF" d="M29.898 6.783H3.49c-1.91 0-3.424-1.5-3.424-3.392C.066 1.501 1.58 0 3.49 0h26.408c1.91 0 3.424 1.5 3.424 3.391 0 1.892-1.515 3.392-3.424 3.392z" transform="translate(65) translate(7.61 31.958) translate(70.098 8.479)"/>
                            <path fill="#7054FF" d="M41.949 14.805h-40.5c-.725 0-1.317-.587-1.317-1.304 0-.718.592-1.305 1.317-1.305h40.5c.724 0 1.317.587 1.317 1.305 0 .717-.593 1.304-1.317 1.304zM24.761 20.805H1.449c-.725 0-1.317-.587-1.317-1.304 0-.718.592-1.305 1.317-1.305H24.76c.724 0 1.317.587 1.317 1.305 0 .717-.593 1.304-1.317 1.304z" transform="translate(65) translate(7.61 31.958) translate(70.098 8.479)"/>
                        </g>
                        <path fill="#000" d="M83.663 45.132H73.39c-1.778 0-3.16-1.434-3.16-3.13 0-1.761 1.448-3.13 3.16-3.13h10.273c1.778 0 3.161 1.434 3.161 3.13s-1.448 3.13-3.16 3.13z" opacity=".2" transform="translate(65) translate(7.61 31.958)"/>
                        <path fill="#407BFF" d="M0.754 64.894H47.049V179.812H0.754z" transform="translate(65) translate(7.61 31.958)"/>
                        <g fill="#FFF" opacity=".3">
                            <path d="M27.988 2.609H1.712c-.724 0-1.317-.587-1.317-1.305C.395.587.988 0 1.712 0h26.276c.724 0 1.317.587 1.317 1.304 0 .718-.593 1.305-1.317 1.305zM17.912 8.61h-16.2C.988 8.61.395 8.021.395 7.304.395 6.587.988 6 1.712 6h16.2c.725 0 1.317.587 1.317 1.305 0 .717-.592 1.304-1.317 1.304z" transform="translate(65) translate(7.61 31.958) translate(6.878 92.613)"/>
                        </g>
                        <g fill="#FFF" opacity=".3">
                            <path d="M20.876 3H1.712C.988 3 .395 2.413.395 1.696.395.978.988.39 1.712.39h19.164c.724 0 1.317.587 1.317 1.305C22.193 2.413 21.6 3 20.876 3zM25.024 9H1.712C.988 9 .395 8.413.395 7.696c0-.717.593-1.304 1.317-1.304h23.312c.725 0 1.317.587 1.317 1.304 0 .717-.592 1.304-1.317 1.304z" transform="translate(65) translate(7.61 31.958) translate(6.878 110.222)"/>
                        </g>
                        <g fill="#FFF" opacity=".3">
                            <path d="M27.988 2.74H1.712C.988 2.74.395 2.151.395 1.434.395.717.988.13 1.712.13h26.276c.724 0 1.317.587 1.317 1.305 0 .717-.593 1.304-1.317 1.304zM10.8 8.74H1.712C.988 8.74.395 8.153.395 7.435c0-.717.593-1.304 1.317-1.304H10.8c.724 0 1.317.587 1.317 1.304 0 .718-.593 1.305-1.317 1.305z" transform="translate(65) translate(7.61 31.958) translate(6.878 128.484)"/>
                        </g>
                        <g fill="#FFF" opacity=".3">
                            <path d="M13.763 3.13H1.713C.987 3.13.394 2.545.394 1.827.395 1.11.988.522 1.712.522h12.051c.725 0 1.317.587 1.317 1.304 0 .718-.592 1.305-1.317 1.305zM25.024 9.13H1.712C.988 9.13.395 8.545.395 7.827c0-.717.593-1.304 1.317-1.304h23.312c.725 0 1.317.587 1.317 1.304 0 .718-.592 1.305-1.317 1.305z" transform="translate(65) translate(7.61 31.958) translate(6.878 146.093)"/>
                        </g>
                        <path fill="#FFF" d="M49.649 64.871H119.059V179.789H49.649z" opacity=".3" transform="translate(65) translate(7.61 31.958) rotate(-180 84.353 122.33)"/>
                        <g fill="#000" opacity=".2">
                            <path d="M1.712 2.87h19.164c.724 0 1.317-.587 1.317-1.305 0-.717-.593-1.304-1.317-1.304H1.712C.988.26.395.848.395 1.565c0 .718.593 1.305 1.317 1.305zM46.493 13.5h-36.22c-.724 0-1.317.588-1.317 1.305s.593 1.304 1.317 1.304h36.22c.724 0 1.317-.587 1.317-1.304 0-.717-.593-1.304-1.317-1.304zM1.712 22.11h44.649c.724 0 1.317-.587 1.317-1.305 0-.717-.593-1.304-1.317-1.304H1.712c-.724 0-1.317.587-1.317 1.304 0 .718.593 1.305 1.317 1.305zM46.493 26.675H1.713c-.725 0-1.318.587-1.318 1.305 0 .717.593 1.304 1.317 1.304h44.78c.725 0 1.318-.587 1.318-1.304 0-.718-.593-1.305-1.317-1.305zM1.712 35.284h44.649c.724 0 1.317-.587 1.317-1.304 0-.718-.593-1.305-1.317-1.305H1.712c-.724 0-1.317.587-1.317 1.305 0 .717.593 1.304 1.317 1.304zM46.493 39.85H1.713c-.725 0-1.318.587-1.318 1.304 0 .717.593 1.304 1.317 1.304h44.78c.725 0 1.318-.587 1.318-1.304 0-.717-.593-1.304-1.317-1.304zM1.712 48.459h34.705c.724 0 1.317-.587 1.317-1.305 0-.717-.593-1.304-1.317-1.304H1.712c-.724 0-1.317.587-1.317 1.304 0 .718.593 1.305 1.317 1.305zM10.273 61.698h36.154c.724 0 1.317-.587 1.317-1.304 0-.717-.593-1.304-1.317-1.304H10.273c-.724 0-1.317.587-1.317 1.304 0 .717.593 1.304 1.317 1.304zM46.493 66.264H1.713c-.725 0-1.318.587-1.318 1.304 0 .718.593 1.305 1.317 1.305h44.78c.725 0 1.318-.587 1.318-1.305 0-.717-.593-1.304-1.317-1.304zM1.712 74.873h44.649c.724 0 1.317-.587 1.317-1.304 0-.718-.593-1.305-1.317-1.305H1.712c-.724 0-1.317.587-1.317 1.305 0 .717.593 1.304 1.317 1.304zM37.273 79.438H1.713c-.725 0-1.318.587-1.318 1.305 0 .717.593 1.304 1.317 1.304h35.561c.725 0 1.317-.587 1.317-1.304 0-.718-.592-1.305-1.317-1.305zM46.493 92.678H1.713c-.725 0-1.318.587-1.318 1.304 0 .718.593 1.305 1.317 1.305h44.78c.725 0 1.318-.587 1.318-1.305 0-.782-.593-1.304-1.317-1.304z" transform="translate(65) translate(7.61 31.958) translate(58.902 74.351)"/>
                        </g>
                        <g fill="#FFF" opacity=".3">
                            <path d="M20.876 2.87H1.712C.988 2.87.395 2.283.395 1.565.395.848.988.261 1.712.261h19.164c.724 0 1.317.587 1.317 1.304 0 .718-.593 1.305-1.317 1.305zM10.8 8.87H1.712C.988 8.87.395 8.283.395 7.566c0-.718.593-1.305 1.317-1.305H10.8c.724 0 1.317.587 1.317 1.305 0 .782-.593 1.304-1.317 1.304z" transform="translate(65) translate(7.61 31.958) translate(6.878 74.351)"/>
                        </g>
                    </g>
                </g>
            </g>
        </g>
    </g>
</svg>
