<svg xmlns="http://www.w3.org/2000/svg" width="427" height="319" viewBox="0 0 427 319">
    <defs>
        <linearGradient id="99vs5eurga" x1="-10.112%" x2="76.404%" y1="107.349%" y2="49.135%">
            <stop offset="0%" stop-color="#4C34CD"/>
            <stop offset="13%" stop-color="#493BD9"/>
            <stop offset="43%" stop-color="#4547EE"/>
            <stop offset="72%" stop-color="#424EFB"/>
            <stop offset="100%" stop-color="#4150FF"/>
        </linearGradient>
        <linearGradient id="rpd2yxfy4b" x1="-10.1%" x2="76.434%" y1="107.349%" y2="49.135%">
            <stop offset="0%" stop-color="#4C34CD"/>
            <stop offset="13%" stop-color="#493BD9"/>
            <stop offset="43%" stop-color="#4547EE"/>
            <stop offset="72%" stop-color="#424EFB"/>
            <stop offset="100%" stop-color="#4150FF"/>
        </linearGradient>
        <linearGradient id="xaixlmqbqc" x1="100%" x2="0%" y1="49.856%" y2="49.856%">
            <stop offset="0%" stop-color="#0056EC"/>
            <stop offset="100%" stop-color="#008BEC"/>
        </linearGradient>
        <linearGradient id="1b5cnoqb9d" x1="107.205%" x2="48.991%" y1="110.1%" y2="23.566%">
            <stop offset="0%" stop-color="#5E06F9"/>
            <stop offset="10%" stop-color="#5B0EF1"/>
            <stop offset="41%" stop-color="#5323DD"/>
            <stop offset="71%" stop-color="#4E30D1"/>
            <stop offset="100%" stop-color="#4C34CD"/>
        </linearGradient>
        <linearGradient id="coms1nsoye" x1=".324%" x2="99.677%" y1="50%" y2="50%">
            <stop offset="0%" stop-color="#0056EC"/>
            <stop offset="100%" stop-color="#008BEC"/>
        </linearGradient>
        <linearGradient id="0n4b2a42bf" x1="11.839%" x2="80.88%" y1="78.947%" y2="26.667%">
            <stop offset="0%" stop-color="#4C34CD"/>
            <stop offset="13%" stop-color="#493BD9"/>
            <stop offset="43%" stop-color="#4547EE"/>
            <stop offset="72%" stop-color="#424EFB"/>
            <stop offset="100%" stop-color="#4150FF"/>
        </linearGradient>
        <linearGradient id="if685fkaig" x1=".268%" x2="99.686%" y1="50.263%" y2="50.263%">
            <stop offset="0%" stop-color="#0056EC"/>
            <stop offset="100%" stop-color="#008BEC"/>
        </linearGradient>
        <linearGradient id="pkbyikseih" x1="0%" x2="100%" y1="49.981%" y2="49.981%">
            <stop offset="0%" stop-color="#008DEC"/>
            <stop offset="100%" stop-color="#008BEC"/>
        </linearGradient>
        <linearGradient id="lkz2gluwzi" x1="0%" x2="100%" y1="50.024%" y2="50.024%">
            <stop offset="0%" stop-color="#008DEC"/>
            <stop offset="100%" stop-color="#008BEC"/>
        </linearGradient>
        <linearGradient id="japvmaz86j" x1="0%" x2="100%" y1="50%" y2="50%">
            <stop offset="0%" stop-color="#D1E2FF"/>
            <stop offset="100%" stop-color="#ECF3FF"/>
        </linearGradient>
        <linearGradient id="krefllufyk" x1="0%" x2="100%" y1="49.99%" y2="49.99%">
            <stop offset="0%" stop-color="#D1E2FF"/>
            <stop offset="100%" stop-color="#ECF3FF"/>
        </linearGradient>
        <linearGradient id="fwiwyl315l" x1="-.223%" x2="99.777%" y1="50.016%" y2="50.016%">
            <stop offset="0%" stop-color="#D1E2FF"/>
            <stop offset="100%" stop-color="#ECF3FF"/>
        </linearGradient>
        <linearGradient id="kibg3z7x7m" x1="0%" x2="99.822%" y1="50.013%" y2="50.013%">
            <stop offset="0%" stop-color="#D1E2FF"/>
            <stop offset="100%" stop-color="#ECF3FF"/>
        </linearGradient>
        <linearGradient id="mwnta6hjcn" x1="-2.454%" x2="89.545%" y1="61.596%" y2="44.736%">
            <stop offset="0%" stop-color="#5E06F9"/>
            <stop offset="10%" stop-color="#5B0EF1"/>
            <stop offset="41%" stop-color="#5323DD"/>
            <stop offset="71%" stop-color="#4E30D1"/>
            <stop offset="100%" stop-color="#4C34CD"/>
        </linearGradient>
        <linearGradient id="kaxgciliyo" x1="56.393%" x2="27.12%" y1="5.93%" y2="96.416%">
            <stop offset="0%" stop-color="#FBD591"/>
            <stop offset="27%" stop-color="#FAD697"/>
            <stop offset="62%" stop-color="#F8DAA6"/>
            <stop offset="100%" stop-color="#F5E0C0"/>
        </linearGradient>
        <linearGradient id="7rcyjwicnp" x1="46.979%" x2="49.467%" y1="10.456%" y2="79.306%">
            <stop offset="0%" stop-color="#F2B562"/>
            <stop offset="100%" stop-color="#FBD591"/>
        </linearGradient>
        <linearGradient id="cm2fx8aszq" x1="39.435%" x2="108.777%" y1="54.123%" y2="43.31%">
            <stop offset="0%" stop-color="#F5E0C0"/>
            <stop offset="38%" stop-color="#F8DAA6"/>
            <stop offset="73%" stop-color="#FAD697"/>
            <stop offset="100%" stop-color="#FBD591"/>
        </linearGradient>
        <linearGradient id="3loq9d0isr" x1="-.009%" x2="100.143%" y1="49.99%" y2="49.99%">
            <stop offset="0%" stop-color="#5E06F9"/>
            <stop offset="10%" stop-color="#5B0EF1"/>
            <stop offset="41%" stop-color="#5323DD"/>
            <stop offset="71%" stop-color="#4E30D1"/>
            <stop offset="100%" stop-color="#4C34CD"/>
        </linearGradient>
        <linearGradient id="yyhai0yogs" x1=".202%" x2="100.176%" y1="50.555%" y2="50.555%">
            <stop offset="0%" stop-color="#93B5F0"/>
            <stop offset="20%" stop-color="#97B8F1"/>
            <stop offset="39%" stop-color="#A2C0F2"/>
            <stop offset="58%" stop-color="#B6CDF5"/>
            <stop offset="76%" stop-color="#D1E0F9"/>
            <stop offset="95%" stop-color="#F4F7FD"/>
            <stop offset="100%" stop-color="#FFF"/>
        </linearGradient>
        <linearGradient id="n5wfshkebt" x1="-2.414%" x2="89.386%" y1="61.677%" y2="44.724%">
            <stop offset="0%" stop-color="#5E06F9"/>
            <stop offset="10%" stop-color="#5B0EF1"/>
            <stop offset="41%" stop-color="#5323DD"/>
            <stop offset="71%" stop-color="#4E30D1"/>
            <stop offset="100%" stop-color="#4C34CD"/>
        </linearGradient>
        <linearGradient id="uy8r0r3b1u" x1="0%" x2="100%" y1="49.996%" y2="49.996%">
            <stop offset="0%" stop-color="#0056EC"/>
            <stop offset="100%" stop-color="#008BEC"/>
        </linearGradient>
        <linearGradient id="aydybum25v" x1="-.005%" x2="100.05%" y1="49.959%" y2="49.959%">
            <stop offset="0%" stop-color="#0056EC"/>
            <stop offset="100%" stop-color="#008BEC"/>
        </linearGradient>
        <linearGradient id="ll5w7is87w" x1="6.42%" x2="88.321%" y1="83.814%" y2="24.819%">
            <stop offset="0%" stop-color="#93B5F0"/>
            <stop offset="20%" stop-color="#97B8F1"/>
            <stop offset="39%" stop-color="#A2C0F2"/>
            <stop offset="58%" stop-color="#B6CDF5"/>
            <stop offset="76%" stop-color="#D1E0F9"/>
            <stop offset="95%" stop-color="#F4F7FD"/>
            <stop offset="100%" stop-color="#FFF"/>
        </linearGradient>
        <linearGradient id="ig4ynnyyjx" x1="0%" x2="99.984%" y1="50%" y2="50%">
            <stop offset="0%" stop-color="#D1E2FF"/>
            <stop offset="100%" stop-color="#ECF3FF"/>
        </linearGradient>
        <linearGradient id="bsqtx3risy" x1=".053%" x2="100.053%" y1="49.948%" y2="49.948%">
            <stop offset="0%" stop-color="#D1E2FF"/>
            <stop offset="100%" stop-color="#ECF3FF"/>
        </linearGradient>
        <linearGradient id="x7jo0f2rcz" x1="50%" x2="50%" y1="2.542%" y2="107.184%">
            <stop offset="0%" stop-color="#008BEC"/>
            <stop offset="100%" stop-color="#0056EC"/>
        </linearGradient>
        <linearGradient id="83r361jmoA" x1="-.003%" x2="100.032%" y1="50.004%" y2="50.004%">
            <stop offset="0%" stop-color="#0056EC"/>
            <stop offset="100%" stop-color="#008BEC"/>
        </linearGradient>
        <linearGradient id="0q44qhg9cB" x1="32.614%" x2="71.291%" y1="100.398%" y2="2.86%">
            <stop offset="0%" stop-color="#0056EC"/>
            <stop offset="100%" stop-color="#00C2EC"/>
        </linearGradient>
        <linearGradient id="9zeu23ugeC" x1="0%" x2="100.005%" y1="49.994%" y2="49.994%">
            <stop offset="0%" stop-color="#0056EC"/>
            <stop offset="100%" stop-color="#008BEC"/>
        </linearGradient>
        <linearGradient id="le3vuyyw3D" x1="26.238%" x2="68.628%" y1="51.573%" y2="48.927%">
            <stop offset="0%" stop-color="#F2B562"/>
            <stop offset="100%" stop-color="#FBD591"/>
        </linearGradient>
        <linearGradient id="53za4hmk3E" x1="20.559%" x2="55.75%" y1="-31.354%" y2="50.255%">
            <stop offset="0%" stop-color="#FBD591"/>
            <stop offset="27%" stop-color="#FAD697"/>
            <stop offset="62%" stop-color="#F8DAA6"/>
            <stop offset="100%" stop-color="#F5E0C0"/>
        </linearGradient>
        <linearGradient id="o6ybicuj6F" x1="51.23%" x2="53.248%" y1="70.354%" y2="109.743%">
            <stop offset="0%" stop-color="#F5E0C0"/>
            <stop offset="38%" stop-color="#F8DAA6"/>
            <stop offset="73%" stop-color="#FAD697"/>
            <stop offset="100%" stop-color="#FBD591"/>
        </linearGradient>
        <linearGradient id="8y5zgofwgG" x1="-17.639%" x2="102.105%" y1="93.704%" y2="27.592%">
            <stop offset="0%" stop-color="#4C34CD"/>
            <stop offset="13%" stop-color="#493BD9"/>
            <stop offset="43%" stop-color="#4547EE"/>
            <stop offset="72%" stop-color="#424EFB"/>
            <stop offset="100%" stop-color="#4150FF"/>
        </linearGradient>
        <linearGradient id="fy0un6f2jH" x1="46.182%" x2="75.566%" y1="49.564%" y2="51.045%">
            <stop offset="0%" stop-color="#172B36"/>
            <stop offset="100%" stop-color="#325D75"/>
        </linearGradient>
        <linearGradient id="66u7t2vs7I" x1="49.646%" x2="56.734%" y1="33.417%" y2="116.281%">
            <stop offset="0%" stop-color="#0056EC"/>
            <stop offset="100%" stop-color="#008BEC"/>
        </linearGradient>
        <linearGradient id="yur11dlc0J" x1="49.652%" x2="50.785%" y1="26.373%" y2="109.233%">
            <stop offset="0%" stop-color="#F5E0C0"/>
            <stop offset="38%" stop-color="#F8DAA6"/>
            <stop offset="73%" stop-color="#FAD697"/>
            <stop offset="100%" stop-color="#FBD591"/>
        </linearGradient>
        <linearGradient id="mf2fkf5zpK" x1="57.53%" x2="-7.078%" y1="52.694%" y2="29.083%">
            <stop offset="0%" stop-color="#F5E0C0"/>
            <stop offset="38%" stop-color="#F8DAA6"/>
            <stop offset="73%" stop-color="#FAD697"/>
            <stop offset="100%" stop-color="#FBD591"/>
        </linearGradient>
        <linearGradient id="mua0b02hfL" x1=".005%" x2="100%" y1="50.01%" y2="50.01%">
            <stop offset="0%" stop-color="#93B5F0"/>
            <stop offset="20%" stop-color="#97B8F1"/>
            <stop offset="39%" stop-color="#A2C0F2"/>
            <stop offset="58%" stop-color="#B6CDF5"/>
            <stop offset="76%" stop-color="#D1E0F9"/>
            <stop offset="95%" stop-color="#F4F7FD"/>
            <stop offset="100%" stop-color="#FFF"/>
        </linearGradient>
        <linearGradient id="mf36gy6ceM" x1="51.039%" x2="53.319%" y1="68.841%" y2="106.283%">
            <stop offset="0%" stop-color="#F5E0C0"/>
            <stop offset="38%" stop-color="#F8DAA6"/>
            <stop offset="73%" stop-color="#FAD697"/>
            <stop offset="100%" stop-color="#FBD591"/>
        </linearGradient>
        <linearGradient id="iv4p1te75N" x1="-3.269%" x2="103.353%" y1="79.962%" y2="34.548%">
            <stop offset="0%" stop-color="#4C34CD"/>
            <stop offset="13%" stop-color="#493BD9"/>
            <stop offset="43%" stop-color="#4547EE"/>
            <stop offset="72%" stop-color="#424EFB"/>
            <stop offset="100%" stop-color="#4150FF"/>
        </linearGradient>
        <linearGradient id="978fn5wdcO" x1="38.754%" x2="133.449%" y1="49.198%" y2="51.551%">
            <stop offset="0%" stop-color="#172B36"/>
            <stop offset="100%" stop-color="#325D75"/>
        </linearGradient>
        <linearGradient id="5bryavmztP" x1="-.04%" x2="117.558%" y1="50.049%" y2="50.049%">
            <stop offset="0%" stop-color="#0056EC"/>
            <stop offset="100%" stop-color="#008BEC"/>
        </linearGradient>
        <linearGradient id="tvib1fcctQ" x1="57.549%" x2="-4.589%" y1="50.728%" y2="45.675%">
            <stop offset="0%" stop-color="#F5E0C0"/>
            <stop offset="38%" stop-color="#F8DAA6"/>
            <stop offset="73%" stop-color="#FAD697"/>
            <stop offset="100%" stop-color="#FBD591"/>
        </linearGradient>
        <linearGradient id="gg437onh5R" x1=".036%" x2="100%" y1="49.931%" y2="49.931%">
            <stop offset="0%" stop-color="#93B5F0"/>
            <stop offset="20%" stop-color="#97B8F1"/>
            <stop offset="39%" stop-color="#A2C0F2"/>
            <stop offset="58%" stop-color="#B6CDF5"/>
            <stop offset="76%" stop-color="#D1E0F9"/>
            <stop offset="95%" stop-color="#F4F7FD"/>
            <stop offset="100%" stop-color="#FFF"/>
        </linearGradient>
        <linearGradient id="l6npuboysS" x1="26.914%" x2="68.618%" y1="63.881%" y2="31.032%">
            <stop offset="0%" stop-color="#5E06F9"/>
            <stop offset="10%" stop-color="#5B0EF1"/>
            <stop offset="41%" stop-color="#5323DD"/>
            <stop offset="71%" stop-color="#4E30D1"/>
            <stop offset="100%" stop-color="#4C34CD"/>
        </linearGradient>
    </defs>
    <g fill="none" fill-rule="evenodd">
        <g fill-rule="nonzero">
            <g transform="translate(-863 -2843) translate(863 2843)">
                <path fill="url(#99vs5eurga)" d="M65 58L67.996 52 71 58z"/>
                <path fill="url(#rpd2yxfy4b)" d="M395 48L398 42 401 48z"/>
                <path fill="url(#xaixlmqbqc)" d="M88 67L85.004 73 82 67z"/>
                <path fill="url(#1b5cnoqb9d)" d="M86 46L80 43 86 40z"/>
                <path fill="#6BE1D3" d="M401 63L404 57 407 63zM421 35L427 37.996 421 41z"/>
                <path fill="#ECF3FF" d="M386.206 230.981L117.19 210.463c-1.768-.132-3.191-1.99-3.191-4.145V29.675c0-2.154 1.423-4.013 3.19-4.145L386.207 5.02c1.24-.118 2.473.297 3.388 1.143.916.845 1.427 2.04 1.406 3.283v217.1c.02 1.245-.49 2.44-1.405 3.287-.915.846-2.148 1.264-3.39 1.148z"/>
                <path fill="#FFF" d="M377.206 225.98L108.19 205.47c-1.768-.132-3.191-1.99-3.191-4.145V24.682c0-2.154 1.423-4.013 3.19-4.145L377.207.019c1.241-.116 2.474.302 3.389 1.148.915.846 1.425 2.042 1.405 3.287v217.1c.02 1.244-.49 2.438-1.406 3.283-.915.846-2.147 1.261-3.388 1.143z"/>
                <path fill="#ECF3FF" d="M382 4.437c.02-1.24-.49-2.43-1.405-3.274-.915-.843-2.148-1.26-3.39-1.144L108.192 20.463c-1.768.132-3.191 1.983-3.191 4.13V41l277-16.399V4.437z"/>
                <path fill="#252784" d="M377.195 226.996c-.13.005-.26.005-.39 0L108.54 206.467c-1.95-.148-3.54-2.188-3.54-4.54V25.112c0-2.344 1.56-4.392 3.54-4.54L376.805.02c1.346-.124 2.682.331 3.673 1.253.991.921 1.544 2.222 1.521 3.576v217.31c.016 1.284-.484 2.52-1.387 3.43-.904.91-2.136 1.417-3.417 1.407zm0-226.194h-.336L108.595 21.33c-1.56.125-2.823 1.813-2.823 3.766v176.816c0 1.953 1.263 3.641 2.823 3.758l268.264 20.536c1.13.105 2.25-.277 3.081-1.049.832-.772 1.297-1.862 1.28-2.998V4.865c.016-1.077-.402-2.116-1.16-2.88-.757-.766-1.79-1.192-2.865-1.183z"/>
                <path fill="url(#coms1nsoye)" d="M113.987 30.368c.077 1.27-.778 2.4-1.991 2.632-.576-.02-1.117-.288-1.494-.738-.376-.45-.553-1.04-.489-1.63-.081-1.269.77-2.4 1.983-2.632.577.018 1.12.285 1.499.735.378.45.557 1.042.492 1.633z"/>
                <path fill="url(#0n4b2a42bf)" d="M119.99 29.368c.074 1.276-.783 2.407-1.994 2.632-.573-.019-1.113-.285-1.49-.734-.376-.45-.556-1.042-.494-1.634-.072-1.272.779-2.4 1.984-2.632.574.019 1.115.285 1.493.734.378.449.559 1.041.5 1.634z"/>
                <path fill="url(#if685fkaig)" d="M125.987 29.373c.073 1.279-.783 2.41-1.988 2.627-.571-.016-1.11-.282-1.488-.732-.377-.45-.559-1.045-.5-1.641-.062-1.275.79-2.4 1.988-2.627.573.011 1.116.275 1.494.726.379.452.558 1.05.494 1.647z"/>
                <path fill="#ECF3FF" d="M270 36.741L270 54 378 49.608 378 31zM345 220L271 214.553 271 59.884 345 57zM263 135L182 133.682 182 41.532 263 37z"/>
                <path fill="#6BE1D3" d="M122 204L107 202.899 107 45.828 122 45z"/>
                <path fill="#B3CDFA" d="M326.449 153l-1.913-.045c-1.435-.064-2.558-1.208-2.535-2.584v-1.891c-.015-.653.246-1.284.723-1.75.477-.467 1.13-.73 1.812-.73l1.913.037c1.441.057 2.573 1.203 2.55 2.584v1.9c.015.655-.248 1.288-.728 1.755-.48.467-1.138.728-1.822.724zM336.443 153l-1.903-.045c-1.43-.06-2.553-1.202-2.54-2.582v-1.894c-.012-.656.25-1.289.729-1.756.478-.466 1.131-.727 1.811-.723h1.903c1.438.048 2.573 1.195 2.556 2.582v1.902c.023.665-.237 1.31-.72 1.785-.483.475-1.146.74-1.836.73z"/>
                <path fill="#FFF" d="M281.45 162l-1.908-.054c-1.46-.094-2.579-1.236-2.54-2.59v-1.89c-.029-.642.225-1.267.704-1.732.479-.466 1.141-.73 1.836-.734l1.908.046c1.463.094 2.587 1.24 2.548 2.597v1.898c.03.643-.226 1.269-.707 1.733-.481.464-1.146.727-1.84.726zM290.45 163l-1.908-.053c-1.457-.09-2.578-1.236-2.54-2.596v-1.885c-.027-.644.229-1.27.708-1.736.479-.465 1.14-.728 1.832-.73l1.908.046c1.459.09 2.582 1.234 2.548 2.595v1.901c.027.645-.23 1.272-.71 1.736-.482.464-1.145.725-1.838.722zM299.445 163l-1.907-.053c-1.448-.09-2.566-1.232-2.537-2.594v-1.888c-.022-.646.236-1.272.714-1.736.478-.464 1.136-.727 1.823-.729l1.907.053c1.457.077 2.586 1.225 2.553 2.594v1.896c.025.648-.234 1.277-.717 1.74-.482.465-1.145.723-1.836.717zM309.443 163l-1.91-.053c-1.442-.088-2.556-1.229-2.532-2.592v-1.891c-.021-.647.236-1.274.713-1.738.477-.464 1.134-.726 1.82-.726l1.909.045c1.454.077 2.584 1.226 2.556 2.6v1.898c.022.65-.24 1.28-.722 1.744-.483.464-1.145.721-1.834.713zM317.446 163l-1.907-.053c-1.44-.084-2.558-1.227-2.538-2.597v-1.887c-.02-.65.24-1.279.719-1.743.478-.464 1.135-.724 1.819-.72l1.907.045c1.448.072 2.576 1.22 2.553 2.598v1.901c.02.652-.242 1.282-.724 1.746-.483.464-1.143.72-1.83.71z"/>
                <path fill="#B3CDFA" d="M326.428 162.999l-1.904-.06c-1.428-.071-2.542-1.214-2.523-2.588v-1.896c-.017-.651.242-1.28.718-1.743.476-.463 1.128-.72 1.805-.712l1.904.045c1.436.052 2.57 1.186 2.57 2.566v1.896c.028.665-.233 1.311-.72 1.784-.488.473-1.158.729-1.85.708zM336.444 163l-1.903-.052c-1.434-.072-2.555-1.22-2.54-2.602v-1.892c-.015-.654.247-1.285.727-1.748.48-.463 1.134-.718 1.813-.706l1.903.045c1.437.063 2.566 1.209 2.556 2.594v1.944c.004.65-.265 1.273-.747 1.729-.481.455-1.134.703-1.809.687z"/>
                <path fill="#FFF" d="M281.45 171l-1.909-.07c-1.46-.105-2.574-1.246-2.539-2.598v-1.894c-.027-.638.228-1.259.708-1.719.479-.46 1.14-.72 1.831-.719l1.909.061c1.465.098 2.587 1.243 2.548 2.6v1.9c.03.64-.227 1.264-.708 1.725-.482.46-1.147.719-1.84.714zM290.45 172l-1.909-.061c-1.455-.105-2.57-1.25-2.54-2.608v-1.891c-.026-.641.23-1.265.71-1.726.48-.46 1.141-.719 1.83-.714l1.91.053c1.46.098 2.581 1.245 2.547 2.608v1.899c.03.643-.227 1.269-.71 1.73-.481.462-1.146.719-1.838.71zM299.438 172h-1.9c-1.45-.105-2.562-1.253-2.536-2.62v-1.935c-.025-.645.233-1.27.712-1.732.48-.462 1.138-.72 1.825-.713l1.907.06c1.457.09 2.582 1.24 2.553 2.612v1.898c.018.646-.246 1.27-.729 1.728-.484.459-1.145.712-1.832.702zM309.442 172l-1.908-.068c-1.445-.096-2.557-1.24-2.532-2.604v-1.89c-.025-.644.233-1.269.711-1.73.478-.46 1.136-.716 1.82-.708l1.91.053c1.455.088 2.58 1.238 2.555 2.611v1.897c.025.648-.236 1.277-.72 1.739-.483.461-1.147.714-1.836.7zM317.446 172l-1.908-.068c-1.442-.091-2.557-1.238-2.537-2.61v-1.884c-.02-.647.24-1.273.72-1.733.479-.46 1.136-.715 1.817-.705l1.908.053c1.448.083 2.572 1.232 2.553 2.61v1.899c.022.65-.24 1.28-.723 1.74-.483.462-1.145.714-1.83.697z"/>
                <path fill="#B3CDFA" d="M326.449 173l-1.913-.068c-1.436-.086-2.55-1.231-2.535-2.605v-1.885c-.02-.649.24-1.277.72-1.739.479-.461 1.135-.715 1.815-.703l1.913.06c1.442.079 2.565 1.226 2.55 2.605v1.9c.017.65-.246 1.28-.728 1.74-.482.46-1.14.71-1.822.694zM336.444 172.999l-1.903-.067c-1.432-.082-2.547-1.225-2.54-2.603v-1.887c-.017-.653.245-1.283.725-1.744.48-.462 1.136-.714 1.815-.697l1.903.059c1.44.075 2.566 1.224 2.555 2.61v1.895c.015.654-.25 1.285-.733 1.745-.483.46-1.142.71-1.822.689z"/>
                <path fill="#FFF" d="M281.45 180l-1.908-.077c-1.463-.117-2.575-1.264-2.538-2.62v-1.883c-.038-.638.215-1.262.697-1.72.482-.46 1.149-.713 1.84-.7l1.909.07c1.466.113 2.582 1.26 2.546 2.618v1.892c.038.64-.216 1.264-.7 1.724-.483.459-1.153.711-1.846.695zM290.45 181l-1.908-.084c-1.46-.108-2.575-1.256-2.54-2.614v-1.877c-.03-.64.227-1.261.707-1.72.48-.459 1.143-.714 1.833-.705l1.908.076c1.466.101 2.587 1.252 2.548 2.615v1.892c.027.639-.23 1.26-.713 1.717-.482.458-1.145.71-1.835.7zM299.44 181l-1.905-.084c-1.448-.111-2.556-1.254-2.534-2.615v-1.89c-.02-.64.24-1.259.72-1.714.48-.456 1.14-.707 1.823-.697l1.904.076c1.457.1 2.576 1.248 2.55 2.615v1.897c.021.643-.242 1.265-.725 1.72-.484.456-1.147.706-1.833.691zM309.442 180.999l-1.908-.083c-1.447-.103-2.558-1.249-2.532-2.613v-1.885c-.025-.641.233-1.264.712-1.721.479-.457 1.137-.71 1.82-.697l1.908.068c1.458.096 2.581 1.247 2.556 2.62v1.893c.025.645-.236 1.272-.72 1.73-.484.458-1.149.707-1.836.688zM317.446 181.999l-1.907-.075c-1.443-.102-2.554-1.248-2.538-2.618v-1.888c-.022-.645.238-1.27.718-1.727.48-.457 1.139-.707 1.82-.69l1.907.067c1.449.095 2.569 1.243 2.553 2.619v1.895c.022.647-.24 1.274-.724 1.732-.483.458-1.146.706-1.83.685z"/>
                <path fill="#B3CDFA" d="M326.429 181.997l-1.904-.081c-1.431-.098-2.536-1.243-2.524-2.616v-1.883c-.02-.646.24-1.272.718-1.729.477-.457 1.13-.706 1.806-.687l1.904.067c1.449.075 2.58 1.227 2.57 2.616v1.89c.022.655-.243 1.29-.73 1.75-.489.46-1.156.705-1.84.673zM336.444 181.998l-1.903-.08c-1.435-.094-2.548-1.24-2.54-2.62v-1.884c-.015-.648.248-1.273.728-1.73.48-.456 1.136-.703 1.812-.683l1.903.074c1.44.082 2.562 1.229 2.555 2.612v1.898c.016.65-.25 1.279-.734 1.736-.484.457-1.143.702-1.821.677z"/>
                <path fill="#FFF" d="M281.45 190l-1.908-.092c-1.466-.125-2.576-1.274-2.54-2.629v-1.88c-.032-.634.223-1.252.704-1.707.482-.454 1.146-.705 1.836-.691l1.908.084c1.469.12 2.584 1.27 2.547 2.628v1.887c.033.636-.223 1.255-.706 1.71-.483.455-1.15.705-1.841.69zM290.45 190.998l-1.908-.09c-1.458-.124-2.566-1.27-2.538-2.626v-1.883c-.038-.637.216-1.26.699-1.717.483-.456 1.15-.703 1.839-.68l1.908.083c1.463.116 2.578 1.265 2.546 2.626v1.89c.038.639-.217 1.263-.702 1.72-.484.456-1.154.702-1.844.677zM299.44 190.999l-1.904-.09c-1.452-.123-2.557-1.27-2.534-2.632v-1.878c-.027-.64.231-1.26.713-1.715.482-.455 1.144-.702 1.829-.683l1.904.083c1.457.111 2.572 1.259 2.55 2.624v1.893c.025.641-.236 1.264-.72 1.718-.486.455-1.151.701-1.838.68zM309.442 190.998l-1.908-.09c-1.45-.117-2.555-1.265-2.532-2.63v-1.88c-.025-.638.233-1.258.713-1.712.48-.454 1.137-.702 1.819-.685l1.908.082c1.459.107 2.578 1.258 2.556 2.63v1.888c.025.643-.236 1.266-.72 1.72-.486.456-1.15.7-1.836.677zM317.446 191.998l-1.907-.09c-1.446-.109-2.555-1.257-2.538-2.627v-1.883c-.022-.642.238-1.264.72-1.718.48-.454 1.138-.7 1.818-.679l1.907.082c1.45.11 2.566 1.26 2.553 2.635v1.883c.022.645-.24 1.27-.724 1.724-.485.454-1.147.698-1.83.673z"/>
                <path fill="#B3CDFA" d="M326.417 191.996l-1.913-.088c-1.426-.127-2.513-1.27-2.503-2.633v-1.878c-.02-.643.241-1.266.722-1.72.48-.454 1.136-.698 1.812-.676l1.913.082c1.445.105 2.558 1.254 2.55 2.632v1.856c.03.657-.234 1.295-.726 1.757-.491.462-1.165.705-1.855.668zM336.444 192.997l-1.903-.095c-1.438-.1-2.548-1.25-2.54-2.628v-1.88c-.016-.645.248-1.268.73-1.72.48-.454 1.135-.697 1.81-.672l1.903.088c1.443.093 2.562 1.244 2.555 2.628v1.886c.018.65-.247 1.276-.732 1.73-.485.454-1.146.694-1.823.663z"/>
                <path fill="#FFF" d="M281.45 199l-1.908-.1c-1.465-.139-2.57-1.287-2.54-2.64v-1.878c-.028-.631.23-1.245.71-1.696.481-.45 1.143-.699 1.83-.686l1.908.092c1.468.135 2.577 1.284 2.548 2.64v1.894c.026.63-.233 1.243-.716 1.693-.482.45-1.145.696-1.832.68zM341.4 51.78l-4.903.203c-1.667.123-3.312-.43-4.543-1.53-1.231-1.099-1.939-2.644-1.954-4.268V41.67c.114-3.451 2.946-6.234 6.497-6.382l4.902-.265c1.678-.147 3.343.39 4.595 1.485 1.253 1.094 1.98 2.646 2.006 4.282v4.616c-.133 3.48-3.018 6.266-6.6 6.374zM366.404 49.759l-4.909.219c-1.647.145-3.28-.428-4.51-1.584-1.23-1.157-1.948-2.794-1.985-4.524v-4.803c.143-3.686 2.973-6.636 6.495-6.772l4.909-.284c3.639-.21 6.596 2.52 6.596 6.1v4.86c0 3.58-2.942 6.618-6.596 6.788z"/>
                <path fill="#B3CDFA" d="M360 37.484L360 43.908 362.443 43.783 362.443 46 364.931 43.658 369 43.463 369 37zM340.834 47.999c-3.015.079-6.773-3.727-6.834-6.902.06-.603.374-1.15.857-1.496l.681-.457c.125-.087.27-.136.421-.142.26-.018.51.1.666.315l1.225 1.757c.123.172.173.388.139.6-.035.21-.151.398-.323.519l-.727.575c.279.447.613.855.995 1.213.379.367.8.685 1.255.945l.536-.788c.259-.354.732-.458 1.11-.244l1.806 1.15c.173.112.296.291.34.497.045.206.008.421-.103.599l-.421.7c-.382.581-.96.994-1.623 1.159z"/>
                <path fill="#B3CDFA" d="M254.996 208.19c.04.746-.208 1.475-.683 2.01-.475.534-1.133.824-1.813.798-1.452-.207-2.528-1.582-2.496-3.189-.04-.745.208-1.474.683-2.009.475-.534 1.133-.824 1.813-.798 1.458.196 2.54 1.578 2.496 3.189zM244.994 207.196c.048.744-.196 1.476-.673 2.01-.477.536-1.141.823-1.825.792-1.458-.206-2.534-1.584-2.49-3.186-.05-.744.193-1.476.668-2.013.476-.536 1.138-.826 1.822-.797 1.463.206 2.543 1.588 2.498 3.194zM236.995 207.189c.046.742-.2 1.471-.677 2.007-.477.535-1.14.827-1.826.803-1.458-.22-2.53-1.593-2.487-3.188-.045-.74.198-1.466.671-2 .474-.535 1.133-.83 1.816-.81 1.468.203 2.552 1.584 2.503 3.188zM228.996 206.655c.041.615-.207 1.219-.685 1.664-.478.445-1.142.692-1.832.68-1.46-.194-2.524-1.336-2.475-2.654-.04-.61.202-1.207.67-1.65.47-.445 1.122-.696 1.805-.695 1.479.174 2.567 1.323 2.517 2.655zM221.996 205.66c.037.609-.21 1.205-.682 1.648-.472.443-1.128.693-1.814.692-1.472-.185-2.549-1.33-2.496-2.652-.039-.61.207-1.209.68-1.653.472-.445 1.129-.696 1.816-.695 1.475.185 2.554 1.334 2.496 2.66z" opacity=".47"/>
                <g fill="#B3CDFA" opacity=".47">
                    <path d="M4.5 9.308h-.277C1.905 8.998.186 6.95.232 4.554.172 3.429.576 2.33 1.345 1.526 2.114.72 3.177.285 4.275.323c2.333.288 4.072 2.345 4.02 4.754.05 1.079-.322 2.134-1.035 2.929-.713.795-1.707 1.264-2.76 1.302zm-.473-8.231c-.855.037-1.66.426-2.232 1.079-.573.652-.866 1.514-.812 2.39C.925 6.542 2.345 8.26 4.274 8.531c.895.032 1.762-.326 2.385-.986.623-.66.945-1.56.885-2.476.055-2.006-1.382-3.728-3.322-3.984l-.196-.008z" transform="translate(248 203)"/>
                </g>
                <path fill="#6BE1D3" d="M257 179c-.458-3.93-5.526-25.594-18.837-25.995-10.61-.307-16.01 13.791-18.884 14.058-2.874.268-4.942-6.86-9.197-5.988-4.256.873-5.25 7.67-8.432 9.595-3.182 1.926-5.313.157-10.832-.463-4.057-.456-7.373 3.237-8.818 5.186L257 179z"/>
                <path fill="#B3CDFA" d="M265 185l-88-4.654V141h.407L265 143.003V185zm-87.217-5.406l86.434 4.567v-40.367l-86.434-1.97v37.77z"/>
                <path fill="#FFF" d="M225 48c-15.599.898-27.89 15.59-28 33l28-.71V48z"/>
                <path fill="#B3CDFA" d="M202 81.586c.105 14.565 10.259 26.345 23 26.414V81l-23 .586z"/>
                <path fill="#6BE1D3" d="M247 78.53c-.12-12.278-9.545-21.855-21-21.522V79l21-.47z"/>
                <path fill="#FFF" d="M226 98c9.273-.234 16.878-8.686 17-19l-17 .419V98z"/>
                <path fill="#B3CDFA" d="M186.324 114c-.218 0-.394-.178-.394-.396 0-.22.176-.397.394-.397h1.426c.217 0 .393.178.393.397 0 .218-.176.396-.393.396h-1.426zm6.877 0c-.216-.004-.39-.18-.394-.396 0-.22.176-.397.394-.397h1.433c.218 0 .394.178.394.397-.004.217-.178.392-.394.396h-1.433zm6.884 0c-.217 0-.393-.178-.393-.396 0-.22.176-.397.393-.397h1.426c.218 0 .394.178.394.397 0 .218-.176.396-.394.396h-1.426zm6.885 0c-.217 0-.394-.178-.394-.396 0-.22.177-.397.394-.397h1.458c.217 0 .393.178.393.397 0 .218-.176.396-.393.396h-1.458zm6.877 0c-.216-.004-.39-.18-.394-.396 0-.22.177-.397.394-.397h1.434c.217 0 .394.178.394.397-.004.217-.178.392-.394.396h-1.434zm6.885 0c-.218 0-.394-.178-.394-.396 0-.22.176-.397.394-.397h1.426c.217 0 .394.178.394.397 0 .218-.177.396-.394.396h-1.426zm6.885 0c-.218 0-.394-.178-.394-.396 0-.22.176-.397.394-.397h1.426c.217 0 .393.178.393.397-.004.217-.178.392-.393.396h-1.426zm6.877 0c-.218 0-.394-.178-.394-.396.004-.218.178-.393.394-.397h1.425c.218 0 .394.178.394.397 0 .218-.176.396-.394.396h-1.425zm6.884 0c-.217 0-.393-.178-.393-.396 0-.22.176-.397.393-.397h1.426c.218 0 .394.178.394.397 0 .218-.176.396-.394.396h-1.426zm6.885 0c-.217 0-.394-.178-.394-.396 0-.22.177-.397.394-.397h1.426c.218 0 .394.178.394.397-.004.217-.178.392-.394.396h-1.426zm6.877 0c-.217 0-.394-.178-.394-.396.004-.218.178-.393.394-.397h1.426c.217 0 .394.178.394.397 0 .218-.177.396-.394.396h-1.426zm3.466-2.419c-.217 0-.394-.177-.394-.396v-1.467c0-.219.177-.396.394-.396.218 0 .394.177.394.396v1.435c0 .105-.041.206-.115.28-.074.075-.174.117-.279.117v.031zm-74.212-1.942c-.218 0-.394-.178-.394-.397v-1.435c0-.219.176-.397.394-.397.217 0 .394.178.394.397v1.435c-.017.207-.188.366-.394.365v.032zm74.212-4.988c-.217 0-.394-.178-.394-.397v-1.435c0-.219.177-.396.394-.396.218 0 .394.177.394.396v1.435c-.016.207-.188.366-.394.365v.032zm-74.212-1.935c-.218 0-.394-.177-.394-.396v-1.444c0-.219.176-.396.394-.396.217 0 .394.177.394.396v1.444c-.017.206-.188.365-.394.364v.032zm74.212-4.988c-.217 0-.394-.177-.394-.396v-1.435c0-.22.177-.397.394-.397.218 0 .394.178.394.397v1.435c-.016.206-.188.365-.394.365v.031zm-74.212-1.966c-.218 0-.394-.178-.394-.397V93.93c0-.219.176-.396.394-.396.217 0 .394.177.394.396v1.435c0 .22-.177.397-.394.397zm74.212-4.988c-.217 0-.394-.177-.394-.396v-1.436c0-.219.177-.396.394-.396.218 0 .394.177.394.396v1.436c-.004.215-.18.388-.394.388v.008zm-74.212-1.943c-.218 0-.394-.177-.394-.396V87c0-.22.176-.397.394-.397.217 0 .394.178.394.397v1.435c-.005.216-.18.388-.394.388v.008zm74.212-4.964c-.217 0-.394-.177-.394-.396v-1.443c0-.22.177-.397.394-.397.218 0 .394.178.394.397v1.443c0 .219-.176.396-.394.396zm-74.212-1.942c-.218 0-.394-.178-.394-.397v-1.467c0-.219.176-.396.394-.396.217 0 .394.177.394.396v1.427c.004.108-.036.213-.11.291-.074.078-.177.122-.284.122v.024zm74.212-4.988c-.217 0-.394-.178-.394-.397v-1.459c0-.219.177-.396.394-.396.218 0 .394.177.394.396v1.436c0 .219-.176.396-.394.396v.024zm-74.212-1.943c-.218 0-.394-.177-.394-.396v-1.46c0-.218.176-.396.394-.396.217 0 .394.178.394.397v1.435c0 .219-.177.396-.394.396v.024zm74.212-4.988c-.217 0-.394-.177-.394-.396v-1.46c0-.218.177-.396.394-.396.218 0 .394.178.394.397v1.443c-.004.216-.18.389-.394.389v.023zm-74.212-1.998c-.218 0-.394-.177-.394-.396v-1.404c0-.219.176-.396.394-.396.217 0 .394.177.394.396v1.435c-.017.207-.188.366-.394.365zm74.212-4.98c-.217 0-.394-.177-.394-.396V61.22c0-.219.177-.396.394-.396.218 0 .394.177.394.396v1.443c0 .22-.176.397-.394.397v-.032zm-74.212-1.943c-.218 0-.394-.177-.394-.396v-1.404c0-.219.176-.396.394-.396.217 0 .394.177.394.396v1.436c0 .219-.177.396-.394.396v-.032zm74.212-4.971c-.217 0-.394-.178-.394-.397v-1.42c0-.218.177-.396.394-.396.218 0 .394.178.394.397v1.435c-.008.213-.182.38-.394.38zm-74.212-1.943c-.218 0-.394-.178-.394-.397v-1.42c0-.218.176-.396.394-.396.217 0 .394.178.394.397v1.435c0 .22-.177.397-.394.397v-.016zm74.212-4.988c-.217 0-.394-.177-.394-.396V47.39c0-.219.177-.397.394-.397.218 0 .394.178.394.397v1.435c-.013.21-.185.373-.394.373v-.016zm-74.212-1.943c-.218 0-.394-.177-.394-.396v-.674c.002-.296.047-.59.134-.872.07-.205.29-.317.496-.254.207.068.32.291.252.5-.063.202-.095.413-.094.626v.674c.004.108-.036.213-.11.29-.074.078-.177.122-.284.122v-.016zm4.892-3.02c-.21.004-.386-.162-.394-.374-.007-.105.029-.208.098-.287.07-.079.168-.127.272-.133l1.426-.071c.105-.009.209.026.288.096.079.07.125.17.13.276.004.22-.162.404-.379.42l-1.426.072h-.015zm6.869-.366c-.21-.003-.382-.17-.394-.38-.004-.105.033-.208.104-.285.07-.078.17-.124.274-.128l1.426-.079c.103-.006.205.03.282.1.078.07.123.168.127.273.007.105-.029.208-.098.287-.07.08-.167.127-.272.133l-1.426.08h-.023zm6.877-.372c-.212 0-.386-.168-.394-.381-.007-.104.029-.207.099-.285.07-.077.167-.123.271-.127l1.426-.08c.213-.005.393.16.41.373.015.107-.014.216-.082.3-.067.084-.166.136-.273.144l-1.426.08-.031-.024zm6.869-.373c-.209 0-.382-.163-.394-.373-.01-.217.154-.403.37-.42l1.426-.08c.217-.004.4.163.417.381.01.216-.155.4-.37.413l-1.426.079h-.023zm6.869-.373c-.209 0-.382-.163-.394-.372-.01-.22.16-.408.378-.42l1.426-.072c.103-.007.205.03.282.1.078.07.123.168.127.273.007.105-.029.208-.098.287-.07.079-.167.127-.272.133l-1.426.071h-.023zm6.877-.365c-.212 0-.386-.167-.394-.38-.007-.105.029-.207.099-.285.07-.077.167-.123.27-.127l1.427-.08c.217 0 .394.178.394.397 0 .219-.177.396-.394.396l-1.426.08h.024zm34.92-.079c-.191.003-.355-.135-.386-.325-.066-.389-.26-.744-.552-1.007-.15-.157-.15-.406 0-.563.153-.151.399-.151.552 0 .418.383.696.897.787 1.459.039.214-.102.42-.315.46l-.086-.024zm-28.083-.31c-.207-.003-.378-.164-.394-.372-.006-.105.03-.208.099-.287.07-.08.167-.127.271-.133l1.426-.08c.141-.008.275.06.353.178.078.119.087.27.024.397s-.189.21-.33.219l-1.425.079h-.024zm6.87-.372c-.218 0-.395-.177-.395-.396 0-.22.177-.397.394-.397l1.426-.071c.14-.007.274.062.35.181.077.12.085.27.02.396-.064.127-.19.209-.33.216l-1.426.08-.04-.009zm6.876-.372c-.21.004-.385-.162-.394-.373-.005-.216.157-.4.37-.42l1.426-.072c.14-.007.275.062.351.181.077.12.084.27.02.397-.064.126-.19.208-.331.215l-1.418.072h-.024zm6.869-.365c-.21-.004-.382-.17-.394-.38-.004-.106.033-.209.104-.286.071-.077.17-.123.274-.127l1.426-.08c.218-.01.403.158.414.377.01.22-.157.406-.375.416l-1.425.08h-.024z"/>
                <path fill="#FFF" d="M120 49.341L110 50 110 47.677 120 47zM120 55.436L110 56 110 51.614 120 51zM120 61.481L110 62 110 57.561 120 57z"/>
                <path fill="#ECF3FF" d="M155 47.477L125 49 125 44.63 155 43zM155 55.631L125 57 125 52.48 155 51zM155 65.787L125 67 125 62.32 155 61zM155 73.965L125 75 125 70.154 155 69zM155 81.295L125 82 125 77.808 155 77zM155 89.458L125 90 125 85.641 155 85zM155 97.643L125 98 125 93.468 155 93zM178 106.737L126 107 126 102.454 178 102zM178 115L126 114.899 126 110.109 178 110zM178 125L126 124.553 126 120 178 120.255zM178 133L126 132.247 126 128 178 128.566zM167 141L126 139.994 126 135 167 135.84zM167 150L126 148.752 126 144 167 145.09zM167 157L126 155.532 126 151 167 152.317zM167 168L126 166.326 126 162 167 163.53zM167 175L126 173.143 126 169 167 170.719zM167 184L126 181.637 126 177 167 179.209zM167 192L126 189.451 126 185 167 187.401zM167 200L126 197.284 126 193 167 195.573zM206 206l-3.007-.218c0-8.053-5.718-14.951-12.68-15.365-6.96-.413-12.43 5.673-12.43 13.57l-2.883-.203c0-9.73 6.822-17.253 15.306-16.761C198.89 187.507 206 196.035 206 206z"/>
                <path fill="#B3CDFA" d="M178.59 205l-2.59-.194c0-6.526 3.08-12.327 7.89-14.806l1.11 2.987c-3.903 2.015-6.41 6.697-6.41 12.013zM191.58 205.213c-2.265-2.98-3.85-5.053-4.555-5.974-.14-.216-.46-.3-.722-.19-.254.136-.365.402-.268.643.36 1.083 1.174 3.504 2.332 6.98.031.096.07.19.117.283.17.415.54.75 1.02.922.48.172 1.024.163 1.496-.023.94-.514 1.27-1.543.764-2.386-.067-.085-.126-.19-.185-.255zm-1.058 1.777c-.22.095-.478.104-.706.023-.228-.08-.402-.242-.476-.44-.23-.397-.076-.876.36-1.119.22-.095.479-.104.707-.023.228.08.402.242.476.44.234.397.079.878-.36 1.119zM248.886 51.001l-6.778.306c-.03.002-.06.016-.08.04-.02.023-.03.053-.028.084v3.304c-.002.029.008.058.03.078.02.021.049.031.078.029l2.572-.107c.042-.002.08.02.1.057l.613 1.148c.016.037.052.06.092.06s.075-.023.091-.06l.622-1.205c.02-.034.053-.055.091-.058l2.597-.116c.03-.002.06-.016.08-.04.02-.023.03-.053.028-.084v-3.304c.012-.033.006-.07-.016-.096-.022-.027-.057-.041-.092-.036z"/>
                <path fill="#FFF" d="M252.864 94.002l-6.757.092c-.03.002-.059.017-.079.04-.02.024-.03.055-.028.086v3.355c0 .061.047.113.107.117h2.568c.04.002.077.024.099.059l.609 1.19c.019.037.055.059.095.059s.076-.022.094-.058l.618-1.208c.016-.036.051-.059.09-.059h2.584c.031-.002.06-.016.08-.04.02-.023.03-.054.027-.085v-3.355c.033-.038.038-.092.014-.135-.024-.044-.072-.067-.12-.058z"/>
                <path fill="#B3CDFA" d="M195.878 92.003l-5.786.104c-.053.01-.092.061-.092.122v3.36c-.002.03.007.06.024.082.017.023.042.037.068.04h2.202c.034.002.063.026.077.06l.53 1.175c.016.033.047.054.08.054.034 0 .064-.02.08-.054l.53-1.192c.01-.038.042-.063.077-.061h2.21c.026-.002.05-.016.068-.04.017-.022.026-.052.024-.082v-3.377c.032-.035.04-.09.018-.135-.022-.045-.067-.068-.11-.056z"/>
                <path fill="#FFF" d="M196.907 56l-5.814.292c-.027.002-.052.016-.069.039-.017.022-.026.052-.024.081v3.324c0 .058.04.107.093.112l2.215-.104c.032 0 .062.02.077.052l.53 1.15c.017.034.048.054.081.054.034 0 .065-.02.08-.053l.532-1.194c.01-.039.04-.066.077-.069l2.222-.103c.027-.002.052-.016.069-.038.017-.023.026-.052.024-.082v-3.34c.002-.03-.007-.06-.024-.082-.017-.023-.042-.037-.069-.039z"/>
                <path fill="#ECF3FF" d="M178 97.764L157 98 157 42.111 178 41zM377 60.872L346 62 346 57.232 377 56zM377 69.004L346 70 346 65.095 377 64zM377 76.154L346 77 346 71.956 377 71zM377 83.319L346 84 346 78.803 377 78zM377 91.565L346 92 346 87.526 377 87zM377 98.714L346 99 346 94.387 377 94zM377 106.872L346 107 346 102.232 377 102zM377 115L346 114.967 346 110.066 377 110zM377 123L346 122.799 346 118 377 118.097zM377 130L346 129.634 346 125 377 125.257zM377 138L346 137.495 346 133 377 133.415zM377 146L346 145.228 346 140 377 140.658zM377 155L346 154.072 346 149 377 149.817zM377 161L346 159.932 346 155 377 155.968zM377 170L346 168.794 346 164 377 165.102zM377 177L346 175.654 346 171 377 172.236zM377 185L346 183.536 346 179 377 180.365zM377 192L346 190.42 346 186 377 187.491zM377 200L346 198.308 346 194 377 195.598zM377 208L346 205.908 346 201 377 202.993zM377 216L346 213.79 346 209 377 211.114zM377 224L346 221.669 346 217 377 219.221z"/>
                <path fill="#FFF" d="M305.81 67.006v26.826l-24.81.344c.156 14.258 11.005 25.824 24.592 25.824C319.52 120.039 331 108.011 331 93.135c0-14.876-11.363-26.434-25.19-26.13z"/>
                <path fill="#6BE1D3" d="M281 92.914V93l25-.345V66c-13.871.439-25 12.48-25 26.914z"/>
                <path fill="#B3CDFA" d="M333.1 126h-1.44c-.217 0-.394-.176-.394-.393 0-.218.177-.394.395-.394h1.43c.402 0 .795-.118 1.13-.338.12-.078.27-.086.397-.022.126.063.21.19.217.33.008.141-.06.275-.179.353-.464.3-1.004.46-1.557.464zm-6.908-.047h-1.43c-.22 0-.396-.176-.396-.394 0-.217.177-.393.395-.393h1.43c.22.004.396.183.396.401-.002.102-.045.2-.12.27-.073.071-.173.11-.275.108v.008zm-6.9 0h-1.439c-.218 0-.395-.176-.395-.394.008-.216.185-.39.403-.393h1.43c.219 0 .396.176.396.393 0 .218-.177.394-.395.394zm-6.9-.087h-1.439c-.218 0-.395-.176-.395-.393 0-.218.177-.394.395-.394h1.439c.22.005.395.183.395.402-.004.214-.18.385-.395.385zm-6.908-.04h-1.43c-.219 0-.396-.175-.396-.393 0-.217.177-.393.396-.393h1.438c.218 0 .395.176.395.393 0 .218-.177.394-.395.394h-.008zm-6.9 0h-1.43c-.218 0-.395-.175-.395-.393.004-.215.178-.389.395-.393h1.43c.219 0 .396.176.396.393-.025.203-.198.356-.404.355l.008.039zm-6.907-.046h-1.415c-.218 0-.395-.176-.395-.394 0-.217.177-.393.395-.393h1.43c.219 0 .396.176.396.393-.021.211-.207.368-.42.354l.009.04zm-6.908-.04h-1.43c-.219 0-.396-.176-.396-.393.004-.216.179-.39.395-.394h1.43c.105 0 .205.042.278.116.072.074.112.174.11.278-.02.214-.211.372-.427.354l.04.04zm-6.9-.047h-.142c-.513-.004-1.013-.157-1.439-.44-.087-.058-.147-.148-.166-.25-.02-.103.003-.208.064-.294.12-.18.364-.228.545-.11.297.198.646.304 1.004.307h.134c.218 0 .395.176.395.394 0 .217-.177.393-.395.393zm57.736-5.115c-.218 0-.395-.176-.395-.393v-1.425c0-.217.177-.393.395-.393.218 0 .395.176.395.393v1.425c-.02.205-.196.359-.403.354l.008.04zm-60.202-.338c-.218 0-.395-.176-.395-.394v-1.424c0-.217.177-.393.395-.393.218 0 .395.176.395.393v1.424c-.02.205-.196.36-.403.354l.008.04zm60.202-6.54c-.218 0-.395-.176-.395-.393v-1.424c0-.218.177-.394.395-.394.218 0 .395.176.395.394v1.424c-.02.205-.196.36-.403.354l.008.04zm-60.21-.346c-.218 0-.395-.176-.395-.393v-1.425c0-.217.177-.393.395-.393.218 0 .395.176.395.393v1.425c0 .217-.177.393-.395.393zm60.202-6.531c-.217-.004-.391-.178-.395-.394v-1.432c.004-.215.178-.39.395-.393.218 0 .395.176.395.393v1.432c-.016.205-.189.363-.395.362v.032zm-60.202-.339c-.218 0-.395-.176-.395-.393v-1.432c0-.217.177-.394.395-.394.218 0 .395.177.395.394v1.432c-.016.205-.188.363-.395.362v.031zm60.202-6.539c-.218 0-.395-.176-.395-.393v-1.425c0-.217.177-.393.395-.393.218 0 .395.176.395.393v1.425c-.016.205-.189.362-.395.362v.031zm-60.202-.338c-.218 0-.395-.176-.395-.394V97.79c0-.217.177-.393.395-.393.218 0 .395.176.395.393v1.4c-.004.215-.18.386-.395.386v.032zm60.202-6.54c-.218 0-.395-.176-.395-.393V91.25c.004-.216.178-.39.395-.394.218 0 .395.176.395.394v1.424c-.016.205-.189.363-.395.362v.032zm-60.202-.338c-.218 0-.395-.176-.395-.393V90.91c0-.217.177-.393.395-.393.218 0 .395.176.395.393v1.425c-.016.205-.188.362-.395.362v.031zm60.202-6.531c-.217-.004-.391-.178-.395-.394V84.38c0-.217.177-.393.395-.393.218 0 .395.176.395.393v1.432c-.02.202-.191.355-.395.354v.032zm-60.202-.386c-.218 0-.395-.176-.395-.393v-1.417c0-.217.177-.393.395-.393.218 0 .395.176.395.393v1.432c-.008.212-.183.378-.395.378zm60.202-6.54c-.218 0-.395-.175-.395-.393v-1.408c0-.217.177-.394.395-.394.218 0 .395.177.395.394v1.424c0 .218-.177.394-.395.394v-.016zm-60.202-.337c-.218 0-.395-.177-.395-.394v-1.385c0-.217.177-.393.395-.393.218 0 .395.176.395.393v1.424c-.012.208-.186.37-.395.37v-.015zm60.202-6.5c-.217-.005-.391-.178-.395-.394v-1.448c.004-.215.178-.389.395-.393.218 0 .395.176.395.393v1.432c.004.107-.035.212-.11.289-.074.077-.177.12-.285.12zm-60.202-.347c-.218 0-.395-.176-.395-.393v-1.44c0-.217.177-.394.395-.394.218 0 .395.177.395.394v1.393c.01.11-.028.218-.104.299-.075.08-.18.126-.29.126v.015zm60.202-6.531c-.218 0-.395-.176-.395-.393v-1.346c-.014-.226.153-.424.38-.449.099-.015.2.012.278.075.079.063.127.156.132.256.004.042.004.084 0 .126v1.322c0 .217-.177.393-.395.393v.016zm-60.067-.323c-.045.008-.09.008-.135 0-.205-.074-.311-.299-.237-.503.193-.519.527-.974.964-1.314.11-.097.266-.124.403-.071.137.052.234.177.25.322.017.145-.049.288-.17.37-.321.251-.565.586-.704.968-.065.128-.196.21-.34.213l-.031.015zm6.188-1.762c-.212 0-.387-.167-.395-.378-.004-.106.034-.209.107-.286.073-.077.174-.121.28-.123l1.43-.047c.105-.005.206.033.282.104.076.071.12.17.122.273.004.105-.034.206-.105.283-.07.077-.17.122-.275.126l-1.43.048h-.016zm6.9-.236c-.212 0-.387-.167-.395-.378-.005-.219.167-.4.387-.41l1.43-.047c.219 0 .399.17.412.386 0 .216-.171.393-.388.401l-1.43.048h-.016zm6.9-.229c-.219 0-.395-.176-.395-.393 0-.217.176-.394.395-.394l1.43-.047c.219 0 .395.176.395.394 0 .217-.176.393-.395.393l-1.43.055v-.008zm6.907-.236c-.218 0-.395-.176-.395-.393 0-.217.177-.394.395-.394l1.431-.047c.105-.006.209.03.287.102.077.071.122.17.124.276.004.106-.034.209-.107.286-.073.077-.174.121-.28.123l-1.43.047h-.025zm6.9-.236c-.218 0-.395-.176-.395-.393 0-.218.177-.394.395-.394l1.43-.047c.106-.004.208.033.285.104.077.071.123.17.127.274.004.104-.033.206-.105.283-.07.076-.17.122-.274.126l-1.439.047h-.024zm6.9-.236c-.212 0-.387-.166-.395-.378-.005-.215.163-.396.38-.409l1.43-.047c.218 0 .395.176.395.393 0 .218-.177.394-.395.394l-1.439.047h.024zm6.9-.228c-.213-.004-.387-.173-.395-.386-.005-.214.164-.392.38-.401l1.43-.047c.106-.009.21.027.289.099.078.071.122.173.122.279.004.215-.163.396-.38.409l-1.43.047h-.016zm6.9-.236c-.218 0-.395-.176-.395-.394 0-.217.177-.393.395-.393l1.438-.047c.105-.007.208.03.284.102.076.071.12.171.12.275.004.105-.034.207-.105.283-.071.077-.17.123-.275.127l-1.43.047h-.032z"/>
                <path fill="#6BE1D3" d="M21.816 155H10.184c-.102 0-.184.087-.184.194v5.486c0 .107.082.194.184.194h4.434c.066 0 .127.036.16.097l1.065 1.936c.033.058.093.093.157.093s.124-.035.157-.093l1.064-1.936c.034-.06.095-.098.161-.097h4.434c.102 0 .184-.087.184-.194v-5.486c0-.052-.02-.101-.054-.137-.034-.037-.081-.057-.13-.057z"/>
                <path fill="url(#pkbyikseih)" d="M42.816 133H31.184c-.102 0-.184.087-.184.193v5.482c0 .052.02.1.054.137.034.036.081.057.13.057h4.437c.066 0 .127.036.16.096l1.058 1.935c.032.062.094.1.161.1s.129-.038.16-.1l1.066-1.935c.032-.057.09-.094.153-.096h4.437c.049 0 .096-.02.13-.057.035-.036.054-.085.054-.137v-5.482c0-.05-.02-.1-.054-.136-.034-.037-.081-.057-.13-.057z"/>
                <path fill="#6BE1D3" d="M62.817 112H51.183c-.048 0-.095.02-.13.057-.034.036-.053.086-.053.137v5.472c0 .107.082.194.183.194h4.426c.065.004.124.04.16.097l1.055 1.943c.033.062.094.1.16.1.067 0 .129-.038.161-.1l1.055-1.943c.036-.057.096-.093.16-.097h4.457c.1 0 .183-.087.183-.194v-5.504c-.015-.095-.093-.163-.183-.162z"/>
                <path fill="url(#lkz2gluwzi)" d="M81.816 93H70.184c-.102 0-.184.087-.184.194v5.486c0 .107.082.194.184.194h4.429c.066 0 .128.036.16.097l1.066 1.936c.033.058.093.093.157.093s.124-.035.157-.093l1.065-1.936c.034-.06.095-.098.161-.097h4.437c.102 0 .184-.087.184-.194v-5.486c0-.107-.082-.194-.184-.194z"/>
                <ellipse cx="17" cy="174.5" fill="#ECF3FF" rx="9" ry="3.5"/>
                <path fill="url(#japvmaz86j)" d="M17.004 177.925C12.029 177.925 8 176.168 8 174v18.075c0 2.168 4.012 3.925 9.004 3.925S26 194.243 26 192.075V174c0 2.168-4.029 3.925-8.996 3.925z"/>
                <ellipse cx="57" cy="132.5" fill="#ECF3FF" rx="9" ry="3.5"/>
                <path fill="url(#krefllufyk)" d="M57 136.811c-4.965 0-9-1.71-9-3.811v35.18c0 2.11 4.01 3.82 9 3.82s9-1.71 9-3.82V133c0 2.102-4.027 3.811-9 3.811z"/>
                <ellipse cx="76" cy="114.5" fill="#ECF3FF" rx="9" ry="3.5"/>
                <path fill="url(#fwiwyl315l)" d="M75.964 117.836c-4.952 0-8.964-1.71-8.964-3.836v44.172c0 2.119 4.012 3.828 9.004 3.828S85 160.29 85 158.172V114c-.04 2.127-4.069 3.836-9.036 3.836z"/>
                <ellipse cx="37" cy="153.5" fill="#ECF3FF" rx="9" ry="3.5"/>
                <path fill="url(#kibg3z7x7m)" d="M36.98 157.786c-4.959 0-8.98-1.69-8.98-3.786v26.214c0 2.088 4.005 3.786 8.98 3.786 4.975 0 9.02-1.698 9.02-3.786V154c0 2.096-4.053 3.786-9.02 3.786z"/>
                <path fill="#7C96C4" d="M248.967 97.787c-.775.657-2.923 3.228-2.923 3.228s2.885-4.838 3.156-5.276c.271-.438-.163-.993-.527-.86.072-.202.166-.396.279-.578.364-.422-.411-1.102-1.318-.157-.908.946-3.745 4.816-4.203 4.777-.457-.04 1.822-4.769 2.14-5.644.318-.876-.729-1.04-2.28 1.422-1.55 2.463-3.357 6.043-4.17 6.778-.815.734-1.335-.336-1.552-1.048-.217-.711-1.783-3.048-2.55-2.251-.768.797.48 1.602.457 2.439-.197 1.476.01 2.979.597 4.346.326.782.682 1.485 1 2.071-.206.184-.393.389-.558.61l-.38.532c-.402.083-.757.318-.993.656l-9.8 13.477-24.378.25h-.124c-.406.012-.81.057-1.21.133-1.496-.993-5.163-3.018-11.157-3.815-.404-1.483-1.425-2.717-2.799-3.385-.186-.781-.357-1.563-.527-2.274 4.634-2.238 6.963-7.544 5.49-12.507l-1.97-6.559c-.573-1.915-1.68-3.624-3.187-4.924l-.124-.352 1.597-.57v-.048c-.902-2.544-3.674-3.876-6.203-2.978l-5.947 2.134-3.233 1.165c-4.39 1.579-6.681 6.446-5.117 10.873l3.45 9.771c.476 1.348 1.567 2.381 2.93 2.775.358 1.517.621 2.666.877 3.76-1.505.195-2.593 1.547-2.473 3.072l.124 1.47c-8.785 2.697-13.057 7.73-13.623 8.77-.01.044-.01.09 0 .133-.419.716-.722 1.494-.9 2.306 0 0-2.566 11.804-4.613 21.254-.127.448-.2.91-.217 1.376-.13 2.648 1.43 5.086 3.876 6.058l11.274 6.871c-.17 6.754-.364 14.852-.442 19.042-.005.434.113.86.341 1.227-1.077 8.231-2.054 15.743-2.938 22.622l17.833 1.368c1.675-7.715 3.055-14.07 3.823-17.635 0 4.44.046 10.74.077 17.98L203.166 213c1.256-13.562 2.21-23.771 2.21-23.771l.047-.633.07-.727c0-.305.046-.61.046-.923 0-.674-.067-1.347-.202-2.009.112-.245.17-.511.17-.781-.092-4.51-2.201-29.321-3.636-45.838h.342l27.37-3.69h.039c2.236-.302 4.128-1.819 4.923-3.947.431-.464.79-.991 1.063-1.564 4.31-8.833 7.645-15.852 7.932-16.525.154-.436.088-.92-.179-1.297.079-.187.141-.381.186-.579.065-.292.096-.591.094-.89.162-.298.27-.493.286-.548 2.629-4.964 5.955-11.233 6.056-11.374.1-.14-.248-.781-1.016-.117zm-83.553 54.601c.062-.156.124-.32.186-.469.124.305.24.61.356.891l-.542-.422z" opacity=".3"/>
                <ellipse cx="174" cy="277" fill="#ECF3FF" rx="43" ry="11"/>
                <path fill="url(#mwnta6hjcn)" d="M147 277.97v-3.52c0-.654.536-1.184 1.197-1.184h7.745l-.078-1.632c-.03-.217.07-.431.258-.548.187-.117.426-.114.61.006l3.96 2.476c.711.472 1.56.7 2.417.65l4.013-.202c.886-.04 1.643.626 1.706 1.5L169 278l-22-.03z"/>
                <path fill="url(#kaxgciliyo)" d="M228.305 97.39c.479 1.131 1.035 2.227 1.665 3.28-.732 1.245-2.513 4.674-1.858 3.42l5.02 2.91c.27-.788 2.737-4.951 2.822-5.235 2.613-5.006 5.921-11.321 6.022-11.471.1-.15-.093-.789-.856-.15-.764.639-2.907 3.264-2.907 3.264s2.868-4.888 3.138-5.33c.27-.441-.162-1-.524-.859.07-.204.163-.4.277-.583.363-.434-.408-1.112-1.31-.158-.903.954-3.725 4.849-4.18 4.817-.455-.031 1.812-4.81 2.128-5.7.317-.89-.724-1.049-2.266 1.435-1.543 2.483-3.34 6.102-4.149 6.843-.81.741-1.326-.347-1.542-1.064-.216-.718-1.773-3.075-2.537-2.27-.763.803.479 1.576.455 2.46-.193 1.492.015 3.01.602 4.39z"/>
                <path fill="url(#7rcyjwicnp)" d="M170.695 94.094c-3.091-.577-6.048 1.556-6.604 4.763-.137.79-.12 1.602.053 2.385 1.818 8.076 1.826 8.1 3.629 16.129v.054c.607 2.733 2.985 4.645 5.687 4.573 2.703-.072 4.983-2.107 5.455-4.869.131-.791.11-1.602-.06-2.385-1.819-8.068-1.826-8.1-3.63-16.12v-.071c-.518-2.29-2.298-4.043-4.53-4.459z"/>
                <path fill="url(#cm2fx8aszq)" d="M174.584 106.5l-.201.061c-2.645.788-5.499.507-7.933-.78-2.435-1.288-4.25-3.476-5.048-6.084l-1.957-6.4c-.799-2.607-.514-5.42.792-7.82 1.305-2.4 3.525-4.191 6.17-4.977l.201-.061c2.645-.788 5.498-.507 7.933.78 2.435 1.288 4.25 3.476 5.048 6.084l1.965 6.391c.8 2.61.516 5.426-.792 7.829-1.307 2.402-3.53 4.193-6.178 4.977z"/>
                <path fill="url(#3loq9d0isr)" d="M162.765 80.55l3.322-1.149 6.11-2.12c2.595-.897 5.446.423 6.373 2.95v.048l-1.641.566 1.824 4.993c.68 1.873-.081 3.955-1.824 4.985l-.08-.21c-.446-1.195-1.794-1.82-3.027-1.405-1.224.438-1.861 1.75-1.434 2.95l1.593 4.396c.836 2.294-.39 4.815-2.74 5.637l-4.413 1.553c-1.13.393-2.374.331-3.458-.171-1.083-.503-1.917-1.405-2.317-2.508l-3.545-9.698c-1.612-4.402.741-9.245 5.257-10.817z"/>
                <path fill="url(#yyhai0yogs)" d="M181 114.679L163.4 116l-.387-4.355c-.073-.71.168-1.416.668-1.961.5-.546 1.217-.885 1.992-.942l9.318-.726c1.43-.106 2.847.313 3.94 1.165 1.093.852 1.772 2.068 1.887 3.379l.182 2.119z"/>
                <path fill="#0056EC" d="M181.6 275.695c-1.762-.696-2.814-2.436-2.563-4.242l4.586-32.964c.306-2.2 2.421-3.746 4.724-3.454 2.303.293 3.922 2.313 3.616 4.512l-4.587 32.965c-.146 1.056-.727 2.013-1.613 2.66-.886.648-2.005.933-3.11.793-.362-.044-.716-.135-1.052-.27z"/>
                <path fill="url(#n5wfshkebt)" d="M178 278v-3.54c.004-.658.542-1.19 1.203-1.19h7.724l-.079-1.64c-.023-.216.079-.427.263-.542.184-.116.419-.117.604-.003l3.96 2.49c.724.468 1.584.684 2.444.614l4.007-.203c.886-.04 1.643.629 1.71 1.51l.164 2.496-22 .008z"/>
                <path fill="#16318E" d="M174.423 158.756l-21.451-16.468c-1.818-1.401-4.262-1.682-6.35-.73-2.09.952-3.479 2.981-3.612 5.272-.132 2.29 1.014 4.466 2.978 5.653l23.17 14.005c2.108 1.072 4.684.414 6.02-1.536 1.335-1.95 1.015-4.589-.747-6.164l-.008-.032z"/>
                <path fill="#16318E" d="M163.46 128.904c.308-.79.487-1.624.53-2.47.21-4.17-2.83-7.804-6.996-8.361-4.166-.557-8.067 2.15-8.973 6.226 0 0-2.735 12.381-4.869 22.085-.073.333-.121.672-.144 1.012-.153 3.082 1.966 5.82 5.004 6.464 3.037.645 6.098-.992 7.227-3.867v-.048c.004-.015.004-.032 0-.047l8.221-20.994z"/>
                <path fill="#0056EC" d="M149.6 274.68c-1.762-.696-2.814-2.436-2.563-4.24l4.586-32.953c.306-2.198 2.421-3.744 4.724-3.452 2.303.293 3.922 2.312 3.616 4.51l-4.554 32.968c-.147 1.056-.727 2.013-1.613 2.66-.886.647-2.005.932-3.111.792-.373-.048-.738-.144-1.084-.286z"/>
                <path fill="url(#uy8r0r3b1u)" d="M189.94 271.961c.411-4.41 8.887-90.654 8.887-90.654l.05-.636.074-.73c0-.306.049-.62.049-.926 0-5.531-4.701-10.015-10.5-10.015s-10.5 4.484-10.5 10.015c0 0 .42 89.76.37 93.158-.05 3.399 11.167 4.2 11.57-.212z"/>
                <path fill="url(#aydybum25v)" d="M158.406 273.14c1.36-5.428 20.033-90.45 20.033-90.45l.34-1.574c.77-3.595-.5-7.321-3.309-9.71-2.808-2.389-6.705-3.057-10.156-1.742-3.45 1.315-5.9 4.403-6.386 8.047l-.119.85c-9.842 74.058-11.534 91.747-11.803 94.893-.3 3.468 10.467 3.421 11.4-.315z"/>
                <path fill="url(#ll5w7is87w)" d="M222.13 120.87c-2.854-.632-4.642-3.379-4-6.143.16-.685.467-1.33.903-1.893l.54-.746 9.494-12.525c1.055-1.445 3.02-1.964 4.687-1.236 1.667.728 2.565 2.498 2.142 4.218-.066.282-.167.555-.3.813l-.301.596-6.852 13.42-.378.746c-1.075 2.141-3.535 3.282-5.934 2.75z"/>
                <path fill="#16318E" d="M226.998 121.365c-.084-3.577-2.82-6.415-6.134-6.364l-27.344.306h-.122c-4.215.2-7.504 4.006-7.395 8.558.108 4.551 3.575 8.17 7.793 8.135.278-.008.554-.033.829-.075l27.067-3.906h.038c3.075-.435 5.35-3.308 5.268-6.654z"/>
                <path fill="#16318E" d="M235.903 105.642c1.08-2.394-7.19-6.311-8.818-3.87l-10.793 14.17c-1.484 1.92-1.707 4.483-.578 6.615 1.13 2.131 3.417 3.465 5.906 3.443 2.49-.022 4.751-1.397 5.84-3.548 4.566-8.96 8.136-16.124 8.443-16.81zM150.05 121.458c.74-1.309 7.584-9.035 22.282-10.282 14.699-1.246 21.582 4.518 21.582 4.518s4.934 53.791 5.086 60.63c.15 6.839-39.934 9.876-39.79 2.002.143-7.875.732-29.972.732-29.972s-10.76-25.354-9.892-26.896z"/>
                <ellipse cx="59" cy="304.5" fill="#004FA0" opacity=".4" rx="24" ry="7.5"/>
                <ellipse cx="57" cy="304.5" fill="url(#ig4ynnyyjx)" rx="24" ry="7.5"/>
                <path fill="#FFF" d="M57.004 311C45.784 311 37 307.925 37 304.004c0-3.921 8.785-7.004 20.004-7.004C68.224 297 77 300.075 77 304.004c0 3.93-8.785 6.996-19.996 6.996zm0-13.201c-11.498 0-19.229 3.194-19.229 6.205 0 3.01 7.754 6.197 19.229 6.197s19.22-3.194 19.22-6.197-7.722-6.205-19.22-6.205z"/>
                <ellipse cx="56.5" cy="305" fill="#7C96C4" opacity=".2" rx="11.5" ry="4"/>
                <path fill="url(#bsqtx3risy)" d="M57.75 306h-.475C44.975 306 35 296.475 35 284.726V261h45v23.765C80.024 296.475 70.05 306 57.75 306z"/>
                <ellipse cx="57.5" cy="261" fill="#B3CDFA" rx="22.5" ry="5"/>
                <path fill="url(#x7jo0f2rcz)" d="M79 261.53c0 1.196-3.33 2.695-9.206 3.617l-.587.091c-1.14.168-2.344.312-3.688.426l-.626.061c-1.805.145-3.774.244-5.877.274H57.5c-3.165.012-6.327-.153-9.472-.494-.211 0-.414-.046-.618-.069-7.237-.868-11.41-2.58-11.41-3.92 0-1.219 3.454-2.75 9.527-3.67l.586-.084c3.772-.518 7.578-.773 11.387-.762h3.08c2.532.069 5.06.262 7.572.579h.211l.415.053h.18C75.35 258.66 79 260.244 79 261.53z"/>
                <path fill="url(#83r361jmoA)" d="M68.802 259.41c1.34 1.615 13.271-.156 19.761-4.45 6.49-4.294 6.123-7.413 8.756-10.32s6.804-3.753 9.184-7.624c3.482-5.61 3.061-16.306.344-16.987-2.005-.51-3.72 5.9-9.765 7.185-6.047 1.285-13.203.368-20.443 6.997-6.474 5.94-10.424 22.089-7.837 25.2z"/>
                <path fill="#B3CDFA" d="M65.63 265.938c.315-1.02.638-2.01.976-2.93.563-1.526 1.215-3.019 1.953-4.47.11-.234.228-.46.354-.686.047-.101.102-.203.157-.296 8.149-15.237 23.571-22.59 30.562-25.894.866-.412 1.575-.779 2.126-1.036 3.95-1.947 6.387-5.996 6.235-10.36-.016-.16-.16-.279-.322-.265-.078.008-.149.046-.198.106-.049.06-.071.137-.062.213.127 4.13-2.188 7.955-5.928 9.792-.536.273-1.244.616-2.11 1.029-6.92 3.287-22.044 10.469-30.381 25.324-.179.312-.352.631-.52.958l-.189.343c-.847 1.636-1.59 3.322-2.228 5.048-.37.997-.724 2.072-1.055 3.186l.63-.062z"/>
                <path fill="#B3CDFA" d="M104.633 229c-.455.004-.91-.028-1.362-.098-.167-.037-.285-.26-.27-.51.022-.25.174-.428.343-.4 0 0 4.08.704 6.136-1.856.057-.087.135-.136.216-.136.081 0 .16.049.216.136.117.179.117.464 0 .643-1.526 1.893-3.818 2.22-5.279 2.22zM95.463 232c-.068.002-.13-.057-.16-.152-.83-2.369.307-5.567.356-5.704.05-.137.161-.184.249-.107.087.078.118.252.068.389 0 0-1.084 3.046-.352 5.147.045.14.013.31-.073.389-.027.023-.057.036-.088.038zM105.399 234c-3.553 0-7.106-2.316-7.266-2.444-.062-.04-.107-.106-.125-.183-.017-.077-.007-.158.03-.226.079-.143.248-.19.378-.104.051 0 5.319 3.477 9.22 1.97.143-.053.298.03.35.185.048.157-.027.328-.168.385-.78.288-1.597.43-2.42.416zM82.33 240c-.135.004-.26-.057-.317-.155-3.17-4.696 2.094-11.43 2.314-11.709.107-.135.33-.177.5-.092.083.04.142.105.164.18.022.076.004.156-.049.221-.057.07-5.263 6.728-2.295 11.13.092.139.028.311-.144.386-.054.024-.113.037-.173.039zM100.002 241c-4.335-.045-8.524-1.616-11.873-4.453-.095-.065-.144-.183-.125-.3.02-.116.104-.21.215-.238.111-.029.229.013.3.106 3.687 3.12 8.413 4.63 13.167 4.21.157-.014.296.105.312.267.009.078-.014.157-.063.217-.049.061-.12.099-.196.105-.577.059-1.157.088-1.737.086zM88.678 249c-7.712 0-11.548-4.38-11.595-4.433-.112-.132-.11-.343.004-.472.115-.129.3-.127.412.005.055.063 5.687 6.462 17.14 3.41.103-.027.21.01.282.098.071.088.097.213.066.328-.03.114-.112.202-.214.23-1.998.541-4.043.821-6.095.834zM74.415 248.998c-.098.002-.191-.035-.252-.099-4.883-4.766 0-12.43.198-12.75.091-.138.296-.189.46-.115.08.035.14.097.165.17.026.073.015.152-.03.219 0 .076-4.854 7.626-.28 12.102.13.113.13.292 0 .405-.071.052-.166.077-.26.068zM82.304 256c-3.84.022-7.635-1.082-11.106-3.232-.111-.054-.188-.188-.197-.343-.009-.155.053-.302.157-.377.104-.074.232-.062.327.032 5.34 3.28 11.389 4.017 17.1 2.085.11-.056.233-.026.319.079.085.104.117.264.082.41-.036.146-.133.252-.249.272-2.1.724-4.262 1.085-6.433 1.074zM48 266c-.212 0-.416-.047-.62-.071-.22-1.06-.464-2.161-.731-3.277-.361-1.512-.723-3.048-1.163-4.615-2.356-8.478-6.81-17.803-23.464-27.586C4.638 220.223.06 204.535.012 204.376c-.022-.075-.013-.157.026-.225.038-.069.102-.119.178-.139.074-.022.153-.014.221.024.068.037.118.1.14.174.047.158 4.556 15.626 21.744 25.726 16.881 9.926 21.374 19.401 23.754 27.998.432 1.583.786 3.071 1.147 4.567.283 1.203.542 2.367.778 3.499z"/>
                <path fill="#B3CDFA" d="M12.808 222c-.075.002-.144-.06-.177-.158-1.315-3.81-.176-8.456-.124-8.651.017-.072.052-.131.1-.164.046-.032.1-.036.149-.01.1.06.15.222.114.37 0 .045-1.13 4.607.108 8.206.024.066.028.143.013.214-.016.07-.05.13-.095.163-.028.02-.058.03-.088.03zM6.771 217c-.094.002-.18-.072-.216-.186-.859-2.747-.47-6.402-.451-6.555.012-.108.067-.198.144-.238.076-.04.164-.023.228.045.065.067.097.175.085.282 0 0-.383 3.638.42 6.239.025.074.025.158.002.232-.023.075-.068.134-.125.165L6.77 217zM22.593 230c-.14 0-.27-.056-.345-.147-4.122-5.15-1.338-12.332-1.22-12.634.028-.079.097-.145.19-.183.095-.039.206-.047.307-.021.214.05.337.22.28.383 0 .065-2.794 7.223 1.134 12.137.058.068.076.152.049.231-.027.079-.095.146-.19.185-.06.031-.132.048-.205.049zM29.707 235c-.154.001-.293-.073-.349-.187-2.351-4.182-1.612-9.05 1.926-12.672.083-.102.234-.156.386-.137.152.018.276.106.316.223.04.118-.01.243-.129.32-3.343 3.445-4.031 8.065-1.792 12.031.04.074.042.158.003.233-.038.075-.113.134-.208.165l-.153.024zM36.448 241c-.142 0-.264-.09-.294-.214-.54-2.465.358-5.006 2.381-6.743.125-.072.29-.052.388.047.1.1.103.249.009.352-1.835 1.626-2.647 3.964-2.167 6.238.03.143-.072.28-.23.313l-.087.007zM8.734 220c-.068.001-.134-.029-.186-.083-3.115-3.476-8.179-1.752-8.179-1.733-.15.053-.306-.054-.35-.24-.028-.088-.025-.186.007-.272.032-.086.092-.15.165-.18.223-.083 5.383-1.844 8.729 1.844.107.136.107.353 0 .489-.04.088-.107.151-.186.175zM22.3 243c-.12.002-.229-.074-.276-.192-.047-.119-.023-.256.061-.348.24-.275 5.932-6.645 12.677-5.264.077.014.145.061.189.131.044.07.059.155.043.237-.012.084-.055.16-.12.208-.065.05-.146.067-.224.05-6.426-1.304-12.078 5.015-12.134 5.084-.057.06-.135.094-.215.094z"/>
                <path fill="url(#0q44qhg9cB)" d="M70.455 231.727s-3.786-13.16.856-20.83c3.81-6.292 10.533-10.225 13.648-12.435 4.78-3.446 13.108-11.382 13.363-16.133.092-1.935 4.719 4.83 3.462 16.282-3.038 27.657-28.183 34.98-31.329 33.116z"/>
                <path fill="#B3CDFA" d="M68.796 263.915c-.309-2.04-.618-4.558-.847-7.438v-.323c0-.355-.056-.709-.08-1.079-.134-1.932-.221-4.011-.253-6.206-.127-9.648-.27-20.582 16.219-35.975C98.374 199.31 99 183.456 99 183.294c.004-.076-.024-.15-.078-.206-.054-.055-.13-.086-.208-.086-.08-.01-.16.016-.22.07-.059.053-.092.129-.089.207 0 .154-.626 15.785-14.982 29.2-16.639 15.561-16.528 26.634-16.401 36.398 0 2.549.15 4.951.325 7.153v.362c0 .247 0 .493.063.732.222 2.64.515 4.966.792 6.876l.594-.085z"/>
                <path fill="#B3CDFA" d="M91.473 204h-.069c-.173-.035-.284-.19-.247-.347.989-4-2.07-8.155-2.104-8.201-.096-.133-.058-.31.085-.401.07-.044.156-.06.24-.046.083.015.157.059.203.123.137.177 3.246 4.41 2.207 8.656-.039.129-.168.217-.315.216zM95.754 196.998c-.099-.025-.167-.182-.153-.35.23-2.782-.578-6.191-.587-6.224-.019-.075-.019-.16 0-.236.02-.075.055-.134.1-.163.043-.032.092-.033.135-.002.043.03.078.09.094.165.039.147.855 3.597.612 6.525-.004.084-.027.161-.065.215-.038.054-.087.08-.136.07zM84.07 212h-.111c-.2-.048-.312-.207-.253-.359 2.08-5.098-2.606-11.15-2.656-11.21-.102-.136-.044-.308.131-.39.182-.082.416-.037.525.1.202.251 4.899 6.326 2.717 11.668-.049.116-.193.193-.353.191zM78.545 220h-.047c-.076-.012-.145-.055-.19-.119-.045-.064-.063-.144-.05-.223.7-4.204-.886-8.465-4.136-11.12-.13-.094-.161-.279-.07-.412.093-.134.273-.166.403-.072 3.43 2.789 5.108 7.277 4.376 11.708-.03.138-.148.237-.286.238zM72.673 225.961c-.172 0-.313-.123-.317-.279-.19-2.524-1.737-4.806-4.142-6.111-.12-.04-.204-.14-.213-.255-.01-.115.057-.225.17-.28.112-.055.25-.046.352.023 2.637 1.392 4.32 3.888 4.477 6.639 0 .158-.134.29-.31.302l-.017-.039z"/>
                <path fill="#B3CDFA" d="M94.268 199c-.055-.003-.109-.02-.155-.053-.058-.043-.097-.109-.11-.183-.011-.074.005-.15.046-.211 2.38-3.79 7.478-3.555 7.696-3.548.071.002.138.035.186.09.048.056.072.13.069.206-.015.152-.133.27-.276.273-.056 0-5.027-.197-7.237 3.297-.049.08-.13.127-.22.129zM89.286 208c-.11.001-.209-.085-.254-.22-.035-.092-.042-.2-.018-.298.023-.099.074-.18.141-.228 5.51-3.833 11.39-1.638 11.635-1.543.153.065.24.282.2.493-.05.205-.207.323-.36.273-.055 0-5.91-2.205-11.214 1.48-.04.03-.085.044-.13.043zM96.718 215.959c-.04.013-.082.013-.122 0-.068 0-7.248-4.503-14.2-.568-.07.04-.148.042-.218.003s-.126-.115-.155-.21c-.03-.094-.03-.201-.002-.296.029-.096.084-.171.155-.21 7.195-4.07 14.595.537 14.664.578.119.08.182.26.153.437-.029.176-.142.303-.275.307v-.041zM87.722 227c-.055-.001-.11-.021-.158-.058-.06-.048-6.6-5.381-12.187-2.175-.14.06-.292-.025-.352-.197-.06-.172-.009-.374.119-.468 5.872-3.36 12.45 2.012 12.729 2.234.129.11.166.332.082.5-.05.102-.138.164-.233.164z"/>
                <path fill="url(#9zeu23ugeC)" d="M37 186s7.686 13.987 13.891 19.217c8.21 6.915 16.962 22.525 13.217 39.064-1.99 8.782-6.534 10.719-6.534 10.719s-4.2-12.38-8.454-16.901c-4.254-4.521-8.892-8.506-10.255-19.588C37.5 207.431 37 186 37 186z"/>
                <path fill="#B3CDFA" d="M55.97 266c.665-3.042 1.177-6.118 1.535-9.215.793-6.151.632-12.393-.476-18.493-1.828-9.073-6.342-15.946-10.704-22.592-2.371-3.414-4.496-7.003-6.357-10.736-4.722-10.105-3.171-30.443-3.156-30.648.013-.16-.104-.302-.26-.315-.158-.013-.295.107-.308.268.015.173-1.582 20.668 3.202 30.916 1.874 3.76 4.014 7.376 6.403 10.815 4.33 6.598 8.807 13.4 10.612 22.387 1.101 6.053 1.262 12.246.476 18.35-.358 3.108-.87 6.194-1.536 9.247l.568.016z"/>
                <path fill="#B3CDFA" d="M43.586 212c-.16-.001-.305-.073-.364-.181-3.202-5.711.884-12.395 1.04-12.674.1-.129.32-.18.505-.12s.277.214.212.353c0 .068-4.159 6.745-1.04 12.23.073.145-.022.307-.218.37-.043.013-.088.02-.135.022zM50.05 220.999c-.128 0-.242-.078-.284-.193-2.372-6.77 1.506-14.35 1.676-14.683.088-.118.254-.157.39-.091.135.065.2.216.152.354 0 .077-3.934 7.689-1.619 14.226.026.073.02.153-.017.22-.037.07-.1.12-.177.144-.037.02-.08.027-.121.023zM53.914 230c-.137.002-.26-.073-.31-.188-2.705-6.886 4.54-14.406 4.85-14.728.127-.112.33-.112.457 0 .119.117.119.298 0 .416-.078.078-7.297 7.583-4.722 14.1.03.074.027.156-.01.227-.038.07-.106.125-.188.15-.024.012-.05.02-.077.023zM57.344 238c-.138-.002-.255-.1-.273-.232-.864-6.477 6.435-9.698 6.509-9.733.093-.05.207-.046.296.01.089.057.136.157.121.257-.014.1-.087.185-.188.217-.066 0-6.996 3.095-6.184 9.18.01.07-.01.14-.056.196-.046.056-.113.091-.188.098l-.037.007zM58.273 249c-.158-.013-.278-.15-.273-.313.312-6.075 6.579-7.664 6.64-7.68.157-.035.313.064.351.225.019.076.007.158-.032.225-.04.068-.104.117-.178.136-.241.064-5.909 1.509-6.228 7.118-.008.156-.129.281-.28.289zM49.704 222c-.094.003-.183-.045-.233-.126-3.46-4.944-12.026-2.806-12.111-2.783-.075.02-.154.008-.22-.032-.065-.04-.113-.105-.13-.18-.04-.158.053-.32.21-.361.366-.095 9.04-2.256 12.726 3.018.045.063.063.142.05.22-.013.076-.057.144-.12.189-.05.037-.11.056-.172.055zM53.71 231c-.102-.001-.195-.06-.245-.154-3.106-5.82-12.973-1.98-13.072-1.94-.15.056-.314-.022-.374-.177-.027-.075-.025-.159.007-.232.031-.073.09-.129.16-.156.428-.17 10.433-4.042 13.776 2.206.038.07.048.153.028.23-.02.078-.069.144-.135.183-.045.025-.095.04-.145.04zM56.738 242c-.108 0-.205-.073-.248-.187-1.656-4.534-7.076-2.939-7.161-2.922-.068.02-.14.007-.2-.034-.059-.041-.102-.108-.119-.186-.02-.078-.01-.161.024-.232.035-.07.092-.122.16-.143.064 0 5.952-1.75 7.784 3.256.028.075.03.159.003.234-.027.075-.079.135-.144.165-.03.025-.063.041-.1.049z"/>
                <path fill="url(#le3vuyyw3D)" d="M349.845 199c-.286 0-5.845-4.62-5.845-4.62l1.506-5.38s4.76 1.76 4.934 3.627c.173 1.867 1.469 6.394-.595 6.373z"/>
                <path fill="#005FF0" d="M348.748 199.998h-30.19c-.992-.055-1.848-.688-2.157-1.594l-6.298-19.808c-.169-.362-.128-.782.107-1.108.235-.326.63-.51 1.042-.486h30.182c.994.056 1.851.688 2.165 1.594l6.298 19.808c.169.362.128.782-.107 1.108-.235.326-.63.51-1.042.486z"/>
                <path fill="#6BE1D3" d="M318.38 200c-.494-.03-.919-.357-1.072-.824l-6.259-20.36c-.082-.185-.06-.4.056-.566.116-.166.312-.26.515-.249h30.001c.492.029.916.352 1.072.815l6.258 20.36c.081.187.06.401-.056.569-.116.167-.31.263-.515.254h-30z"/>
                <path fill="#B3CDFA" d="M333.84 199.76h-3.543c-.13-.002-.245-.108-.281-.26-.025-.058-.02-.129.01-.183.031-.054.084-.084.139-.076h3.543c.129.008.24.111.28.26.02.059.014.125-.016.178-.03.052-.08.083-.132.082z"/>
                <path fill="#FFF" d="M321.414 191.998c-1.946-.116-3.63-1.452-4.255-3.378-.295-.87-.175-1.835.323-2.599.504-.675 1.289-1.054 2.108-1.019 1.944.119 3.624 1.455 4.248 3.378.298.869.18 1.834-.316 2.599-.504.675-1.289 1.054-2.108 1.019zm-1.824-6.218c-.576-.031-1.132.229-1.492.698-.356.555-.43 1.255-.2 1.878.51 1.6 1.902 2.714 3.516 2.815.572.031 1.124-.225 1.485-.69.356-.556.434-1.258.208-1.885-.51-1.6-1.903-2.715-3.517-2.816z"/>
                <path fill="#005FF0" d="M315.24 189c-.45-.958-.261-2.02.508-2.857.773-.753 1.985-1.179 3.252-1.14v1.552c-.61-.03-1.203.16-1.595.512-.372.444-.441.994-.186 1.483l-1.978.45z"/>
                <path fill="#FFF" d="M330.407 191.997c-1.943-.118-3.622-1.454-4.246-3.377-.296-.87-.18-1.834.316-2.599.505-.677 1.293-1.056 2.115-1.018 1.943.118 3.622 1.454 4.246 3.377.3.87.18 1.837-.323 2.599-.502.676-1.288 1.056-2.108 1.018zm-1.815-6.216c-.576-.033-1.132.227-1.492.698-.354.554-.431 1.252-.208 1.877.513 1.597 1.903 2.71 3.515 2.815.577.033 1.133-.227 1.492-.698.355-.554.43-1.254.2-1.877-.508-1.597-1.896-2.711-3.507-2.815z"/>
                <path fill="#005FF0" d="M325.237 189c-.445-.959-.257-2.019.506-2.857.776-.753 1.99-1.179 3.257-1.14v1.552c-.61-.033-1.203.158-1.592.512-.375.443-.448.993-.197 1.483l-1.974.45z"/>
                <path fill="#FFF" d="M339.412 191.998c-1.947-.116-3.63-1.452-4.256-3.378-.29-.87-.171-1.834.323-2.599.504-.675 1.29-1.054 2.11-1.019 1.943.122 3.625 1.456 4.255 3.378.29.87.171 1.834-.323 2.599-.504.675-1.29 1.054-2.11 1.019zm-1.824-6.218c-.576-.031-1.132.229-1.493.698-.355.555-.43 1.255-.2 1.878.51 1.6 1.903 2.714 3.517 2.815.575.032 1.13-.224 1.493-.69.35-.559.425-1.259.2-1.885-.51-1.6-1.903-2.715-3.517-2.816z"/>
                <path fill="#005FF0" d="M335.24 189c-.45-.958-.261-2.02.508-2.857.773-.753 1.985-1.179 3.252-1.14v1.552c-.61-.03-1.203.16-1.595.512-.372.444-.441.994-.186 1.483l-1.978.45z"/>
                <path fill="#FFF" d="M321 190L317.494 190 317 189 320.506 189zM331 190L327.492 190 327 189 330.508 189zM342 190L338.494 190 338 189 341.506 189z" opacity=".5"/>
                <path fill="url(#53za4hmk3E)" d="M360.992 201.15c-1.87-1.125-3.652-2.25-5.197-3.344l-1.791-1.653s-2.14-7.056-2.67-7.67c-.53-.615-5.308-2.483-5.308-2.483l.744 2.482c-.84-.359-1.996-1.03-2.067-1.061-.214-.112-1.435.926-.056 1.916 1.072.736 2.19 1.405 3.344 2.003 0 0 1.497 6.114 2.376 7.838.38.799 5.04 6.386 10.633 11.822l-.008-9.85z"/>
                <ellipse cx="309" cy="306.5" fill="#ECF3FF" rx="42" ry="10.5"/>
                <ellipse cx="375" cy="313" fill="#ECF3FF" rx="25" ry="6"/>
                <path fill="url(#o6ybicuj6F)" d="M326.551 295.698c-2.01.82-4.311-.083-5.226-2.05-.086-.207-.154-.421-.2-.64l-.325-1.365-9.264-39.701-.394-1.704c-.64-2.862.932-5.758 3.683-6.784 3.138-1.253 6.71.171 8.12 3.238.216.491.361 1.01.433 1.542l.209 1.595 5.203 40.396.185 1.495c.198 1.724-.8 3.362-2.424 3.978z"/>
                <path fill="url(#8y5zgofwgG)" d="M330.214 290.481l-.391-2.481-5.532 1.546-.503 1.998-1.597-1.411-4.933 1.379-.096 10.449c-.016.79-.434 1.518-1.11 1.934l-4.47 2.823c-.475.287-.693.86-.527 1.387.193.603.8.976 1.429.88l9.42-1.245c.699-.083 1.328-.458 1.732-1.03l3.8-5.494 1.828 4.883 2.658-.745L333 294.667l-2.786-4.186z"/>
                <path fill="url(#fy0un6f2jH)" d="M328 301.171L329.717 306 332.213 305.263 333 297z"/>
                <path fill="url(#66u7t2vs7I)" d="M326.99 279.914c-.36-3.043-3.989-33.878-3.989-33.878l-.092-.707-.13-1.01c-.083-.655-.256-1.295-.516-1.901-1.214-2.72-3.91-4.455-6.864-4.417-.969-.003-1.929.182-2.829.543-3.294 1.25-5.17 4.762-4.397 8.229l.416 1.832s6.349 27.73 7.686 32.83c1.338 5.101 11.07 1.522 10.716-1.52z"/>
                <path fill="url(#yur11dlc0J)" d="M366.01 173.428c2.926-1.182 6.254.164 7.565 3.06.294.706.438 1.467.424 2.233l-.378 15.718v.069c-.083 2.276-1.517 4.276-3.631 5.063-2.935 1.19-6.276-.178-7.565-3.098-.297-.702-.441-1.461-.424-2.225.19-7.87.19-7.894.371-15.726v-.061c.1-2.266 1.534-4.25 3.639-5.033z"/>
                <path fill="url(#mf2fkf5zpK)" d="M362.764 181.68l.202.048c5.446 1.265 10.93-2.002 12.229-7.302l1.556-6.24c.59-2.59.123-5.313-1.292-7.548-1.416-2.235-3.66-3.793-6.223-4.318l-.202-.048c-5.445-1.265-10.93 2.002-12.229 7.302l-1.556 6.233c-.59 2.59-.123 5.314 1.292 7.55 1.415 2.237 3.66 3.796 6.223 4.323z"/>
                <path fill="url(#mua0b02hfL)" d="M360.023 190l14.977-.69-.256-3.963c-.038-.417-.236-.797-.547-1.048-.31-.251-.705-.35-1.087-.274l-10.218 1.954c-1.788.3-3.05 2.049-2.876 3.989l.007.032z"/>
                <path fill="url(#mf36gy6ceM)" d="M293.106 299.999c-2.216.048-4.054-1.672-4.106-3.844.004-.225.025-.448.064-.67l.262-1.393 7.632-40.466.334-1.728c.718-3.06 3.622-5.138 6.815-4.876 3.194.262 5.705 2.784 5.893 5.919 0 .548-.084 1.094-.246 1.619l-.46 1.556-11.803 39.572-.445 1.463c-.524 1.7-2.128 2.858-3.94 2.848z"/>
                <path fill="url(#iv4p1te75N)" d="M297.634 295.406l.287-2.176-10.254-1.23-5.13 9.461c-.311.718-1.6 1.285-2.384 1.435l-5.123.978c-.54.09-.956.53-1.024 1.08-.059.618.343 1.185.939 1.325l8.95 2.278c.668.174 1.377.057 1.956-.323l5.58-3.658-.286 5.14 2.685.284 5.17-9.422-1.366-5.172z"/>
                <path fill="url(#978fn5wdcO)" d="M291.299 303.849L291 308.73 293.794 309 298 302z"/>
                <path fill="url(#5bryavmztP)" d="M373 242.194v-.232c.001-3.09-1.317-6.037-3.63-8.115-2.313-2.077-5.406-3.093-8.517-2.796l-56.915 5.416h-.141c-.204 0-.407.055-.603.093h-.133c-.18.039-.368.078-.548.132l-.156.046-.493.17-.188.07-.439.194-.21.108-.361.201-.243.147-.305.201-.266.202-.235.185c-.101.085-.203.17-.29.256l-.18.17-.297.31-.117.131-.313.387-.07.093c-.102.147-.212.302-.33.503-.438.715-.745 1.5-.907 2.321l-.157.844c-.994 5.293-2.2 11.8-3.397 18.223-1.158 6.26-2.872 15.995-3.53 19.485-.657 3.49 9.839 5.548 10.77 2.763.931-2.786 9.791-32.5 9.791-32.5l50.874 1.895c3.007.12 5.934-.974 8.11-3.03 2.175-2.056 3.411-4.898 3.426-7.873z"/>
                <path fill="#16318E" d="M372.352 245.804c-2.136 5.352-35.114-8.788-32.166-12.301 3.941-4.695 6.834-8.029 6.834-8.029s-2.057-28.836-.323-30.87c2.703-3.177 11.405-4.492 20.603-5.478 7.67-.782 10.664 2.262 11.453 4.014 1.891 4.265-7.685 38.759-7.685 38.759s2.483 10.876 1.284 13.905z"/>
                <path fill="url(#tvib1fcctQ)" d="M338.028 216.795c-2.393-1.73-12.692-9.985-16.537-13.45-1.15-1.278-1.86-2.142-1.891-2.189-.152-.195.16-2.227.04-2.765-.12-.537-.168-2.772-.247-3.03-.08-.256-2.266-3.115-2.505-3.395-.24-.28-1.237-.28-.95.779.287 1.059 1.013 2.336.622 2.336-.39 0-1.707-1.082-1.842-1.261-.136-.18-.128-4.673-.144-5.055-.016-.382-1.133-1.262-1.364-.397-.232.864-.726 4.953-.726 4.953s-1.492 2.68-1.277 3.209l.152.35c-.177.23-.3.497-.359.78.059.314.172.617.335.895-.023.402-.023.805 0 1.207 1.351 1.947 2.878 3.771 4.563 5.452 0 0 15.493 25.864 22.792 21.23 4.109-2.656 2.003-7.71-.662-9.65z"/>
                <path fill="url(#gg437onh5R)" d="M328 209.796s-.538-.323-2.255-1.593c-1.716-1.27-7.022 3.767-5.461 5.625 1.162 1.4 2.746 3.172 2.746 3.172l4.97-7.204z"/>
                <path fill="#16318E" d="M359 198.116c-.033-1.66-.73-3.239-1.936-4.387-1.206-1.147-2.822-1.769-4.49-1.727-2.36-.02-4.542 1.238-5.698 3.283l-10.542 19.177c-2.265-1.708-5.94-4.523-6.834-5.178-2.085-1.521-7.931 4.819-6.176 7.065 1.137 1.443 5.424 6.426 7.054 7.947 1.305 1.264 2.802 2.317 4.436 3.12.75.382 1.58.583 2.422.584h.054c1.678-.004 3.246-.83 4.193-2.207 5.487-8.095 9.539-14.108 16.498-24.386.665-.97 1.02-2.117 1.019-3.291z"/>
                <path fill="#E8F3FA" d="M388.362 203h-31.024c-1.586.002-2.989 1.007-3.466 2.484l-15.102 47.018h-25.493c-1.259.004-2.277 1.001-2.277 2.23v.046c.004 1.225 1.021 2.218 2.277 2.222h62.677l15.866-49.363c.362-1.08.17-2.264-.514-3.182-.685-.918-1.78-1.46-2.944-1.455z"/>
                <path fill="#93B5F0" d="M350 257H356V296H350z"/>
                <path fill="#B3CDFA" d="M349 257H357V263H349z"/>
                <path fill="#E8F3FA" d="M350 278H356V300H350z"/>
                <path fill="#172B36" d="M326 308.492c-.003 1.416.848 2.695 2.155 3.24 1.308.543 2.814.246 3.817-.754 1.003-1 1.303-2.507.762-3.816-.541-1.308-1.818-2.162-3.234-2.162-.928-.002-1.818.365-2.474 1.02-.657.655-1.026 1.545-1.026 2.472z"/>
                <path fill="#FFF" d="M327 308c0 .809.487 1.538 1.235 1.848.747.31 1.607.138 2.18-.434.571-.572.742-1.432.433-2.18-.31-.747-1.04-1.234-1.848-1.234-1.105 0-2 .895-2 2z"/>
                <path fill="#172B36" d="M328 300H329V305H328zM381 308.5c0 1.933-1.567 3.5-3.5 3.5s-3.5-1.567-3.5-3.5 1.567-3.5 3.5-3.5 3.5 1.567 3.5 3.5z"/>
                <path fill="#FFF" d="M378 307.983c.007.813-.479 1.549-1.229 1.862-.75.314-1.615.142-2.188-.434-.574-.576-.742-1.442-.425-2.19.317-.749 1.055-1.231 1.868-1.22 1.088.013 1.965.894 1.974 1.982z"/>
                <path fill="#172B36" d="M377 300H378V305H377z"/>
                <circle cx="352.5" cy="305.5" r="3.5" fill="#172B36"/>
                <path fill="#FFF" d="M354 305c0 1.105-.895 2-2 2s-2-.895-2-2 .895-2 2-2 2 .895 2 2z"/>
                <path fill="#172B36" d="M352 297H353V302H352z"/>
                <path fill="#E8F3FA" d="M328 303L350 298.133 350 294 328 300.131zM378 303L356 298.133 356 294 378 300.131z"/>
                <path fill="#B3CDFA" d="M341 247l.261-.79h38.756l-.253.79H341zm4.255-13.55l-.26.83h38.755l.261-.83h-38.756zm-2 6.36l-.254.83h38.756l.261-.83h-38.764zm7.996-25.45l-.261.79h38.756l.26-.79h-38.755zm2-6.36l-.26.79h38.756L392 208h-38.748zm-4.001 12.729l-.254.79h38.757l.26-.79H349.25zm-1.994 6.32l-.26.79h38.756l.253-.79h-38.749z"/>
                <path fill="url(#l6npuboysS)" d="M379.12 169.896h-.132c.086-.793.156-1.539.226-2.253.605-6.822-2.618-10.21-6.937-11.44l-.979-.277-.186-.055-3.612-1.024c-1.71-.963-3.748-1.113-5.576-.409-1.828.704-3.262 2.19-3.924 4.066l4.249 1.206c-.901 2.182-.901 6.815 2.214 8.726.18-.048.365-.072.551-.071 1.077.068 1.967.882 2.152 1.968.185 1.085-.384 2.158-1.375 2.593.35.873 4.397 30.074 13.353 30.074 8.812-.197 15.856-7.55 15.856-16.552 0-9.002-7.044-16.355-15.856-16.552h-.024z"/>
            </g>
        </g>
    </g>
</svg>
