<svg width="240" height="53" viewBox="0 0 240 53" fill="none" xmlns="http://www.w3.org/2000/svg">
<path d="M31.561 31.616L0.161377 43.6157V52.9714L28.9275 42.0903C33.4855 39.9548 34.8023 34.9718 31.561 31.616V31.616Z" fill="#5D5D5D"/>
<path d="M10.6955 22.7687L0.161377 3.85388V26.9381L10.6955 22.7687Z" fill="#46C1BE"/>
<path d="M12.5188 21.7517L43.7159 9.34523V0.0911865L15.1523 11.2774C10.5943 13.3112 9.27752 18.2942 12.5188 21.7517V21.7517Z" fill="#5D5D5D"/>
<path d="M33.4856 30.7007L43.7158 49.107V26.5312L33.4856 30.7007Z" fill="#46C1BE"/>
<path d="M0.161377 30.1922V40.7683L43.7158 23.6839V12.701L0.161377 30.1922Z" fill="#46C1BE"/>
<path d="M72.5832 33.3447L62.5555 15.1417C62.2339 14.3633 61.7893 13.6422 61.2388 13.0061C60.9068 12.7166 60.5212 12.4958 60.104 12.3562C59.6869 12.2166 59.2464 12.161 58.8078 12.1926C56.4782 12.1926 55.2627 13.5146 55.2627 15.9552V38.1242H59.4156V17.3789L69.5445 35.5819C69.8788 36.3537 70.3223 37.0729 70.8612 37.7175C71.5007 38.2863 72.3379 38.5787 73.1909 38.531C73.6849 38.5517 74.1774 38.4621 74.6328 38.2687C75.0882 38.0753 75.4952 37.7828 75.8244 37.4124C76.1357 37.0906 76.3774 36.7077 76.5342 36.2877C76.6911 35.8677 76.7598 35.4197 76.736 34.9718V12.4976H72.5832V33.3447Z" fill="#46C1BE"/>
<path d="M92.8409 18.5992H80.4837V21.9551H92.3345C93.4487 21.9551 94.259 22.1585 94.6642 22.7686C95.0981 23.4685 95.3101 24.2841 95.2719 25.1076H86.0546C84.5729 25.033 83.1095 25.463 81.9017 26.3279C81.4151 26.7984 81.0363 27.3695 80.7914 28.0017C80.5466 28.6338 80.4416 29.3119 80.4837 29.9888V33.4464C80.4511 34.1119 80.5818 34.7752 80.8644 35.3781C81.147 35.981 81.5728 36.505 82.1043 36.9039C83.3501 37.7694 84.8453 38.1983 86.3584 38.1243H93.6513C95.0807 38.1558 96.4768 37.6885 97.6015 36.8022C98.0649 36.3358 98.4294 35.7799 98.6731 35.1682C98.9168 34.5565 99.0347 33.9016 99.0196 33.243V23.5822C99.0196 20.2263 96.9938 18.5992 92.8409 18.5992ZM95.1706 32.6328C95.1706 34.0565 94.3603 34.7684 92.5371 34.7684H87.0675C86.3452 34.7834 85.6365 34.5699 85.0417 34.1582C84.7839 33.9747 84.5752 33.7302 84.4339 33.4464C84.2925 33.1627 84.223 32.8483 84.2314 32.5312V30.599C84.2314 28.9719 85.143 28.1584 86.9662 28.1584H94.3603C94.8667 28.1584 95.1706 28.3617 95.1706 28.8702V32.6328Z" fill="#46C1BE"/>
<path d="M124.545 18.7009H121.101C120.183 18.6699 119.274 18.8901 118.471 19.3379C117.668 19.7858 117.001 20.4444 116.543 21.2433C116.093 20.4318 115.426 19.7625 114.618 19.3111C113.815 18.8619 112.902 18.6504 111.985 18.7009H108.44C104.793 18.7009 102.869 20.8365 102.869 25.1076V38.0226H106.718V26.1245C106.718 23.8873 107.731 22.8704 109.655 22.8704C110.84 22.8379 112.026 22.9059 113.2 23.0737C114.112 23.4805 114.618 24.5991 114.618 26.2262V38.0226H118.366V26.2262C118.303 25.4136 118.479 24.6005 118.872 23.8873C119.124 23.5636 119.447 23.3032 119.816 23.1267C120.186 22.9502 120.591 22.8624 120.999 22.8704C122.185 22.7706 123.378 22.8391 124.545 23.0737C125.659 23.4805 126.165 24.4974 126.165 26.1245V38.0226H130.014V25.1076C130.089 23.4312 129.589 21.7798 128.596 20.4297C128.089 19.8597 127.463 19.4092 126.763 19.1103C126.063 18.8115 125.305 18.6717 124.545 18.7009V18.7009Z" fill="#46C1BE"/>
<path d="M152.5 26.3279V23.8873C152.5 20.4297 150.576 18.5992 146.727 18.5992H140.042C135.99 18.5992 133.965 20.328 133.965 23.5822V32.8362C133.899 33.6286 134.031 34.4249 134.35 35.1529C134.668 35.881 135.162 36.5178 135.788 37.0056C137.173 37.792 138.76 38.1461 140.346 38.0226H152.399V34.7684H141.055C140.257 34.8317 139.455 34.6918 138.725 34.3616C138.413 34.0833 138.169 33.7369 138.011 33.3491C137.853 32.9614 137.785 32.5424 137.814 32.1244V31.5142L152.5 26.3279ZM137.712 28.2601V24.3957C137.712 22.7686 138.928 21.9551 141.257 21.9551H145.512C147.537 21.9551 148.55 22.667 148.55 24.1923V24.3957L137.712 28.2601Z" fill="#46C1BE"/>
<path d="M175.594 15.9553H164.453C162.629 15.9553 161.515 16.3621 161.11 17.1756C160.745 18.2188 160.606 19.3285 160.705 20.4298C160.68 20.8428 160.759 21.2554 160.936 21.629C161.114 22.0025 161.382 22.3248 161.718 22.5653C162.552 23.0282 163.501 23.24 164.453 23.1755H169.112C170.782 23.1 172.426 23.6026 173.771 24.5992C174.365 25.0456 174.842 25.631 175.16 26.3044C175.478 26.9779 175.627 27.719 175.594 28.4635V32.6329C175.634 33.4076 175.49 34.1807 175.173 34.8881C174.856 35.5955 174.375 36.2168 173.771 36.7006C172.306 37.6767 170.562 38.1413 168.808 38.0226H156.349V34.7685H167.491C169.314 34.7685 170.429 34.4634 170.935 33.0397C171.215 31.9101 171.317 30.7435 171.239 29.5821C171.239 27.7517 170.023 26.9381 167.694 26.9381H163.034C161.384 26.9781 159.76 26.5173 158.375 25.6161C157.737 25.1994 157.215 24.6254 156.861 23.9489C156.506 23.2724 156.33 22.516 156.349 21.7518V17.6841C156.323 16.8256 156.513 15.9743 156.903 15.2096C157.292 14.445 157.869 13.7919 158.578 13.3113C159.881 12.4998 161.402 12.1093 162.933 12.1927H175.594V15.9553Z" fill="#5D5D5D"/>
<path d="M194.434 38.1243H185.723C181.57 38.1243 179.443 36.3955 179.443 32.9379V23.5822C179.443 20.2263 181.267 18.5992 184.71 18.5992H194.434V21.9551H186.331C185.519 21.8407 184.693 22.021 184.001 22.4636C183.731 22.6995 183.524 23.0004 183.4 23.3382C183.276 23.676 183.239 24.0398 183.292 24.3957V32.2261C183.292 33.9549 184.407 34.7684 186.534 34.7684H194.434V38.1243Z" fill="#5D5D5D"/>
<path d="M216.718 33.243C216.752 33.9039 216.643 34.5644 216.398 35.1789C216.153 35.7934 215.778 36.3472 215.3 36.8022C214.175 37.6885 212.779 38.1557 211.35 38.1243H204.057C202.545 38.1835 201.055 37.7559 199.803 36.9039C199.271 36.505 198.845 35.981 198.563 35.3781C198.28 34.7752 198.149 34.1119 198.182 33.4464V29.9888C198.13 29.3016 198.24 28.6117 198.504 27.9755C198.769 27.3393 199.179 26.7747 199.701 26.3279C200.902 25.4479 202.371 25.0163 203.854 25.1076H212.97C213.064 24.2792 212.847 23.4454 212.362 22.7686C211.957 22.1585 211.248 21.9551 210.033 21.9551H198.182V18.5992H210.539C214.692 18.5992 216.718 20.2263 216.718 23.5822V33.243ZM212.869 32.6328V28.8702C212.869 28.3617 212.666 28.1584 212.059 28.1584H204.664C202.841 28.1584 202.031 28.9719 202.031 30.599V32.5312C202.011 32.8395 202.065 33.1482 202.188 33.4313C202.312 33.7144 202.501 33.9637 202.74 34.1582C203.335 34.5699 204.043 34.7834 204.766 34.7684H210.235C212.059 34.7684 212.869 34.0565 212.869 32.6328Z" fill="#5D5D5D"/>
<path d="M235.152 38.0226V25.7177C235.152 23.6839 234.038 22.7686 231.911 22.7686H227.657C225.429 22.7686 224.416 23.6839 224.416 25.7177V38.0226H220.567V24.4974C220.567 20.5314 222.491 18.5992 226.34 18.5992H233.127C236.976 18.5992 238.9 20.5314 238.9 24.4974V38.0226H235.152Z" fill="#5D5D5D"/>
<path d="M124.375 48.0496H121.892C121.398 48.0496 120.975 47.8741 120.624 47.523C120.273 47.1719 120.098 46.7492 120.098 46.2548C120.098 45.7605 120.273 45.3377 120.624 44.9867C120.975 44.6356 121.398 44.46 121.892 44.46H123.881V44.0517C123.881 43.8295 123.802 43.6397 123.644 43.4821C123.487 43.3244 123.297 43.2456 123.075 43.2456H120.904C120.768 43.2456 120.649 43.199 120.549 43.1059C120.456 43.0056 120.409 42.8874 120.409 42.7513C120.409 42.6151 120.456 42.5005 120.549 42.4073C120.649 42.3142 120.768 42.2676 120.904 42.2676H123.075C123.569 42.2676 123.988 42.4432 124.332 42.7942C124.683 43.1381 124.859 43.5573 124.859 44.0517V47.5552C124.859 47.6914 124.812 47.8096 124.719 47.9099C124.626 48.003 124.511 48.0496 124.375 48.0496ZM123.881 45.4488H121.892C121.663 45.4488 121.47 45.5276 121.312 45.6852C121.154 45.8428 121.076 46.0327 121.076 46.2548C121.076 46.4769 121.154 46.6668 121.312 46.8244C121.47 46.982 121.663 47.0609 121.892 47.0609H123.881V45.4488Z" fill="#5D5D5D"/>
<path d="M136.407 47.9099C136.314 48.003 136.199 48.0496 136.063 48.0496C135.927 48.0496 135.809 48.003 135.708 47.9099C135.615 47.8096 135.569 47.6914 135.569 47.5552V44.0517C135.569 43.8295 135.49 43.6433 135.332 43.4928C135.182 43.3352 134.995 43.2528 134.773 43.2456H134.193C133.971 43.2528 133.781 43.3352 133.623 43.4928C133.473 43.6433 133.398 43.8295 133.398 44.0517V47.5552C133.398 47.6914 133.348 47.8096 133.247 47.9099C133.154 48.003 133.039 48.0496 132.903 48.0496C132.767 48.0496 132.653 48.003 132.559 47.9099C132.466 47.8096 132.42 47.6914 132.42 47.5552V44.0517C132.42 43.8367 132.341 43.6504 132.183 43.4928C132.026 43.3352 131.839 43.2528 131.624 43.2456H131.033C130.811 43.2528 130.621 43.3352 130.464 43.4928C130.313 43.6433 130.238 43.8295 130.238 44.0517V47.5552C130.238 47.6914 130.191 47.8096 130.098 47.9099C130.005 48.003 129.891 48.0496 129.754 48.0496C129.618 48.0496 129.5 48.003 129.4 47.9099C129.307 47.8096 129.26 47.6914 129.26 47.5552V44.0517C129.26 43.5573 129.432 43.1381 129.776 42.7942C130.113 42.4432 130.532 42.2676 131.033 42.2676H131.624C132.126 42.2676 132.552 42.4539 132.903 42.8265C133.254 42.4539 133.684 42.2676 134.193 42.2676H134.784C135.278 42.2676 135.694 42.4432 136.031 42.7942C136.382 43.131 136.557 43.5501 136.557 44.0517V47.5552C136.557 47.6914 136.507 47.8096 136.407 47.9099Z" fill="#5D5D5D"/>
<path d="M142.039 48.0496H139.535C139.041 48.0496 138.618 47.8741 138.267 47.523C137.916 47.1719 137.74 46.7492 137.74 46.2548V44.0517C137.74 43.5573 137.916 43.1381 138.267 42.7942C138.618 42.4432 139.041 42.2676 139.535 42.2676H140.825C141.312 42.2676 141.731 42.4432 142.082 42.7942C142.433 43.1381 142.609 43.5573 142.609 44.0517V45.1909C142.609 45.327 142.559 45.4416 142.458 45.5348C142.365 45.6279 142.25 45.6745 142.114 45.6745H138.718V46.2548C138.718 46.4769 138.797 46.6668 138.955 46.8244C139.112 46.982 139.306 47.0609 139.535 47.0609H142.039C142.175 47.0609 142.29 47.111 142.383 47.2113C142.476 47.3045 142.523 47.4191 142.523 47.5552C142.523 47.6914 142.476 47.8096 142.383 47.9099C142.29 48.003 142.175 48.0496 142.039 48.0496ZM140.825 43.2456H139.535C139.313 43.2456 139.119 43.3244 138.955 43.4821C138.797 43.6397 138.718 43.8295 138.718 44.0517V44.6965H141.631V44.0517C141.631 43.8295 141.552 43.6397 141.394 43.4821C141.237 43.3244 141.047 43.2456 140.825 43.2456Z" fill="#5D5D5D"/>
<path d="M150.827 47.9099C150.734 48.003 150.62 48.0496 150.483 48.0496C150.347 48.0496 150.229 48.003 150.129 47.9099C150.036 47.8096 149.989 47.6914 149.989 47.5552V44.0517C149.989 43.8295 149.91 43.6433 149.753 43.4928C149.602 43.3352 149.416 43.2528 149.194 43.2456H148.613C148.391 43.2528 148.202 43.3352 148.044 43.4928C147.893 43.6433 147.818 43.8295 147.818 44.0517V47.5552C147.818 47.6914 147.768 47.8096 147.668 47.9099C147.575 48.003 147.46 48.0496 147.324 48.0496C147.188 48.0496 147.073 48.003 146.98 47.9099C146.887 47.8096 146.84 47.6914 146.84 47.5552V44.0517C146.84 43.8367 146.761 43.6504 146.604 43.4928C146.446 43.3352 146.26 43.2528 146.045 43.2456H145.454C145.232 43.2528 145.042 43.3352 144.884 43.4928C144.734 43.6433 144.659 43.8295 144.659 44.0517V47.5552C144.659 47.6914 144.612 47.8096 144.519 47.9099C144.426 48.003 144.311 48.0496 144.175 48.0496C144.039 48.0496 143.921 48.003 143.82 47.9099C143.727 47.8096 143.681 47.6914 143.681 47.5552V44.0517C143.681 43.5573 143.852 43.1381 144.196 42.7942C144.533 42.4432 144.952 42.2676 145.454 42.2676H146.045C146.546 42.2676 146.973 42.4539 147.324 42.8265C147.675 42.4539 148.105 42.2676 148.613 42.2676H149.205C149.699 42.2676 150.114 42.4432 150.451 42.7942C150.802 43.131 150.978 43.5501 150.978 44.0517V47.5552C150.978 47.6914 150.928 47.8096 150.827 47.9099Z" fill="#5D5D5D"/>
<path d="M155.331 42.2676C155.825 42.2676 156.248 42.4467 156.599 42.805C156.958 43.1561 157.137 43.5788 157.137 44.0732V46.2441C157.137 46.7384 156.961 47.1612 156.61 47.5122C156.266 47.8705 155.843 48.0496 155.342 48.0496H154.02C153.518 48.0496 153.092 47.8741 152.741 47.523C152.39 47.1648 152.214 46.7384 152.214 46.2441V40.2794C152.214 40.1433 152.261 40.0286 152.354 39.9355C152.454 39.8352 152.573 39.785 152.709 39.785C152.845 39.785 152.96 39.8352 153.053 39.9355C153.153 40.0286 153.203 40.1433 153.203 40.2794V42.4611C153.475 42.3321 153.744 42.2676 154.009 42.2676H155.331ZM156.148 46.2441V44.0732C156.148 43.8439 156.069 43.6504 155.911 43.4928C155.754 43.3352 155.56 43.2564 155.331 43.2564H154.02C153.791 43.2564 153.597 43.3352 153.44 43.4928C153.282 43.6504 153.203 43.8439 153.203 44.0732V46.2441C153.203 46.4734 153.282 46.6668 153.44 46.8244C153.597 46.982 153.791 47.0609 154.02 47.0609H155.331C155.56 47.0609 155.754 46.982 155.911 46.8244C156.069 46.6668 156.148 46.4734 156.148 46.2441Z" fill="#5D5D5D"/>
<path d="M162.515 48.0496H160.011C159.517 48.0496 159.094 47.8741 158.743 47.523C158.392 47.1719 158.216 46.7492 158.216 46.2548V44.0517C158.216 43.5573 158.392 43.1381 158.743 42.7942C159.094 42.4432 159.517 42.2676 160.011 42.2676H161.301C161.788 42.2676 162.207 42.4432 162.558 42.7942C162.909 43.1381 163.085 43.5573 163.085 44.0517V45.1909C163.085 45.327 163.035 45.4416 162.934 45.5348C162.841 45.6279 162.727 45.6745 162.591 45.6745H159.194V46.2548C159.194 46.4769 159.273 46.6668 159.431 46.8244C159.589 46.982 159.782 47.0609 160.011 47.0609H162.515C162.651 47.0609 162.766 47.111 162.859 47.2113C162.952 47.3045 162.999 47.4191 162.999 47.5552C162.999 47.6914 162.952 47.8096 162.859 47.9099C162.766 48.003 162.651 48.0496 162.515 48.0496ZM161.301 43.2456H160.011C159.789 43.2456 159.596 43.3244 159.431 43.4821C159.273 43.6397 159.194 43.8295 159.194 44.0517V44.6965H162.107V44.0517C162.107 43.8295 162.028 43.6397 161.871 43.4821C161.713 43.3244 161.523 43.2456 161.301 43.2456Z" fill="#5D5D5D"/>
<path d="M164.995 47.9099C164.902 48.003 164.787 48.0496 164.651 48.0496C164.515 48.0496 164.397 48.003 164.297 47.9099C164.203 47.8096 164.157 47.6914 164.157 47.5552V44.0517C164.157 43.5573 164.329 43.1381 164.673 42.7942C165.009 42.4432 165.429 42.2676 165.93 42.2676H167.145C167.281 42.2676 167.395 42.3142 167.488 42.4073C167.589 42.5005 167.639 42.6151 167.639 42.7513C167.639 42.8874 167.589 43.0056 167.488 43.1059C167.395 43.199 167.281 43.2456 167.145 43.2456H165.93C165.708 43.2456 165.518 43.3244 165.36 43.4821C165.21 43.6397 165.135 43.8295 165.135 44.0517V47.5552C165.135 47.6914 165.088 47.8096 164.995 47.9099Z" fill="#5D5D5D"/>
<path d="M172.619 48.0496H170.244C169.75 48.0496 169.327 47.8741 168.976 47.523C168.625 47.1719 168.449 46.7492 168.449 46.2548V44.0517C168.449 43.5573 168.621 43.1381 168.965 42.7942C169.302 42.4432 169.721 42.2676 170.223 42.2676H172.619C172.755 42.2676 172.87 42.3142 172.963 42.4073C173.063 42.5005 173.114 42.6151 173.114 42.7513C173.114 42.8874 173.063 43.0056 172.963 43.1059C172.87 43.199 172.755 43.2456 172.619 43.2456H170.244C170.022 43.2456 169.829 43.3244 169.664 43.4821C169.506 43.6397 169.427 43.8295 169.427 44.0517V46.2548C169.427 46.4769 169.506 46.6668 169.664 46.8244C169.821 46.982 170.015 47.0609 170.244 47.0609H172.619C172.755 47.0609 172.87 47.111 172.963 47.2113C173.063 47.3045 173.114 47.4191 173.114 47.5552C173.114 47.6914 173.063 47.8096 172.963 47.9099C172.87 48.003 172.755 48.0496 172.619 48.0496Z" fill="#5D5D5D"/>
<path d="M177.468 42.2676C177.963 42.2676 178.385 42.4467 178.736 42.805C179.095 43.1561 179.274 43.5788 179.274 44.0732V47.5552C179.274 47.6914 179.224 47.8096 179.123 47.9099C179.03 48.003 178.915 48.0496 178.779 48.0496C178.643 48.0496 178.525 48.003 178.425 47.9099C178.332 47.8096 178.285 47.6914 178.285 47.5552V44.0732C178.285 43.851 178.203 43.6612 178.038 43.5036C177.88 43.3388 177.687 43.2564 177.457 43.2564H176.05C175.82 43.2564 175.627 43.3352 175.469 43.4928C175.312 43.6504 175.233 43.8439 175.233 44.0732V47.5552C175.233 47.6914 175.183 47.8096 175.082 47.9099C174.989 48.003 174.875 48.0496 174.738 48.0496C174.602 48.0496 174.484 48.003 174.384 47.9099C174.291 47.8096 174.244 47.6914 174.244 47.5552V40.2794C174.244 40.1433 174.291 40.0286 174.384 39.9355C174.484 39.8352 174.602 39.785 174.738 39.785C174.875 39.785 174.989 39.8352 175.082 39.9355C175.183 40.0286 175.233 40.1433 175.233 40.2794V42.4611C175.505 42.3321 175.774 42.2676 176.039 42.2676H177.468Z" fill="#5D5D5D"/>
<path d="M184.755 48.0496H182.251C181.756 48.0496 181.334 47.8741 180.983 47.523C180.632 47.1719 180.456 46.7492 180.456 46.2548V44.0517C180.456 43.5573 180.632 43.1381 180.983 42.7942C181.334 42.4432 181.756 42.2676 182.251 42.2676H183.54C184.028 42.2676 184.447 42.4432 184.798 42.7942C185.149 43.1381 185.324 43.5573 185.324 44.0517V45.1909C185.324 45.327 185.274 45.4416 185.174 45.5348C185.081 45.6279 184.966 45.6745 184.83 45.6745H181.434V46.2548C181.434 46.4769 181.513 46.6668 181.67 46.8244C181.828 46.982 182.021 47.0609 182.251 47.0609H184.755C184.891 47.0609 185.006 47.111 185.099 47.2113C185.192 47.3045 185.238 47.4191 185.238 47.5552C185.238 47.6914 185.192 47.8096 185.099 47.9099C185.006 48.003 184.891 48.0496 184.755 48.0496ZM183.54 43.2456H182.251C182.029 43.2456 181.835 43.3244 181.67 43.4821C181.513 43.6397 181.434 43.8295 181.434 44.0517V44.6965H184.346V44.0517C184.346 43.8295 184.268 43.6397 184.11 43.4821C183.952 43.3244 183.763 43.2456 183.54 43.2456Z" fill="#5D5D5D"/>
<path d="M190.409 48.0496H188.034C187.539 48.0496 187.117 47.8741 186.765 47.523C186.414 47.1719 186.239 46.7492 186.239 46.2548V44.0517C186.239 43.5573 186.411 43.1381 186.755 42.7942C187.091 42.4432 187.511 42.2676 188.012 42.2676H190.409C190.545 42.2676 190.66 42.3142 190.753 42.4073C190.853 42.5005 190.903 42.6151 190.903 42.7513C190.903 42.8874 190.853 43.0056 190.753 43.1059C190.66 43.199 190.545 43.2456 190.409 43.2456H188.034C187.812 43.2456 187.618 43.3244 187.453 43.4821C187.296 43.6397 187.217 43.8295 187.217 44.0517V46.2548C187.217 46.4769 187.296 46.6668 187.453 46.8244C187.611 46.982 187.804 47.0609 188.034 47.0609H190.409C190.545 47.0609 190.66 47.111 190.753 47.2113C190.853 47.3045 190.903 47.4191 190.903 47.5552C190.903 47.6914 190.853 47.8096 190.753 47.9099C190.66 48.003 190.545 48.0496 190.409 48.0496Z" fill="#5D5D5D"/>
<path d="M192.872 47.9099C192.779 48.003 192.664 48.0496 192.528 48.0496C192.392 48.0496 192.274 48.003 192.173 47.9099C192.08 47.8096 192.034 47.6914 192.034 47.5552V40.2794C192.034 40.1433 192.08 40.0286 192.173 39.9355C192.274 39.8352 192.392 39.785 192.528 39.785C192.664 39.785 192.779 39.8352 192.872 39.9355C192.972 40.0286 193.022 40.1433 193.022 40.2794V44.632H193.517L195.795 42.3536C195.895 42.2533 196.014 42.2031 196.15 42.2031C196.293 42.2031 196.408 42.2533 196.494 42.3536C196.587 42.4539 196.633 42.5721 196.633 42.7083C196.633 42.8444 196.587 42.959 196.494 43.0522L194.441 45.1049L196.537 47.2006C196.63 47.2937 196.676 47.4119 196.676 47.5552C196.676 47.6985 196.63 47.8167 196.537 47.9099C196.443 48.003 196.329 48.0496 196.193 48.0496C196.064 48.0496 195.945 48.003 195.838 47.9099L193.56 45.6207H193.022V47.5552C193.022 47.6914 192.972 47.8096 192.872 47.9099Z" fill="#5D5D5D"/>
<path d="M203.824 48.0496H201.32C201.184 48.0496 201.07 48.003 200.976 47.9099C200.883 47.8096 200.837 47.6914 200.837 47.5552C200.837 47.4191 200.883 47.3045 200.976 47.2113C201.07 47.111 201.184 47.0609 201.32 47.0609H203.824C204.032 47.0609 204.208 46.9892 204.351 46.8459C204.502 46.7026 204.577 46.5307 204.577 46.3301C204.577 46.1223 204.502 45.9467 204.351 45.8034C204.208 45.6601 204.032 45.5885 203.824 45.5885H202.449C201.983 45.5885 201.585 45.4273 201.256 45.1049C200.934 44.7753 200.772 44.3812 200.772 43.9227C200.772 43.4641 200.934 43.0737 201.256 42.7513C201.585 42.4288 201.983 42.2676 202.449 42.2676H204.77C204.906 42.2676 205.021 42.3142 205.114 42.4073C205.214 42.5005 205.265 42.6151 205.265 42.7513C205.265 42.8874 205.214 43.0056 205.114 43.1059C205.021 43.199 204.906 43.2456 204.77 43.2456H202.449C202.255 43.2456 202.091 43.3137 201.954 43.4498C201.818 43.5788 201.75 43.7364 201.75 43.9227C201.75 44.1161 201.818 44.2809 201.954 44.4171C202.091 44.546 202.255 44.6105 202.449 44.6105H203.835C204.308 44.6105 204.713 44.7789 205.05 45.1156C205.386 45.4524 205.555 45.8572 205.555 46.3301C205.555 46.8029 205.386 47.2077 205.05 47.5445C204.713 47.8812 204.305 48.0496 203.824 48.0496Z" fill="#5D5D5D"/>
<path d="M209.834 48.0496H208.426C207.932 48.0496 207.509 47.8741 207.158 47.523C206.807 47.1719 206.631 46.7492 206.631 46.2548V44.0517C206.631 43.5573 206.803 43.1381 207.147 42.7942C207.484 42.4432 207.903 42.2676 208.404 42.2676H209.812C210.307 42.2676 210.729 42.4432 211.081 42.7942C211.432 43.1381 211.607 43.5573 211.607 44.0517V46.2548C211.607 46.7564 211.432 47.1755 211.081 47.5122C210.744 47.8562 210.328 48.0353 209.834 48.0496ZM209.812 43.2456H208.426C208.204 43.2456 208.01 43.3244 207.846 43.4821C207.688 43.6397 207.609 43.8295 207.609 44.0517V46.2548C207.609 46.4769 207.688 46.6668 207.846 46.8244C208.003 46.982 208.197 47.0609 208.426 47.0609H209.812C210.042 47.0609 210.235 46.982 210.393 46.8244C210.55 46.6668 210.629 46.4769 210.629 46.2548V44.0517C210.629 43.8295 210.547 43.6397 210.382 43.4821C210.224 43.3244 210.034 43.2456 209.812 43.2456Z" fill="#5D5D5D"/>
<path d="M213.738 47.9099C213.645 48.003 213.53 48.0496 213.394 48.0496C213.258 48.0496 213.139 48.003 213.039 47.9099C212.946 47.8096 212.899 47.6914 212.899 47.5552V40.2794C212.899 40.1433 212.946 40.0286 213.039 39.9355C213.139 39.8352 213.258 39.785 213.394 39.785C213.53 39.785 213.645 39.8352 213.738 39.9355C213.838 40.0286 213.888 40.1433 213.888 40.2794V47.5552C213.888 47.6914 213.838 47.8096 213.738 47.9099Z" fill="#5D5D5D"/>
<path d="M218.162 48.0603H216.948C216.446 48.046 216.027 47.8669 215.69 47.523C215.346 47.1791 215.174 46.7599 215.174 46.2656V42.762C215.174 42.6259 215.221 42.5112 215.314 42.4181C215.414 42.3249 215.533 42.2784 215.669 42.2784C215.805 42.2784 215.919 42.3249 216.013 42.4181C216.106 42.5112 216.152 42.6259 216.152 42.762V46.2656C216.152 46.4877 216.228 46.6775 216.378 46.8352C216.536 46.9928 216.725 47.0716 216.948 47.0716H218.162C218.384 47.0716 218.57 46.9928 218.721 46.8352C218.879 46.6775 218.957 46.4877 218.957 46.2656V42.762C218.957 42.6259 219.004 42.5112 219.097 42.4181C219.197 42.3249 219.316 42.2784 219.452 42.2784C219.588 42.2784 219.702 42.3249 219.796 42.4181C219.889 42.5112 219.935 42.6259 219.935 42.762V46.2656C219.935 46.7599 219.763 47.1791 219.419 47.523C219.083 47.8669 218.664 48.046 218.162 48.0603Z" fill="#5D5D5D"/>
<path d="M223.93 47.0609C224.067 47.0609 224.181 47.111 224.274 47.2113C224.375 47.3045 224.425 47.4191 224.425 47.5552C224.425 47.6914 224.375 47.8096 224.274 47.9099C224.181 48.003 224.067 48.0496 223.93 48.0496H223.748C223.246 48.0496 222.82 47.8741 222.469 47.523C222.118 47.1719 221.942 46.7456 221.942 46.2441V43.2564H221.287C221.15 43.2564 221.032 43.2098 220.932 43.1167C220.839 43.0163 220.792 42.8981 220.792 42.762C220.792 42.6259 220.839 42.5112 220.932 42.4181C221.032 42.3178 221.15 42.2676 221.287 42.2676H221.942V41.2896C221.942 41.1535 221.989 41.0389 222.082 40.9457C222.182 40.8454 222.3 40.7953 222.437 40.7953C222.573 40.7953 222.687 40.8454 222.78 40.9457C222.881 41.0389 222.931 41.1535 222.931 41.2896V42.2676H223.909C224.045 42.2676 224.16 42.3142 224.253 42.4073C224.346 42.5005 224.393 42.6151 224.393 42.7513V42.762C224.393 42.8981 224.342 43.0163 224.242 43.1167C224.149 43.2098 224.034 43.2564 223.898 43.2564H222.931V46.2441C222.931 46.4734 223.01 46.6668 223.167 46.8244C223.325 46.982 223.518 47.0609 223.748 47.0609H223.93Z" fill="#5D5D5D"/>
<path d="M226.49 47.9099C226.397 48.003 226.283 48.0496 226.147 48.0496C226.01 48.0496 225.892 48.003 225.792 47.9099C225.699 47.8096 225.652 47.6914 225.652 47.5552V42.7513C225.652 42.6151 225.699 42.5005 225.792 42.4073C225.892 42.3142 226.01 42.2676 226.147 42.2676C226.283 42.2676 226.397 42.3142 226.49 42.4073C226.591 42.5005 226.641 42.6151 226.641 42.7513V47.5552C226.641 47.6914 226.591 47.8096 226.49 47.9099ZM226.566 41.2359C226.451 41.3505 226.311 41.4079 226.147 41.4079C225.982 41.4079 225.842 41.3505 225.727 41.2359C225.613 41.1213 225.555 40.9816 225.555 40.8168C225.555 40.652 225.613 40.5123 225.727 40.3976C225.842 40.283 225.982 40.2257 226.147 40.2257C226.311 40.2257 226.451 40.283 226.566 40.3976C226.68 40.5123 226.738 40.652 226.738 40.8168C226.738 40.9816 226.68 41.1213 226.566 41.2359Z" fill="#5D5D5D"/>
<path d="M231.181 48.0496H229.773C229.279 48.0496 228.856 47.8741 228.505 47.523C228.154 47.1719 227.979 46.7492 227.979 46.2548V44.0517C227.979 43.5573 228.151 43.1381 228.494 42.7942C228.831 42.4432 229.25 42.2676 229.752 42.2676H231.16C231.654 42.2676 232.077 42.4432 232.428 42.7942C232.779 43.1381 232.954 43.5573 232.954 44.0517V46.2548C232.954 46.7564 232.779 47.1755 232.428 47.5122C232.091 47.8562 231.676 48.0353 231.181 48.0496ZM231.16 43.2456H229.773C229.551 43.2456 229.358 43.3244 229.193 43.4821C229.035 43.6397 228.957 43.8295 228.957 44.0517V46.2548C228.957 46.4769 229.035 46.6668 229.193 46.8244C229.351 46.982 229.544 47.0609 229.773 47.0609H231.16C231.389 47.0609 231.582 46.982 231.74 46.8244C231.898 46.6668 231.977 46.4769 231.977 46.2548V44.0517C231.977 43.8295 231.894 43.6397 231.729 43.4821C231.572 43.3244 231.382 43.2456 231.16 43.2456Z" fill="#5D5D5D"/>
<path d="M238.761 47.9099C238.667 48.003 238.553 48.0496 238.417 48.0496C238.281 48.0496 238.162 48.003 238.062 47.9099C237.969 47.8096 237.922 47.6914 237.922 47.5552V44.0517C237.922 43.8295 237.843 43.6433 237.686 43.4928C237.535 43.3352 237.349 43.2528 237.127 43.2456H235.913C235.69 43.2528 235.501 43.3352 235.343 43.4928C235.193 43.6433 235.117 43.8295 235.117 44.0517V47.5552C235.117 47.6914 235.071 47.8096 234.978 47.9099C234.884 48.003 234.77 48.0496 234.634 48.0496C234.498 48.0496 234.379 48.003 234.279 47.9099C234.186 47.8096 234.139 47.6914 234.139 47.5552V44.0517C234.139 43.5573 234.311 43.1381 234.655 42.7942C234.992 42.4432 235.411 42.2676 235.913 42.2676H237.127C237.629 42.2676 238.048 42.4432 238.384 42.7942C238.728 43.1381 238.9 43.5573 238.9 44.0517V47.5552C238.9 47.6914 238.854 47.8096 238.761 47.9099Z" fill="#5D5D5D"/>
</svg>
