<svg width="40" height="40" viewBox="0 0 40 40" fill="none" xmlns="http://www.w3.org/2000/svg">
    <circle cx="20" cy="20" r="20" fill="url(#a)"/>
    <path d="M26.98 21.96v-3.92c.86-.18 1.499-.94 1.499-1.84 0-1.04-.84-1.88-1.88-1.88-.56 0-1.04.24-1.4.621l-3.42-1.96c.06-.18.1-.38.1-.58 0-1.04-.84-1.88-1.88-1.88s-1.88.84-1.88 1.88c0 .2.04.4.1.58l-3.42 1.96c-.34-.38-.84-.621-1.4-.621-1.04 0-1.88.84-1.88 1.88 0 .9.64 1.66 1.5 1.84v3.92c-.86.18-1.5.94-1.5 1.84 0 1.04.84 1.88 1.88 1.88.56 0 1.04-.24 1.4-.621l3.42 1.96c-.06.18-.1.38-.1.58 0 1.04.84 1.88 1.88 1.88s1.88-.84 1.88-1.88c0-.2-.04-.4-.1-.58l3.42-1.958c.34.38.84.62 1.4.62 1.04 0 1.88-.84 1.88-1.88 0-.9-.64-1.66-1.5-1.84zm-.38-6.86c.6 0 1.1.5 1.1 1.1 0 .6-.5 1.1-1.1 1.1-.6 0-1.1-.5-1.1-1.1 0-.62.48-1.1 1.1-1.1zM20 11.28c.6 0 1.1.5 1.1 1.1 0 .6-.5 1.1-1.1 1.1-.6 0-1.1-.5-1.1-1.1 0-.6.5-1.1 1.1-1.1zm-7.7 4.92c0-.6.5-1.1 1.1-1.1.6 0 1.1.5 1.1 1.1 0 .6-.5 1.1-1.1 1.1-.6 0-1.1-.5-1.1-1.1zm1.1 8.7c-.6 0-1.1-.5-1.1-1.1 0-.6.5-1.1 1.1-1.1.6 0 1.1.5 1.1 1.1 0 .62-.48 1.1-1.1 1.1zm6.6 3.82c-.6 0-1.1-.5-1.1-1.1 0-.6.5-1.1 1.1-1.1.6 0 1.1.5 1.1 1.1 0 .6-.5 1.1-1.1 1.1zm1.4-2.36c-.34-.38-.84-.62-1.4-.62-.56 0-1.04.24-1.4.62l-3.4-1.98c.06-.18.1-.38.1-.58 0-.9-.64-1.66-1.5-1.84v-3.92c.86-.18 1.5-.94 1.5-1.84 0-.2-.04-.4-.1-.58l3.4-1.98c.34.38.84.62 1.4.62.56 0 1.04-.24 1.4-.62l3.4 1.98c-.06.18-.1.38-.1.58 0 .9.64 1.66 1.5 1.84v3.92c-.86.18-1.5.94-1.5 1.84 0 .2.04.4.1.58l-3.4 1.98zm5.2-1.46c-.6 0-1.1-.5-1.1-1.1 0-.6.5-1.1 1.1-1.1.6 0 1.1.5 1.1 1.1 0 .62-.5 1.1-1.1 1.1z" fill="#fff"/>
    <path d="M23.94 18.021c0-.16-.1-.3-.24-.36l-3.54-1.6a.445.445 0 0 0-.32 0l-3.54 1.6c-.14.06-.24.2-.24.36 0 .16.1.3.24.36l1.4.62-1.4.621c-.14.06-.24.2-.24.36 0 .16.1.3.24.36l1.4.62-1.4.64c-.14.06-.24.2-.24.36 0 .16.1.3.24.36l3.54 1.6c.06.021.1.04.16.04s.12-.02.16-.04l3.54-1.6c.14-.06.24-.2.24-.36 0-.16-.1-.3-.24-.36l-1.4-.64 1.4-.62c.14-.06.24-.2.24-.36 0-.16-.1-.3-.24-.36l-1.4-.62 1.4-.62c.14-.06.24-.201.24-.36zm-1.36 3.96L20 23.14l-2.58-1.16 1.24-.56 1.18.54c.06.02.1.04.16.04s.12-.021.16-.04l1.18-.54 1.24.56zm0-1.98L20 21.161l-2.58-1.16 1.24-.56 1.18.54c.06.02.1.04.16.04s.12-.02.16-.04l1.18-.54 1.24.56zm-2.58-.82-2.58-1.16L20 16.86l2.58 1.16-2.58 1.16z" fill="#fff"/>
    <defs>
        <linearGradient id="a" x1="-7.847" y1="33.917" x2="31.771" y2="49.611" gradientUnits="userSpaceOnUse">
            <stop stop-color="#7054FF"/>
            <stop offset="1" stop-color="#2669FF"/>
        </linearGradient>
    </defs>
</svg>
