<svg xmlns="http://www.w3.org/2000/svg" width="40" height="40" viewBox="0 0 40 40">
    <defs>
        <linearGradient id="45wpyvai5a" x1="0%" x2="99.047%" y1="35.269%" y2="74.505%">
            <stop offset="0%" stop-color="#7054FF"/>
            <stop offset="100%" stop-color="#2669FF"/>
        </linearGradient>
    </defs>
    <g fill="none" fill-rule="evenodd">
        <g fill-rule="nonzero">
            <g>
                <g transform="translate(-839 -2954) translate(723 2954) translate(116)">
                    <circle cx="20" cy="20" r="20" fill="url(#45wpyvai5a)"/>
                    <g fill="#FFF">
                        <path d="M22.163 9.28l-1.312-.231c-.167-.526-.38-1.037-.634-1.526l.766-1.093v.001c.535-.76.445-1.793-.214-2.449l-1.01-1.01V2.97c-.656-.657-1.69-.747-2.45-.212l-1.092.766c-.489-.255-1-.467-1.526-.632l-.215-1.3C14.322.672 13.525-.001 12.593 0h-1.431c-.932-.001-1.729.673-1.883 1.592l-.23 1.312c-.526.166-1.037.377-1.526.633L6.43 2.77h.001c-.76-.534-1.793-.444-2.449.213l-1.01 1.01H2.97c-.657.657-.747 1.691-.212 2.45l.766 1.092c-.255.49-.467 1-.632 1.526l-1.3.218c-.92.154-1.593.951-1.592 1.883v1.433c0 .932.673 1.727 1.592 1.88l1.312.231c.166.526.377 1.037.633 1.526l-.767 1.093v-.001c-.534.76-.444 1.793.213 2.449l1.014 1.014c.655.658 1.69.748 2.449.213l1.092-.766c.49.254 1 .466 1.526.631l.215 1.298c.16.914.953 1.58 1.881 1.58h1.433c.928.002 1.723-.665 1.883-1.58l.23-1.312c.526-.166 1.037-.377 1.526-.633l1.093.767h-.001c.76.534 1.793.445 2.449-.213l1.01-1.01h.002c.657-.657.747-1.691.212-2.45l-.766-1.092c.256-.49.469-1 .634-1.526l1.298-.218c.914-.16 1.58-.953 1.58-1.881v-1.433c.002-.928-.665-1.723-1.58-1.883zm.368 3.313c0 .333-.24.618-.569.675l-1.684.297c-.237.04-.428.212-.49.443-.184.686-.456 1.344-.811 1.96-.118.205-.106.461.03.655l.979 1.404c.192.272.16.644-.076.879l-1.01 1.011c-.236.237-.608.269-.88.077l-1.404-.98c-.193-.136-.445-.15-.65-.034-.616.353-1.275.626-1.96.81-.231.063-.404.254-.444.49l-.296 1.687c-.057.33-.342.568-.676.568h-1.428c-.333 0-.618-.239-.675-.568l-.297-1.687c-.04-.236-.212-.427-.443-.49-.686-.184-1.344-.456-1.959-.81-.207-.12-.464-.109-.66.03l-1.403.979c-.272.191-.642.16-.879-.077l-1.01-1.01c-.236-.236-.269-.607-.076-.88l.98-1.403c.136-.193.15-.447.036-.654-.355-.615-.627-1.274-.81-1.959-.064-.232-.255-.404-.49-.444l-1.683-.294c-.33-.057-.568-.342-.568-.675v-1.431c0-.333.239-.618.568-.675l1.687-.297c.236-.04.427-.212.49-.443.184-.686.456-1.344.81-1.96.119-.205.107-.461-.03-.655l-.979-1.404c-.191-.272-.159-.644.077-.879l1.01-1.011c.236-.236.607-.268.88-.077l1.403.98c.194.137.45.148.657.03.615-.355 1.273-.628 1.959-.81.23-.064.403-.255.443-.49l.296-1.688c.061-.321.34-.555.666-.559h1.433c.334 0 .619.24.676.569l.297 1.687h-.001c.04.235.213.427.444.49.685.184 1.344.456 1.959.81.206.119.461.107.656-.03l1.404-.979c.272-.191.643-.159.879.077l1.011 1.01c.235.236.268.607.076.88l-.98 1.403c-.135.192-.15.444-.036.649.355.615.626 1.274.81 1.959.063.231.254.404.49.444l1.687.296c.33.057.568.342.568.676l-.004 1.428z" transform="translate(8 8)"/>
                        <path d="M11.5 7C9.018 7 7 8.956 7 11.377v.246C7 14.037 9.018 16 11.5 16s4.5-1.963 4.5-4.377v-.246c0-1.163-.471-2.277-1.315-3.098C13.841 7.459 12.695 7 11.5 7z" transform="translate(8 8)"/>
                    </g>
                </g>
            </g>
        </g>
    </g>
</svg>
