<svg width="40" height="40" viewBox="0 0 40 40" fill="none" xmlns="http://www.w3.org/2000/svg">
    <circle cx="20" cy="20" r="20" fill="url(#a)"/>
    <path d="M28.36 17.52h-1c-.12-.34-.26-.68-.42-1l.7-.7c.22-.22.34-.5.34-.8 0-.3-.12-.6-.34-.8l-1.86-1.86a1.16 1.16 0 0 0-1.62 0l-.7.7c-.32-.16-.66-.3-1-.42v-1c0-.62-.52-1.14-1.14-1.14h-2.66c-.62 0-1.14.52-1.14 1.14v1c-.34.12-.68.26-1 .42l-.7-.7a1.16 1.16 0 0 0-1.62 0l-1.88 1.88a1.16 1.16 0 0 0 0 1.62l.7.7c-.16.32-.3.66-.42 1h-.96c-.62 0-1.14.52-1.14 1.14v2.64c0 .62.52 1.14 1.14 1.14h1c.12.34.26.68.42 1l-.7.7c-.22.22-.34.5-.34.8 0 .3.12.6.34.8l1.88 1.88c.44.44 1.16.44 1.62 0l.7-.7c.32.16.66.3 1 .42v.98c0 .62.52 1.14 1.14 1.14h2.64c.62 0 1.14-.521 1.14-1.14v-1c.34-.121.68-.26 1-.421l.7.7c.44.44 1.18.44 1.62 0l1.88-1.88c.44-.44.44-1.16 0-1.62l-.7-.7c.16-.32.3-.66.42-1h.98c.62 0 1.14-.52 1.14-1.14V18.66c-.02-.62-.54-1.14-1.16-1.14zm.08 3.8c0 .04-.04.08-.08.08h-1.38c-.24 0-.44.16-.52.4-.14.54-.36 1.04-.62 1.52-.12.2-.08.46.08.64l.98.98c.04.04.04.08 0 .1l-1.88 1.86h-.1l-.98-.98a.542.542 0 0 0-.64-.08c-.48.26-.98.48-1.52.621-.24.06-.38.28-.38.52v1.38c0 .04-.04.08-.08.08l-2.64-.001c-.04 0-.08-.04-.08-.08v-1.38c0-.24-.16-.44-.4-.52-.54-.14-1.04-.36-1.52-.62a.546.546 0 0 0-.64.1l-.98.98c-.04.04-.08.04-.1 0l-1.86-1.88v-.1l.98-.98c.16-.16.2-.44.08-.64-.26-.48-.48-.98-.62-1.52-.061-.24-.28-.38-.521-.38h-1.38c-.039 0-.079-.04-.079-.08v-2.66c0-.04.04-.08.08-.08h1.38c.24 0 .44-.16.52-.4.14-.54.36-1.04.62-1.52.12-.2.08-.46-.08-.64l-.98-.98c-.039-.04-.039-.08 0-.1l1.88-1.86h.1l.98.98c.16.16.44.2.64.08.48-.26.98-.48 1.52-.621.24-.06.38-.28.38-.52v-1.38c0-.04.04-.079.08-.079h2.64c.04 0 .08.04.08.08v1.38c0 .24.16.44.4.52.54.14 1.04.36 1.52.62.2.12.46.08.64-.08l.98-.98c.039-.04.079-.04.1 0l1.86 1.86c.02.021.02.08 0 .1l-.98.98c-.16.16-.2.44-.08.64.26.48.48.98.62 1.52.06.221.28.38.52.38h1.38c.04 0 .08.04.08.08v2.66z" fill="#fff"/>
    <path d="M20 15.1c-2.7 0-4.9 2.2-4.9 4.9s2.2 4.9 4.9 4.9 4.9-2.2 4.9-4.9-2.2-4.9-4.9-4.9zm0 8.72a3.82 3.82 0 1 1 0-7.64c2.12 0 3.82 1.7 3.82 3.82s-1.7 3.82-3.82 3.82z" fill="#fff"/>
    <path d="M19.3 17.96a.561.561 0 0 0-.86.48v3.16c0 .44.48.7.86.48l2.54-1.58c.36-.22.36-.72 0-.94l-2.54-1.6z" fill="#fff"/>
    <defs>
        <linearGradient id="a" x1="-7.847" y1="33.917" x2="31.771" y2="49.611" gradientUnits="userSpaceOnUse">
            <stop stop-color="#7054FF"/>
            <stop offset="1" stop-color="#2669FF"/>
        </linearGradient>
    </defs>
</svg>
