<svg xmlns="http://www.w3.org/2000/svg" width="40" height="40" viewBox="0 0 40 40">
    <defs>
        <linearGradient id="prefix__a" x1="0%" x2="99.047%" y1="35.269%" y2="74.505%">
            <stop offset="0%" stop-color="#7054FF"/>
            <stop offset="100%" stop-color="#2669FF"/>
        </linearGradient>
    </defs>
    <g fill="none">
        <circle cx="20" cy="20" r="20" fill="url(#prefix__a)"/>
        <path fill="#FFF" d="M15.44 9.116c1.345 0 2.544.851 2.988 2.123.443 1.27.035 2.684-1.02 3.52.515.293.958.697 1.298 1.182h.025c.339-.485.782-.889 1.298-1.181-1.053-.838-1.46-2.251-1.015-3.52.443-1.27 1.642-2.121 2.988-2.121 1.345 0 2.544.85 2.987 2.12.445 1.27.038 2.683-1.015 3.52.517.288.963.686 1.306 1.167 1.346 0 2.546.85 2.99 2.122.444 1.271.033 2.685-1.022 3.521.534.302.993.722 1.34 1.228 1.02.277 1.909.911 2.5 1.789.592.877.847 1.939.72 2.99-.127 1.05-.628 2.02-1.411 2.73-.784.712-1.798 1.116-2.856 1.141-1.058.025-2.09-.332-2.905-1.006-.816-.675-1.362-1.62-1.538-2.664H8.878c-.397 0-.72-.322-.72-.72v-2.008c.004-.708.195-1.403.555-2.012.36-.61.875-1.113 1.493-1.459-1.054-.836-1.463-2.248-1.02-3.517.442-1.27 1.64-2.122 2.985-2.123.34-.484.784-.887 1.298-1.178-1.053-.837-1.463-2.25-1.019-3.521.444-1.272 1.643-2.123 2.99-2.123zm13.132 15.189c-1.109-.459-2.384-.205-3.231.643-.848.848-1.1 2.123-.641 3.231.46 1.108 1.54 1.83 2.74 1.829 1.635-.005 2.959-1.33 2.962-2.965 0-1.199-.723-2.28-1.83-2.738zm-.01 1.027l1.077.956-2.554 2.889-2.036-1.508.857-1.156.975.72 1.68-1.9zm-16.403-2.844c-1.414 0-2.56 1.146-2.56 2.561v1.286l5.121.003V25.05c0-1.415-1.147-2.561-2.561-2.561zm6.562 0c-1.414 0-2.561 1.146-2.561 2.561v1.288h5.122V25.05c0-1.415-1.147-2.561-2.56-2.561zm7.707.27c-.794-.397-1.737-.355-2.491.11-.756.467-1.215 1.291-1.215 2.178v1.29h.374c.141-.858.532-1.656 1.126-2.292.592-.636 1.359-1.084 2.206-1.285zm-4.426-7.086c-.64-.002-1.256.237-1.726.67.917.516 1.515 1.455 1.596 2.505.083 1.049-.364 2.069-1.188 2.722.523.296.972.707 1.315 1.2.344-.493.793-.904 1.315-1.2-.824-.653-1.27-1.673-1.189-2.722.083-1.05.681-1.989 1.598-2.506-.47-.43-1.085-.668-1.721-.667zm-6.562 0c-.638-.002-1.253.236-1.723.667.916.517 1.515 1.457 1.596 2.505.082 1.049-.363 2.07-1.188 2.722.522.298.972.707 1.315 1.2.343-.493.793-.902 1.315-1.2-.825-.652-1.27-1.673-1.188-2.722.081-1.048.68-1.988 1.596-2.505-.47-.43-1.086-.667-1.723-.667zm9.84 1.694c-.698.001-1.327.422-1.593 1.067s-.118 1.386.376 1.88c.494.493 1.236.64 1.88.373.645-.267 1.065-.897 1.065-1.594-.001-.953-.775-1.726-1.728-1.726zm-13.121 0c-.952.002-1.724.774-1.725 1.726 0 .698.42 1.327 1.065 1.594.645.267 1.387.12 1.88-.374.493-.493.642-1.236.374-1.88-.267-.645-.896-1.066-1.594-1.066zm6.561.002c-.885.003-1.623.664-1.718 1.538-.096.873.483 1.678 1.34 1.866.86.19 1.722-.299 2.001-1.131.28-.833-.111-1.743-.91-2.112v.001l-.04-.024c-.212-.091-.441-.137-.672-.137zm-3.28-6.815c-.952.001-1.724.773-1.726 1.725 0 .698.421 1.328 1.066 1.594.644.267 1.387.12 1.88-.374.494-.493.64-1.235.375-1.88-.268-.645-.898-1.065-1.595-1.065zm6.562 0c-.953.001-1.724.773-1.726 1.725 0 .698.42 1.328 1.066 1.594.644.267 1.386.12 1.88-.374.493-.493.64-1.236.374-1.88-.267-.645-.896-1.066-1.594-1.066z"/>
    </g>
</svg>
