<svg width="40" height="40" viewBox="0 0 40 40" fill="none" xmlns="http://www.w3.org/2000/svg">
    <circle cx="20" cy="20" r="20" fill="url(#a)"/>
    <path d="M30.612 28.945a3.084 3.084 0 0 0-.96-.648l-1.013-.453c-1.322-.591-2.849-1.263-4.607-2.031l.014-.96v-.574l.014-.018.057-.08c.079-.102.15-.213.223-.324.56-.896.925-1.899 1.073-2.944a3.78 3.78 0 0 0 1.378-2.905 1.87 1.87 0 0 0-1.253-1.769v-1.363a3.706 3.706 0 0 0-.676-2.177 6.072 6.072 0 0 0-1.572-1.519 5.017 5.017 0 0 0-1.565-.689V9.51a.658.658 0 0 0-.658-.657h-1.4.001a4.737 4.737 0 0 0-1.564.366 5.876 5.876 0 0 0-2.425 1.92 6.353 6.353 0 0 0-.766 1.332 5.039 5.039 0 0 0-.377 1.53c-.026.24-.029.523-.029.736v1.49h.001a1.891 1.891 0 0 0-1 .766 1.855 1.855 0 0 0-.3.907V18.308a3.76 3.76 0 0 0 1.413 2.652c.147.99.486 1.94.998 2.799.074.112.142.226.222.33l.095.133v.564l.014 1.025-4.425 1.95-1.037.467c-.086.041-.158.07-.257.117a2.899 2.899 0 0 0-.754.506 2.96 2.96 0 0 0-.94 1.887.338.338 0 0 0 .328.405.384.384 0 0 0 .334-.321 2.297 2.297 0 0 1 .802-1.385c.113-.093.237-.173.367-.24a1.68 1.68 0 0 1 .204-.095c.064-.03.163-.065.24-.099l1.058-.415 4.577-1.841c.252.495.62.922 1.07 1.245a4.254 4.254 0 0 0 4.988 0c.45-.325.814-.751 1.065-1.245 1.808.724 3.39 1.353 4.74 1.893l1.03.406c.78.282 1.347.964 1.48 1.783.026.181.183.316.366.314a.34.34 0 0 0 .273-.395 2.944 2.944 0 0 0-.847-1.803zm-8.726-1.937a4.05 4.05 0 0 1-3.756.012 6.108 6.108 0 0 1-1.116-.76.487.487 0 0 0 .015-.092v-.017l.018-1.372v-.641a1.061 1.061 0 0 0-.168-.537l-.103-.151c-.062-.09-.115-.185-.175-.276v-.001a6.683 6.683 0 0 1-.828-2.62.596.596 0 0 0-.24-.416 2.599 2.599 0 0 1-1.075-1.934V17.97a.645.645 0 0 1 .665-.585h.021a.63.63 0 0 0 .639-.62l.021-1.344c.012-.446 0-.926.039-1.301a3.73 3.73 0 0 1 .29-1.132c.16-.375.367-.729.612-1.054a4.58 4.58 0 0 1 1.877-1.49c.354-.15.73-.238 1.113-.262h.697v.87a.656.656 0 0 0 .588.65c1.12.112 2.145.84 2.817 1.761.293.416.45.912.447 1.42v1.89a.617.617 0 0 0 .628.606.665.665 0 0 1 .566.324.677.677 0 0 1 .087.315 2.6 2.6 0 0 1-1.044 2.095.58.58 0 0 0-.24.403 6.638 6.638 0 0 1-.883 2.738 3.806 3.806 0 0 1-.177.27l-.046.064-.03.043a1.036 1.036 0 0 0-.194.608v.595l.02 1.291v.041c-.002.022-.002.043 0 .065a6.161 6.161 0 0 1-1.085.777zM28.787 10.126l.344.034c.17.03.303.165.333.335l.027.344c0 .117.021.24.035.34.032.366.113.726.24 1.069.115.03.235.04.354.03a.867.867 0 0 0 .306-.03c.128-.343.208-.703.24-1.068.014-.11.026-.223.036-.341l.014-.178v-.198a1.565 1.565 0 0 0-1.58-1.58h-.197l-.178.014-.341.036a4.08 4.08 0 0 0-1.042.267c-.029.112-.038.23-.029.346-.007.1.002.2.03.297.342.13.701.212 1.067.245l.341.038zM9.274 10.655l.014.177c0 .117.024.24.036.341.036.366.12.726.253 1.07.111.028.228.038.343.03.1.008.2-.002.297-.029a4.03 4.03 0 0 0 .252-1.068c.014-.11.027-.223.036-.341l.029-.343a.413.413 0 0 1 .346-.331l.343-.026.341-.036v-.001c.365-.03.724-.112 1.068-.24.03-.114.04-.233.031-.352a.898.898 0 0 0-.031-.308 4.1 4.1 0 0 0-1.068-.24l-.348-.057-.178-.014h-.199a1.566 1.566 0 0 0-1.579 1.582v.105l.014.08z" fill="#fff"/>
    <path d="M9.721 25.019c.296.297.7.462 1.12.459h.197l.178-.015.34-.035v-.001a4.07 4.07 0 0 0 1.069-.252c.029-.113.038-.23.029-.345a.863.863 0 0 0-.03-.298 4.101 4.101 0 0 0-1.067-.253l-.341-.035-.336-.043a.414.414 0 0 1-.334-.336l-.026-.343c0-.117-.022-.24-.036-.341a4.084 4.084 0 0 0-.24-1.068 1.044 1.044 0 0 0-.353-.031.867.867 0 0 0-.307.03c-.128.344-.209.703-.24 1.069a7.21 7.21 0 0 0-.035.34l-.014.178v.199h-.001c-.013.416.141.82.427 1.121zM27.379 25.168a4.1 4.1 0 0 0 1.068.24l.34.035.178.014h.199a1.567 1.567 0 0 0 1.579-1.582v-.196l-.013-.177c0-.117-.025-.24-.036-.342l-.001.001a4.06 4.06 0 0 0-.251-1.068 1.027 1.027 0 0 0-.363-.012.837.837 0 0 0-.297.029 4.029 4.029 0 0 0-.253 1.067c-.014.11-.026.223-.035.341l-.03.344a.414.414 0 0 1-.336.333l-.343.027-.341.035a4.099 4.099 0 0 0-1.068.24 1.07 1.07 0 0 0-.03.354.905.905 0 0 0 .033.317zM16.909 17.887a2.35 2.35 0 0 0 0 .346c-.008.1-.008.2 0 .298.4.449 1.612.45 2.015 0 .012-.118.016-.235.012-.353a2.26 2.26 0 0 0-.012-.307c-.4-.434-1.612-.433-2.015.017zM23.12 18.186a2.116 2.116 0 0 0-.012-.308c-.401-.444-1.613-.439-2.016 0a2.35 2.35 0 0 0 0 .346 1.966 1.966 0 0 0 0 .297c.402.45 1.613.451 2.016 0a2.69 2.69 0 0 0 .012-.335z" fill="#fff"/>
    <defs>
        <linearGradient id="a" x1="-7.847" y1="33.917" x2="31.771" y2="49.611" gradientUnits="userSpaceOnUse">
            <stop stop-color="#7054FF"/>
            <stop offset="1" stop-color="#2669FF"/>
        </linearGradient>
    </defs>
</svg>
