<svg xmlns="http://www.w3.org/2000/svg" width="40" height="40" viewBox="0 0 40 40">
    <defs>
        <linearGradient id="dnqv0dvbia" x1="0%" x2="99.047%" y1="35.269%" y2="74.505%">
            <stop offset="0%" stop-color="#7054FF"/>
            <stop offset="100%" stop-color="#2669FF"/>
        </linearGradient>
    </defs>
    <g fill="none" fill-rule="evenodd">
        <g fill-rule="nonzero">
            <g transform="translate(-1092 -2415) translate(1092 2415)">
                <circle cx="20" cy="20" r="20" fill="url(#dnqv0dvbia)"/>
                <g fill="#FFF">
                    <path d="M4.63 21.86c0 .398-.323.722-.721.722H.87c-.398 0-.721-.324-.721-.721 0-.398.323-.722.721-.722H3.91c.19 0 .375.076.51.212.135.135.21.319.21.51zm2.6-2.072c.282.282.739.282 1.02 0l.548-.543.543.543c.136.134.319.21.51.212.292 0 .554-.175.666-.445.112-.27.05-.579-.156-.786l-.544-.543.544-.548c.162-.129.262-.32.272-.526.012-.207-.066-.408-.214-.553-.146-.146-.35-.22-.555-.206-.207.013-.396.115-.523.28l-.543.529-.548-.529c-.284-.264-.727-.257-1.001.018-.275.274-.283.718-.018 1.001l.548.548-.548.544c-.274.279-.274.726 0 1.004zm-6.408 0c.136.134.319.21.51.212.19 0 .375-.076.51-.212l.543-.543.543.543c.284.282.74.282 1.024 0 .279-.282.279-.736 0-1.019l-.548-.543.548-.548c.221-.289.193-.697-.066-.952-.259-.256-.667-.279-.953-.053l-.548.529-.544-.529c-.134-.136-.318-.213-.51-.213-.19 0-.374.077-.509.213-.279.283-.279.737 0 1.02l.548.547-.548.53c-.279.282-.279.736 0 1.018zm19.231 0c.284.282.74.282 1.024 0l.538-.543.549.543c.134.136.318.212.51.212.19-.001.373-.078.509-.212.279-.282.279-.736 0-1.019l-.548-.543.548-.548c.279-.283.279-.737 0-1.02-.135-.135-.319-.212-.51-.212s-.375.077-.51.213l-.548.543-.548-.529c-.28-.282-.739-.284-1.021-.002-.283.281-.284.739-.003 1.021l.548.548-.548.544c-.269.28-.269.723 0 1.004h.01zm-9.736 1.351H7.28c-.398 0-.721.324-.721.722 0 .397.323.72.72.72h3.04c.397 0 .72-.323.72-.72 0-.398-.323-.722-.72-.722zM17.61 5.65v7.062c0 .398-.323.722-.72.722H7.11c-.397 0-.72-.324-.72-.722V5.65c0-.398.323-.721.72-.721h.784v-.635C7.894 2.025 9.732.187 12 .187s4.106 1.838 4.106 4.106v.635h.784c.19 0 .375.076.51.211s.21.319.21.51zm-2.947-1.356c0-1.47-1.192-2.663-2.663-2.663-1.471 0-2.664 1.192-2.664 2.663v.635h5.327v-.635zM23.13 21.12H20.09c-.397 0-.72.324-.72.721 0 .398.323.722.72.722h3.039c.398 0 .721-.324.721-.722 0-.397-.323-.72-.721-.72zm-6.409 0h-3.038c-.398 0-.721.324-.721.721 0 .398.323.722.72.722h3.04c.397 0 .72-.324.72-.722 0-.397-.323-.72-.72-.72zm-3.082-1.35c.135.135.319.21.51.21s.374-.077.51-.21l.543-.544.548.543c.281.282.738.282 1.02 0 .135-.134.212-.318.212-.51 0-.19-.077-.374-.213-.509l-.548-.543.548-.548c.191-.29.15-.674-.1-.916s-.635-.27-.92-.07l-.547.53-.543-.53c-.284-.264-.728-.257-1.002.018-.275.274-.282.718-.018 1.001l.544.549-.544.543c-.274.279-.274.726 0 1.005v-.02z" transform="translate(8 9)"/>
                </g>
            </g>
        </g>
    </g>
</svg>
