<svg xmlns="http://www.w3.org/2000/svg" width="40" height="40" viewBox="0 0 40 40">
    <defs>
        <linearGradient id="yah6kye8ha" x1="0%" x2="99.047%" y1="35.269%" y2="74.505%">
            <stop offset="0%" stop-color="#7054FF"/>
            <stop offset="100%" stop-color="#2669FF"/>
        </linearGradient>
    </defs>
    <g fill="none" fill-rule="evenodd">
        <g fill-rule="nonzero">
            <g transform="translate(-290 -1093) translate(290 1093)">
                <circle cx="20" cy="20" r="20" fill="url(#yah6kye8ha)"/>
                <g fill="#FFF">
                    <path d="M5.181.16C2.391.16.122 2.43.122 5.219v12.317c0 2.79 2.27 5.058 5.06 5.058h5.326c.23 0 .415-.186.415-.416 0-.23-.186-.415-.415-.415H5.18c-2.331 0-4.228-1.896-4.228-4.227V5.218C.954 2.887 2.852.991 5.183.991h12.316c2.331 0 4.227 1.896 4.227 4.227v11.593c0 .23.186.415.415.415.23 0 .415-.186.415-.415V5.218c0-2.79-2.269-5.057-5.057-5.057H5.18zm3.19 2.909c-.107.008-.21.057-.284.144L5.491 6.241 3.903 5.05c-.184-.138-.444-.1-.582.083-.138.184-.1.444.083.58l1.9 1.426c.075.057.162.083.249.083.118 0 .233-.05.316-.145l2.849-3.323c.149-.174.128-.436-.045-.586-.087-.074-.197-.107-.303-.098v-.001zm2.968 2.076c-.23 0-.415.185-.415.415 0 .23.186.415.415.415h7.478c.23 0 .415-.185.415-.415 0-.23-.186-.415-.415-.415h-7.478zM8.37 8.885c-.106.008-.208.057-.283.145l-2.596 3.026-1.588-1.19c-.184-.138-.444-.1-.582.083-.138.184-.1.444.083.581l1.9 1.425c.075.057.162.084.249.084.118 0 .233-.05.316-.146L8.718 9.57c.149-.174.128-.436-.045-.585-.087-.075-.197-.108-.303-.099zm2.969 2.076c-.23 0-.415.186-.415.415 0 .23.186.415.415.415h7.478c.23 0 .415-.185.415-.415 0-.23-.186-.415-.415-.415h-7.478zm6.196 2.584c-.335 0-.634.172-.804.461l-4.919 8.436c-.17.29-.17.639-.003.931.169.292.47.467.806.467h9.842c.337 0 .638-.174.805-.467.169-.291.168-.64-.002-.931l-4.921-8.436c-.169-.289-.47-.461-.804-.461zm0 .831c.026 0 .061.01.085.05l4.921 8.435c.024.042.013.077 0 .099-.012.023-.038.05-.085.05l-9.842-.001c-.048 0-.073-.027-.085-.05-.013-.023-.024-.058 0-.098l4.92-8.436c.025-.041.06-.05.086-.05v.001zm-9.166.742c-.106.008-.208.056-.283.143l-2.595 3.027-1.588-1.19c-.184-.137-.444-.1-.582.083-.138.184-.1.444.083.58l1.9 1.425c.075.057.162.083.249.083.118 0 .233-.05.316-.145l2.849-3.322c.149-.175.128-.437-.045-.586-.087-.074-.197-.106-.303-.098zm9.2 1.244c-.23 0-.415.186-.415.415v3.324c0 .23.187.415.415.415.23 0 .415-.186.415-.415l.001-3.324c0-.23-.185-.415-.415-.415zm.003 4.989c-.108-.001-.217.038-.297.117-.075.078-.12.186-.12.295 0 .108.045.216.12.296.079.078.182.12.294.12.112 0 .216-.045.296-.12.074-.08.12-.188.12-.296 0-.108-.045-.217-.12-.295-.077-.077-.184-.117-.292-.117z" transform="translate(8 8)"/>
                </g>
            </g>
        </g>
    </g>
</svg>
