<svg xmlns="http://www.w3.org/2000/svg" width="40" height="40" viewBox="0 0 40 40">
    <defs>
        <linearGradient id="ixbo4gzjda" x1="0%" x2="99.047%" y1="35.269%" y2="74.505%">
            <stop offset="0%" stop-color="#7054FF"/>
            <stop offset="100%" stop-color="#2669FF"/>
        </linearGradient>
    </defs>
    <g fill="none" fill-rule="evenodd">
        <g fill-rule="nonzero">
            <g transform="translate(-290 -848) translate(290 848)">
                <circle cx="20" cy="20" r="20" fill="url(#ixbo4gzjda)"/>
                <path fill="#FFF" d="M25.373 18.427c-.294-.613-.72-1.147-1.28-1.6-.48-.373-.987-.666-1.547-.88-.56-.214-1.094-.4-1.6-.533-.453-.107-.827-.24-1.067-.347-.24-.106-.453-.214-.586-.32-.134-.08-.214-.186-.24-.267-.027-.08-.053-.133-.053-.186.053-.08.186-.187.427-.32.24-.133.586-.213 1.04-.213.293 0 .586.08.88.213.294.133.48.347.56.614.053.106.134.16.24.16.027 0 .053 0 .08-.027l3.227-1.04c.134-.053.187-.133.16-.293-.239-.773-.666-1.44-1.28-2.027-.613-.587-1.36-.987-2.186-1.228l-.001-1.866c0-.08-.027-.134-.08-.187-.08-.053-.16-.08-.214-.08h-2.8c-.08 0-.133.027-.16.08-.053.053-.053.107-.053.187v1.84c-.694.186-1.334.48-1.92.88-.587.427-1.014.906-1.334 1.466-.32.56-.48 1.173-.48 1.814 0 1.466.587 2.64 1.787 3.547.373.293.8.533 1.306.747.506.213 1.094.427 1.76.613.88.24 1.494.48 1.787.747.08.08.133.16.16.267.027.08.027.186.027.32 0 .266-.133.533-.427.8-.266.266-.64.4-1.04.4s-.72-.107-1.013-.294c-.294-.214-.453-.453-.453-.72 0-.08-.027-.133-.08-.16-.053-.054-.106-.054-.187-.054h-3.386c-.16 0-.267.08-.267.24 0 .533.08 1.04.267 1.547.186.506.427.933.773 1.36.32.4.72.773 1.173 1.067.453.32.96.533 1.52.694v1.84c0 .026.027.052.027.052h-1.12c-.294 0-.48.347-.294.587l2.72 3.973c.133.186.453.186.586 0l2.72-3.973c.186-.24 0-.587-.294-.587h-1.094c0-.027.028-.027.028-.053v-1.84c1.04-.32 1.92-.906 2.586-1.733.747-.906 1.12-1.947 1.12-3.066.002-.854-.131-1.548-.425-2.16z"/>
            </g>
        </g>
    </g>
</svg>
