<svg xmlns="http://www.w3.org/2000/svg" width="40" height="40" viewBox="0 0 40 40">
    <defs>
        <linearGradient id="prefix__a" x1="0%" x2="99.047%" y1="35.269%" y2="74.505%">
            <stop offset="0%" stop-color="#7054FF"/>
            <stop offset="100%" stop-color="#2669FF"/>
        </linearGradient>
    </defs>
    <g fill="none">
        <circle cx="20" cy="20" r="20" fill="url(#prefix__a)"/>
        <path fill="#FFF" d="M26.864 20.488c-2.76 0-5.015 2.255-5.015 5.015s2.256 5.016 5.015 5.016c2.76 0 5.016-2.28 5.016-5.04 0-2.76-2.256-4.991-5.016-4.991zm0 8.808c-2.112 0-3.815-1.705-3.815-3.816 0-2.112 1.704-3.816 3.815-3.816 2.113 0 3.816 1.705 3.816 3.816 0 2.112-1.704 3.816-3.816 3.816zm1.824-3.504c.216.24.216.624-.048.84l-1.368 1.248c-.12.095-.264.168-.408.168-.144 0-.287-.048-.407-.168l-1.368-1.248c-.24-.216-.265-.6-.048-.84.216-.24.6-.264.84-.048l.36.336v-2.472c0-.336.264-.6.6-.6.335 0 .6.264.6.6v2.472l.36-.336c.287-.216.647-.192.887.048zM17.216 13.48c0-.336.264-.6.6-.6h5.544c.336 0 .6.264.6.6 0 .335-.264.6-.6.6h-5.544c-.336 0-.6-.265-.6-.6zm-4.56 0c0-.336.287-.625.624-.625.336 0 .624.288.624.625 0 .335-.287.624-.624.624-.336 0-.624-.264-.624-.624zM23.36 18.4c.336 0 .6.264.6.6 0 .335-.264.6-.6.6h-5.544c-.336 0-.6-.265-.6-.6 0-.336.264-.6.6-.6h5.544zm-10.08-.048c.336 0 .625.288.625.624s-.288.625-.625.625c-.335 0-.624-.288-.624-.625 0-.336.264-.624.624-.624zm-5.16 6.143c0 1.848 1.488 3.336 3.336 3.336h8.952c.336 0 .6-.264.6-.6 0-.336-.264-.6-.6-.6h-8.952c-1.176 0-2.136-.96-2.136-2.16 0-1.175.96-2.135 2.136-2.135h9.984c.336 0 .6-.265.6-.6 0-.336-.264-.6-.6-.6h-9.984c-1.176 0-2.136-.96-2.136-2.16 0-1.176.96-2.136 2.136-2.136H24.51c1.176 0 2.136.96 2.136 2.16 0 .335.264.6.6.6.335 0 .6-.288.6-.6 0-1.128-.576-2.136-1.44-2.736.864-.6 1.44-1.608 1.44-2.735 0-1.848-1.512-3.36-3.36-3.36l-13.007-.001c-1.848 0-3.36 1.512-3.36 3.36 0 1.128.576 2.135 1.44 2.76-.864.6-1.44 1.608-1.44 2.76 0 1.128.576 2.135 1.44 2.735-.864.577-1.44 1.585-1.44 2.713zm3.36-13.15h13.056c1.175 0 2.16.96 2.16 2.16 0 1.2-.96 2.16-2.16 2.16H11.48c-1.175 0-2.16-.96-2.16-2.16 0-1.2.96-2.16 2.16-2.16zm8.856 12.55c.335 0 .6.265.6.6 0 .336-.265.6-.6.6h-2.52c-.336 0-.6-.264-.6-.6 0-.335.264-.6.6-.6h2.52zm-7.056-.023c.336 0 .625.288.625.624s-.288.625-.625.625c-.335 0-.624-.288-.624-.625 0-.36.264-.624.624-.624z"/>
    </g>
</svg>
