<svg width="40" height="40" viewBox="0 0 40 40" fill="none" xmlns="http://www.w3.org/2000/svg">
    <circle cx="20" cy="20" r="20" fill="url(#a)"/>
    <path d="M14.793 28.28a3.125 3.125 0 0 0-2.192 3.84 3.145 3.145 0 0 0 3.848 2.2 3.125 3.125 0 0 0 2.192-3.84 3.133 3.133 0 0 0-1.152-1.688l3.12-6.12c.416.111.864.12 1.304-.009a2.457 2.457 0 0 0 1.024-.56l3.4 2.425a2.005 2.005 0 0 0-.064 1.248A2.035 2.035 0 0 0 28.77 27.2a2.035 2.035 0 0 0 1.424-2.495 2.035 2.035 0 0 0-2.496-1.425c-.28.08-.543.216-.752.4l-3.392-2.431a2.46 2.46 0 0 0 .12-1.664 2.768 2.768 0 0 0-.2-.505l2.985-2.48a2.71 2.71 0 0 0 2.408.513c1.432-.392 2.289-1.88 1.888-3.313a2.702 2.702 0 0 0-3.314-1.896 2.688 2.688 0 0 0-1.656 3.888L22.8 18.288a2.539 2.539 0 0 0-2.208-.448 2.49 2.49 0 0 0-1.168.704l-3.473-2.088a3.49 3.49 0 0 0 .144-2.288c-.511-1.88-2.463-2.992-4.351-2.48-1.889.512-2.985 2.472-2.473 4.352.512 1.88 2.464 2.992 4.352 2.48a3.45 3.45 0 0 0 1.792-1.168l3.48 2.087c-.16.464-.184.976-.048 1.472.144.52.448.969.831 1.28l-3.12 6.12a3.241 3.241 0 0 0-1.767-.031z" fill="#fff"/>
    <defs>
        <linearGradient id="a" x1="-7.847" y1="33.917" x2="31.771" y2="49.611" gradientUnits="userSpaceOnUse">
            <stop stop-color="#7054FF"/>
            <stop offset="1" stop-color="#2669FF"/>
        </linearGradient>
    </defs>
</svg>
