<svg xmlns="http://www.w3.org/2000/svg" width="40" height="40" viewBox="0 0 40 40">
    <defs>
        <linearGradient id="prefix__a" x1="0%" x2="99.047%" y1="35.269%" y2="74.505%">
            <stop offset="0%" stop-color="#7054FF"/>
            <stop offset="100%" stop-color="#2669FF"/>
        </linearGradient>
    </defs>
    <g fill="none">
        <circle cx="20" cy="20" r="20" fill="url(#prefix__a)"/>
        <path fill="#FFF" d="M32 24.926v6.179c0 .537-.448.895-.895.895h-6.18c-1.164 0-1.164-1.79 0-1.79h5.284v-5.284c0-1.165 1.791-1.165 1.791 0zm-22.21 0v5.283h5.284c1.165 0 1.165 1.791 0 1.791H8.895C8.358 32 8 31.552 8 31.105v-6.18c0-1.164 1.79-1.164 1.79 0zm11.464-4.389c1.97 0 3.492 1.612 3.492 3.582v2.597c0 .537-.358.895-.895.895H16.15c-.538 0-.896-.448-.896-.895V24.12c0-1.97 1.523-3.582 3.492-3.582h2.508zm0 1.79h-2.508c-.985 0-1.701.807-1.701 1.791v1.702h5.91v-1.702c0-.985-.716-1.79-1.702-1.79zM20 12.389c2.06 0 3.761 1.702 3.761 3.762C23.761 18.3 22.06 20 20 20s-3.761-1.702-3.761-3.85c0-2.06 1.701-3.762 3.761-3.762zm0 1.791c-1.074 0-1.97.895-1.97 1.97 0 1.164.896 2.06 1.97 2.06 1.074 0 1.97-.896 1.97-2.06 0-1.075-.896-1.97-1.97-1.97zM31.105 8c.537 0 .895.448.895.895v6.18c0 1.164-1.79 1.164-1.79 0V9.79h-5.284C23.76 9.79 23.76 8 24.926 8h6.179zm-16.03 0c1.164 0 1.164 1.79 0 1.79H9.79v5.284c0 1.165-1.791 1.165-1.791 0V8.895C8 8.358 8.448 8 8.895 8h6.18z"/>
    </g>
</svg>
