<svg xmlns="http://www.w3.org/2000/svg" width="40" height="40" viewBox="0 0 40 40">
    <defs>
        <linearGradient id="prefix__a" x1="0%" x2="99.047%" y1="35.269%" y2="74.505%">
            <stop offset="0%" stop-color="#7054FF"/>
            <stop offset="100%" stop-color="#2669FF"/>
        </linearGradient>
    </defs>
    <g fill="none">
        <circle cx="20" cy="20" r="20" fill="url(#prefix__a)"/>
        <path fill="#FFF" d="M31.439 28.732l-5.107-5.08-.357.356-.561-.561c2.834-3.78 2.527-9.166-.92-12.612-3.779-3.78-9.907-3.78-13.66 0-3.778 3.779-3.778 9.906 0 13.66 3.447 3.446 8.809 3.752 12.613.919l.561.561-.357.357 5.08 5.08c.74.74 1.941.74 2.707 0 .74-.74.74-1.94 0-2.68zM22.63 22.63c-2.732 2.732-7.2 2.732-9.931 0-2.732-2.732-2.732-7.175 0-9.931 2.731-2.732 7.2-2.732 9.931 0 2.758 2.756 2.758 7.2 0 9.931zm-4.954-10.239c-2.91 0-5.285 2.375-5.285 5.285s2.375 5.285 5.285 5.285 5.285-2.375 5.285-5.285c.001-2.91-2.373-5.285-5.285-5.285zm.358 6.486l-1.047 1.047-2.042-2.042 1.047-1.048.995.996 2.4-2.375 1.047 1.047-2.4 2.375z"/>
    </g>
</svg>
