<svg xmlns="http://www.w3.org/2000/svg" width="40" height="40" viewBox="0 0 40 40">
    <defs>
        <linearGradient id="kckxpfknxa" x1="0%" x2="99.047%" y1="35.269%" y2="74.505%">
            <stop offset="0%" stop-color="#7054FF"/>
            <stop offset="100%" stop-color="#2669FF"/>
        </linearGradient>
    </defs>
    <g fill="none" fill-rule="evenodd">
        <g fill-rule="nonzero">
            <g transform="translate(-311 -1451) translate(311 1451)">
                <circle cx="20" cy="20" r="20" fill="url(#kckxpfknxa)"/>
                <g fill="#FFF">
                    <path d="M22.286 9.937c-.446.75-1.234 1.072-1.573 1.184.06-.143.11-.276.164-.414.12-.309.23-.606.327-.89.795-2.346.739-3.86 0-4.992-.415-.634-1.042-1.152-1.854-1.63 1.827 2.833-2.383 4.25-3.745 6.587-.456.783-.71 1.527-.805 2.223-.04.292-.053.575-.04.848.03.628.193 1.205.455 1.718.677 1.324 2.003 2.22 3.362 2.48-.843-.447-1.324-1.407-1.372-2.48-.026-.563.074-1.152.295-1.718.113-.293.264-.578.449-.848.344-.506.806-.963 1.41-1.312-.183.42-.122.85-.01 1.312.068.27.148.551.21.848.107.506.15 1.053-.067 1.664.413-.464 1.129-.424 1.466-.885.248.095.398.468.421.939.043.842-.319 2.006-1.26 2.496 1.777-.266 2.97-1.339 3.525-2.66.229-.55.35-1.14.356-1.734v-.003c.01-1.218-.463-2.45-1.451-3.359-.057.239-.152.44-.263.625zm-6.693-1.714c.429-.465.914-.892 1.392-1.31 1.795-1.564 2.218-2.173 1.56-3.194l-.94-1.14c-.013-.004-4.405-.008-13.174-.012-.07 0-.134.028-.181.078-.047.052-.07.119-.065.186l.008.066c0 .54-.438.976-.975.976-.043 0-.086-.006-.14-.013-.07-.009-.142.012-.198.058-.053.046-.085.116-.085.185v6.364c0 .072.038.14.092.186.054.046.133.066.204.055.041-.005.084-.01.127-.01.537 0 .975.438.972.992l-.005.049c-.006.068.018.137.065.188.047.05.111.078.181.078h9.408c.07-.604.238-1.215.5-1.827-.64.52-1.452.833-2.338.833-2.051 0-3.716-1.665-3.716-3.724 0-2.058 1.665-3.724 3.716-3.724 2.05 0 3.714 1.666 3.714 3.724 0 .322-.046.636-.122.936zm-3.271 1.935v-.725c.808-.133 1.244-.668 1.244-1.294 0-.641-.33-1.029-1.167-1.324-.6-.218-.848-.373-.848-.6 0-.195.146-.4.604-.4.505 0 .832.163 1.01.245l.21-.794c-.245-.113-.56-.218-1.024-.23v-.62h-.687v.667c-.75.142-1.185.627-1.185 1.252 0 .684.511 1.036 1.261 1.289.526.176.751.344.751.614 0 .272-.274.435-.68.435-.458 0-.872-.149-1.166-.31l-.21.825c.267.146.724.278 1.192.3v.67h.695zM23.142 0H.856C.384 0 0 .383 0 .86v12.851c0 .474.384.86.856.86h13.315c-.22-.55-.346-1.125-.368-1.718H1.713V1.721h20.573v3.066c.45.925.566 2.005.354 3.304l.557.511c.306.28.572.596.803.932V.861C24 .383 23.615 0 23.142 0z" transform="translate(8 12)"/>
                </g>
            </g>
        </g>
    </g>
</svg>
