<svg width="40" height="40" viewBox="0 0 40 40" fill="none" xmlns="http://www.w3.org/2000/svg">
    <circle cx="20" cy="20" r="20" fill="url(#a)"/>
    <path d="M27.664 19.606a8.89 8.89 0 0 0 .035-.755C27.7 13.97 23.73 10 18.851 10 13.97 10 10 13.97 10 18.85c0 4.88 3.97 8.85 8.85 8.85.252 0 .505-.014.756-.035A5.758 5.758 0 0 0 24.231 30 5.775 5.775 0 0 0 30 24.23a5.756 5.756 0 0 0-2.336-4.625zm-9.23 7.208c-1.142-.27-2.152-1.624-2.776-3.542a9.301 9.301 0 0 1 2.776-.54v4.082zm0-4.916a10.14 10.14 0 0 0-3.002.575 14.82 14.82 0 0 1-.424-3.205h3.427l-.001 2.63zm-3.427-3.464c.03-1.142.179-2.229.424-3.205.947.339 1.964.532 3.002.574v2.63h-3.426zm4.26-7.55c1.141.27 2.15 1.625 2.775 3.544a9.301 9.301 0 0 1-2.775.54v-4.083zm-.833 4.085a9.363 9.363 0 0 1-2.776-.541c.625-1.92 1.634-3.274 2.776-3.543v4.084zm.833.833a10.15 10.15 0 0 0 3.002-.574c.245.976.394 2.063.424 3.206h-3.426v-2.632zm4.26 2.632a15.655 15.655 0 0 0-.47-3.528 8.912 8.912 0 0 0 1.928-1.206 7.968 7.968 0 0 1 1.86 4.734h-3.319zm-.706-4.332c-.398-1.203-.944-2.199-1.596-2.91a8.026 8.026 0 0 1 3.19 1.899 8.006 8.006 0 0 1-1.594 1.01zm-7.942 0a8.066 8.066 0 0 1-1.593-1.011 8.014 8.014 0 0 1 3.19-1.899c-.652.711-1.199 1.708-1.597 2.91zm-.236.804a15.664 15.664 0 0 0-.47 3.528h-3.319a7.974 7.974 0 0 1 1.86-4.734 8.98 8.98 0 0 0 1.93 1.206zm-.47 4.36c.031 1.271.195 2.463.47 3.528A8.908 8.908 0 0 0 12.716 24a7.974 7.974 0 0 1-1.862-4.734h3.32zm.706 4.333c.398 1.2.944 2.198 1.597 2.909a8.025 8.025 0 0 1-3.19-1.898 7.977 7.977 0 0 1 1.593-1.011zm4.388-4.332h2.04a5.804 5.804 0 0 0-2.04 2.04v-2.04zm4.964 9.9a4.94 4.94 0 0 1-4.935-4.935 4.94 4.94 0 0 1 4.935-4.936 4.94 4.94 0 0 1 4.936 4.936 4.94 4.94 0 0 1-4.936 4.935z" fill="#fff"/>
    <path d="M27.113 23.25a3.05 3.05 0 0 0-2.882-2.066 3.051 3.051 0 0 0-3.047 3.047 3.051 3.051 0 0 0 3.047 3.047v-.833a2.216 2.216 0 0 1-2.214-2.213c0-1.221.994-2.214 2.214-2.214.953 0 1.761.609 2.073 1.457l-.72-.461-.45.7 1.894 1.215 1.214-1.894-.701-.45-.428.665z" fill="#fff"/>
    <defs>
        <linearGradient id="a" x1="-7.847" y1="33.917" x2="31.771" y2="49.611" gradientUnits="userSpaceOnUse">
            <stop stop-color="#7054FF"/>
            <stop offset="1" stop-color="#2669FF"/>
        </linearGradient>
    </defs>
</svg>
