<svg xmlns="http://www.w3.org/2000/svg" width="40" height="40" viewBox="0 0 40 40">
    <defs>
        <linearGradient id="isqd37l03a" x1="0%" x2="99.047%" y1="35.269%" y2="74.505%">
            <stop offset="0%" stop-color="#7054FF"/>
            <stop offset="100%" stop-color="#2669FF"/>
        </linearGradient>
    </defs>
    <g fill="none" fill-rule="evenodd">
        <g fill-rule="nonzero">
            <g transform="translate(-700 -1451) translate(700 1451)">
                <circle cx="20" cy="20" r="20" fill="url(#isqd37l03a)"/>
                <g fill="#FFF">
                    <path d="M20.635 11.661H7.927c.036-.576-.021-1.2-.184-1.878v-.001c-.27-1.695-1.78-3.884-1.844-3.976-.07-.101-.191-.156-.314-.141-.122.013-.226.093-.273.207l-1.64 4.061c-.05.125-.021.267.073.362.064.065.15.099.238.099.04 0 .083-.008.123-.024l1.751-.689c.244.767.335 1.428.278 1.98H5.7c-.937 0-1.697.76-1.697 1.698v.223c-.448.008-.804-.12-1.102-.396-.965-.893-1.077-2.642-1.077-3.815V1.015C1.824.52 1.424.12.93.12c-.494 0-.894.4-.894.893V9.32c-.016.442-.064 3.591 1.646 5.176.623.577 1.412.877 2.295.877l.026-.002v6.814c0 .937.759 1.697 1.697 1.697h14.935c.937 0 1.697-.76 1.697-1.697v-8.826c0-.937-.76-1.697-1.697-1.697zM10.49 15.354c0 .863-.702 1.565-1.565 1.565-.862 0-1.566-.702-1.566-1.565s.702-1.566 1.566-1.566c.863 0 1.565.703 1.565 1.566zm-3.497-5.21c.118-.038.244.026.281.144.175.545.222.978.183 1.38-.024.259-.083.505-.168.757-.029.085-.06.172-.095.258-.035.087-.119.142-.207.142-.028 0-.056-.006-.082-.016-.115-.045-.172-.176-.126-.29.03-.077.057-.151.083-.224.202-.581.242-1.075-.014-1.87-.037-.119.028-.244.145-.282zm4.681 10.573v.535c0 .423-.342.764-.764.764H6.94c-.422 0-.764-.342-.764-.764v-.535c0-.026.001-.051.004-.076h-.004c0-1.518 1.23-2.75 2.75-2.75 1.518 0 2.75 1.232 2.75 2.75h-.005c.003.025.004.05.004.076zm8.113-1.373h-5.77c-.4 0-.724-.324-.724-.724 0-.4.324-.723.724-.723h5.77c.4 0 .723.324.723.723 0 .399-.324.724-.723.724zm0-3.394h-5.77c-.4 0-.724-.324-.724-.724 0-.4.324-.723.724-.723h5.77c.4 0 .723.324.723.723 0 .399-.324.724-.723.724z" transform="translate(9 8)"/>
                </g>
            </g>
        </g>
    </g>
</svg>
