<svg xmlns="http://www.w3.org/2000/svg" width="40" height="40" viewBox="0 0 40 40">
    <defs>
        <linearGradient id="vwf6rive7a" x1="0%" x2="99.047%" y1="35.269%" y2="74.505%">
            <stop offset="0%" stop-color="#7054FF"/>
            <stop offset="100%" stop-color="#2669FF"/>
        </linearGradient>
    </defs>
    <g fill="none" fill-rule="evenodd">
        <g fill-rule="nonzero">
            <g transform="translate(-1110 -1093) translate(1110 1093)">
                <circle cx="20" cy="20" r="20" fill="url(#vwf6rive7a)"/>
                <g fill="#FFF">
                    <path d="M21.29 18.768l-4.56-4.101c-.597.778-1.285 1.49-2.063 2.062l4.101 4.56.138.138c.733.664 1.857.596 2.521-.138.664-.733.596-1.879-.138-2.52zM8.548.115C3.896.115.115 3.895.115 8.548c0 4.652 3.78 8.434 8.433 8.434 4.652 0 8.434-3.782 8.434-8.434 0-4.652-3.782-8.433-8.434-8.433zm0 2.888c.733 0 1.33.618 1.284 1.351l-.253 5.042c-.023.55-.481.986-1.03.986-.55 0-1.009-.436-1.032-.986l-.253-5.018c-.045-.734.551-1.375 1.284-1.375zm0 11.09c-.756 0-1.375-.618-1.375-1.374 0-.757.619-1.375 1.375-1.375.757 0 1.375.618 1.375 1.375 0 .756-.618 1.375-1.375 1.375z" transform="translate(11 9)"/>
                </g>
            </g>
        </g>
    </g>
</svg>
