<svg xmlns="http://www.w3.org/2000/svg" width="40" height="40" viewBox="0 0 40 40">
    <defs>
        <linearGradient id="r7t3imrhta" x1="0%" x2="99.047%" y1="35.269%" y2="74.505%">
            <stop offset="0%" stop-color="#7054FF"/>
            <stop offset="100%" stop-color="#2669FF"/>
        </linearGradient>
    </defs>
    <g fill="none" fill-rule="evenodd">
        <g fill-rule="nonzero">
            <g>
                <g transform="translate(-262 -5169) translate(150 5169) translate(112)">
                    <circle cx="20" cy="20" r="20" fill="url(#r7t3imrhta)"/>
                    <g fill="#FFF">
                        <path d="M3.711 14.985c.213.095.437.181.667.262l4.29-2.726 1.887 2.729 6.485-4.48c-.659-.79-2.696-1.434-2.696-1.434-.914-.321-1.191-.642-1.276-.807l-.024-.053V8.47l-.015-.05v-.002c-.035-.126-.123-.45-.123-.53l-.015.072c-.006-.079-.008-.163-.003-.253l-.022.023c.303-.389.55-.833.714-1.285.278-.278.42-.955.42-.955.185-.518.13-.783.046-.917.027-.078.47-1.45-.157-2.51 0 0-.223-1-1.401-1.446C11.398-.05 9.774.35 9.774.35 7.794.682 7.37 3.01 7.37 3.01c-.117 1.064.166 1.729.179 1.755-.101.251.082.91.082.91.063.401.26.525.317.553.137.498.376.985.675 1.407l-.007-.006s.034.164.003.392c-.005-.023-.006-.037-.006-.037 0 .094-.114.435-.128.479l-.004.007c-.09.123-.182.234-.273.337-.738.57-2.51 1.107-2.51 1.107-.772.296-1.098.741-1.098.741-1.141 1.692-1.275 3.38-1.275 3.38.015.86.386.949.386.949z" transform="translate(8 9)"/>
                        <path d="M17.3 8.655L18.569 10.491 10.394 16.141 8.492 13.391 0.153 18.689 1.912 21.233 7.726 17.71 9.608 20.435 20.323 13.031 21.593 14.867 23.806 8.75z" transform="translate(8 9)"/>
                    </g>
                </g>
            </g>
        </g>
    </g>
</svg>
