<svg width="40" height="40" viewBox="0 0 40 40" fill="none" xmlns="http://www.w3.org/2000/svg">
    <circle cx="20" cy="20" r="20" fill="url(#a)"/>
    <path d="M25.202 12.731a5.235 5.235 0 0 0-4.185 2.092H10.735c-.649 0-1.176.528-1.176 1.176v10.095c0 .648.527 1.175 1.176 1.175h16.317c.649 0 1.175-.526 1.175-1.175v-3.849a5.238 5.238 0 0 0 2.214-4.273 5.245 5.245 0 0 0-5.24-5.24zM18.968 23.9a.293.293 0 0 1-.294.292h-1.01v-1.03a2.186 2.186 0 0 0-1.96-2.175 1.799 1.799 0 0 0-.609-3.492 1.8 1.8 0 0 0-.609 3.492 2.188 2.188 0 0 0-1.958 2.175v1.03h-1.01a.294.294 0 0 1-.295-.292l.002-7.157c0-.162.132-.294.294-.294h7.156c.163 0 .294.132.294.294V23.9zm7.168 1.589h-5.462a.208.208 0 0 1 0-.416h5.463a.208.208 0 1 1 0 .416zm0-1.504h-5.462a.208.208 0 0 1 0-.416h5.463a.208.208 0 1 1 0 .416zm-.934-1.906a4.108 4.108 0 1 1 .003-8.215 4.108 4.108 0 0 1-.003 8.215z" fill="#fff"/>
    <path d="M24.338 20.307a.444.444 0 0 1-.272-.095l-1.834-1.467a.437.437 0 0 1 .546-.682l1.492 1.195 2.66-3.326a.436.436 0 1 1 .68.545l-2.93 3.666a.436.436 0 0 1-.293.162l-.049.002z" fill="#fff"/>
    <defs>
        <linearGradient id="a" x1="-7.847" y1="33.917" x2="31.771" y2="49.611" gradientUnits="userSpaceOnUse">
            <stop stop-color="#7054FF"/>
            <stop offset="1" stop-color="#2669FF"/>
        </linearGradient>
    </defs>
</svg>
