<svg xmlns="http://www.w3.org/2000/svg" width="40" height="40" viewBox="0 0 40 40">
    <defs>
        <linearGradient id="d1xuhd767a" x1="0%" x2="99.047%" y1="35.269%" y2="74.505%">
            <stop offset="0%" stop-color="#7054FF"/>
            <stop offset="100%" stop-color="#2669FF"/>
        </linearGradient>
    </defs>
    <g fill="none" fill-rule="evenodd">
        <g fill-rule="nonzero">
            <g transform="translate(-311 -2415) translate(311 2415)">
                <circle cx="20" cy="20" r="20" fill="url(#d1xuhd767a)"/>
                <g fill="#FFF">
                    <path d="M12.351 0h-.006c.148.197.24.438.24.702v3.745c0 .647-.526 1.17-1.169 1.17l-3.748-.002c-.646 0-1.17-.526-1.17-1.17V.703c0-.264.093-.505.241-.702h-.006c-.388 0-.702.314-.702.702V6.32c0 .388.314.702.702.702h5.62c.387 0 .701-.314.701-.702l-.001-5.62c0-.387-.315-.701-.702-.701z" transform="translate(8 12)"/>
                    <path d="M12.117.702V4.45c0 .388-.314.701-.702.701H7.668c-.388 0-.702-.314-.702-.703V.702c0-.388.314-.702.702-.702h3.748c.387 0 .7.314.7.702zM14.576 9.061v3.748c0 .388-.314.702-.702.702h-3.748c-.388 0-.702-.314-.702-.702V9.06c0-.384.314-.702.702-.702h3.748c.388.002.702.318.702.702z" transform="translate(8 12)"/>
                    <path d="M14.809 8.36h-.006c.148.198.24.438.24.703v3.745c0 .646-.526 1.17-1.17 1.17l-3.747-.002c-.647 0-1.17-.526-1.17-1.17V9.062c0-.264.093-.504.241-.702h-.006c-.388 0-.702.314-.702.702v5.62c0 .388.314.701.702.701h5.62c.387 0 .701-.313.701-.702l-.001-5.619c0-.384-.314-.7-.702-.7zM6.108 9.061v3.748c0 .388-.313.702-.702.702H1.66c-.389 0-.702-.314-.702-.702V9.06c0-.384.313-.702.702-.702h3.747c.387.002.702.318.702.702z" transform="translate(8 12)"/>
                    <path d="M6.341 8.36h-.006c.148.198.24.438.24.703v3.745c0 .646-.526 1.17-1.169 1.17l-3.748-.002c-.646 0-1.169-.526-1.169-1.17V9.062c0-.264.093-.504.24-.702H.723c-.388 0-.702.314-.702.702v5.62c0 .388.314.701.702.701h5.62c.388 0 .701-.313.701-.702V9.061c0-.384-.315-.7-.703-.7zM23.276 8.36h-.006c.148.198.24.438.24.703v3.745c0 .646-.526 1.17-1.169 1.17l-3.747-.002c-.647 0-1.17-.526-1.17-1.17V9.062c0-.264.093-.504.24-.702h-.006c-.388 0-.701.314-.701.702v5.62c0 .388.313.701.701.701h5.62c.388 0 .701-.313.701-.702V9.061c0-.384-.314-.7-.703-.7z" transform="translate(8 12)"/>
                    <path d="M23.043 9.061v3.748c0 .388-.313.702-.702.702h-3.747c-.388 0-.702-.314-.702-.702V9.06c0-.384.314-.702.702-.702h3.747c.389.002.702.318.702.702z" transform="translate(8 12)"/>
                </g>
            </g>
        </g>
    </g>
</svg>
