<svg xmlns="http://www.w3.org/2000/svg" width="68" height="68" viewBox="0 0 68 68">
    <g fill="none" fill-rule="evenodd">
        <g>
            <g>
                <g>
                    <path fill="#D8D8D8" fill-opacity="0" d="M0 0H68V68H0z" transform="translate(-150 -2892) translate(150 2889) translate(0 3)"/>
                    <g fill="#FFF" fill-rule="nonzero">
                        <path d="M22.926.573c8.365 0 15.213 6.849 15.213 15.213 0 5.407-2.957 10.38-7.496 13.12 1.082.36 2.163.865 3.171 1.369.504.287.721.938.434 1.442s-.938.72-1.442.434c-1.802-.938-3.605-1.586-5.48-2.02-.504-.073-.794-.504-.865-1.008 0-.504.287-.938.721-1.081 5.263-1.876 8.795-6.776 8.795-12.33 0-7.209-5.841-13.05-13.05-13.05-7.21 0-13.05 5.84-13.05 13.05 0 5.551 3.53 10.454 8.794 12.33.433.143.72.648.72 1.081-.073.504-.36.865-.864 1.008C8.721 32.007 2.593 39.286 2.593 49.02c0 7.283 10.237 10.527 20.33 10.527 9.806 0 16.077-1.876 18.744-5.48.36-.504 1.008-.577 1.515-.217.504.36.577 1.008.217 1.515-3.1 4.329-9.803 6.418-20.473 6.418v.001c-13.48 0-22.492-5.12-22.492-12.69 0-9.876 5.55-17.373 14.706-20.257-4.543-2.74-7.427-7.643-7.427-13.05 0-8.364 6.85-15.213 15.213-15.213zm12.47 33.598c.434 0 .794.217.938.577l1.946 3.965 4.399.648c.434.073.72.36.864.72.144.361 0 .795-.287 1.082l-3.17 3.028.793 4.325c.074.434-.073.794-.433 1.082-.29.22-.507.29-.721.29-.144 0-.36-.074-.504-.144l-3.895-2.02-3.892 2.02c-.36.217-.794.144-1.155-.073-.36-.217-.504-.648-.433-1.082l.72-4.325-3.1-3.1c-.287-.288-.434-.722-.287-1.082.143-.36.434-.648.864-.721l4.326-.648 2.02-3.965c.216-.36.576-.577 1.007-.577zm-16.652.073c.434 0 .794.217.938.577l1.946 3.965 4.325.648c.434.073.721.36.865.721.144.36 0 .794-.287 1.082l-3.1 3.027.793 4.325c.074.434-.073.795-.433 1.082-.288.146-.504.217-.721.217-.144 0-.36-.074-.504-.144l-3.892-2.02-3.895 2.02c-.36.217-.794.144-1.155-.073-.36-.217-.504-.648-.433-1.082l.72-4.325-3.097-3.027c-.287-.288-.434-.721-.287-1.082.143-.36.433-.648.864-.72l4.326-.649 2.019-3.965c.217-.36.577-.647 1.008-.577zm33.31 0c.433 0 .794.217.937.577l1.946 3.965 4.399.648c.434.073.72.36.865.721.143.36 0 .794-.288 1.082l-3.17 3.027.794 4.325c.073.434-.074.795-.434 1.082-.36.217-.794.287-1.155.073l-3.892-2.02-3.97 2.02c-.144.073-.36.144-.505.144-.216 0-.433-.074-.647-.217-.36-.217-.504-.648-.434-1.082l.794-4.325-3.17-3.027c-.288-.288-.434-.721-.288-1.082.144-.36.434-.648.865-.72l4.325-.649 2.02-3.965c.216-.36.503-.577 1.007-.577z" transform="translate(-150 -2892) translate(150 2889) translate(0 3) translate(3 3)"/>
                    </g>
                </g>
            </g>
        </g>
    </g>
</svg>
