<svg xmlns="http://www.w3.org/2000/svg" width="40" height="40" viewBox="0 0 40 40">
    <defs>
        <linearGradient id="7z4sn2p9xa" x1="0%" x2="99.047%" y1="35.269%" y2="74.505%">
            <stop offset="0%" stop-color="#7054FF"/>
            <stop offset="100%" stop-color="#2669FF"/>
        </linearGradient>
    </defs>
    <g fill="none" fill-rule="evenodd">
        <g fill-rule="nonzero">
            <g transform="translate(-1088 -771) translate(1088 771)">
                <circle cx="20" cy="20" r="20" fill="url(#7z4sn2p9xa)"/>
                <g fill="#FFF">
                    <path d="M12.034 11.867c-.7.067-1.3-.1-1.9-.4-2.933-1.466-5.867-2.933-8.833-4.433-.233-.1-.466-.233-.633-.4-.5-.433-.5-.933 0-1.333.2-.167.466-.3.733-.434C4.268 3.434 7.168 2 10.034.534c1.333-.667 2.667-.667 4 0 2.867 1.434 5.733 2.867 8.633 4.3.166.1.367.166.533.299.8.5.767 1.133-.033 1.666-.167.135-.334.2-.5.301-2.9 1.434-5.8 2.9-8.701 4.368-.6.299-1.233.498-1.932.4z" transform="translate(8 8)"/>
                    <path d="M11.833 17.667c-.666.066-1.3-.133-1.933-.434-3-1.5-5.966-3-8.966-4.5C.468 12.5.1 12.2.234 11.6c.066-.433.399-.7.833-.767.367-.066.7.133 1 .3 2.733 1.367 5.5 2.733 8.2 4.132 1.2.6 2.267.633 3.466 0 2.7-1.4 5.434-2.733 8.133-4.1.233-.133.5-.267.767-.333.466-.1.833.1 1.066.534.233.4.1.8-.233 1.1-.2.167-.433.3-.633.4-2.767 1.4-5.5 2.8-8.267 4.166-.833.434-1.733.668-2.733.634z" transform="translate(8 8)"/>
                    <path d="M12.034 23.267c-.8.066-1.534-.167-2.267-.534C6.9 21.3 4.067 19.9 1.201 18.466c-.233-.133-.5-.267-.7-.433-.334-.3-.4-.701-.167-1.1.266-.4.6-.634 1.1-.467.233.067.466.2.7.3 2.733 1.367 5.5 2.733 8.201 4.132 1.133.6 2.2.6 3.333 0 2.8-1.433 5.6-2.833 8.4-4.233.4-.2.767-.4 1.2-.133.6.334.667 1.167.133 1.6-.2.167-.433.268-.666.368-2.8 1.4-5.633 2.8-8.434 4.2-.668.367-1.434.633-2.267.567z" transform="translate(8 8)"/>
                </g>
            </g>
        </g>
    </g>
</svg>
