<svg xmlns="http://www.w3.org/2000/svg" width="40" height="40" viewBox="0 0 40 40">
    <defs>
        <linearGradient id="pi53md5xla" x1="0%" x2="99.047%" y1="35.269%" y2="74.505%">
            <stop offset="0%" stop-color="#7054FF"/>
            <stop offset="100%" stop-color="#2669FF"/>
        </linearGradient>
    </defs>
    <g fill="none" fill-rule="evenodd">
        <g fill-rule="nonzero">
            <g transform="translate(-700 -771) translate(700 771)">
                <circle cx="20" cy="20" r="20" fill="url(#pi53md5xla)"/>
                <path fill="#FFF" d="M18.825 13.45c.1.4.25.8.425 1.175.05.1.125.25.225.4-.726.1-1.425.3-2.076.6l.45.174c.175.051.3.226.3.4l.076 1.25.025.651c0 .25-.175.45-.425.475l-.525.05c-.2.025-.375.174-.4.375-.05.2.075.424.275.5l.35.223c.176.074.301.275.276.475l-.276 2.075c-.025.15-.125.274-.25.35l-.7.325c-.024 0-.074.025-.1.025l-1.124.25h-.175l-.825-.125c-.15-.024-.301.026-.4.15l-.126.151c-.224.275-.074.7.276.75l1.75.25c.149.025.274.125.35.275L17 26.4c.025.075.05.176.025.275L16.5 29.1c1.175.7 2.55 1.125 4 1.125 3.075 0 5.75-1.85 6.925-4.474L27 24.6v-.1l.127-1.375c0-.1-.075-.2-.175-.225l-.5-.075h-.025c-.076 0-.4.025-.425.025l-.2.05c-.15.05-.225.2-.125.325l.5.675c.05.075.05.175-.026.25l-.2.225c-.05.024-.125.05-.175.05l-1.075-.15c-.075 0-.175.049-.2.124l-.325.65c-.026.026-.026.05-.026.076L24 26.7v.05l-.475 1.126c0 .024-.025.05-.025.05l-.225.325c-.05.1-.176.125-.275.05l-.625-.475c-.025-.025-.025-.05-.05-.075l-.525-1c-.026-.026-.026-.05-.026-.075l-.1-1.125c0-.051-.05-.125-.099-.15l-.425-.25c-.025-.026-.05-.026-.075-.026l-1.1-.1c-.05-.025-.125-.05-.15-.125l-.575-1.224c0-.051-.026-.101 0-.15l.398-1.252c0-.05.05-.1.125-.125l1.15-.325H21l1 .1c0 .025.024.025.05.025l.75.325c.024 0 .024 0 .05.026l.525.5c.075.075.2.075.275 0l.55-.526c.075-.075.1-.2.025-.275l-.224-.3c0-.024-.026-.024-.026-.05l-.2-.55c-.05-.125-.225-.174-.325-.075l-.05.026c-.024.024-.05.05-.1.05l-.4.05c-.075 0-.125.025-.15.074-.075.1-.2.125-.3.05-.125-.1-.3-.25-.375-.275l-.225-.1h-.125l-.5.125c-.05.026-.125 0-.174-.05l-.276-.275c-.1-.1-.075-.275.05-.325l.4-.175c.075-.025.1-.125.1-.2l-.075-.6c-.025-.05.025-.125.075-.175l.5-.35c.05-.05.125-.05.2-.025l.4.175h.05c.026.075.076.125.125.175.325.426.825.65 1.35.65.55 0 1.05-.225 1.375-.65.7-.85 1.5-1.85 2.15-2.725 1.451 1.65 2.302 3.776 2.302 6.125 0 5.101-4.15 9.276-9.276 9.276-5.1 0-9.275-4.15-9.275-9.276 0-4.55 3.275-8.324 7.6-9.15zm3.3-4.9c2.025-1.025 4.5-.2 5.525 1.825.6 1.2.625 2.55 0 3.7-.5.925-2.4 3.325-3.275 4.375-.2.25-.6.25-.825 0-.85-1.05-2.775-3.45-3.25-4.375-1-1.95-.2-4.5 1.825-5.525zm1.85 1.725c-1.075 0-1.95.875-1.95 1.95 0 1.076.874 1.95 1.95 1.95 1.075 0 1.95-.874 1.95-1.95 0-1.075-.875-1.95-1.95-1.95z"/>
            </g>
        </g>
    </g>
</svg>
