<svg xmlns="http://www.w3.org/2000/svg" width="40" height="40" viewBox="0 0 40 40">
    <defs>
        <linearGradient id="tls0l9sbza" x1="0%" x2="99.047%" y1="35.269%" y2="74.505%">
            <stop offset="0%" stop-color="#7054FF"/>
            <stop offset="100%" stop-color="#2669FF"/>
        </linearGradient>
    </defs>
    <g fill="none" fill-rule="evenodd">
        <g fill-rule="nonzero">
            <g transform="translate(-700 -998) translate(700 998)">
                <circle cx="20" cy="20" r="20" fill="url(#tls0l9sbza)"/>
                <path fill="#FFF" d="M25.559 10.095c.574-.002 1.125.226 1.529.632l4.276 4.29c.409.404.637.955.636 1.529v10.666c-.003 1.152-.936 2.084-2.087 2.085H12.785c-.9-.028-1.682-.63-1.94-1.493l-2.532-8.638c-.27-.926.253-1.898 1.176-2.182l4.222-1.287v-3.922c.002-.927.753-1.68 1.68-1.68zm-11.837 6.867l-3.88 1.181c-.286.087-.449.39-.366.676l2.533 8.636c.107.374.45.632.84.632.232.002.455-.09.619-.255.164-.164.256-.388.254-.62v-10.25zm11.876-5.655H15.39c-.257 0-.468.21-.468.468v15.437c.002.302-.062.6-.188.875h15.178c.483 0 .874-.392.875-.875V16.497h-3.442c-.965-.002-1.747-.783-1.748-1.748v-3.442zM20.32 21.879c.373 0 .73.148.993.413.264.264.41.623.409.995v1.476c0 .372-.148.728-.411.992-.263.262-.62.41-.991.41h-2.24c-.774 0-1.401-.627-1.401-1.402V23.28c0-.774.627-1.401 1.4-1.401zm7.992 2.909c.336 0 .607.272.607.606 0 .334-.271.606-.607.606h-4.727c-.334 0-.606-.272-.606-.606 0-.334.272-.606.606-.606zm-7.992-1.69h-2.24c-.105 0-.189.085-.189.189v1.476c0 .105.084.19.188.19h2.241c.104 0 .19-.085.19-.19v-1.476c0-.05-.02-.098-.056-.134-.036-.035-.084-.055-.134-.055zm7.992-1.095c.336 0 .607.27.607.606 0 .334-.271.606-.607.606h-4.727c-.334 0-.606-.272-.606-.606 0-.335.272-.606.606-.606zm0-2.79c.336 0 .607.27.607.605 0 .334-.271.606-.607.606H17.285c-.335 0-.606-.272-.606-.606 0-.334.27-.606.606-.606zm-5.616-5.867c.737 0 1.334.598 1.335 1.335v1.605c0 .738-.598 1.334-1.335 1.336h-4.679c-.738-.002-1.334-.598-1.336-1.336V14.68c.002-.737.598-1.335 1.336-1.335zm-.003 1.212h-4.679c-.067 0-.122.055-.123.123l.002 1.605c.002.068.056.122.124.124h4.676c.068 0 .124-.056.124-.124V14.68c0-.068-.056-.123-.124-.123zm4.117-2.395v2.586c0 .297.24.536.536.536h2.584l-3.12-3.122z"/>
            </g>
        </g>
    </g>
</svg>
