<svg xmlns="http://www.w3.org/2000/svg" width="40" height="40" viewBox="0 0 40 40">
    <defs>
        <linearGradient id="8rw10v8kka" x1="0%" x2="99.047%" y1="35.269%" y2="74.505%">
            <stop offset="0%" stop-color="#7054FF"/>
            <stop offset="100%" stop-color="#2669FF"/>
        </linearGradient>
        <filter id="2pkdqj1wib">
            <feColorMatrix in="SourceGraphic" values="0 0 0 0 1.000000 0 0 0 0 1.000000 0 0 0 0 1.000000 0 0 0 1.000000 0"/>
        </filter>
    </defs>
    <g fill="none" fill-rule="evenodd">
        <g>
            <g transform="translate(-1090 -998) translate(1090 998)">
                <circle cx="20" cy="20" r="20" fill="url(#8rw10v8kka)" fill-rule="nonzero"/>
                <g filter="url(#2pkdqj1wib)">
                    <g fill="#000" fill-rule="nonzero">
                        <path d="M19.319 2.578H2.193C.978 2.578 0 3.556 0 4.771v12.562c0 1.215.978 2.193 2.193 2.193h17.155c1.214 0 2.192-.978 2.192-2.193V4.8c-.029-1.215-1.007-2.222-2.221-2.222zm-8.593 14.074H.948v-8h9.807v8h-.03zm9.54-.948h-7.2v-.919h7.2v.92zm0-2.756h-7.2v-.919h7.2v.919zm0-3.052h-7.2v-.919h7.2v.919zm.267-4.563H.978v-.918h19.585v.918h-.03z" transform="translate(8 10)"/>
                        <path d="M22.696.178H3.793c-.741 0-1.334.593-1.334 1.333v.179h16.86c1.718 0 3.111 1.392 3.111 3.111v12.355h.238c.74 0 1.333-.592 1.333-1.333L24 1.51c0-.74-.593-1.333-1.304-1.333zM1.838 9.571L9.838 9.571 9.838 15.764 1.838 15.764z" transform="translate(8 10)"/>
                    </g>
                </g>
            </g>
        </g>
    </g>
</svg>
