<svg xmlns="http://www.w3.org/2000/svg" width="68" height="68" viewBox="0 0 68 68">
    <g fill="none" fill-rule="evenodd">
        <g>
            <g>
                <path fill="#D8D8D8" fill-opacity="0" d="M0 0H68V68H0z" transform="translate(-151 -2706) translate(151 2706)"/>
                <g fill="#FFF" fill-rule="nonzero">
                    <path d="M27.448 0c3.05 0 5.516 2.492 5.516 5.573 0 2.492-1.689 4.59-3.894 5.312v6.031c4.026.459 7.529 2.623 9.8 5.704l5.125-3.017c-.064-.392-.13-.85-.13-1.245 0-3.08 2.467-5.573 5.516-5.573 3.05 0 5.515 2.492 5.515 5.573 0 3.081-2.466 5.573-5.515 5.573-1.427 0-2.725-.591-3.698-1.508l-5.062 2.95c.715 1.703 1.169 3.67 1.169 5.704 0 2.03-.39 3.934-1.169 5.703l5.062 2.95c.973-.919 2.27-1.508 3.698-1.508 3.05 0 5.515 2.492 5.581 5.507 0 3.08-2.466 5.573-5.515 5.573-3.05 0-5.516-2.492-5.516-5.573 0-.459.064-.85.13-1.245l-5.125-3.017c-2.338 3.148-5.777 5.245-9.8 5.704v6.031c2.271.722 3.894 2.82 3.894 5.312 0 3.081-2.467 5.573-5.516 5.573-3.05 0-5.515-2.492-5.515-5.573 0-2.492 1.688-4.59 3.893-5.312v-6.031c-4.025-.459-7.528-2.623-9.8-5.704l-5.124 3.017c.063.392.129.85.129 1.245 0 3.08-2.466 5.573-5.516 5.573-3.049 0-5.515-2.492-5.515-5.573 0-3.081 2.466-5.573 5.515-5.573 1.427 0 2.725.591 3.698 1.508l5.062-2.95c-.715-1.703-1.168-3.67-1.168-5.704 0-2.033.39-4 1.102-5.637l-5.062-2.95c-.973.92-2.27 1.508-3.698 1.508C2.466 23.931 0 21.44 0 18.358c0-3.08 2.466-5.573 5.515-5.573 3.05 0 5.516 2.492 5.516 5.573 0 .459-.064.85-.13 1.245l5.126 3.017c2.337-3.148 5.776-5.245 9.799-5.704v-6.031c-2.271-.722-3.893-2.82-3.893-5.312C21.933 2.492 24.399 0 27.448 0zm0 19.864c-6.098 0-11.03 4.984-11.03 11.146 0 6.162 4.932 11.146 11.03 11.146 6.099 0 11.031-4.984 11.031-11.146 0-6.162-4.932-11.146-11.03-11.146zm3.698 7.082c.586-.656 1.688-.656 2.335.002.648.656.648 1.706 0 2.362l-6.423 6.49c-.325.327-.715.458-1.169.458-.453 0-.844-.13-1.168-.458l-3.635-3.673c-.649-.656-.649-1.706 0-2.361.649-.656 1.688-.656 2.337 0l2.466 2.492z" transform="translate(-151 -2706) translate(151 2706) translate(6.899 2.957)"/>
                </g>
            </g>
        </g>
    </g>
</svg>
