<svg xmlns="http://www.w3.org/2000/svg" width="68" height="68" viewBox="0 0 68 68">
    <defs>
        <filter id="wmyhtgrbxa">
            <feColorMatrix in="SourceGraphic" values="0 0 0 0 1.000000 0 0 0 0 1.000000 0 0 0 0 1.000000 0 0 0 1.000000 0"/>
        </filter>
    </defs>
    <g fill="none" fill-rule="evenodd">
        <g>
            <g>
                <path fill="#D8D8D8" fill-opacity="0" d="M0 0H68V68H0z" transform="translate(-151 -3040) translate(151 3040)"/>
                <g filter="url(#wmyhtgrbxa)" transform="translate(-151 -3040) translate(151 3040)">
                    <g fill="#000" fill-rule="nonzero">
                        <path d="M37.135 0c-6.524 0-12.66 2.583-17.309 7.233-.84.84-.84 2.194 0 3.035l3.618 3.617c.452.452.969.646 1.55.646.58 0 1.097-.194 1.548-.646.84-.84.84-2.195 0-3.035L24.54 8.847c3.035-2.454 6.653-3.94 10.528-4.326v2.84c0 1.163.968 2.132 2.131 2.132 1.163 0 2.132-.969 2.132-2.132v-2.84c3.94.451 7.556 2.003 10.528 4.392l-2.066 1.937c-.84.84-.84 2.195 0 3.035.451.452.969.646 1.549.646s1.097-.194 1.549-.646l2.003-2.003c2.389 2.906 3.94 6.524 4.392 10.528h-2.84c-1.164 0-2.132.969-2.132 2.132 0 1.163.968 2.131 2.131 2.131h2.841c-.452 3.941-2.003 7.556-4.392 10.462l-2.003-2.003c-.84-.84-2.195-.84-3.035 0-.84.84-.84 2.195 0 3.035l2.003 2.003c-2.97 2.455-6.587 4.004-10.528 4.458v-2.84c0-1.164-.969-2.132-2.132-2.132-1.163 0-2.131.968-2.131 2.131v2.84c-3.875-.388-7.493-1.937-10.528-4.326l2.003-2.003c.84-.84.84-2.195 0-3.035-.84-.84-2.195-.84-3.035 0l-3.618 3.618c-.194.194-.388.452-.451.711-.323.775-.129 1.68.451 2.327 4.587 4.58 10.723 7.164 17.246 7.164 13.497 0 24.542-10.979 24.542-24.541C61.677 10.979 50.697 0 37.135 0z" transform="translate(3 9)"/>
                        <path d="M37.135 12.337c-1.163 0-2.131.968-2.131 2.131v10.074c0 1.163.968 2.132 2.131 2.132h8.59c1.164 0 2.132-.969 2.132-2.132 0-1.163-.968-2.132-2.131-2.132h-6.393l-.003-7.944c0-1.16-.968-2.13-2.194-2.13zM16.792 22.41H2.455c-1.163 0-2.132.969-2.132 2.132 0 1.163.969 2.131 2.132 2.131h14.337c1.163 0 2.131-.968 2.131-2.131 0-1.163-.968-2.132-2.131-2.132zM16.792 14.142h-9.43c-1.164 0-2.133.97-2.133 2.132 0 1.163.97 2.132 2.132 2.132h9.43c1.164 0 2.132-.969 2.132-2.132 0-1.163-.968-2.132-2.131-2.132zM16.792 30.611h-9.43c-1.164 0-2.133.969-2.133 2.132 0 1.163.97 2.132 2.132 2.132h9.43c1.164 0 2.132-.969 2.132-2.132 0-1.163-.968-2.132-2.131-2.132z" transform="translate(3 9)"/>
                    </g>
                </g>
            </g>
        </g>
    </g>
</svg>
