<svg xmlns="http://www.w3.org/2000/svg" width="40" height="40" viewBox="0 0 40 40">
    <defs>
        <linearGradient id="vnatogo2ma" x1="0%" x2="99.047%" y1="35.269%" y2="74.505%">
            <stop offset="0%" stop-color="#7054FF"/>
            <stop offset="100%" stop-color="#2669FF"/>
        </linearGradient>
    </defs>
    <g fill="none" fill-rule="evenodd">
        <g fill-rule="nonzero">
            <g>
                <g transform="translate(-1140 -5347) translate(1027 5347) translate(113)">
                    <circle cx="20" cy="20" r="20" fill="url(#vnatogo2ma)"/>
                    <g fill="#FFF">
                        <path d="M7.9 4.6c0 .325.25.575.576.575H15.5c.325 0 .575-.25.575-.575 0-.325-.25-.6-.575-.6h-7c-.325 0-.6.275-.6.6zM15.5 7.2h-7c-.325 0-.575.25-.575.575 0 .326.25.576.575.576l7-.001c.325 0 .575-.25.575-.576 0-.324-.25-.574-.575-.574zM15.5 10.4h-7c-.325 0-.575.25-.575.576 0 .325.25.575.575.575l7-.001c.325 0 .575-.25.575-.575 0-.325-.25-.575-.575-.575z" transform="translate(8 10)"/>
                        <path d="M21.075.15H8.101c-1.95 0-3.526 1.576-3.526 3.526v10.1H.7c-.325 0-.575.25-.575.575v1.474c0 1.95 1.575 3.526 3.526 3.526h12.974c1.55 0 2.8-1.25 2.8-2.8V5.925h3.85c.325 0 .575-.25.575-.575v-2.4c.025-1.55-1.225-2.8-2.775-2.8zM3.651 18.2c-1.3 0-2.375-1.05-2.375-2.375v-.875h12.55v1.6c0 .6.2 1.175.525 1.625H3.65v.025zM18.276 2.95v13.625c0 .9-.725 1.625-1.625 1.625s-1.626-.724-1.626-1.625v-2.2c0-.325-.25-.575-.575-.575H5.725V3.675c0-1.3 1.05-2.375 2.375-2.375h10.724c-.35.475-.549 1.025-.549 1.65zm4.424 1.8h-3.25v-1.8c0-.9.725-1.625 1.625-1.625S22.7 2.05 22.7 2.95v1.8z" transform="translate(8 10)"/>
                    </g>
                </g>
            </g>
        </g>
    </g>
</svg>
