<svg xmlns="http://www.w3.org/2000/svg" width="90" height="96" viewBox="0 0 90 96">
    <g fill="none" fill-rule="evenodd">
        <g fill="#FFF" fill-rule="nonzero">
            <g>
                <path d="M39.418 48.508v-16.48h-7.14v16.48h7.14zM34.23 33.981h3.235v12.574H34.23V33.981zM55.02 48.508h7.14l.005-21.977h-7.141l-.004 21.977zm1.953-20.023h3.235v18.07h-3.235v-18.07zM53.836 11.32H15.492v5.86h38.34l.004-5.86zm-1.953 3.906H17.445v-1.953h34.434l.004 1.953zM15.492 61.219h7.324v-7.324h-7.324v7.324zm1.953-5.371h3.418v3.418h-3.418v-3.418zM15.492 71.094h7.324V63.77h-7.324v7.324zm1.953-5.371h3.418v3.418h-3.418v-3.418zM15.492 80.973h7.324l.004-7.324h-7.324l-.004 7.324zm1.953-5.371h3.418v3.418h-3.418v-3.418z" transform="translate(-284 -4086) translate(284 4086)"/>
                <path d="M63.883 93.117L2.805 93.117 2.805 10.613 5.676 10.613 5.676 8.66 0.852 8.66 0.852 95.07 65.836 95.07 65.836 90.246 63.883 90.246z" transform="translate(-284 -4086) translate(284 4086)"/>
                <path d="M8.5.93v86.414h64.98l.004-71.527L58.597.93H8.5zm63.031 84.46H10.453V2.884h46.762v14.316h14.316V85.39zM59.168 4.267l10.98 10.98h-10.98V4.266z" transform="translate(-284 -4086) translate(284 4086)"/>
                <path d="M28.281 34.773h-7.14v13.734h7.14V34.773zm-1.953 11.781h-3.235v-9.828h3.235v9.828zM50.871 48.508v-19.23h-7.14v19.23h7.14zM45.68 31.235h3.234v15.324H45.68V31.235zM25.77 58.828L66.489 58.828 66.489 60.781 25.77 60.781zM25.77 54.82L66.489 54.82 66.489 56.773 25.77 56.773zM25.77 68.703L66.489 68.703 66.489 70.656 25.77 70.656zM25.77 64.699L66.489 64.699 66.489 66.652 25.77 66.652zM25.77 78.578L66.489 78.578 66.489 80.531 25.77 80.531zM25.77 74.574L66.489 74.574 66.489 76.527 25.77 76.527zM15.492 22.445L26.562 22.445 26.562 24.398 15.492 24.398zM15.492 26.023L23.137 26.023 23.137 27.976 15.492 27.976zM87.195 65.324v14.492c-.32-.008-.703-.012-1.125-.02v-4.308l-.004-21.848V30.87l-4.164-9.922-4.164 9.922v58.797h1.484v4.441h5.352v-4.441h1.488v-7.914c1.211.02 2.082.039 2.082.039l.996.02V65.322l-1.945.001zm-4.566 26.828h-1.446v-2.488h1.446v2.488zm1.484-4.438h-4.418V86.14h4.418v1.575zm0-3.527h-4.418v-2.472c.684-.016 1.977-.02 4.418.007v2.465zm0-4.418c-2.207-.027-3.566-.035-4.418-.012v-2.316h4.418v2.328zm0-26.129v21.848h-4.418V35.215h4.418V53.64zm0-20.379h-4.418v-1.996L81.905 26l2.212 5.265-.004 1.996z" transform="translate(-284 -4086) translate(284 4086)"/>
            </g>
        </g>
    </g>
</svg>
