<svg xmlns="http://www.w3.org/2000/svg" width="98" height="98" viewBox="0 0 98 98">
    <g fill="none" fill-rule="evenodd">
        <g fill="#FFF" fill-rule="nonzero">
            <g>
                <path d="M49.102 78.102l-4.2-2.602c.2-1.8.2-3.699-.1-5.601l4.1-2.602c.802-.5 1.102-1.398.7-2.3l-1.797-4.399c-.3-.8-1.199-1.3-2.101-1.102l-4.801 1.102c-1.2-1.5-2.5-2.8-4-3.898l1-4.7c.199-.898-.301-1.8-1.102-2.101l-4.398-1.797c-.801-.3-1.801 0-2.2.7L27.603 53c-1.8-.199-3.602-.199-5.5.102L19.5 49c-.5-.699-1.5-1-2.3-.601L15 49.3l-2.199.898c-.8.301-1.3 1.2-1.101 2.102l1.101 4.7c-1.5 1.199-2.8 2.5-3.898 4l-4.7-1c-.898-.2-1.8.3-2.101 1.1l-1.797 4.4c-.3.8 0 1.8.7 2.198l4.1 2.602c-.3 1.8-.198 3.7 0 5.602l-4.1 2.601C.3 79 0 80 .398 80.801l.902 2.2L2.2 85.2c.398.8 1.3 1.199 2.101 1l4.7-1.102c1.199 1.5 2.5 2.8 4 3.898l-1 4.7c-.2.898.3 1.8 1.101 2.101l4.398 1.797c.801.3 1.801 0 2.2-.7l2.601-4.1c1.899.3 3.801.3 5.7-.102l2.601 4.101c.5.801 1.398 1.102 2.3.7l4.4-1.797c.8-.301 1.3-1.2 1.1-2.102l-1.1-4.8c1.5-1.2 2.8-2.5 3.898-4l4.699 1.1c.898.2 1.8-.3 2.101-1.1l1.797-4.4c.305-.894.004-1.792-.695-2.292zm-20.602 3.7c-4.8 2-10.398-.2-12.5-5-2-4.802.2-10.399 5-12.5 4.8-2 10.398.198 12.5 5 2.102 4.898-.102 10.397-5 12.5zM97.898 28c0-1.101-.8-2-1.8-2.199l-5.7-1c-.5-2.2-1.398-4.2-2.602-6.2l3.399-4.698c.601-.899.5-2.102-.2-2.801l-4-4c-.8-.7-2-.801-2.8-.2l-4.7 3.399c-2-1.102-4-2-6.199-2.602l-1-5.699C72 .9 71.101.102 70 .102h-5.796c-1.102 0-2 .8-2.2 1.8l-1 5.7c-2.199.5-4.3 1.398-6.3 2.699l-4.504-3.3c-.899-.602-2.102-.5-2.801.198l-4 4c-.7.7-.899 2-.2 2.801l3.4 4.801c-1.103 2-2 4.102-2.5 6.2L38.3 26c-1.101.198-1.8 1.1-1.8 2.198v5.797c0 1.102.8 2 1.8 2.2l5.801 1c.602 2.101 1.398 4.199 2.602 6.101l-3.301 4.7c-.602.898-.5 2.1.199 2.8l4 4c.7.7 2 .899 2.8.2l4.802-3.4c2 1.103 4.101 2 6.199 2.5l1 5.7c.199 1.102 1.101 1.8 2.199 1.8h5.797c1.101 0 2-.8 2.2-1.8l1-5.8c2.1-.5 4.1-1.4 6-2.5l4.698 3.398c.899.601 2.102.5 2.801-.2l4-4c.7-.699.899-2 .2-2.8L87.8 43c1.102-2 2-4 2.602-6.199l5.699-1c1.102-.2 1.8-1.102 1.8-2.2v-2.898L97.899 28zM79.199 42c-3.102-2.199-5.898-3.601-6.602-3.898-.101 0-.199-.102-.199-.301v-2.7c.399-.8.602-1.698.801-2.5.102.102.2.102.3.102.4 0 .802-.5 1.4-2.3.5-1.899.198-2.5-.302-2.7 1.5-7.199-1.898-7.398-1.898-7.398s-.5-1-1.898-1.8c-.801-.5-1.801-.802-3.2-.802h-.699c-.5 0-1.101.102-1.5.301-.601.2-1.2.5-1.7.899-.6.398-1.198.898-1.698 1.398-.801.8-1.602 1.898-1.899 3.3-.3 1.2-.3 2.4.2 3.7h-.102c-.602 0-1.2.5-.5 2.7.5 1.8 1 2.3 1.3 2.3.2 1 .5 2.102 1.102 3.2v2.3c0 .102-.101.2-.199.3-.699.302-3.398 1.7-6.398 3.802-6-6.399-5.899-16.5.398-22.801 6.399-6.399 16.801-6.399 23.2 0 6.093 6.296 6.195 16.5.093 22.898z" transform="translate(-1062 -4085) translate(1062 4085)"/>
            </g>
        </g>
    </g>
</svg>
