<svg xmlns="http://www.w3.org/2000/svg" width="82" height="86" viewBox="0 0 82 86">
    <g fill="none" fill-rule="evenodd">
        <g fill="#FFF" fill-rule="nonzero">
            <g>
                <path d="M55.246 53.113l14.109 8.145h-.004c-.84 3.035.703 6.218 3.606 7.437 2.902 1.219 6.257.086 7.832-2.637 1.57-2.726.875-6.199-1.633-8.101-2.504-1.907-6.035-1.649-8.242.597l-14.11-8.144.004-.004c1.84-4.082 1.84-8.758 0-12.84l6.508-3.758c2.203 2.246 5.735 2.504 8.242.598 2.504-1.902 3.204-5.375 1.63-8.102-1.575-2.722-4.926-3.855-7.829-2.636-2.902 1.218-4.449 4.402-3.605 7.433l-6.508 3.758c-2.617-3.633-6.664-5.969-11.121-6.418V12.539c3.047-.785 5.035-3.715 4.637-6.84-.395-3.121-3.051-5.46-6.2-5.46-3.148 0-5.804 2.339-6.199 5.46-.398 3.125 1.59 6.055 4.637 6.84V28.44c-4.457.45-8.504 2.785-11.121 6.418l-7.59-4.379h.004c.84-3.031-.703-6.219-3.605-7.437-2.903-1.215-6.258-.086-7.832 2.64-1.57 2.723-.875 6.195 1.632 8.098 2.504 1.906 6.036 1.652 8.243-.594l7.59 4.383-.005-.004c-1.84 4.082-1.84 8.758 0 12.84l-17.233 9.95h.003c-2.207-2.243-5.738-2.5-8.242-.595-2.508 1.903-3.203 5.375-1.633 8.102 1.575 2.723 4.93 3.856 7.832 2.637 2.903-1.22 4.446-4.403 3.606-7.438l17.234-9.949h-.004c2.617 3.637 6.664 5.973 11.121 6.422v13.922c-3.047.789-5.035 3.719-4.637 6.84.395 3.12 3.051 5.46 6.2 5.46 3.148 0 5.804-2.34 6.199-5.46.398-3.121-1.59-6.051-4.637-6.84V59.535c4.457-.45 8.504-2.785 11.121-6.422z" transform="translate(-681 -4091) translate(681 4091)"/>
            </g>
        </g>
    </g>
</svg>
