<svg xmlns="http://www.w3.org/2000/svg" width="40" height="40" viewBox="0 0 40 40">
    <defs>
        <linearGradient id="t0hxb1wpaa" x1="0%" x2="99.047%" y1="35.269%" y2="74.505%">
            <stop offset="0%" stop-color="#7054FF"/>
            <stop offset="100%" stop-color="#2669FF"/>
        </linearGradient>
    </defs>
    <g fill="none" fill-rule="evenodd">
        <g fill-rule="nonzero">
            <g>
                <g transform="translate(-1128 -2954) translate(1015 2954) translate(113)">
                    <circle cx="20" cy="20" r="20" fill="url(#t0hxb1wpaa)"/>
                    <g fill="#FFF">
                        <path d="M5.546 13.44c2.785 1.473 6.12 1.473 8.906 0l-1.833-1.834c-1.68.687-3.561.687-5.24 0L5.546 13.44z" transform="translate(10 10)"/>
                        <path d="M10 0C4.163 0 1.164 5.058.606 6.06c-.41.757-.41 1.668 0 2.425.748 1.35 1.726 2.559 2.89 3.572l1.725-1.724c-.996-.84-1.832-1.858-2.463-3-.022-.037-.022-.082 0-.118.296-.548 2.697-4.79 7.242-4.79s6.946 4.242 7.242 4.787c.022.037.022.082 0 .119-.636 1.138-1.475 2.153-2.475 2.99l1.724 1.724c1.167-1.008 2.15-2.213 2.903-3.56.41-.757.41-1.668 0-2.424C18.836 5.058 15.837 0 10 0z" transform="translate(10 10)"/>
                        <path d="M12.424 7.273c0 1.339-1.085 2.424-2.424 2.424S7.576 8.612 7.576 7.273c0-1.34 1.085-2.425 2.424-2.425s2.424 1.086 2.424 2.425M10 16.97c-2.236 0-4.44-.532-6.43-1.552L1.787 17.2c5.084 2.927 11.342 2.927 16.425 0l-1.782-1.783c-1.99 1.02-4.194 1.553-6.43 1.552z" transform="translate(10 10)"/>
                    </g>
                </g>
            </g>
        </g>
    </g>
</svg>
