<svg xmlns="http://www.w3.org/2000/svg" width="40" height="40" viewBox="0 0 40 40">
    <defs>
        <linearGradient id="xxavcq7o7a" x1="0%" x2="99.047%" y1="35.269%" y2="74.505%">
            <stop offset="0%" stop-color="#7054FF"/>
            <stop offset="100%" stop-color="#2669FF"/>
        </linearGradient>
    </defs>
    <g fill="none" fill-rule="evenodd">
        <g fill-rule="nonzero">
            <g>
                <g transform="translate(-262 -5347) translate(150 5347) translate(112)">
                    <circle cx="20" cy="20" r="20" fill="url(#xxavcq7o7a)"/>
                    <g fill="#FFF">
                        <path d="M4.957.81C6.104.182 7.513.052 8.766.417c.73.209 1.435.6 2.008 1.095.548.495.992 1.096 1.278 1.774.365.81.495 1.696.418 2.583-.104.965-.47 1.904-1.096 2.687.68.313 1.331.704 1.853 1.252.626.626 1.07 1.435 1.252 2.296-.809 0-1.617.157-2.347.47-1.435.574-2.636 1.643-3.34 3.026-.6 1.122-.834 2.452-.704 3.731-.81.027-1.617 0-2.426-.078-.861-.079-1.696-.261-2.505-.574-.73-.287-1.435-.704-1.957-1.278-.521-.574-.886-1.304-.991-2.087C.13 14.82.13 14.324.13 13.854c0-.443-.026-.887.052-1.331.104-.835.444-1.617.965-2.27.574-.73 1.357-1.277 2.218-1.669-.443-.548-.756-1.2-.94-1.878-.209-.834-.234-1.722-.026-2.53.182-.73.522-1.408.991-2.008.393-.576.94-1.02 1.567-1.359zM15.155 14.356c.82-.02 1.638.2 2.318.66.46.3.839.699 1.139 1.158.32.5.539 1.06.599 1.639.1.66.02 1.338-.22 1.958-.2.54-.52 1.02-.939 1.438-.4.4-.899.72-1.419.9-.639.24-1.338.3-2.018.2-.62-.1-1.22-.34-1.719-.72-.42-.3-.778-.7-1.059-1.139-.42-.679-.62-1.478-.579-2.277.02-.58.18-1.16.46-1.678.44-.86 1.219-1.539 2.118-1.878.44-.161.88-.261 1.32-.261h-.001z" transform="translate(10 9)"/>
                    </g>
                </g>
            </g>
        </g>
    </g>
</svg>
