<svg xmlns="http://www.w3.org/2000/svg" width="40" height="40" viewBox="0 0 40 40">
    <defs>
        <linearGradient id="43jo7bqfla" x1="0%" x2="99.047%" y1="35.269%" y2="74.505%">
            <stop offset="0%" stop-color="#7054FF"/>
            <stop offset="100%" stop-color="#2669FF"/>
        </linearGradient>
    </defs>
    <g fill="none" fill-rule="evenodd">
        <g fill-rule="nonzero">
            <g transform="translate(-700 -2415) translate(700 2415)">
                <circle cx="20" cy="20" r="20" fill="url(#43jo7bqfla)"/>
                <g fill="#FFF">
                    <path d="M20.692 8.452h-5.157c-.257 0-.465-.208-.465-.465 0-.256.208-.464.465-.464h5.157c.257 0 .465.208.465.464 0 .257-.208.465-.465.465zM20.692 10.37h-5.157c-.129.01-.256-.035-.35-.123-.095-.088-.149-.212-.149-.34 0-.13.054-.254.149-.342.094-.088.221-.133.35-.123h5.157c.13-.01.256.035.351.123.095.088.149.212.149.341 0 .129-.054.253-.149.341-.095.088-.222.133-.35.123zM18.735 12.287h-3.2c-.129.01-.256-.035-.35-.123-.095-.088-.149-.211-.149-.34 0-.13.054-.253.148-.34.095-.089.222-.134.351-.124h3.2c.13-.01.256.035.35.123.096.088.15.211.15.341 0 .129-.054.252-.15.34-.094.088-.22.133-.35.123zM12.38 4.362c0 2.36-1.912 5.205-4.27 5.205-2.357 0-4.272-2.845-4.272-5.205.036-1.5.857-2.873 2.164-3.613 1.307-.741 2.906-.741 4.213 0 1.307.74 2.129 2.112 2.165 3.613zM16.218 16.724c0 3.483-2.193 3.178-8.108 3.178-6.19 0-8.11.305-8.11-3.178 0-3.482 4.628-6.304 8.11-6.304 3.483 0 8.108 2.83 8.108 6.304z" transform="translate(8 10)"/>
                    <path d="M21.952 4.142H9.5c-1.116-.01-2.031.884-2.048 2v1.07H8.4l.001-1.06c.005-.602.497-1.087 1.1-1.082h12.45c.603-.005 1.095.48 1.1 1.082v7.5c.002.292-.112.573-.32.779-.206.206-.486.32-.778.319H9.5c-.29.003-.567-.11-.773-.313-.208-.202-.325-.478-.327-.767v-2.33h-.945v2.32c.017 1.116.93 2.01 2.048 2h12.45c1.115.01 2.03-.884 2.047-2v-7.5c-.003-.539-.22-1.056-.605-1.434-.384-.378-.903-.588-1.443-.584z" transform="translate(8 10)"/>
                </g>
            </g>
        </g>
    </g>
</svg>
