<svg xmlns="http://www.w3.org/2000/svg" width="40" height="40" viewBox="0 0 40 40">
    <defs>
        <linearGradient id="ahdkgr9boa" x1="0%" x2="99.047%" y1="35.269%" y2="74.505%">
            <stop offset="0%" stop-color="#7054FF"/>
            <stop offset="100%" stop-color="#2669FF"/>
        </linearGradient>
    </defs>
    <g fill="none" fill-rule="evenodd">
        <g fill-rule="nonzero">
            <g transform="translate(-1092 -1451) translate(1092 1451)">
                <circle cx="20" cy="20" r="20" fill="url(#ahdkgr9boa)"/>
                <g fill="#FFF">
                    <path d="M14.625 14.875c.35-.475.875-.8 1.475-.925-.675-1.25-1.55-2.275-2.7-3-.151-.075-.3-.075-.425.026-1.15.85-2.576 1.35-4.15 1.35-1.55 0-2.975-.5-4.151-1.35-.125-.076-.3-.1-.425-.026C1.499 12.725.15 16.2.15 20.175c0 1.525 5.35 2.2 10.125 2.025v-4.5c0-1.55 1.25-2.825 2.825-2.825h1.525zM14 5.3c0 2.858-2.317 5.175-5.175 5.175-2.858 0-5.174-2.317-5.174-5.175C3.65 2.442 5.966.125 8.825.125 11.683.125 14 2.442 14 5.3M17.425 18.375c-1.026 0-1.875.85-1.875 1.875s.85 1.875 1.875 1.875 1.875-.85 1.875-1.875c0-1.05-.85-1.875-1.875-1.875zm0 1.35c-.276 0-.526.224-.526.525 0 .2-.15.35-.35.35-.2 0-.349-.15-.349-.35 0-.65.55-1.2 1.2-1.2.2 0 .35.15.35.35.025.175-.15.325-.325.325z" transform="translate(9 8)"/>
                    <path d="M21.75 16.625h-2.8v-.3c0-.35-.3-.65-.65-.65h-1.75c-.35 0-.65.3-.65.65v.3h-2.8c-.6 0-1.1.5-1.1 1.1V22.8c0 .6.5 1.1 1.1 1.1h8.65c.6 0 1.1-.5 1.1-1.1v-5.1c0-.6-.5-1.075-1.1-1.075zm-8.125 2.125c-.275 0-.5-.225-.5-.5s.225-.5.5-.5.5.225.5.5-.225.5-.5.5zm3.8 4.05c-1.4 0-2.55-1.15-2.55-2.55s1.15-2.55 2.55-2.55 2.55 1.15 2.55 2.55-1.15 2.55-2.55 2.55z" transform="translate(9 8)"/>
                </g>
            </g>
        </g>
    </g>
</svg>
