<svg xmlns="http://www.w3.org/2000/svg" width="40" height="40" viewBox="0 0 40 40">
    <defs>
        <linearGradient id="lb1avbvwga" x1="0%" x2="99.047%" y1="35.269%" y2="74.505%">
            <stop offset="0%" stop-color="#7054FF"/>
            <stop offset="100%" stop-color="#2669FF"/>
        </linearGradient>
    </defs>
    <g fill="none" fill-rule="evenodd">
        <g fill-rule="nonzero">
            <g transform="translate(-698 -847) translate(698 847)">
                <circle cx="20" cy="20" r="20" fill="url(#lb1avbvwga)"/>
                <g fill="#FFF">
                    <path d="M21.35 14.25c-.05-.3-.225-.55-.5-.7l-4.826-2.4c-.224.5-.5 1.025-.8 1.599l3.625 1.8L16.9 16.25c-.3.25-.4.675-.25 1.05l1.475 3.275-7.05 1.45-8.875-4.9 1.524-3.375 2.8-.475c-.325-.6-.6-1.174-.85-1.674l-2.7.45c-.3.05-.55.25-.674.5l-2.076 4.6c-.2.424-.025.95.375 1.15l9.925 5.45c.125.075.276.1.425.1.05 0 .125 0 .175-.026l8.474-1.75c.276-.05.5-.224.625-.474.125-.25.125-.526.026-.776l-1.65-3.7L21.072 15c.226-.15.327-.45.276-.75z" transform="translate(9 8)"/>
                    <path d="M11.825 15.25c1.55-2.7 4.25-7.675 4.25-9.776 0-2.95-2.4-5.325-5.325-5.325-2.95 0-5.325 2.4-5.325 5.325 0 2.1 2.7 7.076 4.25 9.776.475.825 1.675.825 2.15 0zm-3.55-9.8c0-1.375 1.125-2.474 2.475-2.474 1.375 0 2.475 1.125 2.475 2.474 0 1.35-1.125 2.475-2.475 2.475-1.375.025-2.475-1.1-2.475-2.475z" transform="translate(9 8)"/>
                </g>
            </g>
        </g>
    </g>
</svg>
