<svg xmlns="http://www.w3.org/2000/svg" width="40" height="40" viewBox="0 0 40 40">
    <defs>
        <linearGradient id="1fuo67moca" x1="0%" x2="99.047%" y1="35.269%" y2="74.505%">
            <stop offset="0%" stop-color="#7054FF"/>
            <stop offset="100%" stop-color="#2669FF"/>
        </linearGradient>
    </defs>
    <g fill="none" fill-rule="evenodd">
        <g fill-rule="nonzero">
            <g transform="translate(-698 -1092) translate(698 1092)">
                <circle cx="20" cy="20" r="20" fill="url(#1fuo67moca)"/>
                <g fill="#FFF">
                    <path d="M22.286 9.402l-1.313-.23c-.166-.527-.379-1.038-.634-1.527l.766-1.092v.001c.535-.76.445-1.794-.213-2.449L19.88 3.094v-.001c-.656-.657-1.69-.747-2.45-.212l-1.092.766c-.489-.256-1-.467-1.526-.633l-.215-1.3c-.154-.919-.95-1.592-1.882-1.591h-1.432c-.931-.001-1.728.672-1.882 1.591l-.23 1.313c-.527.165-1.038.377-1.527.632l-1.092-.766v-.001c-.759-.534-1.793-.444-2.448.213L3.094 4.116h-.001c-.657.657-.747 1.69-.213 2.45l.767 1.092c-.256.489-.467 1-.633 1.526l-1.3.218c-.919.154-1.593.95-1.592 1.883v1.433c0 .931.674 1.726 1.592 1.88l1.313.23c.165.527.377 1.038.632 1.527l-.766 1.092h-.001c-.534.759-.444 1.793.213 2.448L4.12 20.91c.656.658 1.69.748 2.45.214l1.092-.767c.489.255 1 .466 1.526.632l.215 1.298c.16.913.953 1.58 1.88 1.58h1.434c.928.001 1.722-.666 1.882-1.58l.23-1.313c.527-.165 1.038-.377 1.527-.632l1.092.766v.001c.759.534 1.793.444 2.448-.213l1.011-1.011h.001c.657-.657.747-1.69.213-2.45l-.767-1.092c.257-.489.47-1 .635-1.526l1.298-.218c.913-.16 1.58-.952 1.58-1.88v-1.433c.001-.928-.666-1.723-1.58-1.883zm.367 3.314c0 .333-.24.618-.568.675l-1.685.297c-.236.039-.427.212-.49.442-.183.686-.456 1.345-.81 1.96-.118.205-.107.462.029.656l.98 1.403c.192.273.16.644-.076.88l-1.011 1.01c-.236.238-.608.27-.88.077l-1.404-.98h.001c-.193-.135-.446-.149-.651-.034-.615.354-1.275.627-1.96.81-.231.063-.403.255-.443.49l-.297 1.688h.001c-.057.329-.342.568-.676.568h-1.429c-.332 0-.618-.24-.675-.568l-.296-1.688c-.04-.235-.213-.427-.443-.49-.686-.183-1.344-.455-1.96-.81-.206-.12-.464-.108-.659.03l-1.403.98c-.273.19-.643.16-.88-.077l-1.01-1.011c-.236-.236-.268-.607-.076-.88l.98-1.403c.136-.192.15-.447.036-.653-.355-.615-.627-1.275-.81-1.96-.063-.231-.255-.403-.49-.443l-1.683-.294c-.329-.057-.568-.343-.568-.675v-1.432c0-.332.24-.618.568-.675l1.688-.296c.235-.04.426-.213.49-.443.183-.686.456-1.344.81-1.96.118-.205.107-.462-.03-.656l-.98-1.403c-.19-.273-.158-.644.077-.88l1.011-1.01c.236-.237.607-.268.88-.077l1.403.98c.194.136.45.148.656.03.615-.356 1.273-.628 1.96-.811.23-.063.403-.255.442-.49l.297-1.687c.06-.322.34-.555.665-.559h1.433c.334 0 .62.24.677.568l.296 1.688c.04.235.213.426.443.49.685.183 1.344.456 1.96.81.205.118.46.107.656-.03l1.403-.98c.273-.19.643-.158.88.077l1.01 1.011c.236.236.268.607.076.88l-.98 1.403c-.134.191-.149.444-.036.648.355.615.627 1.275.81 1.96.063.231.255.403.49.443l1.688.297v-.001c.329.057.568.342.568.676l-.005 1.429z" transform="translate(8 8)"/>
                    <path d="M13.391 6.546c-.287-.498-.818-.805-1.392-.805-.575 0-1.106.307-1.393.805l-4.22 7.31c-.285.497-.286 1.11 0 1.607.288.496.819.803 1.393.804h8.441c.574-.001 1.104-.308 1.39-.804.288-.497.288-1.11 0-1.607l-4.219-7.31zm3.159 8.305c-.067.12-.194.192-.33.19H7.78c-.137 0-.262-.073-.33-.19-.069-.119-.069-.264 0-.383l4.219-7.31c.068-.12.195-.193.332-.193.138 0 .264.074.332.193l4.217 7.31c.07.119.07.265 0 .383z" transform="translate(8 8)"/>
                    <path d="M12 9.036c-.338 0-.612.275-.612.612v2.139c0 .338.274.612.612.612.338 0 .612-.274.612-.612V9.648c0-.161-.064-.317-.179-.432-.114-.115-.27-.18-.433-.18zM12 13.115c-.338 0-.612.273-.612.612v.034c0 .338.274.612.612.612.338 0 .612-.274.612-.612v-.034c0-.163-.064-.319-.179-.434-.114-.114-.27-.178-.433-.178z" transform="translate(8 8)"/>
                </g>
            </g>
        </g>
    </g>
</svg>
