<svg xmlns="http://www.w3.org/2000/svg" width="40" height="40" viewBox="0 0 40 40">
    <defs>
        <linearGradient id="prefix__a" x1="0%" x2="99.047%" y1="35.269%" y2="74.505%">
            <stop offset="0%" stop-color="#7054FF"/>
            <stop offset="100%" stop-color="#2669FF"/>
        </linearGradient>
    </defs>
    <g fill="none">
        <circle cx="20" cy="20" r="20" fill="url(#prefix__a)"/>
        <path fill="#FFF" d="M30.566 20.868c.01-1.103-.17-2.2-.534-3.244l1.368-.448c-.394-1.184-.973-2.3-1.718-3.305l-1.149.831c-.655-.884-1.447-1.66-2.343-2.302l.845-1.158c-1.025-.73-2.16-1.296-3.363-1.675l-.44 1.355c-1.044-.333-2.135-.503-3.232-.503h-.032V9c-1.257.003-2.506.202-3.701.588l.448 1.353c-1.051.342-2.04.846-2.934 1.493l-.85-1.15c-1.016.737-1.909 1.627-2.646 2.637l1.168.837v-.001c-.649.884-1.154 1.862-1.496 2.901l-1.38-.432c-.385 1.183-.58 2.418-.577 3.66h1.434c.006 1.098.185 2.187.534 3.228l-1.376.446c.391 1.184.97 2.3 1.712 3.305l1.163-.845c.654.884 1.442 1.662 2.338 2.306l-.848 1.155c1.02.732 2.148 1.3 3.347 1.682l.443-1.305c1.048.354 2.146.543 3.253.56v1.369c1.26-.01 2.512-.214 3.706-.607l-.446-1.366h.001c1.051-.343 2.041-.848 2.934-1.496l.848 1.15c1.017-.736 1.912-1.626 2.65-2.638l-1.16-.825c.652-.883 1.16-1.862 1.504-2.901l1.368.438c.398-1.185.6-2.425.595-3.674h-1.434zM20 26.03c-1.384 0-2.711-.544-3.69-1.51-.979-.97-1.529-2.282-1.529-3.651 0-1.37.55-2.682 1.528-3.65.98-.967 2.307-1.511 3.691-1.511s2.711.544 3.69 1.51c.979.97 1.529 2.282 1.529 3.651 0 1.37-.55 2.682-1.528 3.65-.98.967-2.307 1.511-3.691 1.511z"/>
    </g>
</svg>
