<svg xmlns="http://www.w3.org/2000/svg" width="40" height="40" viewBox="0 0 40 40">
    <defs>
        <linearGradient id="7pn2uhc8ia" x1="0%" x2="99.047%" y1="35.269%" y2="74.505%">
            <stop offset="0%" stop-color="#7054FF"/>
            <stop offset="100%" stop-color="#2669FF"/>
        </linearGradient>
    </defs>
    <g fill="none" fill-rule="evenodd">
        <g fill-rule="nonzero">
            <g transform="translate(-1110 -848) translate(1110 848)">
                <circle cx="20" cy="20" r="20" fill="url(#7pn2uhc8ia)"/>
                <g fill="#FFF">
                    <path d="M11.282 14.25c.416-.587.752-1.228 1-1.902.541-.328.872-.913.873-1.545V9.445c0-.376-.119-.742-.338-1.048v-.804c.078-.922-.217-1.836-.817-2.54-.785-.895-2.03-1.35-3.695-1.35s-2.91.455-3.695 1.35c-.596.7-.891 1.61-.823 2.527v.817c-.218.306-.337.672-.337 1.048v1.353c-.003.491.196.963.55 1.304.238.842.622 1.635 1.133 2.345v.965c-.001.158-.087.303-.226.378l-3.014 1.643c-1.13.613-1.832 1.796-1.83 3.082v1.395c0 .133.052.26.146.354.094.093.22.146.354.146H16.03c.133 0 .26-.053.354-.146.094-.094.146-.221.146-.354v-1.33c.002-1.33-.749-2.547-1.94-3.14l-3.228-1.613c-.15-.068-.248-.219-.25-.385v-.982c.063-.068.119-.14.17-.21zm-.367 2.475l3.228 1.615c.853.425 1.391 1.297 1.387 2.25v.827l-14.468.001v-.903c-.001-.918.5-1.764 1.308-2.203l3.015-1.644c.46-.25.747-.729.75-1.25V14.28c0-.11-.035-.218-.103-.305-.51-.678-.883-1.45-1.1-2.27-.026-.107-.087-.204-.174-.272-.197-.152-.312-.387-.31-.635V9.445c0-.2.076-.392.21-.54.082-.093.127-.212.127-.335V7.555v-.058c-.05-.647.158-1.288.577-1.784.588-.67 1.578-1 2.943-1s2.355.34 2.942 1c.413.5.616 1.14.569 1.787v1.055c0 .123.045.24.127.333.134.147.209.34.21.54v1.352c.007.324-.184.621-.483.75-.127.057-.224.163-.27.295-.22.654-.534 1.273-.932 1.837-.077.11-.155.213-.227.3-.075.09-.116.202-.116.318v1.156-.001c-.005.545.302 1.045.79 1.288v.002zM21.688.09H16.1c-1.243 0-2.25 1.008-2.25 2.25v7c0 .2.118.38.301.46.183.079.396.042.541-.095l1.948-1.827h5.047c1.242 0 2.25-1.008 2.25-2.25V2.34c0-1.242-1.008-2.25-2.25-2.25zM16.5 2.412h1.668c.275 0 .5.225.5.5 0 .276-.225.5-.5.5H16.5c-.276 0-.5-.224-.5-.5 0-.275.224-.5.5-.5zm4.168 3H16.5c-.276 0-.5-.224-.5-.5 0-.275.224-.5.5-.5h4.162c.276 0 .5.225.5.5 0 .277-.224.5-.5.5h.006z" transform="translate(8 9)"/>
                </g>
            </g>
        </g>
    </g>
</svg>
