<svg xmlns="http://www.w3.org/2000/svg" width="40" height="40" viewBox="0 0 40 40">
    <defs>
        <linearGradient id="03jymhavra" x1="0%" x2="99.047%" y1="35.269%" y2="74.505%">
            <stop offset="0%" stop-color="#7054FF"/>
            <stop offset="100%" stop-color="#2669FF"/>
        </linearGradient>
    </defs>
    <g fill="none" fill-rule="evenodd">
        <g fill-rule="nonzero">
            <g>
                <g transform="translate(-1140 -5169) translate(1027 5169) translate(113)">
                    <circle cx="20" cy="20" r="20" fill="url(#03jymhavra)"/>
                    <g fill="#FFF">
                        <path d="M5.497 6.449H1.14c-.551 0-1-.448-1-1V1.092c0-.55.449-.999 1-.999h4.358c.551 0 1 .448 1 1V5.45c0 .55-.449.998-1 .998zM1.235 5.353H5.4V1.188H1.235v4.165zM20.862 6.449h-4.36c-.55 0-.998-.448-.998-1V1.092c0-.55.448-.999.999-.999h4.359c.551 0 1 .448 1 1V5.45c-.002.55-.45.998-1 .998zM16.6 5.353h4.165V1.188H16.6v4.165zM13.18 6.449H8.82c-.55 0-.999-.448-.999-1V1.092c0-.55.449-.999 1-.999h4.358c.552 0 1 .448 1 1V5.45c-.001.55-.45.998-1 .998zM8.916 5.353h4.166V1.188H8.917v4.165zM5.497 13.95H1.14c-.551 0-1-.45-1-1V8.591c0-.551.448-1 1-1h4.358c.551 0 1 .449 1 1v4.36c0 .55-.449.998-1 .998zm-4.262-1.098H5.4V8.688H1.235v4.164zM20.862 13.95h-4.36c-.55 0-.998-.449-.998-1V8.591c0-.551.448-1 .999-1h4.359c.551 0 1 .449 1 1v4.36c-.002.55-.45.998-1 .998zM16.6 12.851h4.165V8.688H16.6v4.164zM5.497 21.44H1.14c-.551 0-1-.448-1-.999v-4.359c0-.551.448-1 1-1h4.358c.551 0 1 .449 1 1v4.36c0 .55-.449.998-1 .998zm-4.262-1.096H5.4V16.18H1.235v4.165zM20.862 21.44h-4.36c-.55 0-.998-.448-.998-.999v-4.359c0-.551.448-1 .999-1h4.359c.551 0 1 .449 1 1v4.36c-.002.55-.45.998-1 .998zM16.6 20.344h4.165V16.18H16.6v4.165zM13.18 21.44H8.82c-.55 0-.999-.448-.999-.999v-4.359c0-.551.448-1 1-1h4.358c.552 0 1 .449 1 1v4.36c-.001.55-.45.998-1 .998zm-4.263-1.096h4.166V16.18H8.917v4.165zM13.236 13.994H8.764c-.464 0-.879-.24-1.11-.64-.231-.402-.231-.881 0-1.283L9.891 8.2c.231-.402.647-.641 1.11-.641.462 0 .878.24 1.108.64l2.236 3.873c.232.402.232.88 0 1.282-.23.402-.645.641-1.109.641zM11 8.654c-.04 0-.114.012-.16.093L8.602 12.62c-.046.08-.02.151 0 .186.02.034.068.092.16.092h4.473c.093 0 .141-.058.16-.092.02-.035.047-.104 0-.186L11.16 8.747c-.046-.08-.12-.093-.16-.093z" transform="translate(9 9)"/>
                    </g>
                </g>
            </g>
        </g>
    </g>
</svg>
