<svg xmlns="http://www.w3.org/2000/svg" width="40" height="40" viewBox="0 0 40 40">
    <defs>
        <linearGradient id="15q8kx8pda" x1="0%" x2="99.047%" y1="35.269%" y2="74.505%">
            <stop offset="0%" stop-color="#7054FF"/>
            <stop offset="100%" stop-color="#2669FF"/>
        </linearGradient>
    </defs>
    <g fill="none" fill-rule="evenodd">
        <g fill-rule="nonzero">
            <g>
                <g transform="translate(-553 -5169) translate(442 5169) translate(111)">
                    <circle cx="20" cy="20" r="20" fill="url(#15q8kx8pda)"/>
                    <g fill="#FFF">
                        <path d="M19.384.252H2.616C1.227.252.1 1.378.1 2.767v15.93c0 1.388 1.126 2.515 2.515 2.515h16.768c1.389 0 2.515-1.127 2.515-2.515V2.767c0-1.389-1.126-2.515-2.515-2.515zM4.355 8.959c-.128-.314-.056-.675.185-.914l2.515-2.516c.332-.285.83-.266 1.138.044.31.31.33.806.044 1.139L7.156 7.797h9.294c.463 0 .838.376.838.839 0 .463-.375.838-.838.838H5.13c-.339.001-.645-.202-.776-.515zm13.524 4.88l-2.515 2.515c-.152.177-.371.282-.605.292-.233.01-.46-.08-.625-.245-.165-.165-.254-.392-.245-.625.01-.234.116-.453.293-.605l1.081-1.085H5.97c-.463 0-.838-.376-.838-.839 0-.463.375-.838.838-.838h11.319c.338-.001.644.202.775.515.13.314.057.675-.184.914z" transform="translate(9 9)"/>
                    </g>
                </g>
            </g>
        </g>
    </g>
</svg>
